<?xml version="1.0" encoding="utf-8"?>
<!-- Generator: Adobe Illustrator 19.2.1, SVG Export Plug-In . SVG Version: 6.00 Build 0)  -->
<svg version="1.1" id="图层_1" xmlns="http://www.w3.org/2000/svg" xmlns:xlink="http://www.w3.org/1999/xlink" x="0px" y="0px"
	 viewBox="0 0 151.4 131.7" style="enable-background:new 0 0 151.4 131.7;" xml:space="preserve">
<style type="text/css">
	.st0{fill:#FFFFFF;}
	.st1{fill-rule:evenodd;clip-rule:evenodd;fill:#231815;}
	.st2{fill:#231815;}
	.st3{fill-rule:evenodd;clip-rule:evenodd;}
</style>
<g id="污点矢量包_10">
</g>
<g id="污点矢量包_09">
</g>
<g>
	<path class="st2" d="M90.4,0C102-0.6,107,9,109.1,16.5c1.1,3.8,1.6,7.8,2,11.8c0.5,4.4,1.8,5.7,6,4.5c4.1-1.2,8-3.2,12.1-4.5
		c3.3-1,6.7-1,10-0.1c3.2,0.9,6.9,2.5,9.1,5.1c1.6,1.9,2.6,4.3,2.9,6.7c0.4,3,0,6.4-1.2,9.2c-1,2.4-2.6,4.6-4.4,6.5
		c-1.2,1.2-2.5,2.4-3.8,3.4c-4.7,3.7-10.2,6.1-15.7,8.4c-4.5,1.9-9,3.7-13.2,6.1c-1.2,0.7-2.4,1.4-3.3,2.4s-1.8,2.2-2,3.5
		c-0.3,1.4,0.1,2.9,0.8,4.2c1.9,3.7,5.6,6.3,8.7,8.9c5.9,4.9,7.1,8.5,4.1,15.5c-4.4,10.3-12.2,21.3-24.1,23.2
		c-9.1,1.5-16.7-4.6-20.8-12.2c-1.8-3.3-3.5-6.7-5.6-9.7c-3.7-5.4-8.3-6.6-14.5-4.4c-5.4,1.9-9.7,5.4-13.2,9.9
		c-2.1,2.6-4.1,5.4-6.5,7.7c-4.3,4.2-9.5,6.6-15.6,5.8c-8-1-15.3-6.2-18.8-13.5c-1.7-3.4-2.4-7.1-2-10.9c0.3-3,0.9-6.1,2.2-8.8
		c4.4-9.1,10.3-17.1,18.2-23.5c2.9-2.3,5.8-4.5,8.5-7c1.9-1.7,3.2-4,3.4-6.6c0.2-2.9-0.9-5.9-2.3-8.5c-0.1-0.1-0.1-0.2-0.2-0.3
		c-1.5-2.9-3.5-5.7-4.9-8.7c-4.8-10.3,1.6-20.5,12.9-20.6c4.6,0,9.3,0.4,13.9,0.7c10.3,0.6,19.1-2.1,25.2-11.2
		C80.4,4.9,83.7,0.8,90.4,0z"/>
</g>
</svg>
