<?xml version="1.0" encoding="utf-8"?>
<!-- Generator: Adobe Illustrator 19.2.1, SVG Export Plug-In . SVG Version: 6.00 Build 0)  -->
<svg version="1.1" id="图层_1" xmlns="http://www.w3.org/2000/svg" xmlns:xlink="http://www.w3.org/1999/xlink" x="0px" y="0px"
	 viewBox="0 0 120.2 140.8" style="enable-background:new 0 0 120.2 140.8;" xml:space="preserve">
<style type="text/css">
	.st0{fill:#FFFFFF;}
	.st1{fill-rule:evenodd;clip-rule:evenodd;fill:#231815;}
	.st2{fill:#231815;}
	.st3{fill-rule:evenodd;clip-rule:evenodd;}
</style>
<g id="污点矢量包_10">
</g>
<g id="污点矢量包_09">
	<path class="st1" d="M72.6,9.7c4.3-1.3,0.4-8.9-2.1-9.5c-2.1-0.5-4,0.3-4.5,2.1C65,6.4,68.7,8.8,72.6,9.7z M114.8,7.3
		c-2.2-0.8-3.9,0.2-3.9,1.8C110.9,12.6,117.4,11.3,114.8,7.3z M66.3,8.5c1.1,1.7,1.4,4.2,3.3,5.1C68.9,11.5,68,9.6,66.3,8.5z
		 M14.9,24.6c3.8-4.5-6-4.6-2.1,0H14.9z M119.9,24c-1.1-0.5-2.9-0.4-3.3,0.6C116,28.2,121.7,27.1,119.9,24z M65.1,29.6
		c-1.1,2.1-1.4,4.9-2.1,7.4c1.7-1.6,1.9-4.9,3-7.1C65.7,29.9,65.6,29.5,65.1,29.6z M30,52.2c-0.4-0.4-1.6-1.1-1.8,0
		C28.8,52.1,29.7,53,30,52.2z M115.4,56.4c-1.6-0.2-2.5,0.5-2.4,2.1C114.4,58.3,115.4,57.8,115.4,56.4z M12.5,57.6
		c0.6,1.7,2.2,2.5,4.2,3C15.7,59.1,14.2,58.2,12.5,57.6z M95.2,70.4c-2.2-0.4-5.7,0.4-7.4,1.5C90.2,71.1,93.6,71.2,95.2,70.4z
		 M93.7,99.8c1.1,1.2,2.7,1.9,4.8,2.1C97.7,100.3,95.2,100.6,93.7,99.8z M7.7,101c-0.6,0.7,0.2,2,0.9,2.4C8.6,102.3,8.8,101,7.7,101
		z M105.9,110.2c-2.7-0.2-4.1,1.3-3.6,3.3C103.3,117.5,110.4,113.4,105.9,110.2z M16.7,110.5c0.1,0.9-0.9,0.7-0.6,1.8
		C17,112.6,17.6,110.2,16.7,110.5z M90.1,110.8v0.9c0.7,0.1,1.1-0.1,1.2-0.6C90.9,111,90.7,110.7,90.1,110.8z M31.8,114.4
		c0-0.3,0.1-0.8-0.3-0.9c-1.3,2.9-4.5,4-5.1,7.7C28.8,119.5,30,116.6,31.8,114.4z M93.4,118.2c1,0.5,2,0.2,2.7-0.3v-1.5
		C94.8,115.5,92.9,115.8,93.4,118.2z M114.2,122.4c0.4,0.7,0.8,1.4,2.1,1.2c0.6-0.5,1.1-1.1,0.9-2.4
		C116,120.3,114.3,120.7,114.2,122.4z M81.2,123.9c-0.1,0.9,0.3,1.3,1.2,1.2c0.3-0.3,0.4-0.8,0.3-1.5
		C81.8,123.3,81.9,124,81.2,123.9z M44.6,133.7c-0.3,0.9-1.2,1.6-1.5,2.4c-0.6,1.7-0.5,3.4-0.9,4.8c3.1-3.8,3.6-10.2,5.1-15.8
		c-0.6,0.1-0.7-0.3-1.2-0.3C44.2,126.5,45.5,130.8,44.6,133.7z M27.4,134.9c1.2,1,2.2,2.2,3.3,3.3c3,0.4,4.7,0.7,7.1-0.3
		c0.5-2.5,2.8-3.1,4.2-4.8c-1.8-1.8-2.7-4.5-4.2-6.5C31.8,124,25.6,127.9,27.4,134.9z M64.8,133.4c0.9-0.1,0.9,0.7,1.8,0.6
		c0.8-0.5,1.5-1.1,1.2-2.7C66.4,129.7,63.5,131.4,64.8,133.4z M43.1,133.4c-0.2-0.7,1.4-2,0-2.1C43.5,132.2,42.2,133,43.1,133.4z
		 M21.7,63.2c-1.5-0.9-2.8-2-4.5-2.7C18,61.8,21.5,63.4,21.7,63.2z M8.9,89.4c0-0.9-0.6-1.2-0.9-1.8c-1.1-0.1-1.7,0.2-1.8,1.2
		c0.1,0.8,1.4,0.4,1.2,1.5C8.2,89.6,7.2,89.5,8.9,89.4z M83.3,95c0.4-0.1,1,0.9,0.3,0.9c-1.1-0.4-4.7-1-2.7-2.7
		c1.1-0.2,1.4,2,2.4,0.9c-0.8-0.2-1.3-0.7-1.5-1.5c0.8-0.7,2.3-0.7,3.6-0.9c-0.2-4.9,8-1.9,8.6-5.4c0.8-4.2-9.1-3.3-5.7-9.8
		c-0.4-0.2-0.7-0.5-0.9-0.9c-2.2-0.3-3,0.8-5.1,0.6c-0.2-0.9,0.6-0.9,0-1.5c-1.2,0.4-1.7,0.8-2.1-0.6c0.5-1.1,2.8-0.4,3-1.8
		c-3.6,0.8-7.6,1.1-7.1-3.6c4.5-2.3,6.7-6.8,10.7-9.2c2-1.2,4.1-2.4,4.2-5.1c-3-3.9-5.5,1.9-9.5,1.5c-3.5,1.5-5,5.1-8.6,6.5
		c0.5-0.5,0.4-2.2-0.6-2.1c-1.5,0.2,0.2,2.4-0.3,2.4c-1.7-0.2-0.7-2.2-1.2-3.3c-0.7-1.6-2.3-2.5-1.2-5.1c0.7-0.4,1.7-0.5,2.4-0.9
		c-0.4-1.7,1.7-4.5-0.9-4.8c-0.8,0.4-0.4,1.9-1.5,2.1c-1.8-4.2-0.3-7.9-1.2-12.5c-4.2-3.4-3.9,3.6-6.2,4.8c0-1.5,0.4-1.3,0.6-3
		c-1.9,0.5-0.1,4.9-2.4,5.1c-0.8-2-1-4.5-3.6-4.8c-0.9,2.5,1.7,4,1.5,5.9c3.2-1.4-0.5,3.4-3,2.7c-0.8-0.3-0.6-1.6-2.1-1.2
		c-0.3,2.3,0.9,6.4-2.7,5.4C44.2,47,39,39.6,36.9,29C34,27,35,15.3,30.3,14.7c-3.7-0.5-3,3-2.4,4.8c1.5,4.1,3.4,10.9,4.8,14
		c3.4,8,8.1,14.5,6.2,22.9c-2.1,4.4-7.4,1.4-10.4-0.3c-2.5-1.4-3.5-2.1-3.6-4.8c-5.1-1.2-7.3-6.8-12.5-6.8
		c3.2,7.8,11.8,10.2,17,16.1c0,1.9,0.8,4.5,0,6.2c-2.2-1.2-4.8-1.9-6.8-3.3c1.6,2.4,5.4,2.6,7.1,4.8c-6.1,4.2-16.4,1.7-22-1.2
		c-0.2-0.8,1.4,0.2,1.2-0.6C7,65.8,6.8,67.6,4.8,68c0,0.3,0.1,0.8-0.3,0.9C6.1,74,15.3,71.5,19,74.5c-0.7,0-1.4,0-1.8,0.3
		c0.1,2.1,0.1,2.5,0.9,3.9c-3.6,1.8-5.2,5.5-8.6,7.4c0.6,0.6,2.5-0.6,3,0.6c-1.2,2.3-4.4,4.1-5.1,5.9C5,93.9,1.9,94.4,0,96.2
		c4.5-1,11.3-3.5,14-6.2c1.7,0.4,3.5-0.4,4.2,1.5c-0.6-0.2-1.1-0.5-1.8-0.6c-0.4,0.7,0.7,1.4,0,1.5c-1.9,0-1.1,1.4-2.1,0.3
		c-0.7,1.8,2.6,2.1,3.9,3c-0.9,0.5-2.4,0.4-2.7,1.5c2.6-0.3,7.3-2,11.3-3.3c2.3-0.7,6.1-2,6.5,1.2c0.3,2.5-2.5,2.3-3.3,4.5
		c1.1,0.9,1.9-1.8,3-0.9c-0.5,3.7-3.5,6.4-6.2,8.6c-4,3.2-9.3,6.4-8,12.2c1.5,0.5,3,0.7,4.8,0.3c1.9-2.7,5.1-5.1,7.4-8
		c1.8-2.3,2.7-5.8,5.7-5.7c-0.6,1-1.6,1.8-1.8,3.3c2.7-0.4,2.9-5.8,5.9-6.8c0.8,2.6-2.8,3.3-2.7,6.2c2.9-1,2.6-5.1,5.4-6.2
		c1.4,2.1,3.4,3.6,4.5,5.9c-0.5,3.8-0.6,7.7-0.9,11.6c2.1-1.9,0.2-7.8,2.7-9.2c-0.1,2.6-0.2,5.2,2.4,5.1c1.8-0.5,1.4-3.2,1.8-5.1
		c1.4-1,2.7-1.1,4.5-1.2c0.8-1.6,1.2-4.2,3-3.9c0.2-1.9-0.3-2.5,0.9-3.3c2.7,0.2,3.6,2.4,4.8,4.2c4.1,1.8,6.3,5.6,9.2,8.6
		c0.8,2.6,1.8,5,4.2,5.9c-0.7-4.8-3.6-7.3-3-11.9c-0.6-0.7-2-0.6-2.7-1.2c-0.4-4.2-6.4-12.1-0.9-13.4c3.4-0.8,3.4,1.5,5.9,2.1
		c0.5-0.3,0.9-0.7,1.2-1.2c2,0.5,3.2,1.8,5.7,1.8C85.9,96.3,84.6,94.5,83.3,95z M19,95.3c-0.6-0.9-0.5-2.4,0.6-3.6
		c1.8,1.6,4.3-0.7,5.9,0C24.7,94.2,21.1,94,19,95.3z M21.1,88.8c0.3-0.7,1-1,2.1-0.9C22.7,88.4,22.3,89,21.1,88.8z M25,85.5
		c0,0.7,1.3,0.1,1.8,0.3c-1,1.3-3.5,1.2-5.4,1.8c-0.3-0.6-0.4-1.4-0.6-2.1c1.4-1.1,4.9-3.7,6.8-1.5C27.1,84.9,26.3,85.4,25,85.5z
		 M25.3,81.7c-1-1.2-1.9-2.6-3.9-3c-0.3-5,5.8-3.9,5.7,0.3c0.5,0.7,1.5,0.8,2.1,1.5C28.8,81.8,25.9,80.6,25.3,81.7z M21.7,105.7
		c-1.8,0.7-3.4,1.6-4.5,3C18.9,109.3,21.7,105.7,21.7,105.7z M32.4,113.2c1.1-0.3,1.2-1.6,1.8-2.4C33.1,111.1,33,112.4,32.4,113.2z"
		/>
</g>
</svg>
