<svg version="1.1" xmlns="http://www.w3.org/2000/svg" xmlns:xlink="http://www.w3.org/1999/xlink" x="0px" y="0px" viewBox="0 0 337.5 309" enable-background="new 0 0 100% 100%" xml:space="preserve" preserveAspectRatio="none" width="100%" height="100%">
	<path fill="#fff" d="M332.1,0h-15.6v7.1c0,2-1.6,3.5-3.5,3.5h-14.1c-2,0-3.5-1.6-3.5-3.5V0h-18v7.1c0,2-1.6,3.5-3.5,3.5h-14.1
	c-2,0-3.5-1.6-3.5-3.5V0h-18v7.1c0,2-1.6,3.5-3.5,3.5h-14.1c-2,0-3.5-1.6-3.5-3.5V0h-18v7.1c0,2-1.6,3.5-3.5,3.5h-14.1
	c-2,0-3.5-1.6-3.5-3.5V0h-18v7.1c0,2-1.6,3.5-3.5,3.5h-14.1c-2,0-3.5-1.6-3.5-3.5V0h-18v7.1c0,2-1.6,3.5-3.5,3.5h-14.1
	c-2,0-3.5-1.6-3.5-3.5V0h-18v7.1c0,2-1.6,3.5-3.5,3.5H63.8c-2,0-3.5-1.6-3.5-3.5V0h-18v7.1c0,2-1.6,3.5-3.5,3.5H24.6
	c-2,0-3.5-1.6-3.5-3.5V0H5.4C2.4,0,0,2.4,0,5.4v298.1c0,3,2.4,5.4,5.4,5.4h326.6c3,0,5.4-2.4,5.4-5.4V5.4C337.5,2.4,335.1,0,332.1,0
	z"/>
</svg>
