<?xml version="1.0" encoding="utf-8"?>
<!-- Generator: Adobe Illustrator 19.2.1, SVG Export Plug-In . SVG Version: 6.00 Build 0)  -->
<svg version="1.1" id="图层_1" xmlns="http://www.w3.org/2000/svg" xmlns:xlink="http://www.w3.org/1999/xlink" x="0px" y="0px"
	 viewBox="0 0 151.4 140.8" style="enable-background:new 0 0 151.4 140.8;" xml:space="preserve">
<style type="text/css">
	.st0{fill:#FFFFFF;}
	.st1{fill-rule:evenodd;clip-rule:evenodd;fill:#231815;}
	.st2{fill:#231815;}
	.st3{fill-rule:evenodd;clip-rule:evenodd;}
</style>
<g id="污点矢量包_10">
</g>
<g id="污点矢量包_09">
</g>
<g>
	<path class="st1" d="M74.5,1.8c-1.1,0.3-0.4-1-1.1-1.1c0.1,0.7-0.2,0.9-0.2,1.5C73.7,2.6,74.2,2.1,74.5,1.8z"/>
	<path class="st1" d="M92.4,3.1c0.2-0.5-1.2-0.9-1.1-0.2C91.3,3.3,92.1,3,92.4,3.1z"/>
	<path class="st1" d="M88.5,4c-0.1-0.4,0.3-0.4,0.4-0.6c-0.9-0.1-1.2,0.4-1.7-0.2c-0.2,0.5-0.2,0.8,0,1.3C88,4.6,87.6,3.4,88.5,4z"
		/>
	<path class="st1" d="M96.2,4.4c0-0.5,0-1-0.4-1.1C95.5,3.6,95.5,4.6,96.2,4.4z"/>
	<path class="st1" d="M85.7,4.2c0.1,0,0.2,0,0.4,0c0-0.1,0-0.2,0.2-0.2c0-0.1,0-0.2,0-0.4c-0.1,0-0.2,0-0.2-0.2c-0.1,0-0.2,0-0.4,0
		c0,0.1,0,0.2-0.2,0.2c0,0.1,0,0.2,0,0.4C85.6,4.1,85.7,4.1,85.7,4.2z"/>
	<path class="st1" d="M95.3,4c-0.3,0-0.1-0.5-0.4-0.6c0.1,0.8-0.3,0.4-0.7,0.4c-0.2,0.2-0.2,0.5-0.2,0.9C94.5,4.6,95,4.5,95.3,4z"/>
	<path class="st1" d="M69.2,4.8c0-0.9,1.4-0.4,1.5-1.1c-1.3,0.3-2.3,0.3-3.2,0.2C67.6,4.8,68.8,4,69.2,4.8z"/>
	<path class="st1" d="M90.6,4.2c0.1-0.6-0.4-0.6-0.9-0.6c0,0.2,0,0.5,0,0.7C90.2,4.6,90.1,4.2,90.6,4.2z"/>
	<path class="st1" d="M84.8,4.8C84.9,4.6,85,4.3,85,3.9C84.3,3.7,84.2,4.8,84.8,4.8z"/>
	<path class="st1" d="M86.3,5.4c0.1-0.3,0.3-0.4,0.2-0.7c-0.2,0-0.4,0-0.6,0C85.8,5,85.9,5.3,86.3,5.4z"/>
	<path class="st1" d="M72.1,6.8c-0.3-0.9,0.2-1.5-0.2-2.1c0,0.1-0.2,0.2-0.4,0.2C71.9,6.1,70.8,6.5,72.1,6.8z"/>
	<path class="st1" d="M88.9,6.5c0-0.7,0-1.2-0.4-1.5C88.5,5.6,88,6.4,88.9,6.5z"/>
	<path class="st1" d="M76.4,5.4c-0.4-0.4-0.8,0-0.9,0.4C75.9,5.8,76.3,5.8,76.4,5.4z"/>
	<path class="st1" d="M93.4,7.2c0.3-0.2,0.3-1.5-0.2-1.5C93.1,6,93,6.1,92.6,6.1C92.8,6.5,92.9,7.1,93.4,7.2z"/>
	<path class="st1" d="M96.4,6.8c0.3-0.3,0.2-1.2-0.4-1.1C95.6,6.1,96.1,6.5,96.4,6.8z"/>
	<path class="st1" d="M95.4,7.2c-0.6,0.3-0.8-0.2-1.3,0.2c0,0.2,0,0.4,0,0.6C94.8,8,95.4,7.9,95.4,7.2z"/>
	<path class="st1" d="M66.4,8.5c0-0.5-0.3-0.7-0.6-0.9C65.5,8,65.7,8.7,66.4,8.5z"/>
	<path class="st1" d="M85.2,8c0,0.4,0,0.9,0,1.3C86,9.4,85.6,8.1,85.2,8z"/>
	<path class="st1" d="M76.5,8.2c-0.7-0.1-1,0.2-1.1,0.6C76,8.7,76.6,8.7,76.5,8.2z"/>
	<path class="st1" d="M90.2,8.9c0.4,0.1,0.5,0.5,1.1,0.4c0.1-0.4,0-0.7-0.2-0.9C90.6,8.3,90.4,8.6,90.2,8.9z"/>
	<path class="st1" d="M107.2,8.9c0,0.2,0,0.5,0,0.7C108,9.8,108,8.8,107.2,8.9z"/>
	<path class="st1" d="M66.6,9.7c0.1-0.6-0.4-0.6-0.9-0.6C65.6,9.7,66.1,9.7,66.6,9.7z"/>
	<path class="st1" d="M88,9.1c0.1,1-0.5,1-1.3,0.7c-0.2,0.3-0.5,0.5-0.4,1.1c0.5,0.2,0.6-0.7,0.7-0.2c0.2,0.6,0.2,0.4-0.2,0.7
		c0.4,0.4,0.5-0.1,1.1,0c0-0.2,0-0.5,0-0.7c-0.3,0-0.7,0.1-0.7-0.2c0.9-0.2,2.2,0.1,2.6-0.6C88.7,10.3,88.9,9.1,88,9.1z"/>
	<path class="st1" d="M115.1,9.3c-0.2-0.2-0.7-0.2-1.1-0.2c0.1,0.7,0.3,0.9-0.2,1.3c0.3,0,0.6,0,0.9,0
		C114.5,9.6,115.1,9.8,115.1,9.3z"/>
	<path class="st1" d="M75,10.2c0-0.2,0-0.5,0-0.7c-0.4,0-0.4,0.2-0.7,0.2c0-0.2-0.1-0.4-0.4-0.4c-0.4,0.4,0.1,0.3,0,0.9
		C74.6,10.2,74.5,10,75,10.2z"/>
	<path class="st1" d="M116,10.6c0-0.3,0.3-0.3,0.4-0.6C115.9,9.4,115.2,10.5,116,10.6z"/>
	<path class="st1" d="M85.5,10c-0.1,0.5-0.1,0.9,0.6,0.7C86,10.4,86,10,85.5,10z"/>
	<path class="st1" d="M85.7,11.5c-0.5-1.2-2.8-1.1-3.2-0.2C83.9,10.9,84.8,11.7,85.7,11.5z"/>
	<path class="st1" d="M73.2,14.7c0.7-0.7-0.2-1.2,0-1.5c2.1,0.2,4.2-1.6,6.5-2.1c-1.2,0.1-4-0.3-4.5,0.7c0-0.5,0-1-0.4-1.1
		c0.2,0.7-1,0.1-1.1,0.6c0,0.2,0,0.5,0,0.7c0.5,0.1,0.9-0.7,1.1-0.2c-0.2,0.5-0.9,0.6-1.5,0.7c0-0.5,0-0.9-0.4-0.9
		c-0.1,0.7-0.5,1.1-0.9,1.5C73.2,13.3,72.6,14.2,73.2,14.7z"/>
	<path class="st1" d="M100.9,11.2c-0.6-0.6-0.8,0.3-0.9,0.7C100.5,11.9,100.5,11.3,100.9,11.2z"/>
	<path class="st1" d="M93.4,12.8c-0.2,0-0.2-0.3-0.2-0.6c-0.8,0-1-0.3-1.3,0.4C92.1,12.9,93.1,13.3,93.4,12.8z"/>
	<path class="st1" d="M121.1,12.3c-0.3-0.3-1-0.2-1.1,0.2C120.2,12.8,120.8,12.5,121.1,12.3z"/>
	<path class="st1" d="M87.8,13.2c0-0.4-0.2-0.4-0.2-0.7c-0.8-0.2-0.9,0.3-1.1,0.7C86.9,13.6,87.2,13.1,87.8,13.2z"/>
	<path class="st1" d="M108.7,14.5c0.4,1,1.1,0.2,1.7,0c-0.3-0.9,0-1.2,0.4-1.9c-0.6,0.1-0.6-0.4-0.9,0
		C110.2,13.6,110,14.7,108.7,14.5z"/>
	<path class="st1" d="M70.7,12.6c-0.9,0.1-0.9,1-1.9,0.9c-0.4-0.4,0-0.5,0-0.9c-0.2,0-0.4,0-0.6,0c0.3,1.5-1.9,0.4-1.9,1.7
		c0.5-0.2,0.9,0.4,1.3,0.4C68.7,14.7,70.4,13.6,70.7,12.6z"/>
	<path class="st1" d="M77.5,13c-0.9,0.3-3.2,0.8-3.9,1.9c1.4,0.1,2.3-0.5,3.6-0.9C76.5,13.2,77.1,13.7,77.5,13z"/>
	<path class="st1" d="M64.4,14.1c-0.1,0.2-0.2,0.4-0.6,0.4c0,0.5,0.4,0.6,0.4,1.1c0.9-0.4,1.6-0.6,2.1-0.9c-0.3-0.2-0.7-0.6-1.1-0.2
		c-0.1-0.3-0.3-0.5-0.4-0.7c0.2-0.3,1.1,0,1.1-0.6c-0.7-0.4-1.3,0.5-2.2,0C63.4,14,64.2,13.8,64.4,14.1z"/>
	<path class="st1" d="M117.1,14c0.2,0,0.4,0.1,0.4,0.4c-0.7-0.1-0.8,0.3-1.5,0.2c0-0.2,0-0.5-0.2-0.6c0,0.3-0.4,0.1-0.6,0
		c-0.2,0.2-0.2,0.7-0.2,1.1c0.8,0.2,2.2,0,3.2-0.9c0,0.5-0.1,1.1,0.4,1.1c0.7-0.5,0.1-1.1-0.2-1.7C117.9,13.6,117.4,13.7,117.1,14z"
		/>
	<path class="st1" d="M96.9,14.7c0.5,0.1,0.8-0.1,0.7-0.6C97.2,14.1,96.9,14.2,96.9,14.7z"/>
	<path class="st1" d="M72.2,14.3c-0.4,0.4,0,0.8,0.4,0.9C73,14.9,72.6,14.5,72.2,14.3z"/>
	<path class="st1" d="M71.3,14.7c-0.9,0.5-1.9-0.1-2.4,0.6c1.5-0.8,0.1,1,1.3,1.1c0.4-0.3,0.1-0.7,0-1.1
		C70.6,15.1,71.2,15.2,71.3,14.7z"/>
	<path class="st1" d="M108.5,15.6c0.1,0.2,1.1,0.2,1.1-0.4C109.2,15.3,108.6,15.2,108.5,15.6z"/>
	<path class="st1" d="M86.6,15.5c-0.4,0-0.9,0-1.3,0C85.3,16.5,86.2,15.6,86.6,15.5z"/>
	<path class="st1" d="M72.2,16.6c0.5-0.2,1-0.4,1.1-0.9c-0.7,0.1-0.6,0.1-1.3,0C72,16.1,72.1,16.4,72.2,16.6z"/>
	<path class="st1" d="M106.3,15.8c-0.4-0.4-1.2-0.1-1.3,0.4C105.5,16.2,106.3,16.4,106.3,15.8z"/>
	<path class="st1" d="M79.2,17.1c0.5,0,0.8-0.1,0.9-0.4C79.8,16.5,79.1,16.6,79.2,17.1z"/>
	<path class="st1" d="M111.3,19.4c-0.1-1.2,0.9-1.3,1.1-2.2c-0.4-0.6-0.6,0.7-1.3,0.4C111.3,18.1,110.9,19.1,111.3,19.4z"/>
	<path class="st1" d="M108.2,18.3c0-0.5-0.1-0.9-0.4-1.1c0,0.5-0.1,0.8-0.4,0.9c-0.3-0.7-1.6,0.2-2.1,0
		C105.7,19,107.3,18.4,108.2,18.3z"/>
	<path class="st1" d="M100.1,18.8c0,1,1.1,0.2,1.5,0C100.8,18.8,100.9,18.7,100.1,18.8z"/>
	<path class="st1" d="M102.2,19c0.4,0.4,1.2,0.1,1.3-0.4C102.9,19,102.4,18.3,102.2,19z"/>
	<path class="st1" d="M110.2,18.6c0,0.5,0.1,0.8,0.4,0.9C110.9,19.3,110.9,18.5,110.2,18.6z"/>
	<path class="st1" d="M125.8,19.8c0-0.4-0.2-0.4-0.2-0.7c-0.5,0.2-1,0.2-1.5,0C124,19.9,125,19.7,125.8,19.8z"/>
	<path class="st1" d="M91.5,21.1c-0.1-1,0.9,0,0.9-0.9c-0.7,0-1.4,0-1.7,0.4C91.4,20.3,91,21.1,91.5,21.1z"/>
	<path class="st1" d="M100.5,20.5c0.5,0,1,0,1.1-0.4C101.2,20.2,100.3,19.8,100.5,20.5z"/>
	<path class="st1" d="M72.2,22.4c0.5,0.1,0.8-0.1,0.7-0.6C72.5,21.8,72.2,21.9,72.2,22.4z"/>
	<path class="st1" d="M74.3,22.9c0.9-0.2,1.4-0.5,2.1,0c0-0.4-0.2-0.4-0.2-0.7C75.3,22.2,74.5,22.2,74.3,22.9z"/>
	<path class="st1" d="M125.6,24.8c0.3-0.5,0.9-1,1.7-0.6c-1-0.7-2.6,0-3.7,0.2C124.2,25,125.3,24.2,125.6,24.8z"/>
	<path class="st1" d="M123.1,24.3c-0.4-0.1-1.6-0.5-1.7,0.2C121.8,24.7,122.7,24.5,123.1,24.3z"/>
	<path class="st1" d="M59.5,25.7c0.2,0.2,0.7,0.2,0.9,0c0-0.3-0.1-0.5-0.4-0.6C60.1,25.5,59.5,25.3,59.5,25.7z"/>
	<path class="st1" d="M48.1,27.1c0.3,0.3,0.7-0.1,0.7-0.6C48.4,26.4,48,26.6,48.1,27.1z"/>
	<path class="st1" d="M55.8,26.9c0.4,0,0.2,0.5,0.7,0.4c0-0.2,0-0.5,0-0.7C56.2,26.5,55.9,26.6,55.8,26.9z"/>
	<path class="st1" d="M11.8,29.5c-3.1,0.1-7.2-0.9-9.4,0.6C5.5,29.4,9,30.4,11.8,29.5z"/>
	<path class="st1" d="M19.8,29.7c-2.6,0.5-5.3-0.5-7.7,0.2C14.6,29.9,17.8,30.7,19.8,29.7z"/>
	<path class="st1" d="M25.6,30.1c-0.5-0.1-1.8-0.1-2.4,0.2C23.7,30.5,25.5,30.7,25.6,30.1z"/>
	<path class="st1" d="M28.8,30.2c-0.6-0.4-0.9,0.1-1.7-0.2C27,30.7,28.7,30.5,28.8,30.2z"/>
	<path class="st1" d="M38,30.8c0.3-0.3,0-0.6-0.4-0.7C37.3,30.3,37.4,30.9,38,30.8z"/>
	<path class="st1" d="M14.8,36c-0.2,0.7,1.1,0.7,1.3,0.4c-0.2-0.2-0.6-1-0.9-0.4C16.1,36.1,14.9,36.4,14.8,36z"/>
	<path class="st1" d="M131.6,39.2c0.4,0.1,0.5,0.5,1.1,0.4C132.7,38.8,132,38.8,131.6,39.2z"/>
	<path class="st1" d="M113.8,40.2c0,0.6,0,1.1,0.6,1.1c-0.2-0.6,0-0.4,0-1.1C114.2,40.2,114,40.2,113.8,40.2z"/>
	<path class="st1" d="M30.7,51.4C30.4,51.1,29,51,29,51.6C29.5,51.5,30.5,51.8,30.7,51.4z"/>
	<path class="st1" d="M5.2,55.1c0.6-0.1,1.1-0.1,1.3-0.6C6.1,54.2,5.2,54.5,5.2,55.1z"/>
	<path class="st1" d="M4.3,55.7c-0.7,0.7,0.4,1.8,1.1,1.1C4.5,56.6,5.2,55.8,4.3,55.7z"/>
	<path class="st1" d="M5.6,57.4c0.6,0,0.9,0.5,1.7,0.4C7.4,57.1,5.9,57,5.6,57.4z"/>
	<path class="st1" d="M15.2,67.3c0-0.4,0.5-0.2,0.4-0.7c-0.6-0.4-1.5,0.1-2.4-0.2C13.4,67.2,14.4,66.6,15.2,67.3z"/>
	<path class="st1" d="M119.6,129c0.4,0.1,0.7,0.3,1.3,0.2C121.1,128.6,119.6,128.8,119.6,129z"/>
	<path class="st1" d="M18.3,130.1c0.2,0.7-0.9,0.2-0.7,0.9c0.8-0.4,1.1,0.4,2.1,0C19.6,130.4,18.8,130.4,18.3,130.1z"/>
	<path class="st1" d="M111.2,138c1.8,0.1,3,0.9,3.9,0.4c-0.9-0.6-2.2-0.8-3.2-1.3C112.2,137.9,111,137.3,111.2,138z"/>
	<path class="st1" d="M115.5,138.6c0.4,0.1,1.3,0.7,1.7,0.2C116.8,138.5,115.6,138,115.5,138.6z"/>
	<path class="st1" d="M123.9,140.3c-0.1,0.6,0.6,0.4,0.9,0.6C124.8,140.3,124.4,140.3,123.9,140.3z"/>
	<path class="st1" d="M73.9,6.5c0.3-0.7,0.9-1.1,0.7-2.2c-0.7,0.1-0.6-0.6-0.6-1.1c-0.6-0.1-0.4-0.1-0.9,0
		C74.1,3.9,72.9,5.9,73.9,6.5z"/>
	<path class="st1" d="M93.9,6.8c0.8,0,1.8,0.2,1.5-0.9C94.7,6,93.9,6,93.9,6.8z"/>
	<path class="st1" d="M94.1,9.5c0.5,0.6,0.7,1.5,0,2.2c-0.2-0.5-0.6,0.1-0.9,0c0,0.6,0.5,0.7,1.1,0.7c-0.1-1,2-0.6,2.6-0.7
		c0,0.2,0,0.5,0,0.7c0.9,0.1,0.9-0.6,1.5-0.7c-0.4-0.4-0.4,0.1-0.7,0.2c0.1-0.2,0.2-0.4,0.4-0.6c0.7-0.2,1.2,0.5,1.3-0.2
		c-0.8,0,0-0.3,0-0.6c-1.2,0.1-1.9-0.2-2.6-0.6c0.1-0.3-0.2-1,0.2-0.9c0.2,0,0.3,0.2,0.6,0.2c0-0.9-0.6-0.2-1.1-0.6
		c-0.4,0.6,0.5,1.4-0.2,1.7c-0.1-0.4-1,0-1.1-0.4c0-0.2,0.3-0.2,0.6-0.2C95.7,9,94.6,9.3,94.1,9.5z"/>
	<path class="st1" d="M98.1,14.3c0,0.4,0,0.7,0,1.1c1-0.5,0.1,0.6,0.6,0.9c0.3-0.8,0.6,0,0.9,0.2c0.2-0.4,0.1-1.2,0.9-1.1
		c0.2-0.7-0.8-0.2-0.7-0.7c0.6,0.2,0.7-0.3,1.3-0.2c0.3,0.4-0.5,0.7,0,0.7c0.2-0.5,0.8-0.5,1.5-0.6c-0.1,1.3-1.6,1.9-2.6,1.7
		c0,0.3-0.1,0.4-0.2,0.6c0.7,0.6,1.2-0.6,1.7,0.2c0.2-0.5,0.5-0.8,1.1-0.9c0,0.4,0.2,0.6,0.6,0.6c0-0.1,0.2-0.2,0.4-0.2
		c-0.7-1.2,1-2.8,2.4-1.7c-0.5,0-1,0-1.1,0.4c1.6,0.6,3.4-0.6,3.7-1.5c-0.1,0.3-1.4,0.3-1.5,0c0.3-0.9,2.2-0.3,2.4-1.3
		c-1.5,0.1-2.7,0.4-3.6,1.1c-0.1-0.3,0.5-0.8,0-0.9c-0.3,0.8-0.5,0-0.9,0c-0.2,0.6-1.2,0.4-1.5,0.9c-0.5-0.7-0.8-2.2,0-2.8
		c-0.6-0.7-1.9-0.6-2.4,0.2c2.1-0.1,1,1.6,1.3,2.6c-0.9-0.1-2.5,1-3,0.2C98.8,13.9,98.6,14.2,98.1,14.3z"/>
	<path class="st1" d="M41.2,26.1c0.1-0.2,0.2-0.4,0.6-0.4c0.3-0.7-0.8,0-0.6-0.7c0.8,0,1.3-0.2,1.9-0.4c0.1,0.3,0.3,0.4,0.2,0.7
		c0.8,0.1,0.9-0.6,1.9-0.4c0.3-0.8-1.1,0-1.1-0.6c0.5,0.1,0.1-0.7,0.7-0.6c0.6,0.2,0.6,0.9,1.3,0.9c0.2-0.5,1.2-0.2,1.3-0.7
		c-0.2,0-0.5,0-0.6-0.2c0.5-0.3,1.1-0.5,1.9-0.6c0.1,0.3,0.2,0.3,0,0.6c0.6-0.7,2.5-1.2,3.4-0.9c-0.7,0.5-2,0.5-2.6,1.1
		c1.2,0.4,3.3-0.8,4.3,0.4c0.7-0.5-0.1-1.4,0.6-1.7c0.3,0.3,1.1,0.2,1.1,0.7c0.7,0,0.6-0.9,1.3-0.9c2.9,0.6,5-0.9,7.9-1.1
		c-0.4,1-1.7,1.3-3,1.5c0.8,0.9-1.6,1.3-0.6,1.7c1-0.7,3.2,0.4,4.3-0.9c0.1-1.2-1.3-0.1-1.3-0.4c1.2-0.5,2.9-1.2,4.5-1.1
		c0-0.7,0.5-2.5,1.7-1.9c-0.3,0.7-1.7,0.5-1.1,1.5c0.7-0.2,1-0.1,1.5,0.4c-1.8-0.1-3.9,0.6-4.5,2.4c0.7-0.2,1-0.8,1.5-1.1
		c0.7-0.2,0.6,0.6,1.3,0.4c-0.1-0.4-0.4-1,0.2-1.1c-0.1,1,0.6,0.3,1.1,0.4c-0.6,0.7-0.1,0.2,0.4,0.7c0.2-0.9,1.1-1.6,0.7-2.4
		c1.1-0.7,2,0.3,2.2,1.1c3.2-2.2,8.4-2.8,11.4-3c0,0.4-0.2,0.4-0.2,0.7c2.5-0.9,4-1,6.9-1.3c0.4-0.4-0.1-0.4-0.2-0.7
		c1.2-0.8,2,0.1,3.4-0.2c-0.5,0.5,0,0.9,0.4,1.1c-0.6,0.5-1.1,0-1.5,0.7c-0.4-0.7,0.1-0.7,0.2-1.3c-0.6-0.3-1-0.1-1.5,0.2
		c0.1,0.6,0.7,0.8,0.7,1.5c0.8-0.4,1.1,0.6,1.7-0.2c0.5,0,0.1,1,0.7,0.9c0.3,0,0.1-0.5,0.4-0.6c0.3,0.2,0.1,0.9,0.6,0.9
		c0.1-0.8,0.6-0.5,1.3-0.4c-0.7-0.6,0.2-0.9-0.2-1.5c-0.7-0.2-0.3,0.7-0.9,0.6c-1.1-0.8-0.5-2,0.6-2.4c0,0.4,0,0.7,0,1.1
		c0.8-0.1,0.9,0.6,1.3,0.9c0.1-0.5,0.2-0.8,0-1.5c0.6-0.1,1.4-0.1,1.5-0.7c-1-0.3-1.8,0.5-2.4,0c0.1-0.4,0.5-0.3,0.4-0.9
		c-1-0.2-0.8,0.8-1.5,0.9c-0.3-0.5-1,0.3-1.1-0.2c-0.1-0.5,1,0.2,0.7-0.6c-1-0.2-1.1,0.5-1.7,0.2c0.7-1.2,2.2-0.8,3.4-1.1
		c-0.1-1.3-1.3-0.5-2.1-0.4c-0.3-0.2-0.6-0.3-0.6-0.7c0.5,0,0.9,0,0.9-0.4c-2.1-0.3-3.8,0.2-5.2,0.9c0-0.2,0.2-0.3,0.2-0.6
		c-0.8,0.4-1.3,0.4-2.2,0.2c0.1,0.9-0.5,1.1-0.9,1.5c-0.7-0.4-1.5-0.5-2.2,0c0.2,0,0.5,0,0.6,0.2c-0.2,0.2-0.3,0.6-0.6,0.7
		c-0.3-1.9-2.3,0.4-2.8-0.6c0.5-0.7,2.5-0.7,1.9-1.9c-0.7,0.8-1.9,1.1-3.2,1.3c0.1,0.7-0.2,1-0.6,1.1c-0.3-0.1,0-0.7-0.4-0.7
		c-0.1,0.5-0.7,0.4-0.6,1.1c0.4,0.3,0.7-0.5,0.7,0c-0.2,0.4-0.9,0.4-1.5,0.4c0.1-0.4,0.6-0.4,0.2-0.7c-0.7,0-1.8,0.6-2.2,0.2
		c0.1-0.6,1.2-0.2,1.3-0.7c-1.2-0.7-2,0.3-3.7,0c0,0.3,0.1,0.7-0.2,0.7c-0.3,0-0.2-0.5-0.2-0.7c-0.8,0.7-0.6-0.1-1.3-0.4
		c-0.1,0.4,0.2,1.2-0.2,1.3c-0.4,0.1,0.1-0.9-0.6-0.6c0,0.2,0,0.5-0.2,0.6c-1.6,0.4-4.1,0.3-5.4,0.6c-0.2,0.9,0.8-0.1,0.7,0.4
		c-0.1,0.4-0.6,0.5-0.7,0.9c0.1,0.3,0.7,0,0.7,0.4c-0.3,0.2-0.6,0.3-0.6,0.7c0.3,0.2,1,0,0.9,0.6c-0.4,0-0.7,0-1.1,0
		c0-0.2,0.2-0.3,0.2-0.6c-0.3-0.1-0.9,0.5-1.1,0c1-0.1,0-1.5,0.9-1.9c-2.6-0.6-5.7,1.2-8.6,1.5c-2.8-0.4-5.4,1.1-8.2,1.5
		c-4.9,0.7-10.2,1.2-13.8,3.7C37.4,26.3,40.1,24.7,41.2,26.1z M98.4,18.6c-0.4,0.4-0.4-0.1-0.7-0.2C97.7,17.9,98.6,18,98.4,18.6z
		 M70.4,20.5c0.3-0.6,1.2-0.5,2.1-0.6C72.2,20.7,71.1,20.8,70.4,20.5z M84.8,18.3C84.8,18.3,84.9,18.3,84.8,18.3
		C84.9,18.3,84.8,18.3,84.8,18.3z M83,18.3C83,18.3,83,18.3,83,18.3L83,18.3L83,18.3z M83.2,18.2C83.2,18.2,83.2,18.2,83.2,18.2
		C83.2,18.2,83.2,18.2,83.2,18.2z M83.3,18.2C83.3,18.2,83.3,18.2,83.3,18.2C83.3,18.2,83.3,18.2,83.3,18.2z M83.4,18.1
		C83.4,18.1,83.4,18.1,83.4,18.1C83.4,18.1,83.4,18.1,83.4,18.1z M82.3,18.3L82.3,18.3C82.3,18.3,82.3,18.3,82.3,18.3
		C82.3,18.3,82.3,18.3,82.3,18.3z M85.5,18.2c0.1,0,0.1,0,0.2,0C85.6,18.2,85.5,18.2,85.5,18.2z M86.1,18.1c0.1,0,0.1,0,0.2-0.1
		C86.2,18.1,86.2,18.1,86.1,18.1z M86.7,17.9c0.1,0,0.1,0,0.2-0.1C86.8,17.8,86.8,17.9,86.7,17.9z M87.8,18.8
		c0.5-0.8,2.4-0.1,3.2-0.6C90.3,18.9,88.9,18.7,87.8,18.8z M95.1,14.7c-0.2,0.4-0.3,0.9-1.1,0.7C94,14.9,94.6,14.9,95.1,14.7z
		 M93,16.4c-0.1,0.3-0.7,0-0.7,0.4c0.3,0.6,0.9-0.8,0.9,0.4c0.7-0.1-0.1-0.9,0.2-1.7c0.6,0.1,0.4,1.1,0.6,1.7
		c-0.5-0.1-0.4,0.4-0.7,0.4c-0.6-0.1-1.1-0.3-1.9-0.2c0.3-0.5,0.9-0.8-0.2-0.9C91.6,15.7,92.9,15.9,93,16.4z M90.8,15.3
		c0,0.5-1.2,1.4,0,1.3c-0.2,0.2-0.2,0.5-0.2,0.9c-0.8-0.1-1.1,0.3-1.9,0.2c-0.1-0.4-0.6-0.1-0.2-0.6c-0.8,0.2-0.6,0-1.5,0
		C88.4,16.6,89.5,15.9,90.8,15.3z M80.5,18.8c0,0.5-0.6,0.4-1.1,0.4C79.4,18.7,80,18.8,80.5,18.8z M61.4,21.4
		c-0.9-0.2-0.8,0.6-1.7,0.4C59.8,21.2,61.3,20.3,61.4,21.4z M54.5,22.4c0.1-0.6,0.6-0.9,1.3-0.9C55.6,22.1,55.1,22.3,54.5,22.4z
		 M58.2,22.2c-0.7-0.2-1,0.3-1.3,0C57,21.6,58.3,21,58.2,22.2z"/>
	<path class="st1" d="M39.5,22.9c-0.1-1.2,1.6-1.4,2.1-0.9c-0.1-1.2,1-0.9,1.5-0.6c0.3-0.5-1-0.5-0.4-0.7c0.6-0.2,0.7,0.3,1.3,0.2
		c0.5-0.9,1.8-0.9,2.2-1.7c0.5,0.6-0.5,0.7,0,1.3c0.8,0.1,0.7-0.2,1.3,0c0.3-1.2,1-1.9,2.1-2.2c0.2-0.5-0.7-0.6-0.2-0.7
		c0.3-0.1,1.2,0.3,1.1,1.1c-0.7-0.3-1.2,0.2-1.1,1.1c1.6-0.1,2.6-0.9,3.9-1.3c0.1,0.5-0.4,0.4-0.4,0.7c0.8-0.4,1.6-1.4,2.2-0.4
		c-0.4-0.9,0.8-1.5,1.9-1.9c0.2-0.6-0.3-0.5-0.4-0.7c0.5-0.3,1.4,0.1,1.7-0.7c-1.8-1.2-3.2,1-5.4,0.6c-0.1,0.2-0.2,0.4-0.4,0.6
		c-1.9-1-4.2,1-6.5,1.5c-3.3,0.8-6.8,2.3-8.4,3.9C37.7,22.8,38.5,23,39.5,22.9z M50.9,17.1c0.4,0,0.9,0,1.3,0
		c-0.4,0.3-0.8,0.6-1.3,0.7C50.9,17.6,50.9,17.4,50.9,17.1z"/>
	<path class="st1" d="M142.8,101.2c0-0.8,0.1-1.4,0.2-1.7c3.2,0.5,5.4,2,8.2,2.8c0.7-1-0.5-1-0.4-2.1c-1-0.1-1.9-0.9-3-0.4
		c-0.2,0.6,0.6,0.1,0.4,0.7c-0.8-0.3-0.7-0.7-1.5-0.2c-0.3-0.5-0.5-0.9,0-1.3c-2.1-0.3-3.6-1.9-4.3-4.1c0.8-0.2,0.9,0.2,1.1,0.6
		c0.2-0.5,0.3-0.2,0.7-0.2c0.6-0.3-0.6-0.8,0-1.1c0.8-0.3,0,1,0.7,0.7c0.4-0.3,0.1-0.7,0-1.1c0.8,0.2,0.8-0.3,0.7-0.9
		c0.6,0.1,0.8-0.2,1.1-0.4c0.1-0.6-0.2-0.7-0.2-1.1c-0.5,0-0.9,0-0.9-0.4c0.1-0.4,0.5-0.5,0.4-1.1c-0.2,0-0.5,0-0.6-0.2
		c-0.1-0.6,0.7-1.4,0.4-2.2c0.9-0.1,0.9-1.3,1.3-1.9c-0.7-0.8-0.5-2.5-1.3-3.2c0.1-0.4,0.7-0.1,0.6-0.7c-0.4,0.1-0.7,0-0.7-0.4
		c0-0.6,1-0.4,1.1-0.9c-0.1-0.8-0.8-1.1-0.6-1.7c-0.3-0.3-1-0.2-1.1-0.6c0.4-0.2,0.4-0.8,0.7-1.1c-0.7,0.3-0.9-1.6-0.2-1.5
		c0-0.6-0.5-0.8-0.7-1.1c0.7-0.4,0.1-0.5-0.2-0.9c2.3-1.4-1.3-3.3-0.7-5.1c0.2,1,0.6-0.4,1.1-0.2c-0.5-1.5,1-2.4,0.7-4.3
		c-1.9-0.4-3.6,0.3-5.8,0.2c0.1-0.1,0.4-0.9,0-0.9c-0.1,0.2-0.2,0.4-0.6,0.4c-0.2-0.3-0.2-0.5,0-0.7c-1.2,0-2.4,0-3-0.6
		c0.7-0.4,1.8-0.3,2.2-0.4c0-0.7-0.6-0.9-0.9-1.3c0.2-0.3,0.7-0.3,0.7-0.7c-0.6,0-1.3,0.1-1.5-0.4c0-0.6,0.5-0.6,0.4-1.3
		c-0.6-0.5-2.1-0.2-2.4-0.9c0.2-0.4,1.3,0.1,1.5-0.4c-0.5-0.2-0.6,0.1-0.7-0.2c-0.1-0.6,0.8-0.2,0.6-0.9c-0.2-0.5-0.7-0.6-0.9-0.9
		c0.6-0.1,1.6,0.2,1.9-0.2c-0.3-0.4-1.1-0.4-1.5-0.7c1.2-0.5-0.2-1.4,0.4-2.2c-0.6-0.4-1.1-0.9-1.5-1.5c0.2-0.6,0.9-0.6,0.9-1.3
		c-0.5-0.6-1-1.1-1.9-1.3c0.2-0.2,0.5-0.2,0.9-0.2c0.2-0.6-0.6-0.3-0.6-0.7c0.7-0.1,1-0.5,1.3-0.9c-0.5-0.3-0.8-0.9-0.6-1.5
		c-0.6-0.7-2.7,0.1-3-0.9c-1.2,0-2.9,0.3-3.6,0.4c-2.1,0.3-2.5-1.7-3-2.4c-0.2-0.3-0.7-0.1-0.7-0.6c0-0.3,1.3-0.6,0.6-1.1
		c0.6,0,1.1-0.1,1.1-0.7c-0.8-0.8-2-1.2-2.6-2.1c0.9,0,2.5,0.1,1.9,0.9c1.1-0.1,1.7,0.3,2.1,0.9c0.6-0.3,1.2-0.4,1.5-0.9
		c-0.6-0.4-1.8-0.1-2.4,0c-0.2-0.4-0.3-0.8-0.6-1.1c-0.8,0-1.7,0-1.9-0.6c1.1-0.1,2.6,0.2,3.2-0.4c0.3,0.1,0,0.9,0.4,0.9
		c0.1-1.2,2.4-0.1,3-0.7c-2-0.8-4.1-0.5-6.5-0.9c0.4-3,3.5-0.3,5.1-1.9c0.8,0,1.7,0.6,1.9-0.4c-0.9-0.2-1.8,0.2-2.2-0.7
		c0.5,0.1,0.8-0.1,0.7-0.6c-1.4-1-2.7-1.2-4.3-1.7c0.8,0.2,0.9-0.3,1.5-0.4c0.1,0.2,0.2,0.4,0.4,0.6c0.4-0.5,1.6-0.2,2.1-0.6
		c-1.1-0.6-3.2-0.2-3.7-1.3c0.3-0.1,0-0.7,0.4-0.7c0.9-0.1,1.3,0.3,2.2,0.2c0.3-0.2,0.3-1.1,0-1.3c-0.8-0.1-1,0.5-1.7,0.6
		c-1.9-1.2-6.4,0.5-7.7-1.7c0.6,0,1-0.3,1.3-0.6c-0.8-0.2-0.9,0-1.9-0.2c-0.4,0.3-0.5,1-0.9,1.3c-0.4-0.1-1.2,0.2-1.3-0.2
		c0.4-0.2,0.9-0.3,0.7-1.1c-0.9-0.6-1.5,0.5-2.6,0.2c-0.4-1.5-0.6-4.1,1.7-3.6c-0.3,0.1,0,0.9-0.4,0.9c-0.7,0-1.1,0.1-1.3,0.6
		C115,22.7,116,22,117,22c0.2-0.7-0.4-0.6-0.6-0.9c0.3-0.2,1.2,0.1,1.1-0.6c-0.2-0.6-1.4-0.3-0.9-1.5c-0.9,0.3-0.6-0.1-1.3-0.4
		c0,0.2,0,0.5-0.2,0.6c0.3-0.9-1.1-0.6-0.9,0c0.4,0.6,1.1,0.7,1.7,0.2c0,0.4,0.5,0.2,0.4,0.7c-1.2,0.1-2-0.5-2.4-0.2
		c0-0.3,0-0.6,0-0.9c-1.4,0.4,0.2,3-0.9,3.4c-0.2-0.4-0.9-0.3-1.1-0.6c-0.2-1,0.7-1,0.9-1.5c-2.4,0-4.3,0.8-6.9,0.9
		c0.2-0.6,0.8-2.1-0.2-2.2c-0.2,0.7,0.5,1.1-0.2,1.3c-0.2-0.5-0.3-1-0.9-1.1c-0.3,0.5,0.1,0.7-0.4,1.1c0.3,0.2,0.7,0.1,0.6,0.7
		c-0.6,1.2-2.7-0.2-3.6,0.7c0.5,0.1,1,0.3,1.3,0.6c-0.8,0-0.9,0-1.5,0.6c-0.3-0.3-0.4-0.9-0.2-1.1c-2.2,0.6-4.3,1.3-5.8,0
		c0.4,0.3,0.9-0.2,1.1-0.6c-2.2-0.1-4.2,0.8-5.8,0.7c0.1-0.4,0-0.7-0.4-0.7c0,0.4-0.7,0.1-0.9,0.2c-0.4,0.3,0.3,0.8-0.4,0.9
		c-2,0-4,0-5.6,0.4c-0.1,0-0.1,0-0.2,0c-0.5,0.2-1.1,0.2-1.1,0.7c0.3,0.1,1.1-0.2,1.1,0.2c-0.8,0.4-0.5,0.6-0.9,1.3
		c-0.1-0.7-0.9-0.6-0.6-1.7c-2.1-0.1-4.4-0.1-7.1,0.4c-0.2-0.3,0-1-0.6-0.9c0.4,1.3-1.1,0.8-1.1,1.7c-2.4,0.1-5,0.7-7.7,1.3
		c0.7,2.6,3.9-0.9,4.5,0.4c-1.1-0.4-0.8,0.7-1.1,1.1c-0.6-0.9-2.9,0.8-3.7-0.4c-0.2-0.7,0.3-1,0-1.3c-2.8,1-7,2.8-9.7,2.1
		c-0.7-0.1-0.5,0.7-1.1,0.6c-1.5-0.7-3.6,1.4-4.7-0.7c-0.5,2-3.5,0.1-4.3,0.7c0.5-0.3,0.8-0.8,0.9-1.5c1.1,0.4,1.8-0.9,3.2-0.4
		c0-0.3,0-0.6,0-0.9c-3.6,0.3-7.5,1.9-10.9,3c-6.2,0.8-12.5-0.2-19.1-0.2c-5.8,0-14.9-1-18.5,1.7c0.5,0.8,0.2,1.3,0.9,1.7
		c0.3-0.4,0.5-0.9,0.7-1.3c-0.4-0.3-0.7,0.5-0.7,0c0.7-0.8,1.7-1.6,3-1.7c1.1-0.1,2.3-0.1,3.6-0.1c0,0,0,0,0,0.1c0.1,0,0.2,0,0.4,0
		c0,0,0.1,0,0.1,0c0.1,0,0.2,0,0.2,0c0,0,0.1,0,0.1,0c0.1,0,0.1,0,0.2,0c0,0,0,0,0.1,0c0.1,0,0.2,0,0.2,0c0,0,0,0,0,0h0c0,0,0,0,0,0
		c0,0,0,0,0,0c5.1,0.4,10.9,1.4,14.4,0.4c0.1,0.4,0.5,0.5,0.9,0.6c2.3-0.6,3.2,0,5.6,0c0.1,0.5-0.3,0.4-0.2,0.9
		c0.5,0.2,1,0.2,1.3-0.2c0-0.8,2.8-0.9,3.4-0.6c-0.3,0-0.4,0.2-0.4,0.6c1,0.8,2.8,0.1,3.7-0.4c0.4,0.3,0.8,0.6,0.9,1.1
		c-3,1-6,0.9-8.4,2.4c2.1,0.2,4.8-0.6,7.1-0.9c-0.2,0.5,0.5,0.8,0,0.9c-0.8-0.6-1,0.5-2.1-0.2c-0.9,1.2-3.4,0.7-4.3,1.9
		c1.2-0.3,2.6-0.2,3.6-0.7c0,0.8,0.7,0.8,0.9,1.3c-0.6-0.4-1,1.7-2.1,0.7c-0.1-0.4,0.5-0.2,0.6-0.6c-1.1-0.3-0.9,0.1-1.5,0.6
		c-3.9-0.5-8.4-1.3-12.2-1.3c0.6,0.2-0.2,0.6,0,1.1c4.7,0.2,9.7,0,13.1,1.1c-1.4,0.5-3.1,0.8-4.7,1.5c1.2,1.5,4.9-0.3,6,0.9
		c0.3-0.3,1.1-0.7,1.5-0.4c-0.1,0.5-0.4,0.8-0.6,1.1c-4,0.3-8.4-0.5-12.5-0.7c-0.1-0.4-0.7-0.1-0.6-0.7c-0.6-0.1-0.4,0.6-1.1,0.4
		c-3.7-0.5-7.5-0.9-10.5-2.1c0-0.4-0.2-0.4-0.2-0.7c-1,0.4-2-0.4-3-0.6c-0.8,1-2.3,1.4-2.4,3.2c0.7-0.1,0.5,0.7,1.1,0.6
		c0.7-0.2,1.2-0.9,1.1-1.3c1.9,0.2,2,1.8,0.9,3c-0.6-0.5-1.2,0.1-2.1,0c0.3,1.8-0.9,3.2,0,4.5c0.9,0,1.3-0.5,1.5-1.1
		c1.8-1.1,4.6-2.1,6.2-0.9c0.1-0.6-0.6-0.5-0.2-0.9c2.4,0.4,5.4,1.1,6.4,2.2c-5-0.8-8.7,1.9-13.8,2.1c-0.2,1.2-0.1,1.9,0,3.2
		c0.9,0.2,1.3-1.4,1.9-0.4c-1.1,0.2-1.6,1.1-2.1,2.1c0.8-0.7,1.6-1.4,3-1.5c0.5,1.6-1.4,0.8-1.5,1.9c0.7-0.1,1.3,0.1,1.5,0.6
		c-0.3,0.5-1,0.5-1.1,1.1c0.5,0.1,1.1,0.2,1.3,0.6c-0.3,0.1,0,0.7-0.4,0.7c-0.8,0.2-1.5-0.6-2.1,0c1,0.5,2.1,0.8,2.2,2.1
		c-0.3,0.5-1.6-0.1-1.9,0.4c0.4,0.2,0.8,0.4,1.1,0.7c-0.1,0.8-0.3,1.7-0.5,2.6c0.3-0.3,0.6-0.8,0.7-1.4c-0.1,0.6-0.4,1.2-0.7,1.4
		l0,0c0,0,0,0,0,0c0,0,0,0,0,0c-0.2,1.1-0.3,2.2,0.2,3.2c-1,2.1-3.1,3-4.1,5.1c0,0,0,0,0,0l0,0l0,0c0,0,0,0,0,0
		c-0.1,0-0.1,0.1-0.1,0.2c0,0,0,0.1-0.1,0.1c0,0,0,0.1,0,0.1c0,0.1,0,0.2,0,0.3c0,0,0,0,0,0c-0.1,0.4-0.2,0.9-0.2,1.5
		c3.7,2.5,9.3,3.1,13.3,5.4c0.2,1.3-0.4,2.3,0.4,2.8c-0.6-0.1-0.6,0.3-1.1,0.2c0.1,0.6,0.3,0.9,0.6,1.3c-1.6,1.5-3.1,3-5.1,4.1
		c0,0.7,0,1.4,0,2.1c1,0.9,2.6,1.2,4.3,1.5c0.5,0,0.9,0,1.1,0.2c0,0.3,0.5,0.2,0.7,0.2c-1.3,1.9,0,5.3-1.5,6.7
		c-0.5,0.2,0.5,0.6,0.4,1.1c-1.2,0.5-1.7,1.9-2.8,3.2c-1.9,2.1-5.4,3.5-4.5,7.3c4.2,2.2,9.1,3.7,13.8,5.4c0.1,0,0.1,0,0.2,0
		c1.9,0.6,2.6,2.2,5.4,1.9c0.1,0,0.1,0,0.2,0c0,0.4,0.6,0.1,0.6,0.6c-0.6,0-1.1,0-1.7,0c-0.2,0-0.5,0-0.7,0
		c-0.5-0.1-0.4,0.4-0.7,0.4c0.1,0.6,0.5,0.8,0.7,1.3c0.4,0,0.7,0,1.1,0c0.1,0,0.1,0,0.2,0c0.5,0.3,1.3,0.3,2.1,0.4
		c1.3,0,2.4,0.2,3.6,0.4c0,0.5,1.2-0.2,1.1,0.4c-1,0.5-3.1-0.1-4.1,0.4c-0.5,0-1,0-1.5,0c-0.4-0.5-1.4,0-1.7,0.2
		c0.2,0.5,0.3,1.1,0.7,1.3c0.8,0,1.3,0.2,1.9,0.4c-0.1,0.5,1-0.1,0.9,0.4c-0.9,0.1-2.1-0.2-2.4,0.4c0.5,0.5,1.7,0.2,2.2,0.6
		c-0.3,0.3-1,0.2-1.5,0.2c0.8,1.1,2.8,0.6,4.3,0.7c2.2,0.3,5.2,0.8,7.3,0.6c0.1,0,0.1,0,0.2,0c0.9,0.5,2.8,0.1,3.6,0.7
		c-4.3,0.9-9.4,0.3-13.3,0c0.3,1.2,2.3,0.7,3,1.5c-1.2-0.2-1.9,0.6-0.9,1.1c0.3,0.9,1,1.5,2.1,1.7c0.8,0.5,2.1,0.5,3,0.9
		c0.6,0.3,1.5,0.4,2.4,0.4c0.1,0,0.1,0,0.2,0c1,0.2,3.1,0.4,3.9,0.2c1.5,0,2.6-0.4,3.9,0c2.3-0.1,3.7,0.2,5.4-0.4
		c0.6-0.4,1.6-0.1,2.2,0c0.7,0.6,1.6-0.2,2.6,0c0.1,0,0.1,0,0.2,0c0.7,0.4,2.2,0.1,3.2,0.2c0.1,0,0.1,0,0.2,0
		c2.2,0.2,4.6,0.4,7.1,0.5c-0.1,0-0.1-0.1-0.2-0.1c0.1,0.1,0.1,0.1,0.2,0.1l0,0l0,0c0.1,0,0.2,0.1,0.2,0.1c0,0,0,0,0,0
		c0.1,0,0.2,0,0.3,0c2.1,0.1,4.2,0.2,6.2,0.4c-0.1-0.2-1-0.5-0.6-0.6c1.9,0.5,2.9,1.4,4.9,0.7c0,0.3,0.1,0.4,0.2,0.6
		c3.3-0.4,5.9,1.6,8.6,0.6c0.2,0.5,0.6,0.8,1.1,0.9c4.3,0.2,7.4,1.7,11.2,2.1c0.1-0.3-0.3-0.5,0-0.6c0.8,1.1,2.5,1.3,3.7,1.9
		c0.4-0.1,0.3-0.6,0.9-0.6c1,1.4,2.2,1,3.4,1.7c0.2-0.2,0.4-0.4,0.6-0.6c-1.8-0.8-3.9-1.3-5.6-2.2c-0.5,0.2,0.3,0.6-0.2,0.7
		c-0.7-1.2-2.7-1.2-3.6-2.2c0.8-0.7,1,0.5,1.9,0.4c0-0.2,0.1-0.4,0.4-0.4c-0.5-1.7-2.4-1.9-3.6-3c1.1-0.2,1.3,0.6,2.4,0.4
		c0.3-0.7-0.5-0.4-0.6-0.7c0.5-0.4,1.6-0.2,1.9,0.2c-0.3,0-0.7-0.1-0.7,0.2c0.9,0,1,0.7,2.1,0.6c0.3-0.7-0.8-0.1-0.7-0.6
		c1.8-0.4,3,1.7,4.7,0.7c-0.4-0.1-0.8-0.2-0.9-0.6c2.7-0.1,5.3,1.2,8,1.7c0-0.5,0-1,0-1.5c0.3-0.3,1.1-0.1,1.7-0.2
		c0.4,0.3-0.2,0.5,0.2,0.9c0.8-0.2,1.5,0.8,2.1,0.2c-0.4-0.3-1.2-0.2-1.1-0.9c1.6,0.5,2.1,0.5,3.9-0.2c-2.2-0.4-3.8-0.4-6-0.9
		c0.5-0.4,1.3-0.7,1.9-0.2c-0.5-1.5-4.4-0.7-4.5-2.1c2.2,0.7,6.5,0.2,8,1.3c-0.5,0-1.3-0.2-1.3,0.4c1.2,0.6,3.4-0.9,4.1,0.6
		c-0.7-0.1-0.7,0.6-1.1,0.7c1.5-0.1,2.9-0.3,3.4-1.5c-0.6-0.2-1-0.5-1.5-0.7c0.1-0.3,0.9,0,0.7-0.6c-0.1-0.6-1-0.4-1.1-0.9
		c0.7,0,0.7-0.6,1.3-0.6c0.1-0.8-0.9-0.4-0.7-1.1c1.5,0.1,0-1.7,1.1-1.9c-0.9-1.1,0.1-2.4-0.6-3.9c1,0.2,0.8-0.7,1.5-0.7
		c6.3,1.5,12.1,2.5,18.5,3.7c0-0.3,0.4-0.2,0.6-0.4c-0.2-2.7-2.8-2.2-5.1-2.4c-1-0.1-2.4-0.7-3.7-0.9c-4.2-0.6-8.2-1.4-10.7-3.2
		c0.3-0.2,0-1.1,0.6-1.1c4.2,0.8,9.2-0.3,13.3,2.1c0.3-0.3,1.2-0.1,1.1-0.7c-0.4-0.1-1.3,0.3-1.1-0.4c0.1-0.4,1.2,0,0.9-0.7
		c-0.5,0-0.9,0-0.9-0.4c-0.1-0.8,0.6-0.6,0.2-1.3c0.5,0,1,0,0.9-0.6c0-0.3-0.3-0.4-0.7-0.4c-0.1,0-0.2,0-0.4,0
		c-0.2-0.4-1.1-0.1-1.1-0.6c0-0.7,1-0.4,1.3-0.7c-0.6-0.2,0-0.5-0.6-0.9c1.6-0.5,1.1-3.1,0.2-3.6c1.1-0.7-0.5-1.2-0.6-1.9
		c0.1-0.6,0.9-0.5,0.9-1.1c-0.2-0.6-0.9-0.6-0.7-1.5C142.2,101.5,142.3,101.2,142.8,101.2z M9.4,28.4L9.4,28.4L9.4,28.4z M9.4,28.4
		C9.4,28.4,9.4,28.4,9.4,28.4C9.4,28.4,9.4,28.4,9.4,28.4z M9.3,28.4C9.2,28.4,9.2,28.4,9.3,28.4C9.2,28.4,9.2,28.4,9.3,28.4z
		 M9,28.4C9,28.4,8.9,28.4,9,28.4C8.9,28.4,9,28.4,9,28.4z M8.6,28.4c0,0-0.1,0-0.1,0C8.6,28.4,8.6,28.4,8.6,28.4z M8,28.3
		C8,28.3,8,28.3,8,28.3C8,28.3,8,28.3,8,28.3z M7.9,28.3C7.9,28.3,7.9,28.3,7.9,28.3C7.9,28.3,7.9,28.3,7.9,28.3z M7.8,28.3
		C7.8,28.3,7.8,28.4,7.8,28.3C7.8,28.4,7.8,28.3,7.8,28.3z M9.2,28.5C9.2,28.5,9.2,28.5,9.2,28.5C9.2,28.5,9.2,28.5,9.2,28.5z
		 M9.4,28.5C9.4,28.5,9.4,28.5,9.4,28.5C9.4,28.5,9.4,28.5,9.4,28.5z M99.9,131.3c-0.3,0-0.4,0.2-0.7,0.2c0-0.2,0-0.3,0.2-0.4
		c-0.2-0.5-0.8-0.6-1.1-0.9c0.4-0.3,1.4-0.6,2.1-0.4c0.2,0.7-0.8,0.2-0.9,0.6C99.2,131,100.1,130.6,99.9,131.3z M87.1,130.9
		c0.5,0.2,1.2,0.2,1.6,0.6l0,0C88.3,131.1,87.7,131.1,87.1,130.9z M88.4,131.5C88.4,131.5,88.4,131.5,88.4,131.5
		C88.4,131.5,88.4,131.5,88.4,131.5z M88.2,131.5C88.1,131.5,88.1,131.5,88.2,131.5C88.1,131.5,88.1,131.5,88.2,131.5z M87.9,131.6
		C87.9,131.6,87.9,131.7,87.9,131.6C87.9,131.7,87.9,131.6,87.9,131.6z M4.9,71c-0.1-0.2-0.2-0.3-0.2-0.6c4.3-1.6,10.5-0.1,13.1,2.2
		c-1.1,0.1-1.9-0.5-2.4,0.4c0.6,0.4,1.8,0.3,2.2,0.9c-0.4,1.6-4.3,0.5-5.2-0.2C9.1,73.6,7.5,71.9,4.9,71z M19.7,40.7
		c0.5-0.7,2.4,0.1,3.6,0C22.4,41.6,21,40.4,19.7,40.7z M15.7,40.9c-0.4,0.6-1.5,0.3-1.9,0C14.2,40.5,15.3,40.8,15.7,40.9z M123.9,28
		c-0.3,0.3-0.6,0.5-1.1,0.6c-0.2-0.3-0.1-0.7-0.7-0.6c0.4,0.7-1.2,0.7-2.6,0.6C120.3,27.3,122.2,27.5,123.9,28z M141.5,106.2
		c0.1,0,0.2,0,0.3,0C141.7,106.2,141.6,106.2,141.5,106.2z M141.7,106.6C141.7,106.6,141.7,106.6,141.7,106.6
		C141.7,106.6,141.7,106.6,141.7,106.6z M142,107.3C142,107.2,142,107.2,142,107.3C142,107.2,142,107.2,142,107.3z M141.9,106.9
		C141.9,106.9,141.9,106.9,141.9,106.9C141.9,106.9,141.9,106.9,141.9,106.9z M141.8,106.2c-0.1-0.1-0.2-0.1-0.3-0.2
		C141.6,106.1,141.7,106.1,141.8,106.2L141.8,106.2z M141.5,106.2c0,0-0.1,0-0.1,0C141.4,106.3,141.5,106.2,141.5,106.2z
		 M141.3,106.4c0-0.1,0-0.1,0.1-0.1C141.3,106.3,141.3,106.3,141.3,106.4z M86.3,130.4c0.1,0.1,0.1,0.2,0.2,0.2
		C86.4,130.5,86.3,130.4,86.3,130.4z M38.7,126.2c0.6-0.4,1-0.4,1.7-0.2C40.2,126.5,39.3,126.1,38.7,126.2z M85.7,24.3
		C85.7,24.3,85.7,24.3,85.7,24.3C85.7,24.3,85.7,24.3,85.7,24.3z M16.9,54.4c0.3-0.8,1.2,0.1,2.1-0.2C18.4,54.8,17.9,54.2,16.9,54.4
		z M15,57.2c0-0.6,1.3-0.8,1.1,0C15.7,57.2,15.4,57.2,15,57.2z M17.4,56.2c0.1-0.6,1.7-0.4,1.7,0.2C18.5,56.4,17.7,56.6,17.4,56.2z
		 M54.1,33.4c-1.1,0.2-2.1,0.5-3.6,0.4c0.2-0.5-0.3-0.5-0.2-0.9C51.4,33.1,53.3,31.7,54.1,33.4z M57.5,31.4c1.3,0.9,2.4-1.1,4.3-0.7
		c-0.1,0.7-0.8,1.4-1.9,0.9c-0.7,0.3-1.8,1.2-2.8,0.6C56.9,31.6,57.5,31.7,57.5,31.4z M67.4,30.8c-1,0.7-2.6,0.8-4.1,0.9
		C64.3,31.1,66,31.1,67.4,30.8z M28.6,59.8c-1.9,0.5-4.7,0.1-6.2-1.1c1.9-0.1,3.6,0,5.6,0.2C28.5,59.3,27.4,59.9,28.6,59.8z
		 M118.6,37.2c-1.3,0.8-5.5,0.9-6.7,0c-0.2,0.8-1.6,1-2.1,0.2c-0.1-0.7,0.7-0.5,0.7-1.1C113.2,37,115.2,36.9,118.6,37.2z M119,35.2
		c0-0.1,0-0.2,0-0.3C119,35.1,119,35.1,119,35.2z M118.9,35c0-0.1,0-0.2-0.1-0.3C118.9,34.8,118.9,34.9,118.9,35z M118.9,35.5
		c0-0.1,0-0.2,0-0.3C119,35.3,119,35.4,118.9,35.5z M117.3,38.7c-0.1,0.4-0.8,0-0.7,0.6c1.2,1.5,3.5-0.3,5.1,0.4
		c-0.5,1-1.3,1.5-2.8,1.1c0.2,0.3,0.5,0.4,0.9,0.4c-1.3,2-4.5,0.6-6.5,1.1c-0.2-0.2-0.2-0.7-0.4-0.9c-0.7,0.2-1.8,0.8-1.9-0.4
		c-0.6,0.1-0.4,0.9-0.7,1.1c-0.7,0.1-1-0.4-0.9-1.1c-0.4,0-0.1,0.8-0.4,0.9c-1.1-0.2-2.1-0.5-2.4-1.5c3.7,0,6.6-0.4,9.9-0.9
		c0.1-0.6-0.8-0.3-1.1-0.6C115.8,38.2,116.4,38.8,117.3,38.7z M122.4,42c-0.8-0.1-1.2,0.1-1.9,0.2C120.5,41.5,122.4,41,122.4,42z
		 M127.1,49.7c-0.8,0.1-1.8,0.7-2.4,0.4c0.3-0.9,1.5-0.8,2.1-1.3C126.6,49.2,126.2,49.9,127.1,49.7z M25.6,100.6
		c-0.4,0.6-1-0.2-1.5-0.2C24.4,100,25.3,100.5,25.6,100.6z M24.3,61.9c-0.2,0.8-1.8,0.2-2.4,0.2C22.3,61.6,23.6,62,24.3,61.9z
		 M31.6,63.7c-1.2,0.9-3.1-0.6-4.9-0.4C27.9,63,30.3,63.3,31.6,63.7z M34.8,47.6c0.5-1,1.5,0,2.6-0.2C36.8,48.2,35.9,47.7,34.8,47.6
		z M51.1,37.9c0.1,0.1,0.2,0.2,0.4,0.3C51.3,38.1,51.2,38,51.1,37.9z M51.6,38.3c0.1,0,0.2,0.1,0.3,0.1
		C51.8,38.3,51.7,38.3,51.6,38.3z M52.1,38.4c0.1,0,0.2,0,0.3,0C52.3,38.4,52.2,38.4,52.1,38.4z M52.6,38.4c0.1,0,0.2,0,0.3,0
		C52.8,38.4,52.7,38.4,52.6,38.4z M67.9,37.3L67.9,37.3L67.9,37.3L67.9,37.3z M108.8,39.6C108.8,39.6,108.8,39.6,108.8,39.6
		C108.8,39.6,108.8,39.6,108.8,39.6z M108.3,38.7c0.1,0,0.2,0,0.2,0C108.4,38.7,108.4,38.7,108.3,38.7z M108.5,39
		C108.5,39,108.5,39,108.5,39C108.5,39,108.5,39,108.5,39z M108.6,38.7L108.6,38.7C108.6,38.7,108.6,38.7,108.6,38.7
		C108.6,38.7,108.6,38.7,108.6,38.7z M109,38.6c0.1,0,0.1,0,0.2,0C109.1,38.6,109.1,38.6,109,38.6z M110.2,38.4
		c0.2,0,0.4-0.1,0.6-0.1C110.6,38.3,110.4,38.3,110.2,38.4z M109.6,38.5c0.1,0,0.2-0.1,0.4-0.1C109.9,38.4,109.8,38.4,109.6,38.5z
		 M108.2,38.6c-0.1,0-0.1,0-0.2-0.1C108.1,38.6,108.1,38.6,108.2,38.6z M108,37.3c0.1,0.4-0.1,0.5-0.2,0.7c-0.5-0.1-0.6-0.5-0.7-0.9
		C107.5,37.1,107.8,37.2,108,37.3z M130.4,92.7c-0.3,0.6-0.7-0.2-1.3,0C129.4,92.2,130,92.5,130.4,92.7z M39.1,70.7
		c0-0.1,0-0.1,0-0.2c0,0,0,0-0.1,0c0,0,0,0,0.1,0l0,0l0,0C39.1,70.5,39.1,70.6,39.1,70.7z M38.4,69.9c0.1,0,0.2,0,0.3,0
		C38.6,69.9,38.5,69.9,38.4,69.9z M33.7,85.5c0.1,0.2,0.3,0.3,0.4,0.5C34,85.8,33.7,85.7,33.7,85.5C33.6,85.5,33.6,85.5,33.7,85.5z
		 M32.9,86.4c-1.3,0-2.4-0.1-3.4-0.4c0.2-0.8,1.8,0,2.1-0.4c0.2,0,0.4,0,0.6,0C32.3,86,33.1,85.7,32.9,86.4z M34.3,86.4
		c0-0.1-0.1-0.2-0.1-0.3C34.2,86.1,34.2,86.2,34.3,86.4z M122,52.7c-0.3,0.5-1.3,0.1-1.7,0C120.6,52.2,121.6,52.6,122,52.7z
		 M58.6,38.3c-0.1,0.1-0.1,0.1-0.2,0.1C58.5,38.4,58.5,38.4,58.6,38.3z M95.7,36.7C95.7,36.7,95.7,36.8,95.7,36.7
		C95.7,36.8,95.7,36.7,95.7,36.7z M103.4,60.8c0,0.1,0,0.2,0,0.3C103.4,60.9,103.4,60.8,103.4,60.8z M64.8,54.9
		c0.1-0.3,1.5-0.3,1.7,0c-0.1,0.9-1.6,0.4-2.4,0.6C63.3,55.2,65.7,55.5,64.8,54.9z M95.9,37.8L95.9,37.8
		C95.9,37.8,95.9,37.8,95.9,37.8L95.9,37.8z M106.3,37.2c-0.1,0.4-0.9,0.1-0.7,0.7c-2.1-0.1-3.5,0.6-6.2,0.4
		c0.3-0.5,1.2-0.3,1.1-1.1c0.3,0.5,1.2,0.5,1.7,0.7c0.8-0.2-0.1-0.9,0.6-1.1c-0.1-0.4-0.9-0.1-0.7-0.7c0.8,0.3,1.5,0.8,2.2,1.1
		C103.8,36.1,105.3,37.1,106.3,37.2z M103.7,62.6C103.7,62.6,103.7,62.6,103.7,62.6c0-0.1-0.1-0.2-0.1-0.3
		C103.6,62.4,103.6,62.5,103.7,62.6z M89.5,41.7c-0.4,0.1-0.7,0-0.9-0.2c0-0.3,0-0.5,0.2-0.6c-0.1-0.3-0.4-0.3-0.7-0.4
		c-0.2,0-0.2,0.3-0.2,0.6c-0.9-0.4,0.7-1.4,1.3-0.9C88.9,41,89.4,41.1,89.5,41.7z M91.1,38.1c1.3-0.3,2.8,0,3.9,0.4
		c-0.5,0.3-1.3,0.3-1.9,0.6c0.7,0.4,1.6,0.1,2.1-0.4c-0.5,0.4-1.3,0.7-2.1,0.4l0,0c0,0,0,0,0,0c0,0,0,0,0,0
		c-0.4,0.2-0.6,0.5-0.4,1.1c-0.3,0-0.4-0.2-0.7-0.2c0.2-0.4,0.7-1,0.2-1.5c-0.1,0.5-0.9,0.8-1.3,0.4C90.9,38.5,91.2,38.5,91.1,38.1z
		 M96.5,38.9C96.5,38.9,96.5,38.9,96.5,38.9C96.5,38.9,96.5,38.9,96.5,38.9z M81.6,58.1c0.8-0.5,3.6,0.7,0.9,0.6c-0.1,0-0.1,0-0.2,0
		C82.4,58.2,81.3,58.9,81.6,58.1z M99.2,40.9c0.3,0,0.6,0,0.9,0c0.2,0.8-0.9,0.2-0.7,0.9C99,41.9,99.3,41.2,99.2,40.9z M107.4,53.5
		c0,0.2-0.1,0.3-0.2,0.3c-1.8,0-2.2-0.3-4.1-0.2C104.2,53.2,105.9,53.5,107.4,53.5C107.3,53.5,107.3,53.5,107.4,53.5
		C107.4,53.5,107.4,53.5,107.4,53.5L107.4,53.5c0.1,0,0.1,0.1,0.2,0.1C107.5,53.6,107.5,53.5,107.4,53.5z M106.5,53.2
		c-0.7-0.1-1.4,0-2.1,0C105.1,53.2,105.8,53.1,106.5,53.2z M97.3,49.7c0.2,0.2,0.5,0.2,0.9,0.2c0,0.2,0,0.5,0,0.7
		c-0.2,0-0.5,0-0.7,0C97.8,49.9,97.4,50.3,97.3,49.7z M88.9,57.9c0-0.7,0.9,0,0.9-0.4C90.5,58,89.3,58,88.9,57.9z M89.3,48
		c0.4-0.6,0.9,0.2,1.3,0.2c0,0.3,0,0.6,0,0.9c-0.7,0.1-1.4,0.3-2.2,0.2c0-0.3-0.2-0.4-0.2-0.7c0.6,0.1,1-0.1,1.5-0.2
		C89.6,48.2,89.5,48.1,89.3,48z M91.3,55.1c-0.6,0-1.1,0-1.7,0c-0.3-0.4,0-0.2,0-0.7c-0.4,0-0.6,0.2-0.6,0.6
		c-0.5-0.3-0.8-0.8-1.1-1.3c0.9-0.2,2.3,0,3.4,0.2C91.1,54.4,91.3,54.4,91.3,55.1z M86.5,49.5c-0.5-0.2-1.3,0-1.3-0.6
		C85.7,49,86.6,48.8,86.5,49.5z M83.1,49c-1,0.7-1.4-0.7-2.4-0.6c0.4-1.1,1.6-0.2,2.2,0C82.6,48.6,82.2,49.1,83.1,49z M84.6,48.8
		c-0.6,0.1-0.9-0.1-1.3-0.2C83.3,48,84.8,48,84.6,48.8z M86.8,51.6c0.3,0.2,1,0,0.9,0.6C87.2,52.2,86.7,52.2,86.8,51.6z M90.8,47.5
		c0-0.1,0-0.2,0.1-0.2C90.8,47.3,90.8,47.4,90.8,47.5z M91.3,47c-0.1,0-0.1,0-0.2,0C91.2,47,91.2,47,91.3,47z M91.1,47
		c0,0-0.1,0-0.1,0.1C91,47,91.1,47,91.1,47z M91,47.1c0,0-0.1,0.1-0.1,0.1C90.9,47.1,90.9,47.1,91,47.1z M78.8,44.5
		c0.3-0.4,1.7-0.2,2.1,0C80.5,44.8,79.1,44.7,78.8,44.5z M91.5,52.1c-0.6,0.4-1.4,0.4-2.2,0.2c1.1-1.1,3.7-0.3,4.7,0
		C93.5,53,91.8,52.7,91.5,52.1z M93.1,49.1C93.1,49.1,93.1,49.1,93.1,49.1C93.1,49.1,93.1,49.1,93.1,49.1z M93.1,49.2
		C93.1,49.2,93.1,49.2,93.1,49.2C93.1,49.2,93.1,49.2,93.1,49.2z M93.1,49C93,49,93,49,93.1,49C93,49,93,49,93.1,49z M94.1,49
		c-0.6-0.6-1.2,0-2.1-0.4c0.1-0.2,0.2-0.3,0.2-0.6c0.8,0,1.2,0.6,1.9,0.2C94.1,48.5,94.1,48.7,94.1,49z M91.3,47c0,0,0.1,0,0.1,0
		C91.4,47,91.4,47,91.3,47z M91.5,47c0.1,0,0.1,0,0.2,0.1C91.6,47,91.6,47,91.5,47z M91.7,47.1L91.7,47.1L91.7,47.1L91.7,47.1z
		 M81.2,50.3c0,0.1,0,0.2,0,0.2l0,0C81.2,50.4,81.2,50.4,81.2,50.3z M85.3,50.6c-0.2,0-0.3,0-0.5,0C85,50.6,85.2,50.6,85.3,50.6z
		 M85.9,50.4c-0.2,0-0.3,0.1-0.5,0.1C85.6,50.5,85.7,50.5,85.9,50.4z M93.1,49.5C93.1,49.5,93.1,49.5,93.1,49.5
		C93.1,49.5,93.1,49.5,93.1,49.5L93.1,49.5z M93.2,49.5C93.2,49.5,93.2,49.5,93.2,49.5C93.2,49.5,93.2,49.5,93.2,49.5z M93.7,49.6
		c0,0-0.1,0-0.1,0C93.7,49.6,93.7,49.6,93.7,49.6z M93.6,49.6c0,0-0.1,0-0.1,0C93.5,49.6,93.5,49.6,93.6,49.6z M93.4,49.5
		c0,0-0.1,0-0.1,0C93.3,49.5,93.3,49.5,93.4,49.5z M94.3,49.8c-0.1-0.1-0.2-0.1-0.3-0.1C94.1,49.7,94.2,49.7,94.3,49.8z M93.9,49.6
		c0,0-0.1,0-0.1,0C93.8,49.6,93.9,49.6,93.9,49.6z M94.4,49.9c0,0-0.1,0-0.1-0.1C94.4,49.8,94.4,49.8,94.4,49.9z M93.3,47.7
		c0,0,0.1,0,0.1,0C93.4,47.7,93.3,47.7,93.3,47.7z M93.1,47.7c0,0,0.1,0,0.1,0C93.2,47.7,93.2,47.7,93.1,47.7z M92.6,47.5
		c0.1,0,0.1,0.1,0.2,0.1C92.8,47.6,92.7,47.6,92.6,47.5z M92.9,47.6c0,0,0.1,0,0.1,0C93,47.7,92.9,47.7,92.9,47.6z M92.3,46.7
		c0,0.1,0,0.1-0.1,0.1C92.2,46.8,92.3,46.8,92.3,46.7z M92.2,46.9c0,0-0.1,0-0.1,0C92.1,46.9,92.1,46.9,92.2,46.9z M74.7,46.6
		c0.1,0,0.2,0.1,0.2,0.1C74.9,46.7,74.8,46.6,74.7,46.6z M74.8,47.3C74.8,47.3,74.8,47.3,74.8,47.3C74.8,47.3,74.8,47.3,74.8,47.3z
		 M74.7,47.4C74.7,47.4,74.7,47.4,74.7,47.4C74.7,47.4,74.7,47.4,74.7,47.4z M75,46.7L75,46.7C75,46.7,75,46.7,75,46.7
		S75,46.7,75,46.7z M75,46.8c-0.1,0.4,0.1,0.6,0.1,0.8C75.2,47.4,75,47.2,75,46.8z M74.7,46.6c-0.1,0-0.2,0-0.2,0
		C74.5,46.6,74.6,46.6,74.7,46.6z M74.4,46.6c-0.1,0-0.2,0-0.3,0C74.2,46.5,74.3,46.6,74.4,46.6z M74,46.5c-0.1,0-0.3,0-0.4,0
		C73.7,46.5,73.9,46.5,74,46.5z M74.5,47.5C74.5,47.5,74.5,47.5,74.5,47.5C74.5,47.5,74.5,47.5,74.5,47.5z M74.7,47.4
		C74.7,47.4,74.7,47.4,74.7,47.4C74.7,47.4,74.7,47.4,74.7,47.4z M74.6,47.5C74.6,47.5,74.6,47.5,74.6,47.5
		C74.6,47.5,74.6,47.5,74.6,47.5z M75.2,47.6C75.2,47.6,75.2,47.7,75.2,47.6C75.2,47.7,75.2,47.6,75.2,47.6z M75.1,47.7
		c0,0-0.1,0.1-0.1,0.1C75.1,47.8,75.1,47.7,75.1,47.7z M75,46.8c0.1,0,0.2,0.1,0.2,0.2C75.2,46.9,75.1,46.8,75,46.8z M75.6,47.3
		c-0.1-0.1-0.2-0.2-0.3-0.3C75.4,47.1,75.5,47.2,75.6,47.3z M80,50.7C80,50.7,80,50.7,80,50.7C80,50.7,80,50.7,80,50.7z M80.2,50.6
		C80.2,50.6,80.2,50.6,80.2,50.6C80.2,50.6,80.2,50.6,80.2,50.6z M80.5,50.6c0,0-0.1,0-0.1,0C80.4,50.6,80.4,50.6,80.5,50.6z
		 M81.4,51c0.3-0.3,1-0.3,1.5-0.4C82.8,51.2,81.7,51.3,81.4,51z M84.2,50.6c-0.1,0-0.1,0-0.2,0C84,50.6,84.1,50.6,84.2,50.6z
		 M84.7,50.6c-0.1,0-0.2,0-0.4,0C84.5,50.6,84.6,50.6,84.7,50.6z M91.9,57.9c-0.6,0-1.1,0-1.1-0.6C91.1,57.6,92,57.3,91.9,57.9z
		 M94.5,49.9C94.5,49.9,94.5,49.9,94.5,49.9C94.5,49.9,94.5,49.9,94.5,49.9z M94.7,50.4C94.7,50.3,94.7,50.3,94.7,50.4
		C94.7,50.3,94.7,50.3,94.7,50.4z M94.5,50.8c0-0.1,0.1-0.1,0.1-0.2C94.6,50.7,94.5,50.7,94.5,50.8z M94.6,50.6c0,0,0-0.1,0-0.1
		C94.6,50.5,94.6,50.5,94.6,50.6z M96.9,49.9c-0.1,0.5-0.9,0.8-1.3,0.4C95.8,49.9,96.3,49.9,96.9,49.9z M95.3,49.1
		c-0.3-0.2-0.3-0.9,0-1.1c0.7,0.3,1.2-0.3,1.5,0.4C96.6,49,95.9,49,95.3,49.1z M105.7,50.8c-0.3,0-0.6,0-0.9,0
		C104.5,50.2,106,50.2,105.7,50.8z M94.7,50.2C94.6,50.2,94.6,50.2,94.7,50.2C94.6,50.2,94.6,50.2,94.7,50.2z M94.6,50
		C94.6,50,94.6,50,94.6,50C94.6,50,94.6,50,94.6,50z M93.5,47.6c0,0,0.1-0.1,0.1-0.2c-0.1,0-0.2,0-0.3,0c0.1,0,0.2,0,0.3,0
		C93.5,47.5,93.5,47.6,93.5,47.6z M93.3,47.4c-0.5-0.1-0.8-0.5-1.5-0.4l0,0C92.5,46.9,92.7,47.3,93.3,47.4z M83.1,40.9
		c-0.6-0.8-0.7,0-1.5-0.7c0.2-0.4,1.2,0,1.3-0.6c0.5,0,0.4,0.7,0.7,0.9C83.6,40.8,83.1,40.6,83.1,40.9z M76.2,44.1
		c0.3,0,0.6,0,0.9,0c0.7,0.6-2,1.3-1.9,0.2C75.5,44.2,76.2,44.5,76.2,44.1z M80.5,50.6C80.5,50.6,80.5,50.6,80.5,50.6L80.5,50.6
		L80.5,50.6z M82,51.8c0.8,0.2,2.1,0.2,2.2-0.7c0.4,0,0.4,0.5,0.4,0.9c-1.3,0-0.7,0.8-2.6,0.6C82,52.3,82,52,82,51.8z M96.4,54.6
		c0.3,0.8-1.1,0-1.1,0.6C94.5,54.5,95.8,54.5,96.4,54.6z M104.6,51.9c0.1,0,0.2,0,0.4,0c0,0.4,0.8,0.1,0.9,0.4
		c-1.2,0.5-3-0.1-4.1,0.2C102,51.6,104.1,52.5,104.6,51.9z M104.3,53.3c-0.2,0-0.3,0-0.4,0C104,53.3,104.2,53.3,104.3,53.3z
		 M106.5,53.2c0.1,0,0.3,0,0.4,0.1C106.8,53.3,106.7,53.2,106.5,53.2z M106.9,53.3c0.1,0,0.2,0.1,0.4,0.1
		C107.2,53.4,107.1,53.3,106.9,53.3z M101.1,49.1c-0.1,0-0.1,0-0.2,0c0-0.3-0.5-0.2-0.7-0.2c0.2-0.5-0.3-0.5-0.2-0.9
		c1.6-0.4,3.1,0.1,4.5-0.2C104.7,50,101,47.4,101.1,49.1z M99.4,49c-0.8,0.4-1.2-0.3-1.9-0.6c0-0.8,1.3-0.2,1.9-0.4
		C99.4,48.3,99.4,48.6,99.4,49z M93.2,40C93.2,39.9,93.2,39.9,93.2,40C93.2,39.9,93.2,39.9,93.2,40z M84.4,39.4
		c-0.3,0.4-1.3-1-2.1-0.2c-0.6-0.2-0.1-0.4-0.4-0.9c1,0.2,2-0.4,2.6,0C84.4,38.5,83.4,39.3,84.4,39.4z M71.9,44.1c0,0-0.1,0-0.1,0
		C71.8,44.1,71.8,44.1,71.9,44.1z M71.5,44.2c0,0,0.1-0.1,0.1-0.1C71.6,44.1,71.5,44.2,71.5,44.2z M71.3,44.5c0-0.1,0-0.2,0.1-0.2
		C71.3,44.3,71.3,44.4,71.3,44.5z M79.7,53.4c1.5,0,2.6,0.7,3.7,0c0.6,0.2,1.5,0.1,1.5,0.9c-1.5,0.8-3.5-0.2-5.4-0.2
		C79.5,53.9,79.8,53.8,79.7,53.4z M109.9,52.3c-0.1,0.4-1.2,0.2-1.3,0C108.7,51.9,109.7,52.1,109.9,52.3z M106.9,48.8
		c-0.5-0.3-1.6,0-1.5-0.9C106.2,47.8,107.1,47.7,106.9,48.8z M97.5,41.8c-0.3-0.3-0.5-0.6-0.6-1.1c0.8-0.1,1,0.5,1.5,0.7
		C98.3,42,97.6,41,97.5,41.8z M79.3,37.9c0.7-0.1,1,0.4,1.3-0.2c0.7,0.2-0.1,1,0.7,1.1C80.3,39,79,39.2,78,39
		C78,38.1,79.6,39,79.3,37.9z M72.8,44.2c0.1,0,0.1,0,0.2,0C72.9,44.2,72.8,44.2,72.8,44.2z M72.2,44.1L72.2,44.1
		C72.2,44.1,72.2,44.1,72.2,44.1C72.2,44.1,72.2,44.1,72.2,44.1z M72.5,44.2c0.1,0,0.1,0,0.2,0C72.6,44.2,72.5,44.2,72.5,44.2z
		 M72.2,44.1c-0.1,0-0.1,0-0.2,0C72.1,44.1,72.1,44.1,72.2,44.1L72.2,44.1z M71.1,43.9c0.1,0,0.2,0,0.2,0
		C71.3,43.9,71.2,43.9,71.1,43.9z M71.6,43.9c0.1,0,0.1,0,0.2,0C71.7,44,71.6,44,71.6,43.9z M70.6,44.1c0.2-0.1,0.3-0.1,0.4-0.1
		C70.9,44,70.7,44,70.6,44.1z M77.1,52.5c0.3,0.2,0.4,0.6,0.4,1.1c-0.5-0.2-0.5,0.3-0.9,0.2C76.5,53.1,77.3,53.3,77.1,52.5z
		 M110.8,52.5c0-0.5,0.6-0.1,0.7,0C113.5,52.4,111.3,53,110.8,52.5z M111.3,48.4c-1,0.1-1.5-0.3-2.4-0.2c0.6-0.6,1.9,0.1,2.8-0.6
		C111.6,47.9,111.1,47.8,111.3,48.4z M97.3,38.6C97.3,38.6,97.3,38.7,97.3,38.6C97.3,38.7,97.3,38.6,97.3,38.6z M97.2,38.9
		C97.2,38.9,97.2,38.9,97.2,38.9C97.2,38.9,97.2,38.9,97.2,38.9z M97,39L97,39L97,39z M96.7,39C96.7,39,96.7,39,96.7,39
		C96.7,39,96.7,39,96.7,39z M73.1,44.2c0.1,0,0.2,0,0.3-0.1C73.3,44.1,73.2,44.2,73.1,44.2z M67.4,60.2c-0.4,1-1.2,0.5-2.2,0.6
		C65.5,59.8,66.6,60.7,67.4,60.2z M85.3,61.4c0,0.1,0.1,0.2,0.1,0.3C85.4,61.5,85.4,61.4,85.3,61.4L85.3,61.4z M93.9,66
		c0,0.5,0,1-0.6,0.9c0-0.5,0.3-0.4,0-0.7c-1,0.3-2.5,0.4-3.9,0C90.8,65.1,92.2,66,93.9,66z M106.5,65c0.4,0.1,1,0.2,1.3,0.4
		C107.6,65.8,106.2,65.7,106.5,65z M103.5,41.8c-1.3,0-2.1-0.4-3-0.7c0.3-0.5,1.2-0.4,1.7-0.7c0.2,0,0.5,0,0.7,0
		c0.4,0,0.6,0.3,1.1,0.2C104,41.1,103.8,41.5,103.5,41.8z M100.9,36.2c0,0.2,0,0.4,0,0.6c-0.3,0-0.5-0.3-0.6,0
		C99.7,36.6,100.3,36,100.9,36.2z M91.5,37.3c0.2-0.9,1.1-0.4,1.9-0.4C93.2,37.8,92.2,37.5,91.5,37.3z M87.8,38.7
		c0.6-0.8,2.1-0.2,2.8-0.2C90.1,39.1,88.4,39.2,87.8,38.7z M76.5,38.8c0,0.6-0.5,0.1-0.7,0.7c-0.7,0.1-1.1-0.1-1.1-0.7
		C75.3,38.8,75.9,38.8,76.5,38.8z M67,57.4c-0.1,0.6-1.1,0.3-1.7,0.4C65.6,57.1,66.2,57.6,67,57.4z M84.9,60.4
		c-0.2-0.4-0.3-0.8-0.5-1.2C84.6,59.6,84.7,60,84.9,60.4z M84.2,61.1c-0.1,0-0.1,0-0.2,0C84.1,61.1,84.2,61.1,84.2,61.1z M85.3,61.3
		L85.3,61.3c-0.5,0.1-0.6-0.2-1-0.2C84.7,61.1,84.8,61.4,85.3,61.3z M85.9,62.6c0,0,0,0.1,0,0.1C85.9,62.7,85.9,62.7,85.9,62.6z
		 M103.8,62.3C103.8,62.3,103.8,62.3,103.8,62.3C103.8,62.3,103.8,62.3,103.8,62.3z M103.7,62.5C103.7,62.5,103.7,62.5,103.7,62.5
		C103.7,62.5,103.7,62.5,103.7,62.5z M103.5,62.2c0-0.1,0-0.2-0.1-0.3C103.5,62.1,103.5,62.1,103.5,62.2z M103.4,60.6
		c0-0.1,0-0.2,0-0.2C103.4,60.4,103.4,60.5,103.4,60.6z M103.4,60.2c0-0.2,0-0.4,0.1-0.6C103.5,59.8,103.5,60,103.4,60.2z
		 M103.4,61.8c0-0.1,0-0.2,0-0.3C103.4,61.7,103.4,61.7,103.4,61.8z M103.4,61.4c0-0.1,0-0.2,0-0.3
		C103.4,61.2,103.4,61.3,103.4,61.4z M103.8,62.8L103.8,62.8c0,0.1,0.1,0.1,0.1,0.2C103.8,62.9,103.8,62.9,103.8,62.8z M117.7,53.6
		c0.2,0,0.5-0.2,0.6-0.4c0.2,0.1,0.3,0.3,0.6,0.4C118.4,54.1,115.2,54.1,117.7,53.6z M114.3,53.8c0-0.8,1.5-0.2,1.9-0.2
		C116,54.1,114.9,53.7,114.3,53.8z M106.8,36.9C106.8,36.9,106.8,36.9,106.8,36.9C106.8,36.9,106.8,36.9,106.8,36.9z M106.4,36.6
		C106.4,36.6,106.4,36.6,106.4,36.6C106.4,36.6,106.4,36.6,106.4,36.6z M106.2,36.7C106.2,36.7,106.2,36.7,106.2,36.7
		C106.2,36.7,106.2,36.7,106.2,36.7z M95.8,36.6C95.8,36.6,95.8,36.6,95.8,36.6C95.8,36.6,95.8,36.6,95.8,36.6z M95.9,38.1
		C95.9,38.1,95.9,38.1,95.9,38.1c0,0.1,0,0.2-0.1,0.4C95.9,38.3,95.9,38.2,95.9,38.1z M61.9,47.5c-0.2,0.4-0.8,0.7-1.1,0.4
		C60.8,47.4,61.5,47.5,61.9,47.5z M64.9,46.9c-0.4,0.2-1.3,0.8-0.2,0.9c-0.6,0.3-1.3,0.1-2.1-0.2C63.1,46.7,64,47.1,64.9,46.9z
		 M62.7,50.8c0.3-0.2,2.2-0.5,3-0.7C65.5,51.1,63.9,50.7,62.7,50.8z M84.6,62c-0.1,0-0.3,0-0.4,0.1C84.4,62,84.5,62,84.6,62z
		 M104.2,41.5c0-0.3,0-0.6,0-0.9c0.2-0.3,0.8-0.2,1.3-0.2C105.7,40.7,105.1,41.5,104.2,41.5z M106.9,36.9
		C106.9,36.9,106.9,36.8,106.9,36.9C106.9,36.8,106.9,36.9,106.9,36.9z M106.6,36.4L106.6,36.4c0,0,0,0.1,0,0.1
		C106.7,36.4,106.6,36.4,106.6,36.4z M106.7,36.5C106.7,36.6,106.7,36.6,106.7,36.5C106.7,36.6,106.7,36.6,106.7,36.5z M106.8,36.7
		C106.8,36.7,106.8,36.7,106.8,36.7C106.8,36.7,106.8,36.7,106.8,36.7z M106.9,36.8C106.9,36.8,106.9,36.8,106.9,36.8
		C106.9,36.8,106.9,36.8,106.9,36.8z M106.5,35.1c0,0.1,0,0.2,0,0.2C106.5,35.3,106.5,35.2,106.5,35.1z M106.5,35.4
		c0,0.1,0,0.1,0.1,0.2C106.5,35.5,106.5,35.4,106.5,35.4z M73,38.8c1.2,0.6-0.7,1.4-1.3,0.7c-0.2,0.3-0.5,0.5-0.6,0.9
		c-0.4-0.9-1.8-0.3-2.4-0.6C69.5,38.7,72.1,39.4,73,38.8z M65.4,37.6c0,0,0.1,0,0.1,0C65.4,37.6,65.4,37.6,65.4,37.6z M58.8,37.9
		C58.8,37.9,58.8,37.9,58.8,37.9C58.8,37.9,58.8,37.9,58.8,37.9z M58.6,38.3c0,0,0.1-0.1,0.1-0.1C58.7,38.2,58.7,38.2,58.6,38.3z
		 M58.8,38.1c0,0,0-0.1,0-0.1C58.8,38,58.8,38.1,58.8,38.1z M58.8,37.8C58.8,37.7,58.8,37.7,58.8,37.8
		C58.8,37.7,58.8,37.7,58.8,37.8z M58.5,37.4c0.1,0,0.1,0,0.1,0.1C58.6,37.5,58.5,37.4,58.5,37.4z M58.7,37.5
		C58.7,37.6,58.7,37.6,58.7,37.5C58.7,37.6,58.7,37.6,58.7,37.5z M54.7,37.7C54.7,37.7,54.7,37.7,54.7,37.7L54.7,37.7
		C54.7,37.7,54.7,37.7,54.7,37.7z M42.1,43.3c0.1,0.5-0.4,0.5-0.7,0.6C41.2,43.3,41.6,43.3,42.1,43.3z M115.8,49.3
		c-0.2,0-0.2,0.1-0.2,0.2c-0.7-0.5,0.7-0.4,1.1-0.4C117.8,49.3,116.2,49.4,115.8,49.3z M106.7,36.2L106.7,36.2
		C106.7,36.2,106.7,36.2,106.7,36.2C106.7,36.2,106.7,36.2,106.7,36.2z M66.2,37.7c0.1,0,0.1,0,0.2,0C66.3,37.7,66.2,37.7,66.2,37.7
		z M65.7,37.7c0,0,0.1,0,0.1,0C65.8,37.7,65.8,37.7,65.7,37.7z M59,37.4C59,37.4,59,37.4,59,37.4C59,37.4,59,37.4,59,37.4z
		 M58.7,37.4C58.7,37.4,58.8,37.4,58.7,37.4C58.8,37.4,58.7,37.4,58.7,37.4z M58.5,37.4L58.5,37.4L58.5,37.4L58.5,37.4z M54.5,37.9
		C54.5,37.9,54.5,37.9,54.5,37.9L54.5,37.9L54.5,37.9z M31.6,60c-0.1,0-0.2,0-0.3,0.1C31.4,60,31.5,60,31.6,60z M31.2,60.1
		C31.2,60.1,31.2,60.1,31.2,60.1C31.2,60.1,31.2,60.1,31.2,60.1z M31.9,60c-0.1,0-0.2,0-0.2,0C31.7,60,31.8,60,31.9,60z M32.5,60.2
		c-0.1-0.1-0.1-0.1-0.2-0.1C32.3,60.1,32.4,60.1,32.5,60.2z M32.2,60c-0.1,0-0.1,0-0.2,0C32,60,32.1,60,32.2,60z M32.8,60.6
		c-0.1-0.1-0.1-0.2-0.2-0.3C32.6,60.3,32.7,60.4,32.8,60.6z M35.4,86.8c0-0.1,0-0.1,0-0.2C35.4,86.6,35.4,86.7,35.4,86.8z
		 M35.3,86.4c0,0,0.1,0.1,0.1,0.2C35.4,86.5,35.3,86.4,35.3,86.4z M35.1,86.2c0.1,0,0.1,0.1,0.2,0.1C35.2,86.3,35.2,86.3,35.1,86.2z
		 M34.8,86.1c0.1,0,0.1,0.1,0.2,0.1C35,86.2,34.9,86.1,34.8,86.1z M39.1,70.5L39.1,70.5L39.1,70.5L39.1,70.5z M131,92.9
		c1-0.6,2.1,0.2,3.2,0.2C133.5,94.1,132,92.9,131,92.9z M120.7,49.9c-0.2-0.7,0.7-0.3,1.1-0.4C121.7,49.8,121.2,49.9,120.7,49.9z
		 M107,38.8c0.5-0.1,0.9-0.1,0.7,0.6C107.3,39.5,107,39.3,107,38.8z M108,38.5c-0.1-0.1-0.1-0.1-0.2-0.2
		C107.8,38.4,107.9,38.4,108,38.5z M107.7,35.8C107.7,35.8,107.8,35.8,107.7,35.8C107.8,35.8,107.7,35.8,107.7,35.8z M107,36.1
		C107,36.1,107,36,107,36.1C107,36,107,36.1,107,36.1z M75.6,33.8c0.2,0.7-1,0.3-1.1,0.2C74.2,33.4,75.6,33.5,75.6,33.8z M73.2,34
		c0,0.2,0,0.3-0.1,0.4c0.1-0.1,0.2-0.1,0.2-0.2c-0.1,0.1-0.2,0.1-0.2,0.2l0,0c-0.1,0.1-0.3,0.1-0.5,0.2l0,0c-0.3,0-0.6-0.2-0.6-0.6
		C72.7,34.1,72.8,33.6,73.2,34z M72.6,34.5c-0.1,0-0.2,0.1-0.3,0.1C72.5,34.6,72.6,34.6,72.6,34.5z M72.2,34.7c-0.1,0-0.2,0-0.3,0.1
		C72,34.7,72.1,34.7,72.2,34.7z M71.4,34.8c0.1,0,0.2,0,0.3,0C71.6,34.8,71.5,34.8,71.4,34.8z M70.8,34.8c0.1,0,0.1,0,0.1,0
		C70.9,34.8,70.8,34.8,70.8,34.8z M70.3,34.8c0.1,0,0.1,0,0.2,0C70.4,34.8,70.3,34.8,70.3,34.8z M69.8,34.7c0,0,0.1,0,0.1,0
		C69.9,34.7,69.8,34.7,69.8,34.7z M67.7,37.2C67.7,37.2,67.7,37.2,67.7,37.2C67.7,37.2,67.7,37.2,67.7,37.2z M67.7,37.2
		C67.7,37.2,67.6,37.2,67.7,37.2C67.6,37.2,67.7,37.2,67.7,37.2z M67.6,37.2c-0.1,0-0.1,0-0.2,0C67.4,37.2,67.5,37.2,67.6,37.2z
		 M67.9,37.3c-0.2,0.1-0.5,0.2-0.8,0.3C67.4,37.5,67.7,37.4,67.9,37.3z M66.6,37.6c0.1,0,0.1,0,0.2,0C66.7,37.6,66.7,37.6,66.6,37.6
		z M61.6,36.4c-0.2-0.7,0.6-0.4,0.7-0.7C63.1,35.9,62.3,36.6,61.6,36.4z M61.8,36.8C61.8,36.8,61.7,36.8,61.8,36.8
		C61.7,36.8,61.8,36.8,61.8,36.8z M61.6,36.8C61.6,36.8,61.6,36.8,61.6,36.8C61.6,36.8,61.6,36.8,61.6,36.8z M61.4,35.5
		c0.4-0.1,0.8-0.2,1.2-0.2C62.1,35.4,61.8,35.5,61.4,35.5z M61.4,36.7C61.4,36.7,61.4,36.7,61.4,36.7C61.4,36.7,61.4,36.7,61.4,36.7
		z M60.8,36.8C60.8,36.8,60.8,36.8,60.8,36.8C60.8,36.8,60.8,36.8,60.8,36.8z M61,36.8C61,36.8,61,36.8,61,36.8
		C61,36.8,61,36.8,61,36.8z M61.2,36.7C61.2,36.7,61.2,36.7,61.2,36.7C61.2,36.7,61.2,36.7,61.2,36.7z M59.3,37.4
		C59.3,37.4,59.3,37.4,59.3,37.4C59.3,37.4,59.3,37.4,59.3,37.4z M57.3,37.2c0.3-0.6,2.6-1,3-0.2C59.4,37.2,58.3,37.2,57.3,37.2z
		 M53.1,38.4c0.1,0,0.1,0,0.2,0C53.3,38.4,53.2,38.4,53.1,38.4z M51.8,38.1c0.3-0.3,1.4-0.9,1.9-0.4C53.7,38.5,52.4,37.9,51.8,38.1z
		 M46.4,34.1C46.4,34,46.4,34,46.4,34.1C46.4,34,46.4,34,46.4,34.1z M46.3,33.9c0,0,0-0.1,0-0.1l0,0C46.3,33.8,46.3,33.9,46.3,33.9z
		 M46.5,34.2C46.5,34.2,46.5,34.2,46.5,34.2C46.5,34.2,46.5,34.2,46.5,34.2z M47,33.8C47,33.8,47,33.8,47,33.8
		C47,33.8,47,33.8,47,33.8z M46.9,33.8C46.9,33.8,46.9,33.8,46.9,33.8C46.9,33.8,46.9,33.8,46.9,33.8z M31,60.2L31,60.2L31,60.2
		L31,60.2z M31.1,60C31.1,60,31.1,60,31.1,60C31.1,60,31.1,60,31.1,60z M40,69.5C40,69.5,40,69.5,40,69.5C40,69.5,40,69.5,40,69.5z
		 M133,98.5C133,98.5,133,98.5,133,98.5C133,98.5,133,98.5,133,98.5z M130,99.1C129.9,99.1,129.9,99.1,130,99.1
		C129.9,99.1,129.9,99.1,130,99.1z M129.8,99C129.8,99,129.8,99,129.8,99C129.8,99,129.8,99,129.8,99z M129.7,98.9
		C129.7,98.9,129.7,98.9,129.7,98.9C129.7,98.9,129.7,98.9,129.7,98.9z M130.5,99.2C130.5,99.2,130.5,99.2,130.5,99.2
		C130.5,99.2,130.5,99.2,130.5,99.2z M130.3,99.2C130.3,99.2,130.3,99.2,130.3,99.2C130.3,99.2,130.3,99.2,130.3,99.2z M130.1,99.1
		C130.1,99.1,130.1,99.1,130.1,99.1C130.1,99.1,130.1,99.1,130.1,99.1z M132.2,99.4L132.2,99.4L132.2,99.4L132.2,99.4z M86.8,26
		C86.8,26,86.8,26,86.8,26C86.8,26,86.8,26,86.8,26z M86.9,26.2C86.9,26.2,86.9,26.2,86.9,26.2C86.9,26.2,86.9,26.2,86.9,26.2z
		 M87,26.3C87,26.3,87,26.3,87,26.3C87,26.3,87,26.3,87,26.3z M67.7,34.9C67.7,34.9,67.7,34.9,67.7,34.9c-0.3,0.8-1.8,0.5-2.8,0.6
		C66,35.1,66.5,34.9,67.7,34.9c-1.9,0-3.5,0.1-5.2,0.4C64.2,35,65.9,34.9,67.7,34.9C67.7,34.9,67.7,34.9,67.7,34.9
		C67.7,34.9,67.7,34.9,67.7,34.9z M61.2,35.6c-0.4,0.1-0.7,0.2-1.1,0.3C60.5,35.7,60.9,35.7,61.2,35.6z M58.9,36.2
		c0.3-0.1,0.6-0.2,0.8-0.2C59.5,36,59.2,36.1,58.9,36.2z M52.1,33.9c0.3,0,0.5-0.1,0.8-0.1C52.6,33.9,52.4,33.9,52.1,33.9z M53,33.8
		c0.2,0,0.4-0.1,0.6-0.2C53.4,33.7,53.2,33.8,53,33.8z M47.7,34.8C47.7,34.8,47.7,34.8,47.7,34.8C47.7,34.8,47.7,34.8,47.7,34.8z
		 M46.2,33.6C46.2,33.6,46.2,33.6,46.2,33.6C46.2,33.6,46.2,33.6,46.2,33.6L46.2,33.6z M46.2,33.4C46.2,33.4,46.2,33.4,46.2,33.4
		C46.2,33.4,46.2,33.4,46.2,33.4z M45.7,33c0.1,0,0.2,0.1,0.3,0.1C45.9,33.1,45.8,33.1,45.7,33z M46,33.2C46,33.2,46.1,33.2,46,33.2
		C46.1,33.2,46,33.2,46,33.2z M29.2,60c-0.1-0.4-0.3-0.7-0.4-1.1c0.6,0.1,1.1,0.4,1.5,0.7C30.2,60.4,29.8,60,29.2,60z M18,58.7
		c1.4-0.3,2.9-0.4,4.1,0C20.9,59.6,19.3,59,18,58.7z M22.3,103c-1.8,0.2-4-0.8-5.6-1.3C18.8,101.2,20.3,102.9,22.3,103z M24.3,107.5
		c-3-0.5-6.7-1.7-9.4-3.2C18.4,105.1,21.3,106.4,24.3,107.5z M139.2,72.5c0.3-0.1,0.6-0.3,0.9-0.5C139.9,72.2,139.6,72.4,139.2,72.5
		z M139.6,69.2c-0.3-0.3,1.3-0.2,1.7-0.4C141.2,69.4,140.2,69.1,139.6,69.2z M139.2,67.9c0.6-0.3,1.1,0.1,2.1,0
		C141.1,68.2,139.3,68.6,139.2,67.9z M120.1,38.8c0.3-0.4,1.1-0.4,1.9-0.4C121.9,39.4,121.1,38.6,120.1,38.8z M119.5,34.6
		C119.5,34.6,119.5,34.6,119.5,34.6L119.5,34.6C119.5,34.6,119.5,34.6,119.5,34.6z M118.9,34.6L118.9,34.6
		C118.9,34.6,118.9,34.6,118.9,34.6C118.9,34.6,118.9,34.6,118.9,34.6z M117.6,34.7c0.1,0,0.1,0,0.2,0
		C117.7,34.7,117.6,34.7,117.6,34.7z M116.3,34.6c0.1,0,0.2,0,0.3,0C116.5,34.6,116.4,34.7,116.3,34.6z M114.9,34.5
		c0.1,0,0.2,0,0.3,0C115.1,34.6,115,34.6,114.9,34.5z M112.8,33.8C113,35,111,34,111,35.1c-0.3-0.3-0.5-0.7-0.9-0.7
		C110.4,33.9,111.9,34.1,112.8,33.8z M88.8,26.3c0.1,0,0.2,0,0.4,0C89.1,26.2,89,26.2,88.8,26.3z M86.6,25.9L86.6,25.9
		c0.2,0.1,0.4,0.1,0.6,0.1C87,26,86.8,26,86.6,25.9z M86.2,26C86.2,25.9,86.3,25.9,86.2,26C86.3,25.9,86.2,25.9,86.2,26z M86.1,26.1
		c0-0.1,0.1-0.1,0.1-0.1C86.1,26,86.1,26.1,86.1,26.1z M74.9,29.1c0.2-0.7,1-0.9,1.9-0.9C76,28.4,75.8,29.1,74.9,29.1z M73,31
		c-0.5-0.1-0.7-0.3-0.7,0.4c-0.6-0.1-1.2-0.2-1.5-0.6C71.2,30.9,72.7,29.8,73,31z M54.6,31.9c0.5-0.5,1.4-0.6,2.2-0.7
		C56.4,31.7,55.5,31.8,54.6,31.9z M55,32.9c-0.2,0.2-0.3,0.3-0.5,0.4C54.7,33.1,54.9,33,55,32.9z M53.8,33.6
		c0.2-0.1,0.4-0.2,0.6-0.3C54.2,33.4,54,33.5,53.8,33.6z M51.9,34c-0.2,0-0.4,0.1-0.7,0.1C51.4,34,51.7,34,51.9,34z M50.2,34.2
		C50.2,34.2,50.2,34.2,50.2,34.2C50.2,34.2,50.2,34.2,50.2,34.2z M49.3,34.3c0,0,0.1,0,0.1,0C49.3,34.3,49.3,34.3,49.3,34.3z
		 M48.5,34.5c-0.1,0-0.1,0-0.2,0.1c-0.2,0-0.5,0-0.8,0c-0.2-0.7,0.7-0.3,1.1-0.4C48.7,34.3,48.6,34.4,48.5,34.5z M34.3,43.2
		c0.3-0.4,1.1-0.1,1.5-0.4C35.9,43.7,34.7,43.3,34.3,43.2z M34.3,47.3c-0.2,1.2-1.7,0.1-2.2,0C32.2,46.9,33.7,47.7,34.3,47.3z
		 M34.4,49.1c-0.3,0.1-0.6,0.2-1,0.3C33.8,49.3,34.1,49.2,34.4,49.1z M36.5,54.8c-0.4,0.4-1.8,0.1-2.2,0
		C34.9,54.3,35.8,54.4,36.5,54.8z M17.6,59.2c-0.9,0.7-2.1,0.2-3.2,0C15.1,58.3,16.6,59.3,17.6,59.2z M17.2,63.2
		c-0.5,0.8-2.1-0.1-3,0C15,62.5,16.4,62.6,17.2,63.2z M14,86.2c1.5-0.7,3.6-0.3,4.7,0.4C17.3,87.1,15.4,86.4,14,86.2z M11.2,105.5
		c0.7-0.6,1.1,0,1.5,0.6c4.7,1.4,9.3,2.9,13.3,5.1C20.6,109.7,15.8,107.7,11.2,105.5z M95.3,129.8c0-1.8,1.4-0.3,2.2-0.2
		C96.9,129.9,96.1,129.5,95.3,129.8z M145.2,89.9c-0.5,0.3-0.8-0.4-1.7,0c0-0.2,0-0.3-0.2-0.4C143.9,89.4,144.8,89.3,145.2,89.9z
		 M142.2,70.7C142.2,70.7,142.2,70.7,142.2,70.7C142.2,70.7,142.2,70.7,142.2,70.7z M140.2,72c0.3-0.2,0.6-0.4,0.9-0.6
		C140.8,71.6,140.5,71.8,140.2,72z M140.9,71c-0.4,0-0.1-0.7-0.2-0.9c0.2,0,0.3,0,0.4,0.2c0.3-0.2,0.5-0.6,0.9-0.7
		C142.6,70.2,141.1,70.5,140.9,71z M133.2,56.6c-0.6-0.1-0.7,0.2-1.1,0.2C131.1,55.5,133.6,54.9,133.2,56.6z M126.5,46.3
		c0.5-1.3,2.5-1.2,3.4-0.4C128.3,45.3,127.9,47,126.5,46.3z M122.2,40c0.3,0,0.6,0,0.9,0C123.4,40.6,121.9,40.9,122.2,40z
		 M121.8,34.5c0.6,0,1.2-0.1,1.7-0.1C122.9,34.4,122.4,34.4,121.8,34.5z M115.3,34.4c0.1-1.6,1.9-0.6,3-0.6c1.4,0,3.9-1,4.3,0.6
		C119.9,33.9,118.2,34.6,115.3,34.4z M89.4,26.2c0.2,0,0.4,0,0.6-0.1C89.8,26.2,89.6,26.2,89.4,26.2z M89.1,25.9
		c-0.4-0.1-0.7-0.3-0.7-0.7c0.3,0,0.7,0.1,0.7-0.2C89.6,25,89.6,25.9,89.1,25.9z M88.7,26.3c-0.1,0-0.2,0-0.3,0
		C88.4,26.2,88.6,26.3,88.7,26.3z M87.3,26.1c0.3,0.1,0.6,0.1,0.9,0.1C87.9,26.2,87.6,26.2,87.3,26.1z M86.3,25.6
		c0.3-0.2,1.3-0.6,1.5-0.2C87.7,26.2,86.7,25.4,86.3,25.6z M86.5,25.9C86.5,25.9,86.5,25.9,86.5,25.9c-0.2-0.1-0.5-0.1-0.7-0.2
		C86,25.8,86.2,25.9,86.5,25.9z M31.6,46.7c-0.7-1.4-3.5,0.5-3.9-1.1C28.9,45.5,32.1,45.2,31.6,46.7z M31.7,49
		C31.7,49,31.7,49,31.7,49C31.7,49,31.7,49,31.7,49z M31.8,49.1C31.8,49.1,31.8,49.1,31.8,49.1C31.8,49.1,31.8,49.1,31.8,49.1z
		 M31.9,49.3C31.9,49.3,31.9,49.3,31.9,49.3L31.9,49.3C31.9,49.3,31.9,49.3,31.9,49.3z M33.1,49.5c-0.5,0.1-0.9,0.1-1.2-0.2
		C32.2,49.6,32.6,49.6,33.1,49.5z M33.4,49.4c-0.1,0-0.2,0.1-0.4,0.1C33.2,49.5,33.3,49.4,33.4,49.4z M33.5,51.4
		c0.3,0,0.3,0.3,0.6,0.4c0.5-0.2-0.4-0.8,0.2-1.1c0.2,0,0.5,0,0.7,0c0.1,0.6-0.3,0.6-0.2,1.1c0.8,0.1,3.2,1.3,3.4,0.2
		c0.3,0.2,0.4,0.5,0.4,0.9c-0.1,0-0.4,0-0.4,0.2c-0.1,0-0.1,0-0.2,0c-2,0-3.8,0.6-5.2-0.6C32.6,51.7,33.7,52.2,33.5,51.4z
		 M12.9,63.5c0.5,0,0.9,0,1.1,0.2C14,64,12.7,64.1,12.9,63.5z M35.2,121.6L35.2,121.6L35.2,121.6z M35.1,121.4L35.1,121.4
		c-0.2-0.1-0.3-0.1-0.5-0.2C34.8,121.3,34.9,121.3,35.1,121.4z M35.1,121.9C35.1,121.9,35.1,121.9,35.1,121.9
		C35.1,121.9,35.1,121.9,35.1,121.9z M35.2,121.8C35.2,121.8,35.2,121.8,35.2,121.8C35.2,121.8,35.2,121.8,35.2,121.8z M35.2,121.7
		C35.2,121.7,35.2,121.7,35.2,121.7C35.2,121.7,35.2,121.7,35.2,121.7z M35.1,121.4C35.1,121.4,35.1,121.4,35.1,121.4L35.1,121.4
		C35.1,121.4,35.1,121.4,35.1,121.4z M39.9,122.5c-0.1,0-0.1,0-0.2,0C39.8,122.5,39.9,122.5,39.9,122.5z M40.7,122.8
		c-0.1,0-0.1-0.1-0.2-0.1C40.6,122.8,40.7,122.8,40.7,122.8z M108.5,125.1c0.6,0,0.9,0.2,1.3,0.4
		C109.6,125.9,108.3,125.8,108.5,125.1z M141.4,71.2L141.4,71.2c0.4-0.9,1.3-1.4,2.1-1.9C142.7,69.8,141.8,70.3,141.4,71.2z
		 M132.7,58.1c1.2-0.1,1.9,0.4,2.4,0.9C134,59.1,133.3,58.7,132.7,58.1z M123.3,29.3c-0.8,0.4-2.2,0.7-3.4,0.4
		C120.5,28.6,122.2,29.4,123.3,29.3z M114.5,30.2c0-0.6,1.3-0.3,1.3,0.2C115.3,30.4,114.8,30.5,114.5,30.2z M115.5,28.9
		c0.1,0.5-0.9-0.1-0.7,0.4c-0.6-0.2,0-0.6-0.4-1.1c0.4,0,0.9,0,1.3,0C115.7,28.4,114.9,28.7,115.5,28.9z M85.9,23.9
		C85.9,23.9,85.9,23.9,85.9,23.9C85.9,23.9,85.9,23.9,85.9,23.9L85.9,23.9z M67.9,28.4c0-0.2,0-0.3,0-0.4C68,28.1,68,28.2,67.9,28.4
		z M67.9,27.6c0,0.1,0,0.1,0,0.2C67.9,27.7,67.9,27.7,67.9,27.6z M67.7,27.2L67.7,27.2L67.7,27.2L67.7,27.2z M67.9,27.3
		C67.9,27.3,67.9,27.3,67.9,27.3C67.9,27.3,67.9,27.3,67.9,27.3z M67.8,27.5c0,0,0-0.1-0.1-0.1C67.8,27.4,67.8,27.4,67.8,27.5z
		 M31.8,49.3L31.8,49.3c-0.1-0.1-0.1-0.2-0.2-0.3C31.7,49.1,31.7,49.2,31.8,49.3z M8.9,59.2c0-0.1,0-0.2,0-0.3
		C8.9,59,8.9,59.1,8.9,59.2z M78,130.4c0.1,0.1,0.3,0.1,0.4,0.2C78.3,130.5,78.2,130.4,78,130.4L78,130.4z M78,130.3L78,130.3
		C78,130.3,78,130.3,78,130.3C78,130.3,78,130.3,78,130.3z M80.9,130.9c0,0-0.1,0-0.1,0C80.8,130.9,80.9,130.9,80.9,130.9z
		 M81.4,131c0,0-0.1,0-0.1,0C81.3,131,81.4,131,81.4,131z M81.9,131.2C81.8,131.2,81.8,131.2,81.9,131.2
		C81.8,131.2,81.8,131.2,81.9,131.2z M86.6,130.7c0,0,0.1,0.1,0.1,0.1C86.7,130.7,86.7,130.7,86.6,130.7z M87.1,130.9
		c-0.1,0-0.1-0.1-0.2-0.1C86.9,130.8,87,130.9,87.1,130.9z M88.7,131.5L88.7,131.5L88.7,131.5L88.7,131.5z M141.4,109.1L141.4,109.1
		L141.4,109.1C141.4,109.1,141.4,109.1,141.4,109.1C141.4,109.1,141.4,109.1,141.4,109.1z M142,107.6C142,107.6,142,107.7,142,107.6
		C142,107.7,142,107.6,142,107.6z M141.9,108C141.9,108.1,141.9,108.1,141.9,108C141.9,108.1,141.9,108.1,141.9,108z M141.8,108.5
		C141.7,108.5,141.7,108.5,141.8,108.5C141.7,108.5,141.7,108.5,141.8,108.5z M141.6,108.8C141.6,108.8,141.6,108.8,141.6,108.8
		C141.6,108.8,141.6,108.8,141.6,108.8z M142,109c0,0,0.1-0.1,0.1-0.1C142,108.9,142,108.9,142,109z M142,109.1
		c0,0.1-0.1,0.1-0.1,0.2C141.9,109.3,142,109.2,142,109.1z M141.9,109c0,0-0.1,0-0.2,0.1C141.8,109,141.9,109,141.9,109z M141.7,109
		C141.7,109.1,141.7,109.1,141.7,109C141.7,109.1,141.7,109.1,141.7,109z M141.6,109.1C141.5,109.1,141.5,109.1,141.6,109.1
		C141.5,109.1,141.5,109.1,141.6,109.1z M142.2,107.2c0,0.1,0.1,0.1,0.2,0.2C142.3,107.3,142.3,107.2,142.2,107.2z M142.1,106.9
		c0,0.1,0.1,0.2,0.1,0.2C142.2,107.1,142.1,107,142.1,106.9z M143.2,65.8c-0.4,0.3-1,0.4-1.5,0.2C142.1,65.3,142.6,65.5,143.2,65.8z
		 M140.9,65.4c-0.4,0.8-0.8,0.7-1.9,0.6C139.4,65.5,140.3,65.6,140.9,65.4z M138.9,63.9c0.1-0.1,0.9-0.4,0.9,0
		C140.1,64.5,138.6,64.5,138.9,63.9z M119.6,29.5c-0.3,0.7-2.4,0.6-2.8,0.6C116.8,29.1,119.3,29.6,119.6,29.5z M116,26.7
		c-0.2,0.6-1,0.6-1.9,0.6C114.4,26.7,115.3,26.7,116,26.7z M111,22.8c0.6-0.2,0.3,0.6,0.6,0.7c0.6-0.1,0.2-0.5,0.2-0.9
		c1.1,0,0.9,0.5,1.7,0c0,0.6,0,1.2,0,1.9c-0.7,0.3-0.4-0.5-0.7-0.6c-0.3,0-0.1,0.6-0.4,0.7c-0.3-0.4-0.7-0.1-1.1,0
		c-0.2-0.2-0.2-0.7-0.6-0.7C110.9,23.7,111.1,23.4,111,22.8z M110,21.4c0,0.7-0.5,1.9,0.4,2.4c0,1.3-2,1.5-1.9,0
		c0.1-0.3,0.7,0,0.7-0.4c-0.4-0.6-0.5-0.4-0.4-1.5c-0.8-0.1-1.5,0.5-2.1,0C107.6,21.3,108.9,21.2,110,21.4z M102.6,24.3
		c-0.4,0.4-0.4,0.7,0.4,0.7c0.5-0.2,0.2-0.3,0.2-0.7c0.6-0.2,0.3,0.6,0.7,0.6c0.6,0,0.9-1.1,1.5-0.6c-0.1-0.2-0.2-0.3-0.4-0.4
		c0.9-0.6,2.3,0.2,3.2-0.2c0,0.5,0.1,1.1-0.2,1.3c-0.3-0.2-0.4-0.5-0.4-0.9c-0.3,0.2-0.2,0.8-0.4,1.1c-0.5,0-0.6,0.4-1.1,0.4
		c0-0.2,0-0.3-0.2-0.4c0.2-0.2,0.3-0.1,0.9-0.2c0-0.5-2.2-0.8-1.9,0.2c-0.7,0,0.1-0.3-0.4-0.6c-0.6,0.1-0.2,0.5-0.2,0.9
		c-2-0.2-4,0.1-5.8,0.6c0-0.5-0.1-0.8-0.4-0.9c0.2-0.3,0.8-0.2,1.1-0.4c0.1-0.5-1,0.2-0.7-0.6C99.8,24,101,24.4,102.6,24.3z
		 M98.1,25.6c0.1,0.7-1.4,0.3-1.3-0.2C97.3,25.6,97.9,25.4,98.1,25.6z M94.3,21.8c0,1-1.3,0.3-1.9,0.2C93,21.5,93.5,21.8,94.3,21.8z
		 M89.8,23.3c-0.2,0-0.4,0.1-0.5,0.1C89.5,23.4,89.7,23.4,89.8,23.3z M89.2,23.4c-1,0.1-2.2-0.1-3,0.3h0
		C87,23.3,88.1,23.5,89.2,23.4z M85.9,23.1c0,0.5-0.8,0.3-1.3,0.4C84.4,22.8,85.5,23.3,85.9,23.1z M81,23.7c-1,1.5-3.4,1.4-4.9,2.4
		c-0.6,0.2-0.3-0.6-0.7-0.6c-0.6,0.3-0.2,0.7-0.4,1.5c-1.7,0,0-2-0.4-2.2c0.6-0.5,1.6-0.6,2.8-0.6c0.3,0.2-1.2,0.3-1.1,0.9
		C77.7,24.8,78.8,23.7,81,23.7z M72.8,25.7c-0.1,0.5,0.1,0.7,0.6,0.6c-0.3,0.4-0.8,0.6-0.7,1.3C70.5,27.5,71.3,25.9,72.8,25.7z
		 M68.6,27.5c-0.1,0-0.2,0-0.3-0.1C68.4,27.4,68.5,27.4,68.6,27.5z M68.9,27.6c-0.1-0.1-0.1-0.1-0.2-0.1
		C68.7,27.5,68.8,27.6,68.9,27.6z M39.1,31.9c0,0.4-0.2,0.6-0.6,0.6c0.3,0.4,0.5-0.1,0.9,0.2c-0.4,0.4-1.2,0.4-1.7,0.7
		c0.2-0.5,0.2-0.6,0-1.1C38.2,32.2,38.5,31.9,39.1,31.9z M33.3,42c-1.8,1.2-5.6,1.5-7.7,0.4C28.4,42.6,30.7,42.1,33.3,42z
		 M19.5,44.1c0-0.3,0.3-0.8,0.1-0.9c-0.2,0-0.3,0-0.4,0c0.2,0,0.4,0,0.4,0c2,0.1,5.2,0.6,7.4,1.5c0.1,0.5-0.4,0.4-0.6,0.6
		c-0.1,0.7,1.1,0,0.9,0.7c-0.3,0-0.6,0-0.9,0c-0.1-0.2-0.2-0.4-0.2-0.7C23.6,45.2,21.6,44.6,19.5,44.1z M22.7,45.8
		c0.3,0,0.6,0,0.9,0C23.9,46.3,22.4,46.3,22.7,45.8z M24.5,47.1c0,0.9,1.1,0.8,1.5,1.3c-1.2,0.9-4.6-0.3-6.5,0.7
		c5.2,0.2,8.8-0.4,12.2,0.4c-1.1,1.4-4.1-0.8-5.2,0.6c1.8,0.8,4.6-0.5,5.6,0.9c-0.1,0.5-1.1,0.1-1.1,0.7c0.6,0,1.3-0.1,1.5,0.4
		c-0.1,0.6,0.3,0.6,0.2,1.1c-2.5-0.4-4.4-0.3-7.1-0.4c-0.1,0-0.1,0-0.2,0c0-0.1,0-0.1,0-0.2c-1-0.1-2.4-0.3-1.9-1.3
		c-1-0.2-1.8-0.6-2.8-0.2c0.1-0.3,0.2-0.3,0-0.6c-0.6,0.5-1.2,0-2.1,0.4c-0.1-0.4-0.5-0.3-0.4-0.9c-0.9-0.2-2.1,0-2.6-0.6
		c0.8,0.1,1.1-0.2,1.9-0.2c0.2-0.9-1.3,0-1.3-0.6C18.2,47.5,22.1,48.7,24.5,47.1z M17.6,46.5c0.6,0.3,1,0.7,2.1,0.6
		c0.3,0.7-0.5,0.4-0.4,0.9C18.9,47.3,17.2,48,17.6,46.5z M16.7,46.5c-0.8,0.6-1.4,0.6-2.4,0.4c-0.9,0.1,0.3,0.6-0.2,0.7
		c-1-0.8-2.4,0.2-3.9,0C12.1,46.9,14.3,46.3,16.7,46.5z M8.9,58.7c0-0.1,0-0.1,0-0.2C8.9,58.6,8.9,58.6,8.9,58.7z M8.9,59.4
		c0,0.1,0,0.3-0.1,0.4C8.9,59.7,8.9,59.5,8.9,59.4z M8.1,61.3c0.9,0.8,0.1,1.8,0.4,2.7C8.2,63.1,9,62.1,8.1,61.3z M8.6,64.5
		c0-0.1-0.1-0.1-0.1-0.2C8.5,64.4,8.6,64.4,8.6,64.5z M8.5,64.2c0-0.1,0-0.1-0.1-0.2C8.4,64.1,8.5,64.2,8.5,64.2z M12.7,66.2
		c0.1-0.9-1.8,0.2-1.7-0.7c2,0.5,4.8,0.6,6.4,0.9c0.2,0.8-1.2,0.1-1.3,0.6c0.3,1,1.1,1.4,2.1,1.7c-1.7,0.3-3.3,0.6-4.3-0.2
		c-0.2,1.4-0.9-0.7-2.2-0.4c0,0.5,0.6,0.4,1.1,0.4c-1.3,0.2-5.1,0.2-5.8-1.1C8.6,66.4,11.2,66.9,12.7,66.2z M5,68.9
		C5,68.9,5,68.9,5,68.9C5,68.9,5,68.9,5,68.9z M71.3,130.4C71.3,130.4,71.3,130.4,71.3,130.4C71.3,130.4,71.3,130.4,71.3,130.4z
		 M71.7,130.2C71.7,130.1,71.7,130.1,71.7,130.2C71.7,130.1,71.7,130.1,71.7,130.2z M71.6,130.3C71.6,130.3,71.6,130.3,71.6,130.3
		C71.6,130.3,71.6,130.3,71.6,130.3z M77.7,129.9C77.7,129.9,77.7,129.9,77.7,129.9C77.7,129.9,77.7,129.9,77.7,129.9z M77.8,130.1
		C77.8,130.1,77.8,130.2,77.8,130.1C77.8,130.2,77.8,130.1,77.8,130.1z M77.9,130.3C78,130.3,78,130.3,77.9,130.3
		C78,130.3,78,130.3,77.9,130.3z M78.5,130.6c0.5,0.2,1.2,0.2,1.8,0.3C79.7,130.8,79,130.7,78.5,130.6z M90.2,131.7
		c0.1,0,0.2,0,0.3,0.1C90.4,131.8,90.3,131.8,90.2,131.7z M89.1,131.5C89.2,131.5,89.2,131.5,89.1,131.5
		C89.2,131.5,89.2,131.5,89.1,131.5z M90.6,131.8c0.1,0,0.2,0,0.3,0C90.8,131.8,90.7,131.8,90.6,131.8z M91,131.9c0.1,0,0.2,0,0.4,0
		C91.3,131.9,91.1,131.9,91,131.9z M91.4,131.8c0.1,0,0.2-0.1,0.3-0.1C91.6,131.8,91.5,131.8,91.4,131.8z M91.8,131.7
		c0.1-0.1,0.2-0.1,0.3-0.2C92,131.6,91.9,131.6,91.8,131.7z M99.6,132.6c1-0.6,1.7,0.5,1.9,1.3C100.3,134.1,99.5,132.9,99.6,132.6z
		 M115.3,130.2c0.6-0.1,0.3,0.8,0.6,1.1C115.4,131.1,115.3,130.7,115.3,130.2z M122,127c0.2-0.5,0.8-0.4,1.3-0.2
		C123.3,127.3,122.3,127.2,122,127z M125,125.9c-0.2,0.3-0.4,0.7-0.9,0.7c-0.1-0.2-0.2-0.3-0.2-0.6
		C124.1,125.8,124.5,125.8,125,125.9z M125.6,127c0.1,1.1-1,1-1.5,0.6C124.2,127,125.2,127.3,125.6,127z M141,110.5
		c0,0,0.1-0.1,0.1-0.1C141,110.4,141,110.4,141,110.5z M141.2,110.2c0,0,0.1-0.1,0.1-0.1C141.3,110.1,141.2,110.1,141.2,110.2z
		 M141.8,109.4c0,0.1-0.1,0.1-0.1,0.2C141.7,109.6,141.8,109.5,141.8,109.4z M141.6,109.7c0,0.1-0.1,0.1-0.1,0.2
		C141.5,109.9,141.5,109.8,141.6,109.7z M142.3,108.4c0-0.1,0.1-0.2,0.1-0.3C142.4,108.2,142.4,108.3,142.3,108.4z M142,109
		c0-0.1,0.1-0.2,0.1-0.2C142.1,108.9,142.1,108.9,142,109z M142.2,108.7c0-0.1,0.1-0.2,0.1-0.3C142.3,108.6,142.2,108.6,142.2,108.7
		z M142.4,108.1c0.2-0.7,0.1-1.4-0.5-1.9C142.5,106.8,142.6,107.4,142.4,108.1z"/>
	<path class="st1" d="M88,21.1c0.1-0.5,0.9,0.4,0.9-0.4C88.7,20.2,87.5,20.9,88,21.1z"/>
	<path class="st1" d="M126.1,24.8c0.5,0.9,1.8-0.1,2.2,0.7c0.3,0.3,1,0.2,1.1-0.2C128.2,25,127.3,23.9,126.1,24.8z"/>
	<path class="st1" d="M20.4,30.1c0.3,0.2,1.7,0.4,2.1,0C21.6,29.9,20.8,29.9,20.4,30.1z"/>
	<path class="st1" d="M118.8,13.2c0-0.5,0-0.9-0.2-1.1c-1.1,0.2-1.8,0.8-2.6,1.3C117.1,13.1,118,13.5,118.8,13.2z"/>
	<path class="st1" d="M22.4,130.9c2.1,0.9,6.7-0.1,8.4,0.7c-1.6-0.2-2.7,0.4-3.7-0.2c-2.4,0.9-5.2,0.4-6.7,1.7
		c7.2-0.4,15.8-0.7,25.4-0.6c0.5,0.1,0.1-0.7,0.7-0.6c-0.1,0.4-0.6,0.4-0.2,0.7c3-0.6,7.5,0.1,9.4-0.4
		C44.2,130.1,32.3,129.5,22.4,130.9z M45.4,131.8c0.1,0.7-1.5,0.4-1.7,0.2C43.9,131.6,44.9,131.9,45.4,131.8z M32.1,131.5
		c0.1-0.4,1-0.1,1.1,0C33.2,131.9,32.3,131.6,32.1,131.5z"/>
	<path class="st1" d="M86.3,5.5c-0.5,0.1-0.6,1.5,0.2,1.3C86.7,6.6,86.8,5.5,86.3,5.5z"/>
	<path class="st1" d="M114.9,8.5c-0.2-0.9-0.4-0.9-0.2-1.9c-1.5-0.1-1,1.5-0.9,2.2C114.4,9,114.2,8.3,114.9,8.5z"/>
	<path class="st1" d="M88.7,12.8c0.4-1.7,2.2-1.7,3.6-2.1c0.4,0.3-0.1,1.3,0.6,1.3c0.1-0.7,0.5-1.1,1.3-1.1c0-1-1.8-0.2-1.9-1.1
		c-0.7,1.5-3.4,0.1-3.9,1.5c0.3,0.2,0.6,0.3,0.6,0.7c-0.3,0-0.6,0-0.7-0.2C88.3,12.2,88.1,12.9,88.7,12.8z"/>
	<path class="st1" d="M66.3,10.8c-0.4,0.5,0.2,1.3,0,2.2c0.2,0,0.5,0,0.7,0C66.7,12.3,67.1,11,66.3,10.8z"/>
	<path class="st1" d="M110.8,14.1c0.2,0.5-0.4,1.6,0.4,1.5c0.5-0.9,1.2-2.3,2.2-2.1c0-0.3-0.1-0.7,0.2-0.7c0.8,0.3,1.4-0.5,1.5-0.2
		c-0.4,0.7-1.5,0.8-1.7,1.7c0-0.3-0.1-0.5-0.4-0.6c-0.9,1.9,0.5,2.5,1.9,2.4c-0.1-1.2-0.1-1.3-0.2-2.4c1.4,0.1,0.9-1.6,2.2-1.5
		c-1.4-0.4-2.9-0.3-4.1-0.9c0,0.6,0.4,1-0.2,1.3c-0.4,0-0.2-0.5-0.7-0.4c-0.3,0.8-0.6,0.9-0.4,1.9C111.3,14.1,111,14.1,110.8,14.1z"
		/>
	<path class="st1" d="M58.2,16.8c1.1,0.1,2.7-1.1,3.2-0.4c-0.5,0.6-1.9,0.3-2.1,1.3c1.2,0.1,1.7-0.7,2.6-0.9
		c-0.2-0.5-0.1-0.7,0.4-0.9c0,0.1,0.2,0.2,0.4,0.2c0,0.4-0.2,0.4-0.2,0.7c0.9-0.1,1.7-0.3,2.2-0.7c-0.6,0-1.1,0-1.7,0
		c0-0.5,0-1,0-1.5c0.2,0,0.5,0,0.6-0.2c-0.7-0.2-0.8-0.3-0.2-0.7c-1.8-0.2-3.7,0.9-4.7,2.1c0.5-0.1,0.9-0.3,1.1,0.2
		C59.4,16.2,58.3,16,58.2,16.8z M62.5,14.9c0.2,1.4-1.6,0-2.1,0.9c0-0.3-0.2-0.4-0.2-0.7C60.9,14.6,61.6,14.8,62.5,14.9z"/>
	<path class="st1" d="M66.4,16.4c1.1-0.1,1.8-0.5,2.2-1.1C67.6,14.7,66.4,15.3,66.4,16.4z"/>
	<path class="st1" d="M118.3,20.7c1.4,0,2.7-0.1,3.2-0.6c-1.1,0.1-2.4-0.5-3.4,0C118.1,20.4,118.2,20.5,118.3,20.7z"/>
	<path class="st1" d="M61,22.9c-1.3,0.1-2,0.9-3,1.3c-2.5-0.1-5.1,0-6,2.1c1.5-0.2,0.1,0.8,0.6,1.1c1,0.5,1.7-0.4,1.7-1.5
		c0.4-0.1,1.6-0.4,1.7-0.2c-0.5,0.1-0.3,0.6,0,0.7c0.1-2.9,2.6-1.4,4.1-1.7C59.4,24,61.3,24.1,61,22.9z"/>
</g>
</svg>
