<?xml version="1.0" encoding="utf-8"?>
<!-- Generator: Adobe Illustrator 19.2.1, SVG Export Plug-In . SVG Version: 6.00 Build 0)  -->
<svg version="1.1" id="图层_1" xmlns="http://www.w3.org/2000/svg" xmlns:xlink="http://www.w3.org/1999/xlink" x="0px" y="0px"
	 viewBox="0 0 142.2 136.3" style="enable-background:new 0 0 142.2 136.3;" xml:space="preserve">
<style type="text/css">
	.st0{fill:#FFFFFF;}
	.st1{fill-rule:evenodd;clip-rule:evenodd;fill:#231815;}
	.st2{fill:#231815;}
	.st3{fill-rule:evenodd;clip-rule:evenodd;}
</style>
<g id="污点矢量包_10">
</g>
<g id="污点矢量包_09">
</g>
<g>
	<path class="st2" d="M79.6,135.9c0.7-0.1,2,0.2,2.4-0.2C81.2,135.9,80,135.5,79.6,135.9z"/>
	<path class="st2" d="M77.2,136.1c0.6-0.1,1.6,0.2,1.8-0.2C78.5,136.1,77.4,135.7,77.2,136.1z"/>
	<path class="st2" d="M75.7,136.3c0.4,0,0.8-0.1,1.2-0.1C76.4,136.2,76,136.2,75.7,136.3z"/>
	<path class="st2" d="M85.5,135.2c-0.6,0.1-1.4,0.1-1.8,0.4C84.4,135.6,85.1,135.5,85.5,135.2z"/>
	<path class="st2" d="M1.5,48.2c-0.3-0.9,1-2.6,0.2-3.3c-0.2,0.8-0.3,1-0.7,1.3C1.6,46.7,0.2,48.3,1.5,48.2z"/>
	<path class="st2" d="M1.5,56.5c-0.1-1.1,0-2.6-0.6-3.3c-0.5,0.7,0.3,2-0.6,2.9C0.7,56.3,0.8,56.7,1.5,56.5z"/>
	<path class="st2" d="M0.5,64.5c0.1,0.7,0,1.4,0.6,1.7C1,65.5,1.2,64.6,0.5,64.5z"/>
	<path class="st2" d="M1.5,65c0.1,0.9,0,1.4-0.7,1.5c0.2,1.6,0.6,2,1.5,2.9C1.7,67.9,2.6,66.5,1.5,65z"/>
	<path class="st2" d="M71.3,133.9c0.4,0.1,0.7,0.4,1.3,0.4C72.7,133.7,71.5,133.5,71.3,133.9z"/>
	<path class="st2" d="M8.1,101.1c0.3-0.5-0.6-1-0.9-1.5C7.4,100.2,7.5,100.9,8.1,101.1z"/>
	<path class="st2" d="M53.2,120.6c0.2,0.5,0.9,0.5,1.3,0.9C54.3,121.2,53.5,120.4,53.2,120.6z"/>
	<path class="st2" d="M34.6,124.7c0.8,0.7,1.6,1.3,3.1,1.3C37.1,125.2,35.5,125.3,34.6,124.7z"/>
	<path class="st2" d="M97.6,124.7c-0.1,0.4,0,0.7,0.2,0.9c0.7,0.2,0.7-0.4,0.9-0.7C98.3,124.9,98.2,124.6,97.6,124.7z"/>
	<path class="st2" d="M67.4,0c-0.7,0-1.3,0-1.7,0.4C66.1,0.6,67.1,0.3,67.4,0z"/>
	<path class="st2" d="M64.8,0.6c-0.7,0-1.3,0.1-1.5,0.7C63.9,1.1,64.6,1.1,64.8,0.6z"/>
	<path class="st2" d="M101.9,1.7c0-0.9-1.5-0.4-2-0.7C100.1,1.6,100.9,1.7,101.9,1.7z"/>
	<path class="st2" d="M62.5,1.3C61.9,1.5,61,1.4,61,2.2C61.6,2.1,62.5,2.2,62.5,1.3z"/>
	<path class="st2" d="M105,2.2c-0.4-0.3-0.9-0.5-1.7-0.4C103.4,2.4,104.8,2.9,105,2.2z"/>
	<path class="st2" d="M72,3.3c-0.4,0-0.5,0.3-1.1,0.2c0.2-0.2,0.2-0.5,0.2-0.9c-0.8-0.1-1.2,0.3-1.7,0.6C69.3,4.3,72,4.5,72,3.3z"/>
	<path class="st2" d="M64.8,5.9c0-0.6-0.6-0.5-0.4-1.3c-0.9,0-1.7,0.2-2,0.7C63.6,5.1,63.4,6,64.8,5.9z"/>
	<path class="st2" d="M78.1,5.9c-0.5-1-1.9-0.6-2.9-0.6C75.7,6.7,76.9,5.5,78.1,5.9z"/>
	<path class="st2" d="M59.1,6.6c-0.9,0.4-2,0.6-2.6,1.3c0.2,0.1,0.4,0.2,0.4,0.6c-0.5,0.3-0.7,0.4-1.3,0.2c0.5,1.9,1.6-0.6,2.9-0.2
		c0-1.1,1.8-0.5,2-1.5c-0.9-0.1-1,0.6-2,0.4C58.6,7,59.1,7,59.1,6.6z"/>
	<path class="st2" d="M67.1,7.6c0.9,0.1,1.5-0.1,1.8-0.6C68.2,6.5,67.2,6.6,67.1,7.6z"/>
	<path class="st2" d="M88.4,6.8c-0.4-0.1-1.5-0.4-1.8,0C86.8,7.2,88.3,7.5,88.4,6.8z"/>
	<path class="st2" d="M87.1,7.9c0-0.3,0-0.6-0.2-0.7c-1.1,0.5-2.9,0.1-3.5,0.6C84.5,8.3,85.7,7.8,87.1,7.9z"/>
	<path class="st2" d="M100.2,7.9c0.7,0.2,1.2,0.5,2,0.6C102.3,7.7,100.7,7.5,100.2,7.9z"/>
	<path class="st2" d="M97.1,8.3c0.7,0.4,2,0.4,2.8,0.7C99.7,8.2,97.6,8.3,97.1,8.3z"/>
	<path class="st2" d="M48.8,8.3c-0.6,0-0.8,0.3-0.9,0.7C48.5,9.1,48.8,8.8,48.8,8.3z"/>
	<path class="st2" d="M106.3,9.4c-0.6,0.1-0.4-0.6-1.1-0.4C105,9.7,106.1,9.8,106.3,9.4z"/>
	<path class="st2" d="M22.3,11.6c0.2-0.6,1.8-0.9,1.3-1.7c-0.8,0.7-1.4,0.9-2.2,1.3C21.9,11.1,21.7,11.8,22.3,11.6z"/>
	<path class="st2" d="M89,10.5c0-0.6-0.7-0.5-1.3-0.6C87.7,10.5,88.4,10.5,89,10.5z"/>
	<path class="st2" d="M77.7,10.7c-0.6-0.1-1.7-0.4-2.2,0C75.5,11.5,77.8,11.5,77.7,10.7z"/>
	<path class="st2" d="M94.3,12c-1.5,0.5-2.6-2.2-3.3-0.2c0.9,0.5,1.8,0,2.6,0.7C93.5,11.7,94.3,12.8,94.3,12z"/>
	<path class="st2" d="M21.9,12c-0.8,0.1-1.3,0.5-1.5,1.1C21.3,13.1,21.8,12.7,21.9,12z"/>
	<path class="st2" d="M50.3,12.4c-0.7,0-1.2,0.2-1.3,0.7C49.7,13.1,50.4,13.2,50.3,12.4z"/>
	<path class="st2" d="M61.2,13.8c1.7-0.5,3.4,0.1,4.6-1.1C64.2,11.9,61.9,12.7,61.2,13.8z"/>
	<path class="st2" d="M48.6,13.8c-0.3-0.5-0.6-0.3-1.1-0.2C47.2,14.6,48.7,14.6,48.6,13.8z"/>
	<path class="st2" d="M59.7,14.6c0.6,0,1-0.2,1.1-0.7c0-0.2-0.2-0.3-0.4-0.4C60.2,13.8,59.5,13.8,59.7,14.6z"/>
	<path class="st2" d="M47.3,15.3C47,13.9,44.9,15,44.8,16c0.9-0.6,0.8-0.3,2-0.2C47,15.7,46.9,15.2,47.3,15.3z"/>
	<path class="st2" d="M18.4,15.3c-0.5,0-1,0.1-0.9,0.7C18,15.9,18.4,15.9,18.4,15.3z"/>
	<path class="st2" d="M105.6,15.3c-0.1,0.4,0,0.7,0.2,0.9c0.4-0.1,0.9-0.2,0.9-0.7C106.2,15.5,106.1,15.2,105.6,15.3z"/>
	<path class="st2" d="M108.3,16.8c-0.2-0.3,0-1-0.6-0.9c-0.1,0.3-0.3,0.5-0.4,0.7C107.8,16.7,108,17.1,108.3,16.8z"/>
	<path class="st2" d="M42.4,17.7c1,0.4,1.4-1.1,2-1.7c-1.1-0.3-0.8,0.9-1.8,0.7C42.6,17.5,42.8,17.4,42.4,17.7z"/>
	<path class="st2" d="M110.2,17.1c0-0.8-1-0.6-1.5-0.9C108.7,17,109.4,17.1,110.2,17.1z"/>
	<path class="st2" d="M46.1,17c-0.7-0.4-1.9,1-1.7,1.5C44.7,17.6,45.8,17.7,46.1,17z"/>
	<path class="st2" d="M61.5,17.1c-0.3-0.3-1.3-0.1-1.5,0.4C60.7,17.5,61.3,17.6,61.5,17.1z"/>
	<path class="st2" d="M55.8,18.1c0.6,0.4,1.7,0.1,1.7-0.7C56.8,17.4,56,17.4,55.8,18.1z"/>
	<path class="st2" d="M116.6,20.5c-0.5-0.2-1-1.3-1.7-0.7C115.6,19.7,116,21,116.6,20.5z"/>
	<path class="st2" d="M10.7,25.6c0.5,0,0.8-0.3,0.7-0.9c-0.2,0-0.4,0-0.6,0C11,25.2,10.6,25.2,10.7,25.6z"/>
	<path class="st2" d="M5.7,25.4c-0.1,0.4-0.6,0.4-0.2,0.7c0.5-0.1,1.1-0.3,1.3-0.7c-0.8,0.2-0.9-0.3-1.5-0.4
		C5.4,25.3,5.4,25.5,5.7,25.4z"/>
	<path class="st2" d="M38.1,26.5c0.1-0.5-0.4-0.4-0.6-0.6c-0.1,0.4-0.6,0.5-0.7,0.9C37.5,27,37.6,26.5,38.1,26.5z"/>
	<path class="st2" d="M33,29.5c0.8-0.3,1.5-0.7,1.7-1.7C33.6,27.9,33.5,28.9,33,29.5z"/>
	<path class="st2" d="M6.8,31c-0.1,1-0.1,1.1-0.4,2c1.1-0.8,2.5-3,2.6-4.8c-0.5,0.1-2.1,1.2-1.1,2C7.4,30.6,7.4,31,6.8,31z"/>
	<path class="st2" d="M28.7,29.5c0.9,0.1,1.2-0.5,1.7-0.9C29.4,28.5,29.1,29,28.7,29.5z"/>
	<path class="st2" d="M30.2,29.9c-0.1-0.5,1,0.1,0.9-0.4C30.8,29.2,29.6,29.4,30.2,29.9z"/>
	<path class="st2" d="M28.7,30.2c-0.1,0.8-0.8,0.9-0.9,1.7c1,0.4,1.9-0.9,2.4-1.7C29.6,30.2,29.2,30.7,28.7,30.2z"/>
	<path class="st2" d="M32.6,31c0.1,0.2,1.3,0.5,1.1-0.2C33.6,30.4,32.5,30.5,32.6,31z"/>
	<path class="st2" d="M122.3,32.4c1.1-1.3,2.1,1.7,2.6-0.2c-1.1,0.8-0.7-0.9-1.8-0.7C123.3,32.3,121.9,31.5,122.3,32.4z"/>
	<path class="st2" d="M30.2,32.4c0.7-0.1,1.6,0,1.8-0.6C31.3,31.5,30.4,31.8,30.2,32.4z"/>
	<path class="st2" d="M116.1,33c0.4-0.1,0.4,0.3,0.9,0.2c0.1-0.7-0.5-1.6-0.9-1.1c0.2,0,0.3,0.2,0.4,0.4
		C116.4,32.7,116,32.6,116.1,33z"/>
	<path class="st2" d="M27.8,32.4c-0.4,0.1-0.9,0.1-0.7,0.7C27.6,33.1,27.8,32.9,27.8,32.4z"/>
	<path class="st2" d="M121.4,34.1c-0.1-0.6-1.1-1.6-1.5-0.7C120.6,33.4,120.5,34.3,121.4,34.1z"/>
	<path class="st2" d="M6.3,34.8c-0.1-0.7,0.3-1.8-0.6-1.7c0.1,0.4,0,1.4,0,1.8C5.7,34.8,6,34.8,6.3,34.8z"/>
	<path class="st2" d="M28.6,34.6c0.9,0.1,0.8-0.7,1.1-1.1C29.1,33.7,28.7,34,28.6,34.6z"/>
	<path class="st2" d="M117.7,34.5c0.1-0.8-0.9-0.5-1.3-0.7C116.3,34.6,117.4,34.1,117.7,34.5z"/>
	<path class="st2" d="M7.7,34.3c-0.1-0.4-0.9,0.1-0.9,0.4c0.3,0,0.6,0,0.9,0C7.7,34.5,7.7,34.4,7.7,34.3z"/>
	<path class="st2" d="M30.8,35.6c0.9,0,1-0.7,1.3-1.3C31.4,34.5,31,34.9,30.8,35.6z"/>
	<path class="st2" d="M122.5,35c-0.3,0-0.4-0.1-0.6-0.2c-0.1,0.3-0.3,0.5-0.4,0.7C122.1,35.6,122.6,35.6,122.5,35z"/>
	<path class="st2" d="M118.1,37.2c0.1-0.2,0.2-0.4,0.6-0.4c0-0.5,0.1-1.1-0.2-1.3c-0.6-0.1-0.7,0.3-1.1,0.4
		C117.5,36.5,117.6,37.1,118.1,37.2z"/>
	<path class="st2" d="M26.2,36.7c0,0.3-0.1,0.7,0.2,0.7c0.1-0.4,1,0,1.1-0.4c0.1-0.4,0-0.7-0.4-0.7C27.1,36.7,26.6,36.7,26.2,36.7z"
		/>
	<path class="st2" d="M122.9,36.5c0.2,0.9,0.3,1.9,1.3,2C123.9,37.7,123.6,36.9,122.9,36.5z"/>
	<path class="st2" d="M119.2,38.5c0.3-0.4,0.5-0.9,0-1.3c0.2,0.7-1.1,0.3-1.3,0.2c0,0.3,0,0.6-0.2,0.7
		C118,38.5,118.5,38.6,119.2,38.5z"/>
	<path class="st2" d="M23,38.5c0.5-0.1,0.7-0.4,0.9-0.7C23.4,37.2,23.2,38.1,23,38.5z"/>
	<path class="st2" d="M122.7,40.7c-0.3-0.5-0.5-1.1-0.4-2c-0.2,0-0.4,0-0.6,0C121.8,39.6,121.9,40.6,122.7,40.7z"/>
	<path class="st2" d="M119,41.8c0.6,0.1,0.5-0.3,1.1-0.2c0-0.4,0-0.7,0-1.1c-0.2-0.5-0.7,0.2-0.7-0.2c-0.4-0.4,0.3-0.5,0.4-0.9
		c-0.3-0.1-0.8-1-1.3-0.4c0.7,0.2,0.2,0.9,0.2,1.5c0.2,0.3,0.7,0.3,0.9,0.6C119.3,41.3,118.9,41.2,119,41.8z"/>
	<path class="st2" d="M15.3,42.2c-0.4-0.1-0.4-0.5-0.7-0.6c-0.1,1.3-1.2,2-0.9,3.1C15.3,45,14.2,42.6,15.3,42.2z"/>
	<path class="st2" d="M123.3,43.5c0-0.1,0.2-0.2,0.4-0.2c0-0.3,0-0.6,0-0.9c-0.4-0.1-1.2-0.6-1.3,0
		C122.7,42.7,122.6,43.4,123.3,43.5z"/>
	<path class="st2" d="M126.6,42.4c0.1,0.6-0.1,1-0.2,1.5C127.3,43.9,127,42.6,126.6,42.4z"/>
	<path class="st2" d="M123.4,45.5c0.4-0.1,0.4-0.5,0.7-0.6c0-0.6-0.4-0.9-0.9-1.1c-0.3,0.4,0.5,0.7,0,0.7c-0.5,0.1,0.1-1-0.4-0.9
		C122.3,44.1,122.4,45.6,123.4,45.5z"/>
	<path class="st2" d="M134.1,47.7c-0.1-1,0-2.2-0.9-2.4c0.2,0.6-0.6,0.1-0.4,0.7C134.1,45.8,133.2,47.6,134.1,47.7z"/>
	<path class="st2" d="M17.1,47c0.2-0.5-0.3-0.5-0.2-0.9c-0.2,0-0.5,0-0.7,0C16.2,46.7,16.5,47,17.1,47z"/>
	<path class="st2" d="M125.8,48.5c0-0.5,0-0.9-0.4-1.1C125.2,47.6,125.1,48.6,125.8,48.5z"/>
	<path class="st2" d="M130.3,50.3c0,0.6,0.6,0.8,0.9,0.6C131.3,50.3,130.8,50.3,130.3,50.3z"/>
	<path class="st2" d="M138.2,57.7c-0.2-0.3,0-1-0.6-0.9C137.6,57.2,137.7,57.7,138.2,57.7z"/>
	<path class="st2" d="M137.6,59.7c-0.4-0.1-0.5-0.5-1.1-0.4C136.3,60,137.4,60.1,137.6,59.7z"/>
	<path class="st2" d="M138.2,65.4c0.2-0.2,0.5-1.6-0.2-1.5C137.6,64.3,137.9,65.1,138.2,65.4z"/>
	<path class="st2" d="M130.4,64.7c-0.3,0.3-0.3,1,0.4,0.9C130.7,65.2,131.1,64.5,130.4,64.7z"/>
	<path class="st2" d="M138,65.8c-0.3,0.4,0,1.3,0.2,1.7C138,66.9,138.9,65.9,138,65.8z"/>
	<path class="st2" d="M136.5,66.5c-0.1,0.7,0.4,0.7,0.9,0.7c0-0.2,0-0.5,0-0.7C137.1,66.5,136.8,66.5,136.5,66.5z"/>
	<path class="st2" d="M137.1,68.5c-0.3,0-0.4-0.1-0.6-0.2c-0.2,0.2-0.4,1.5,0,1.7C136.7,69.5,136.9,69,137.1,68.5z"/>
	<path class="st2" d="M133.9,73.9c0.2,0,0.5,0,0.7,0c0-0.3-0.1-0.6-0.4-0.7C134.3,73.5,133.8,73.4,133.9,73.9z"/>
	<path class="st2" d="M137.4,75.5c0.1-0.2,0.3-0.4,0.2-0.7c-0.7-0.3-1,0-2,0c0,0.4-0.3,0.5-0.2,1.1
		C136.2,75.5,136.4,74.9,137.4,75.5z"/>
	<path class="st2" d="M137.4,77.4c0.4,0.5,0.3-0.3,0.9-0.2c-0.1-0.3-0.1-0.8-0.4-0.9C138.2,77.1,137.3,76.7,137.4,77.4z"/>
	<path class="st2" d="M139.8,77.4c0.4-0.1,0.4,0.3,0.9,0.2c0-0.4,0.5-0.2,0.4-0.7C140.7,76.5,139.9,76.8,139.8,77.4z"/>
	<path class="st2" d="M135.8,78.9c-0.4,0.1-0.4-0.3-0.9-0.2c0,0.3-0.2,0.4-0.2,0.7C135.3,79.5,135.4,79,135.8,78.9z"/>
	<path class="st2" d="M139.1,78.9c-0.3,0.3-0.1,0.9,0.2,1.1C139.4,79.8,139.8,78.7,139.1,78.9z"/>
	<path class="st2" d="M138.4,80.1c0.2,0.8-0.7,0.5-0.7,1.1C138.6,81.5,139.4,80.3,138.4,80.1z"/>
	<path class="st2" d="M135.2,81.8c-0.6,0.2-0.5,0.1-0.9-0.2c-0.1,0.2-0.3,0.4-0.2,0.7C134.9,82.3,135.3,82.8,135.2,81.8z"/>
	<path class="st2" d="M133.6,81.8c-0.4,0-0.5,0.3-1.1,0.2c-0.2,0.4-0.5,0.6-0.4,1.3C132.8,83,132.9,82.1,133.6,81.8z"/>
	<path class="st2" d="M126,83.3c-0.1,0.8-1,1.9-0.4,2.8C125.9,85.4,127,83.9,126,83.3z"/>
	<path class="st2" d="M131.5,85.9c0.1-0.4,0.5-0.3,0.4-0.9c-0.2,0-0.4,0-0.6,0C131.5,85.2,131.1,85.9,131.5,85.9z"/>
	<path class="st2" d="M128.8,87.3c0.5-0.2,1.1-1.6,0.4-1.8C128.8,85.9,128.7,86.5,128.8,87.3z"/>
	<path class="st2" d="M6.6,87.7c0.1-0.6-0.2-0.8-0.7-0.7C5.9,87.4,6.2,87.7,6.6,87.7z"/>
	<path class="st2" d="M14.4,87.1c-0.3-0.3-1-0.1-1.3,0.2c0.4,0.1,0.8,0.2,1.1,0.4C14.2,87.4,14.3,87.3,14.4,87.1z"/>
	<path class="st2" d="M10.9,90.6c0.8,0.2,0.9,2,2,1.3C12.4,91.4,11.6,90.3,10.9,90.6z"/>
	<path class="st2" d="M124.2,90.8c-1.3-0.2-2.1,1.6-1.5,2c0.3-0.5,0.5-1.2,0.9-1.7c0.3,0,0.1,0.5,0.4,0.6
		C123.9,91.3,124.3,91.4,124.2,90.8z"/>
	<path class="st2" d="M12.5,93c0,0.3-0.2,0.4-0.2,0.7c0.5,0,1.1,0.1,1.1-0.4C13.1,93.3,13.1,92.9,12.5,93z"/>
	<path class="st2" d="M121.6,96.2c0.6,0,0.4-0.7,0.7-0.9C121.8,95.3,121.5,95.6,121.6,96.2z"/>
	<path class="st2" d="M131.7,96c0,0.3-0.1,0.7,0.2,0.7c-0.1-0.4,0.5-0.2,0.6-0.6C132.2,96.1,132.1,95.9,131.7,96z"/>
	<path class="st2" d="M131,97.7c0.3,0.3,0.9,0.1,0.7-0.6C131.2,97,130.9,97.2,131,97.7z"/>
	<path class="st2" d="M15.7,98c0.4,0.6,0.8,1.5,0.2,1.8c-0.4-0.3-1.2-0.9-1.7-0.2c1,0.1,1.6,0.6,2.9,0.4c0.1-0.3,0.3-0.7,0.4-1.1
		c-0.4-0.4-1.4-0.3-0.9-1.1C16.3,97.9,15.6,97.6,15.7,98z"/>
	<path class="st2" d="M130.8,99.3c0-0.5,0.3-0.4,0-0.7C130.1,98.4,130.1,99.5,130.8,99.3z"/>
	<path class="st2" d="M11.8,104.3c-0.1-0.7-0.7-1.9-1.3-1.5C11.3,102.9,10.9,104.3,11.8,104.3z"/>
	<path class="st2" d="M20.1,105c-0.4-0.5-1-0.3-1.7-0.2C18.2,106,20,105.6,20.1,105z"/>
	<path class="st2" d="M21.4,107.6c0.1-0.7-0.7-0.6-1.1-0.7C20.3,107.5,20.8,107.6,21.4,107.6z"/>
	<path class="st2" d="M115.9,107.4c-0.4,0.2-1,0.2-1.1,0.7C115.4,108.1,115.8,107.9,115.9,107.4z"/>
	<path class="st2" d="M15.1,109.4c-0.3-0.9-1.1-1.3-1.7-1.8C13.9,108.3,14,109.4,15.1,109.4z"/>
	<path class="st2" d="M116.1,108.7c-0.2,0-0.3-0.2-0.6-0.2c-0.2,0.5-0.6,1,0,1.3C115.4,109.2,116.2,109.4,116.1,108.7z"/>
	<path class="st2" d="M21.6,108.7c-0.2,0.7,0.4,0.5,0.9,0.6C22.6,108.7,22.1,108.7,21.6,108.7z"/>
	<path class="st2" d="M21.7,109.8c0.2,0.2,0.5,0.2,0.9,0.2c0-0.3,0.1-0.4,0.2-0.6C22.3,109.8,22,109.1,21.7,109.8z"/>
	<path class="st2" d="M114,110.7c0.2,0.3,0.9,0.3,0.9-0.2C114.7,110.3,114.1,110.3,114,110.7z"/>
	<path class="st2" d="M110.9,114c1,0.1,1.2-0.6,1.5-1.1C111.5,112.9,111.2,113.5,110.9,114z"/>
	<path class="st2" d="M25.8,115c0.5,0,1.1,0.1,1.1-0.4c-0.3-0.2-0.5-0.4-0.9-0.6C25.8,114.3,25.7,114.5,25.8,115z"/>
	<path class="st2" d="M29.3,117.2c0-0.2,0-0.4,0-0.6c-0.3,0-0.6,0-0.7,0.2C28.4,117.4,29,117.1,29.3,117.2z"/>
	<path class="st2" d="M29.3,118.7c-0.1-1.5-1.6-1.5-2.8-1.8C27.2,117.7,28,118.4,29.3,118.7z"/>
	<path class="st2" d="M35.7,122.2c-1,0.4-1.5-0.3-2.8-0.2c-0.1,0.9,1.3,0.3,1.7,0.7c-0.4-0.1-0.7,0-0.7,0.4c2.3,0.5,3.2,3.4,5.9,2.4
		c-0.2-0.7,0.6-0.6,0.4-1.3c0,0,0,0,0,0c0,0,0,0,0,0c-0.9,0-1.3-0.6-2-0.7c0,0.1,0,0.2,0,0.2c-0.1,0-0.1,0-0.2,0
		c0.2,0.8-1.7,0.8-1.7,0.4c0-0.2,0.3-0.2,0.4-0.4c-0.6-0.2-1-0.6-1.7-0.7C34.7,122.1,36,122.9,35.7,122.2z M38.8,124.3
		c0.2,0.1,0.4,0.2,0.6,0.2c-0.3,0.2-0.7,0.4-1,0C38.3,124.3,38.5,124.3,38.8,124.3z M39.2,125.1c-0.5,0.9-2,0.1-2-0.7
		C38,124.5,38.4,125.1,39.2,125.1z"/>
	<path class="st2" d="M83.5,129.2c0.5,0,1.1,0.1,1.1-0.4C84.1,128.8,83.5,128.7,83.5,129.2z"/>
	<path class="st2" d="M82.9,129c-1,0.2-2.2,0-3.1,0.6C80.7,129.9,82.5,129.7,82.9,129z"/>
	<path class="st2" d="M76.3,129.7c0.9,0,2.1,0.6,2.6-0.4C78,129.5,76.5,129,76.3,129.7z"/>
	<path class="st2" d="M70,7.6c-1.7-0.2-3,0.9-3.9-0.4c0-0.3,0.6-0.1,0.6-0.6c-1.2-0.2-1.3,0.7-2,0.9c-1.9-0.9-3.5,1.2-5.3,1.5
		c0.2,0.6,0.5,1,0.9,1.3c0.6-0.3-0.1-0.9,0.6-1.1c0.1,0.5,0.5,0.6,0.6,1.1c-1-0.2-1.9,0.9-2.6,0c0-0.5,0.4-0.6,0.4-1.1
		c-0.7-0.1-0.9,0.2-1.5,0.2c0,0.6-0.5,0.8-0.7,1.3c0,0.2,0.1,0.2,0.2,0.4c0.6,0,1.1,0,1.7,0c0,0.3-0.3,0.3-0.4,0.6
		c0.8,0.1,1.2,0.5,2,0.6c1.8-1.5,4.1-1.6,6-1.6c-0.1,0-0.2-0.1-0.3-0.2c1.6-0.7,4.7-0.8,4.8-2.4c0.9,0.4,1.2,0.4,2.2,0.6
		c-0.9-0.9,0.6-1,0.9-1.7c-1.5-0.2-2.4,0.4-3.7,0.4c0-0.2,0-0.5,0-0.7c-0.4-0.1-0.7,0-0.9,0.2C69.3,7.3,70.2,6.9,70,7.6z"/>
	<path class="st2" d="M67.4,10.5c-0.2,0-0.4,0-0.6,0C67,10.5,67.2,10.5,67.4,10.5z"/>
	<path class="st2" d="M26,124.2c-0.2-0.2-0.5-0.3-0.7-0.5c0.4,0.3,0.7,0.6,1.1,0.9C26.2,124.4,26.1,124.3,26,124.2z"/>
	<path class="st2" d="M44,133c-1.3,0.2-2.6,0.3-3.5-0.4c-0.9,0.1-1.2-0.4-1.5-0.9c-0.1,0-0.1,0-0.2,0c-0.7-0.3-1.8-0.3-2.4-0.7
		c-4.2-1.4-7.1-3.9-10.1-6.4c3,3,6.4,5.6,11,7C38.9,132.6,41.7,133.9,44,133z"/>
	<path class="st2" d="M136.3,81.8c0-0.4,0.7-0.1,0.9-0.2c0-0.7-1-0.4-0.9-1.1c0.8,0.4,1-0.4,1.8-0.4c0-1.2-1-0.2-1.3-0.6
		c0-0.7,0.9-0.6,0.9-1.3c-1.1-0.4-0.3-1.6-0.7-2.6c-0.4,1.1-0.5,1.9-0.6,3.5c-0.6,0.8-1.7,1-2.2,1.8c0.9,0.3,0.9,0.7,1.3,0.2
		c0.1,0.7,0.1,1.8-0.7,2.2c-0.3-0.1-0.5-0.3-0.7-0.4c-0.5,1-1.5,1.5-1.8,2.8c0.3,0.5,0.8-0.3,0.9,0.2c-0.1,0.7-0.7,0.9-1.1,1.3
		c0.2-0.2,0.2-0.5,0.2-0.9c-0.8,0.4-0.5,0.5-1.5,0.2c0.6,1.4-1.1,1.8-1.1,3.1c0.9-0.1,1.6-2.2,2.4-1.1c-0.3,0-0.4-0.2-0.7-0.2
		c-0.2,0.9-0.9,1.3-0.6,1.8c-0.5,0.1-0.9,0.1-1.3,0.6c0,0.6,0.3,0.8,0.3,1.3c0,0-0.1,0.1-0.1,0.1c0,0,0,0,0,0
		c-0.7-0.1-1.4,0.4-1.7,0c0.1-0.7,0.8-0.8,0.9-1.5c-0.2-0.3-0.3-0.6-0.9-0.6c-0.2,0.4,0,1.2-0.6,1.3c0.1-1.7,1.3-2.2,1.7-3.7
		c-0.4-0.6-0.9,0.9-1.3,0.4c-0.1-1.4,1.4-1.8,0.2-2.9c1.1-0.3,0.9-1.7,2-1.5c0.3-0.7-0.6-0.1-0.6-0.6c0.4-0.6,0.6-1.4,1.3-1.7
		c0.1-0.6-0.6-0.4-0.4-1.1c0.7,0,1-0.5,0.9-1.3c-0.4-0.2-1.8,0.3-1.8-0.7c0.3-0.7,0.9-1.7,0.2-2.4c-0.3,0.3-0.2,0.9-0.6,1.1
		c-0.3-0.1-1,0.2-0.9-0.2c0.3-0.1,0-0.7,0.4-0.7c0,0.1,0,0.4,0.2,0.4c0.8-0.9-0.1-1.4,0-2.6c0.4,0.1,0.7,0,0.9-0.2
		c0-2.3,0.6-4,0.9-5.9c-0.8-0.3,0,1-0.7,0.7c-0.4-1,0.4-0.9,0.7-1.5c-0.2-0.2-0.5-0.2-0.9-0.2c-0.4,0.4,0.2,0.8-0.2,1.1
		c-0.6-0.1-0.5,0.3-1.1,0.2c-0.1-1.3-0.2-3.9,0.4-5.7c-0.1-0.4-0.6-0.4-0.7-0.7c0.1-0.3,0.1-0.8,0.4-0.9c0.6-0.1,0.1,0.9,0.7,0.7
		c-0.2-1.3,1-1.9,0.6-3.3c0.3,0.3,0.6,0.5,0.9,0c-0.4-0.1-0.3-0.6-0.9-0.6c-0.3,0.3-0.3,1-0.7,1.1c-0.2-1.2,0.3-1.8,0.6-2.6
		c-0.5-0.1-0.8-0.4-0.9-0.9c0.3,0,0.1-0.5,0.4-0.6c0,0.5,0.5,0.5,0.7,0.7c0.1,0.7-0.3,1.8,0.6,1.7c0.5-0.3,0.5-1.1,0.6-1.8
		c-0.4,0-0.7,0-1.1,0c0.2-0.8-0.6-0.8-0.9-1.1c0.3-0.6,0.1-1.2-0.4-1.5c0.6,0.2,0.4-0.3,0.7-0.4c0.1-0.7-0.3-0.8-0.6-1.1
		c0.9-0.2,0.1-1,0.7-1.5c-0.6-0.1-0.6-0.6-0.4-1.1c-0.6,0-0.5-0.6-1.3-0.4c-0.3,1,0.6,1.8-0.2,2.4c-0.4-0.7,0-2.2-0.7-2.6
		c0.1-0.4,0.5-0.4,0.7-0.6c-1.9-2.7-1.3-6.4-3.5-8.7c-0.1,0.8,0.8,1.4,0.2,2.2c0.4,0.2,0.9,0.3,0.9,0.9c-0.1,0.2-0.9,0.5-0.4,0.7
		c0-0.1,0.2-0.2,0.4-0.2c0.7,3,1.4,5.4,1.3,8.8c-0.4,0.1-0.5,0.4-0.7,0.6c0.1,0.9,0.6,1.4,0.9,2c-0.3-0.2-0.5-0.6-0.9-0.2
		c-0.1,0.6,0.2,1.6-0.4,1.7c0,0-0.1,0-0.1,0c-0.3-1.2-0.7-2.4-1.2-3.6c0.1-1.2,0.3-2.3-0.6-2.6c0.6-0.3,0.6-0.5,0.4-1.3
		c0.4-0.3,0.2,0,0.7,0c0.2-0.7-1-0.1-0.9-0.7c0.3-0.5,1-0.5,0.7-1.5c-0.7-0.1-0.9,0.2-1.5,0.2c0.2,0.5-0.2,1.7-0.2,2.6
		c-0.3-0.6-0.5-1.2-0.8-1.7c-0.2-0.9-0.4-1.8-0.6-2.7c-0.2-0.4-0.8-0.3-1.1-0.6c0.5-0.5-0.5-0.5-0.4-1.1c0.3,0,0.9,0.2,0.7-0.4
		c-0.4,0-0.9,0-1.2,0.1c-2.7-4.3-6-8.3-9.9-11.6c-1.4-1.9-2.6-4.1-3.9-6.2c0.5,0.2,1.7-0.3,2,0.2c-0.2,0-0.4,0-0.6,0
		c0.1,0.5,0.4,0.8,0.9,0.9c0.2-0.5-0.5-0.8,0-0.9c0.8,0.3,1.1-0.2,1.5,0c0,0.9-0.7-0.2-0.7,0.6c0.7,1.4,3.4,0.6,3.5,2.6
		c1.8,0.2,1.5,2.6,3.5,2.6c0.4-0.7-0.5-1.1-0.6-1.8c1,0,1.3-0.5,2-0.7c0.5,0.4,1.2,1.4,2,0.9c0.3,1,1,1.4,1.1,2.2
		c1.3,0,1.8,0.6,2.8,0.2c-2.1-1.9-4-3.9-5.9-5.9c-0.8,0-0.6,0.9-1.3,0.9c-1.6-1.8-4.5-2.2-6.8-3.3c0.1-0.4,0.6-0.4,0.2-0.7
		c-0.7,0.2-1.4,0.3-2.2,0.4c0.3-1.2-3-1-2.4-2.6c0.6,0.3,1.7,0.1,2.2,0.6c4.3-1.4,6.5,3.3,9.2,4.1c-1.2-1.5-2.8-2.7-4.2-4.1
		c0.5,0.2,1.7,0.7,2.4,0.2c-5.1-0.5-7-4.2-11.8-5c0.2-0.6-0.3-0.6-0.4-0.9c-2.7-0.7-5.9-0.7-8.3-2c-1.6,0.5-3.2-0.2-4.6-0.6
		c0.2-0.6,0.9-0.6,1.5-0.4c0-0.2,0-0.5,0-0.7c-0.8,0.2-1.9,0.1-2.4,0.6c-0.2-0.4-0.4-0.7-0.6-1.1c-0.6,0.5-1,0-1.7,0.4
		c0.2,1,1.4,0.9,2,1.1c-0.7,0.5-1.8,0.7-2.8,0.4c-0.2,0.5,1,0.5,0.4,0.7c-0.2-0.6-1.6,0-1.5-0.9C83,12.3,82.3,12,81.2,12
		c0.5,0.6,0.4,1.3,0.6,1.8c1.9,0.1,3.3-0.4,4.4,0.6c-2,0.1-5.6,1.7-6.4-0.4c0.2-0.2,0.7-0.2,1.1-0.2c0.1-1.4-2-0.5-2.8-1.1
		c0.4-0.9,2,0.2,2.2-0.6c-1.9-0.8-3.9,0.5-5.5-0.7c0.5-0.6-0.4-0.6-0.2-1.5c-1.8,0.4-3-1-4.2,0.6c-0.8,0-0.9-0.8-1.7-0.4
		c0.2,0.8-0.1,1-0.4,1.7c-0.7-0.2,0.1-0.4,0-0.9c-0.9,0.1-1.4,0.6-2,1.1c1,0,1.1-0.1,2,0.6c0.2-0.9,1.7-0.5,2-0.4
		c0,0.6-0.2,0.9-0.6,1.1c-0.3-0.2-0.5-0.5-0.9-0.6c-0.6,0.7-1.9,0.6-2.4,1.5c-1-0.5-2.2,0.1-3.1-0.2c-0.3,1-1.6,0.9-2.2,1.7
		c-1.5-0.3-2.5,0.5-3.7,0c1,2.3,4.1,0.4,5.9,0.2c1.1,0.6,2.4-0.2,4.1-0.4c-0.2,0.7,0.6,0.4,0.7,0.7c-4.8,0.4-7.9,2.5-12.3,3.3
		c-0.5-0.3-1-0.7-1.7-0.9c-0.9,1-3.3,1.3-4.4,0.9c1.8-0.7,4.1-1.2,5.7-2.6c-2.8-0.5-3.2,1.6-6.1,1.3c-0.1,0.8-2,1.6-3.1,1.3
		c1,0.1,0.7-0.8,0.9-1.1c1.4-0.1,3.2-1.4,3.9-2.8c-1.9,0-2.4,2.2-4.1,1.8c0.3-0.8,1.7-0.5,1.8-1.5c-1.3-0.3-2.3,1.2-3.1,2
		c0.3,0.1,0.9-0.5,1.1,0c-0.7,0.7-1.5,1.2-1.8,2.2c-0.6-0.5-1,0.3-1.3,0.7c-0.3,0-0.7,0.1-0.7-0.2c0.1-0.6,1.4-0.9,0.9-1.5
		c-0.7,0.6-2.6,1-1.5,2.2c-3.3,0.6-5.4,3.6-8.5,3.3c-0.4,1.8-2.8,1.8-3.7,3.1c0.6-0.2,0.3,0.4,0.4,0.7c0.9,0.3,2.7,0.4,2.8-0.7
		c-0.4,0.1-0.8,0.4-0.9-0.2c0.6-1.1,1.8-0.2,2.4-0.4c-0.5-0.2,0.2-0.7,0.4-0.9c0,0.4,0.7,0.1,0.9,0.2c0.6-0.9,2-1.9,2.9-1.3
		c0.6-0.4,0.2-1,0.7-1.3c2.3-0.3,4.3-2.5,6.4-1.7c1.6-1.2,3.7-1.9,5.7-1.5c-2.8,0-4,3-6.6,2c0.2,1.8-3.5,0.5-2.6,2.4
		c1.3-0.2,1.7-1.2,2.9-1.5c-3.3,2.3-6.3,4-9.8,5.9c0.2,0,0.5,0,0.6,0.2c-0.8,1.6-3.5,2.5-2.9,4.2c-0.9-0.1-1.1,0.5-1.7,0.7
		c0.4,1.6-1.8,1.3-1.8,1.5c0.6,0.1-0.1,1.1,0.2,1.3c-0.5,0.4-1.9-0.1-2,0.6c0.3,0,0.9-0.2,0.7,0.4c-0.8-0.2-1.7,0.6-2,0.4
		c0.4-0.4,0.6-0.9,0.7-1.5c-0.6,0-0.9,1.3-1.3,0.9c0.1-0.4,0.6-0.3,0.6-0.9c-0.8,0-0.7,0.9-1.8,0.6c-0.3,0.7,0.5,0.4,0.4,0.9
		c-1-0.1-1.3,0.6-1.5,1.3c0.5-0.2,1.1-0.2,1.3,0c-0.6,1.2-3,1.6-2.4,2.9c-0.8-0.1-1.1,0.3-1.5,0.7c0.4-0.1,0.7,0,0.7,0.4
		c-0.9,0.2-1.1,1.5-2.2,0.9c-0.3,0.4,0.1,0.3,0,0.9c-2,0.7-1.7,4.3-3.5,5.7c-0.1-0.1-0.2-0.2-0.3-0.3c-0.1-0.1-0.2-0.2-0.3-0.3
		c0.4-0.4,0.7-0.9,0.6-1.8c0,0,0,0,0,0c0.3-0.6,0.4-1.2-0.1-2c-0.3,0.5-0.1,1.5-0.6,1.8c0,0,0,0-0.1,0c0-0.1-0.1-0.2-0.3-0.2
		c0,0,0,0.1-0.1,0.1c-0.4-0.3-0.5-0.9-1.2-0.8c-0.1,0.6-0.1,0.4,0,0.9c0.5-0.1,0.9,0,1.2,0.2c0,0.2,0.1,0.3,0.1,0.5c0,0,0,0,0,0
		c-0.9-0.3-1.3-0.4-1.8,0.4c0.3,0.2,1,0.3,0.6,0.7c-0.3,0-0.3-0.3-0.6-0.4c0.3,2.1-0.5,2.8,0,5.2c-0.1,0.6-1.1,0.4-0.9,1.3
		c0,0.4,0.8,0,0.7,0.6c-0.2,0.3-0.3,0.6-0.7,0.6c1.1,1.1-0.2,2.4-0.6,3.7c0.3,0.3,0.8,0.4,0.7,1.1c-0.2,0-0.4,0-0.6,0
		c-0.1,3.2-0.9,5.2,0,7.6c-0.1,0.2-0.2,0.4-0.6,0.4c-0.1,0.8,1,0.4,0.7,1.3c-1.5-0.8,0.4,1-0.7,1.3c0.5,1,1.9-0.7,2,0.6
		c-0.7,0-1.2,0.2-1.7,0.4c-0.1,1.1,0.3,1.7,0.7,2.2c0.6-0.3,1.6-0.5,2,0c-1.3-0.2-1.3,0.7-2.2,0.7c-0.1,2.2,0.1,4.5,1.7,5.9
		c-0.3,0.2-0.8,0.2-0.7,0.7c0.6,0.8,1.4,2.1,1.7,3.7c-0.2,0-0.5,0-0.7,0c-0.1,0.5,0.5,1.2,0,1.5c-0.7-0.1-0.7-0.8-1.3-0.9
		c0.5,1,0.2,4.4,1.8,3.1c-0.2-0.6-1-0.7-1.1-1.5c0.3-1.1,1.6,0.3,1.8-1.1c0.5,0.5-0.1,0.9-0.2,1.3c0.8,0.9,1.2,2.2,2,3.1
		c-0.4,2,0.4,3.2,1.5,4.4c0.1,0.7-0.7,0.5-0.6,1.1c0.5,0.1,0.9,0.4,1.1,0.7c0.4,2.5,2.2,5.8,4.2,8.3c0.1,0.1,0.1,0.2,0.2,0.3
		c0,0,0,0,0,0c0.1,0.1,0.2,0.2,0.3,0.2c0,0,0,0,0,0v0c0,0,0,0,0,0c0,0,0,0,0,0c0.2,0.2,0.3,0.4,0.5,0.6c0.2,1.1,0.6,2,1.8,2
		c-0.5,0.5,0.4,0.4,0.6,0.7c0.3,2.4,3.6,3.6,4.8,5.7c2.4,1.4,4.1,3.6,6.4,5c0.3,0.3-0.3,0.6,0.4,0.7c1.2-0.1,2.2,1.6,3.5,2
		c-0.4,0-0.9,0-1.3,0c-0.1,0.2,0,0.3,0.1,0.3c0,0.2,0.1,0.3,0.3,0.4c0,0,0,0,0,0c-0.9,0.4-1.9,0.3-2.2,0.7c0.6,0.3,1.2,0.5,1.7,0.8
		c-0.5-0.1-1.1-0.2-1.6-0.1c0.4,0.6,1.4,0.6,1.8,1.1c0,0.1,0,0.1-0.1,0.1c-1.3-0.6-2.8-0.8-3.5-2c0.5,0,1.1,0.5,1.4,0
		c-0.3-0.4-1.1-0.5-1.4-0.1c0,0,0,0,0-0.1c-1.4,0-3.4-2-4.2-0.4c0-0.1-0.1-0.2-0.1-0.3c-2.2-0.4-3.2-1.9-4.8-2.9
		c1.9,0.4,3.1,3.4,5.1,1.8c-0.5-0.2-1.1-0.2-1.7-0.4c0-0.2,0-0.5,0-0.7c-1.3,0-1.3-0.5-1.7-1.1c-1.1,0.3-1.9-0.7-2.4-0.4
		c0.5,0.1,0.3,0.2,0.2,0.6c-0.2-0.1-0.4-0.2-0.6-0.2c0.2-0.9-0.3-1.2-0.9-1.3c-0.9-0.1-1.1-1-2.2-0.9c-0.1,0-0.2,0-0.4,0
		c0.3,0.3,1,0.2,0.7,1.1c0.1,0,0.1,0.1,0.2,0.2c-0.8-0.4-1.4-0.9-1.6-1.8c0.3,0.1,0.3,0.5,0.7,0.5c0.2-0.5-0.4-0.9-0.7-0.9
		c0,0,0,0,0,0c-0.3-0.2-0.7-0.4-1-0.6c0.2,0.1,0.3,0.1,0.6,0c-0.1-1.2-1.2-1.4-2.2-1.7c-1.3-3.1-4.4-4.5-6.3-7
		c-0.6,0.1,0.2,0.4,0,0.7c0.6,0.7,1.1,1.5,1.8,2c0.1,0.2,0.3,0.4,0.4,0.5c-1.3-1-2.5-2.1-3-3.9c0.1,0.1,0.3,0.2,0.4,0.2
		c-1.6-2.9-3.6-5.4-5.2-8.5c-0.2,0.3-0.2,0.6-0.1,0.9c-0.7-1.1-1.7-2.4-1.6-3.7c0.1,0,0.1,0,0.2,0c0.1-0.6-0.1-1-0.7-0.9
		c-0.1-0.2-0.2-0.4-0.2-0.6c0-0.3,0-0.6-0.2-0.8c0-0.3,0-0.5,0-0.8c0.1,0,0.1,0,0.2,0c0.2-0.5-0.3-0.5-0.2-0.9
		c-0.3,0-0.4,0.1-0.6,0.2c-0.1-0.1-0.1-0.1-0.2-0.2c-0.1-0.5,0.5-0.9,0.1-1.6c-0.3,0.1-0.4,0.3-0.8,0.3c-0.4-1-0.6-2.2-1.3-2.9
		c0.2-0.3,0.8-0.2,0.7-0.7C3.2,88,3,86.3,2.7,84.4c0-0.2,0.1-0.5,0.3-0.6c-0.1-0.1-0.2-0.1-0.4-0.1c-0.1-0.6-0.2-1.3-0.4-1.9
		c0.4,0.1,0.1,0.7,0.7,0.6c0.3-0.9-0.6-0.8-0.7-1.3c0.4,0.1,0.7,0,0.7-0.4c-0.8-0.4-0.7-1.1-0.4-2c-1.2-1.6-0.6-3.8-1.1-5.6
		c0.1-0.3,0.6,0.6,0.9,0.6c-0.1-0.6-0.4-1.1-1.1-1.2c-0.2-0.4-0.4-0.8-0.7-1.1c-0.1-0.4,0.8,0.1,0.6-0.6c-0.6,0.1-0.7-0.6-1.1-0.2
		c0.1,1,0.1,2,0.2,3.1c0-0.1,0-0.2,0-0.3c0.8,0.1,1.1,0.6,1.3,1.3c-0.4,0-0.9-1.3-0.9-0.4c-0.3,0-0.4-0.2-0.4-0.5
		c0.1,2.5,0.2,5.1,0.4,7.5c0.1,1.7,0.3,3.9,0.6,5.7c0.4,2.1,1.3,4.3,2,6.4c0.8,2.5,1.4,5.1,2.4,7.2c1.4,2.9,3.3,5.7,5.4,8.3
		c-0.2-0.2-0.3-0.5-0.4-0.8c-0.8-0.7-1.2-1.8-1.8-2.6c0-0.1,0-0.1,0-0.2c-0.2-1-1.4-2-0.9-3.1c1.5,3,3.6,5.5,5.2,8.5
		c-0.4-0.1-0.6-0.4-0.9-0.6c-0.3-0.4-0.7-0.8-1-1.1c0.5,0.7,1,1.4,1.6,2.1c3.8,4.9,8,9.1,12.8,12.6c-0.6-0.5-1.1-0.9-1.7-1.3
		c0.2-0.9-0.4-0.8-0.7-1.1c-0.4-0.1-0.4-0.5-0.7-0.6c-0.1,0-0.1,0-0.2,0c0-0.8,1.2-0.1,0.9,0.6c0.1,0,0.2,0,0.4,0
		c1.1-0.1,1.3,0.8,2.2,0.9c0,0,0.1,0,0.1,0c0.3,0.2,0.6,0.4,0.8,0.7c0,0.2,0,0.4,0,0.6c1.2,0.4,2,1.1,2.9,1.8
		c0.2,0.2,0.4,0.3,0.6,0.5c0,0,0,0.1,0,0.1c0.1,0,0.2,0,0.2,0.1c2.1,1.7,4.4,3.2,7.3,4.1c0.6,0.4,1.7,0.4,2.4,0.7c0.1,0,0.1,0,0.2,0
		c0.3,0.5,0.5,1.1,1.5,0.9c0.9,0.6,2.2,0.6,3.5,0.4c0.1,0,0.1,0,0.2,0c1.8-0.2,2.7,0.4,3.9,0.9c0,0,0.1,0,0.1,0
		c0.3,0.1,0.6,0.3,0.9,0.4c1.1,0.5,2.2,1.1,3.5,1.3c0.7-0.1,1.1,0.2,1.5,0.4c0.5,0.1,1.2,0,1.8,0c0.7,0.3,1.4,0.5,2.3,0.6
		c0.5,0.3,1.4,0.2,2,0.4c0-0.3-0.2-0.4-0.4-0.5c1.5,0.2,3,0.4,4.6,0.7c0-0.2,0.1-0.4,0.3-0.4c1.1,0.2,2.3,0.4,3.6,0.5
		c0,0,0,0.1,0,0.1c0.4,0,0.8,0,1.2,0c1.7,0.1,3.5,0.1,5.2,0c-0.7,0.1-1.5,0.1-2.3,0c0-0.1,0-0.1,0-0.2c1.7,0.2,2.7-0.2,4-0.4
		c0.2,0,0.4,0,0.6,0c0.5-0.2,1-0.2,1.7-0.2c0.1-0.1,0.2-0.1,0.4-0.2c0,0.1,0,0.1,0,0.2c1,0,2,0,2.6-0.4c0.1,0,0.1,0,0.2,0
		c0.5-0.1,1.5,0.2,1.7-0.2c0.5,0,0.8-0.1,0.9-0.4c-0.2,0-0.5,0-0.7,0c0,0,0,0,0-0.1c2.4-0.5,4.7-1.2,6.4-2.3c-1.8,0.1-3.4,0.4-5,0.7
		c-0.1,0-0.4,0-0.4,0.2c-0.9,0.1-1.3-0.2-2-0.2c-1.6-0.4-3.2-0.7-4.8-1.1c-0.6,0-0.9-0.2-1.3-0.4c-1.9-0.5-3.5-1.3-5-2.2
		c1.2,0.1,2.5,0.7,3.6,0.2c-1.3-0.4-2.8-0.5-3.7-0.2c-0.7-0.4-1.4-0.7-2.2-1.1c-0.1-0.2-0.2-0.3-0.4-0.4c0-0.2,0.2-0.1,0.4-0.2
		c-0.9-0.4-2-0.8-2.9-1.2c2.4,0,4.7,0.5,7.4,0.1c0,0.4,0.2,0.6,0.6,0.6c-0.1-1.3,2.2-0.3,3.7-0.6c0.1,1,2.1,1,2.2,0
		c-0.3,0-0.7,0.1-0.7-0.2c1.7,0,3.8-0.2,5,1.1c-0.8,0-0.7-0.4-1.8-0.4c0.3,0.8,1.6,1,2.4,0.7c0.1,0.5,0.7,1,1.1,0.6
		c-0.2-0.7-0.9-0.8-1.1-1.5c0.3,0,0.6,0,0.9,0c-0.1,0.6,0.3,0.7,0.4,1.1c1.8,0.4,3.3-1.2,4.8-1.5c1.5-0.3,3,0.6,4.1-0.6
		c-0.3-0.8-1.4,0.2-2-0.4c1-0.3,1.9-0.8,3.1-0.6c0.3-0.1,0-0.7,0.4-0.7c1-0.3,2.1-0.5,3.2-0.6c0.2,0.2,0.6,0.1,0.8-0.1
		c0.9-0.1,1.7-0.2,2.5-0.4c0.6-0.6,2-1.3,3.1-1c0,0.1,0,0.1,0,0.2c0,0,0.1,0,0.1,0c-0.4,0.7-1.2,1-2.1,1.1c-0.3,0.7,0.8,0,0.6,0.7
		c-1.1,0-1.6,0.5-2,1.1c-0.3-0.1-0.2-0.6-0.7-0.4c-0.5,0.5,0.4,0.3,0.4,0.7c-0.3,0.4-0.8,0.5-0.9,1.1c1.4-0.6,2.3-1.8,4.1-2
		c0.2-0.5-0.7-0.6-0.2-0.7c0.6,0.1,1.3,0.4,1.7-0.2c0,0,0,0,0,0c0.1,0,0.1,0,0.2,0c0.1-0.3,0.5-0.4,0.3-0.6c1.4-1.5,5.1-1.8,6.4-3.8
		c-0.7,0.1-0.9,0.7-1.8,0.6c0.4-0.5-0.2-1,0.2-1.3c-0.1,0.4,1.1,1,1.1,0.2c0.1-0.5-0.9,0.1-0.7-0.4c0.5-0.5,1.2,0.3,1.7-0.2
		c0.1-0.4-0.2-0.4-0.4-0.6c0.4-0.4,1.1-0.1,1.3,0.4c0,0.5-0.7,0.3-0.7,0.7c1.1,0.1,2.2-1.4,1.1-1.3c0.2-0.5,1.1-0.4,1.1-1.1
		c0-0.3-0.5-0.1-0.6-0.4c0.8-0.4,1.4-1,1.7-1.8c-1.3-0.4-1.8,1.3-2.9,1.7c0.4-0.9,2-1.2,1.5-2.4c1,0.3,1.9-1,2.4-1.8
		c-0.6,0.2-1.3,0.1-1.3-0.7c1.2-0.1,2.1-1.1,1.8-2c2.4-0.6,1.6-4.3,3.9-4.4c0-0.5-0.6-0.4-0.4-1.1c-0.9,0.1-0.8,1.1-1.8,1.1
		c0.5,1.3-1.6,2.3-2,2.6c0.4-0.4,0.7-0.9,0.9-1.5c-0.9,0.3-1.5,1.6-0.9,2.2c-0.5,0.4-0.6,1.4-1.5,0.9c-0.2,0.5-0.2,0.6,0,1.1
		c-1.5,0.5-1.9,2.1-3.1,2.9c-0.2,0.5,0.7,0.6,0.2,0.7c-1.2,0.2-1.5,1.3-2.6,1.7c-0.2,0.5,0.7,0.6,0.2,0.7c-1.1-0.4-1.8,0.3-2.4,0.9
		c0.8,0.1,1.4-0.9,1.8-0.6c-0.5,0.4-1.1,0.8-0.9,1.8c-0.7,0.6-1.9,0.8-2.6,1.5c0-0.2,0-0.4,0-0.6c-1,0.1-0.7,0.9-0.4,1.5
		c0,0,0,0,0,0c-0.3,0.1-0.5,0.1-0.8,0.2c0.1-0.1,0.2-0.2,0.2-0.4c-0.3-0.4-0.9,0.7-1.5,0.2c0.3,0.3,0.1,0.3-0.1,0.5
		c-0.6,0.1-1.1,0.3-1.6,0.4c-0.2,0-0.2-0.1,0-0.4c-0.4,0.3-0.8,0.4-1.1,0.3c0,0,0.1-0.1,0-0.3c-0.4-0.3-0.7-0.2-1.1-0.1
		c-0.1,0-0.3-0.1-0.4-0.1c1.2-0.6,2.4-1.4,3.7-1.6c1.5-0.3,3.2,0,4.1-1.5c-0.9-0.4-2.1,0.4-2.4,1.1c-0.8-0.7-2,0.6-2.4-0.2
		c0.8-0.3,1.4-0.8,1.8-1.5c-0.9,0.1-1.9,1-2.6,0.7c0.7-1.7,2.9-1.9,3.1-4.1c1.1-0.1,1.6-1.4,1.7-2c1.7-0.5,2.5-3.4,4.8-3.9
		c-0.2-0.6-0.6-1.1-0.9-1.7c1.2-0.3,0.6,1.2,1.5,1.3c0.3-0.9,1.1-1.1,1.8-1.5c0.3,0.7,0.4,0.8,0.7,1.3c0.1-0.3,0.3-0.4,0.6-0.6
		c-0.2-0.7-0.4-1.4-1.1-1.7c0.3-0.2,0.3-0.7,0.6-0.9c1,0.6,2,0.6,2.8-0.2c0,0.2,0,0.4,0,0.6c0.6,0,0.8-0.5,1.1-0.7
		c0.1,0.4-0.3,0.4-0.2,0.9c1.3-2,4.7-1.7,4.6-4.6c0.8-0.3,1.3-1.5,0.7-2.2c1.5,0.4,0.8-1.5,2.2-1.3c0.1-0.6-0.7-0.2-0.6-0.9
		c0.5,0,0.6-0.3,0.7-0.6c-0.5-0.9-1.8,0.8-2-0.6c1.3,0.3,1.2-0.9,2.6-0.6c0.3-0.3,0.2-0.9,0.6-1.1c0.5,0.2,0.8-0.5,0.9,0
		c-0.6,0.5-1,0.7-0.9,1.5c0-0.3,0-0.6-0.4-0.6c0,0.7-0.8,1.4-0.6,1.8c0.8,0.1,0-1.2,0.9-0.9c-0.1,0.4-0.3,0.7-0.2,1.3
		c0.5,0.2,1.1-0.4,1.1,0c-0.1,0.9-1.2-0.3-1.7,0.2c0.1,0.6-0.1,0.9-0.2,1.3c1.2,0.2,1.2-0.6,1.8,0c1-0.6,0.6-2.8,2.2-2.2
		c0.2-0.7-0.8-0.2-0.7-0.7c0.6-0.5,1.6-0.6,1.8-1.5c-0.1-0.5-1.5-0.3-0.7-1.1c0.4,0.1,0.5,0.6,0.9,0.7c0.3-0.5,0.7-1,0.7-1.8
		c-0.1-0.3-0.9,0-0.7-0.6c0.7,0,1.1-0.4,1.3-0.9c-0.1-0.4-1,0-1.1-0.4c0.1-1,1.1-0.1,1.7-0.7c-0.1-0.5-0.7-0.6,0.2-0.7
		c0.2-0.6-0.6-0.1-0.4-0.7c0.2,0.2,0.7,0.2,0.9,0c0-0.1,0-0.4,0.2-0.4c-0.6-1.7,0.9-3.5,1.3-5C137.4,81.6,136.7,82.4,136.3,81.8z
		 M117.7,26.7c-0.5,0.7-0.6-0.5-1.1-0.4C116.6,25.5,117.4,26.7,117.7,26.7z M0.7,79.2c-0.2-0.2-0.2-0.7-0.2-1.1
		C1,78.2,1.3,80.3,0.7,79.2z M1.7,86c-0.1-0.2-0.2-0.4-0.4-0.6C1.1,85.3,1,85,1.1,84.6c0.4,0.3,0.8-0.1,0.9,0.2
		C1.6,85.1,1.9,86,1.7,86z M5.3,96.4c-0.3,0-0.6,0-0.6,0.4c0.7,0.2,0.7,2.1,0.2,1.7c-0.3-1.6-1.1-2.7-1.5-4.2c0.5,0,0.6-0.3,0.9-0.4
		c0.5,0.8-0.3,1.2,0,1.8c0.3,0,0.4-0.2,0.7-0.2C5.1,95.9,5.5,95.8,5.3,96.4z M5.5,98.6c0.7-0.1,0.8,0.3,0.7,0.9
		C5.7,99.5,5.5,99.2,5.5,98.6z M7.2,102.1c-0.6-0.2-0.7-0.9-0.9-1.5C6.6,101.1,7.5,101.6,7.2,102.1z M9.4,104.1c0-0.1,0-0.2-0.1-0.3
		c0.1,0.1,0.1,0.3,0.2,0.4C9.5,104.2,9.4,104.1,9.4,104.1z M20.2,117.4c-0.8-0.7-1.5-1.4-2.2-2.4C18.8,115.8,19.5,116.7,20.2,117.4z
		 M14.9,112.9c-0.3-1.2-1.3-1.8-2-2.7C13.6,111.1,14.6,111.6,14.9,112.9z M20.6,119.6c-1.5-1.1-2.4-2.7-3.9-3.9
		c-0.7-0.4-1.1-1.2-1.7-1.8c-0.7-0.6-1.2-1.4-1.8-2c0.2-0.3-0.6-0.6,0-0.7c0.5,0.7,1,1.2,1.6,1.8c0,0,0,0,0,0.1c0,0,0,0,0.1,0
		c0.4,0.1,0.7,0.2,1,0.4c1,0.7,1.7,2.1,2.5,3c-0.8-0.9-1.5-2.3-2.5-3c-0.3-0.2-0.6-0.4-1-0.4c1.7,1.5,3.6,2.9,4.5,5.1
		c1,0.2,2.1,0.5,2.2,1.7C21.2,119.9,21.1,119.6,20.6,119.6z M26.7,123.3c0,0,0-0.1,0-0.1c0.3,0.3,0.7,0.5,1,0.8
		C27.3,123.8,27,123.6,26.7,123.3z M36.8,126.9c-1.5,0-2.4-0.6-3.1-1.3C34.6,126.3,36.2,126.1,36.8,126.9z M37,128.6
		c-1-0.8-2-1.5-3.5-1.8c0-0.2-0.2-0.3-0.3-0.5c1.7,0.2,2.3,1.8,4.5,1.8c0,0.3,0,0.5,0.2,0.6C37.6,128.6,37.3,128.5,37,128.6z
		 M36.5,127.7c0.3-0.5,1.2-0.4,1.5,0C37.6,128.2,37,127.6,36.5,127.7z M40.7,128.9c-0.4-0.1-1.2,0.2-1.3-0.2c-0.1,0-0.1,0-0.2,0
		c-0.1,0.1-0.2,0.1-0.4,0.1c-0.2-0.1-0.4-0.2-0.5-0.4c0.7-0.1,1.6,0.1,2.4,0.4C40.7,128.9,40.7,128.9,40.7,128.9z M40.2,126.4
		c0.6-0.1,0.7,0.3,1.1,0.4C41.2,127.1,39.8,127.2,40.2,126.4z M116.9,116.1c-0.3,0.2-0.5,0.4-0.8,0.6
		C116.4,116.4,116.6,116.3,116.9,116.1z M116,116.6L116,116.6c-0.1,0.1-0.2,0.1-0.3,0.2C115.8,116.7,115.9,116.7,116,116.6z
		 M121.3,106.8C121.3,106.8,121.3,106.8,121.3,106.8C121.3,106.8,121.3,106.8,121.3,106.8C121.3,106.8,121.3,106.8,121.3,106.8z
		 M116.6,114.1c0.3,0.1,0.1,0.5-0.2,0.9C116.7,114.6,116.9,114.2,116.6,114.1z M108.3,122.7c0.3-0.4,0.6-1.2,1.1-0.7
		C109.2,122.4,108.7,122.5,108.3,122.7z M112.2,120.3c0.3,1.1-1,0.5-1.3,0.9C110.5,120.8,111.6,120.3,112.2,120.3z M108.9,120.1
		C108.9,120.1,108.9,120.1,108.9,120.1C108.9,120.1,108.9,120.1,108.9,120.1C108.9,120.1,108.9,120.1,108.9,120.1z M108.9,120.1
		C108.9,120.1,108.9,120.1,108.9,120.1c-0.2,0.2-0.3,0.3-0.5,0.5C108.5,120.4,108.7,120.3,108.9,120.1z M108,121
		c0,0.2,0.1,0.2,0.2,0.4c0.8,0.1,1-0.4,1.6-0.4c-0.1,0.1-0.3,0.3-0.4,0.5C108.7,121.7,107.7,121.6,108,121z M107.2,122.9
		c0.3,0.1,0.4,0.3,0.3,0.5c-0.3,0.1-0.5,0.2-0.8,0.3c0,0-0.1,0-0.1,0C106.5,123,107.1,123.2,107.2,122.9z M126.6,88.1
		c-0.2-0.9,0.6-0.8,0.6-1.5c0.2,0.1,0.2,0.4,0.6,0.4C127.5,87.5,127.3,88.1,126.6,88.1z M126.6,56.2c-0.3-0.3-0.2-1-0.4-1.5
		C126.9,54.6,126.4,55.7,126.6,56.2z M127.1,68.7c0.6,0.5,0.4,1.3,0,1.9c0-0.3,0-0.7,0-1C127.1,69.3,127.1,69.1,127.1,68.7
		C127.1,68.8,127.1,68.8,127.1,68.7z M109.2,111.4c-0.2,0.4-0.9,0.4-1,0.9C108.3,111.8,109,111.8,109.2,111.4z M104.1,114.5
		c-0.3,0.3-0.6,0.6-1,0.8C103.5,115.1,103.8,114.8,104.1,114.5z M102.1,115.8c-0.6-0.1-0.8,0.2-1.3,0.4
		C101.3,116,101.5,115.8,102.1,115.8z M93,120.2c0.1,0,0.1-0.1,0.2-0.1c0,0.1,0,0.1,0,0.2c-0.1,0.1-0.3,0.3-0.4,0.4
		C92.9,120.5,93,120.3,93,120.2z M92.5,120.8c-0.7,0.4-1.5,0.7-2.5,0.8c1.1-0.2,1.9-0.6,2.7-1.2c0,0,0.1,0,0.1,0.1
		C92.8,120.6,92.6,120.7,92.5,120.8z M95.8,121.8c0.4-0.2,0.8-0.4,1.1-0.6c0.2,0,0.4,0.1,0.6,0.1c-0.4,0.2-0.8,0.3-1.1,0.6
		c-0.5,0.3-0.9,0.7-1.5,0.9c-0.2,0.1-0.4,0.3-0.7,0.4c-0.4,0.1-0.8,0.1-1.2,0.1C94.2,123,94.9,122.3,95.8,121.8z M93.8,121.4
		c0-0.2,0-0.3,0-0.5c0.1,0,0.2-0.2,0.4-0.2c0,0,0,0,0.1,0c0,0.1,0,0.2,0.1,0.4C94.1,121.1,93.9,121.2,93.8,121.4z M94.4,121.7
		C94.3,121.7,94.3,121.7,94.4,121.7c-0.1,0.1-0.1,0.1-0.1,0.1C94.3,121.7,94.3,121.7,94.4,121.7z M96.2,120.3c-0.1,0-0.2,0-0.3,0.1
		c0,0,0,0,0,0c0-0.2-0.1-0.2-0.2-0.2c0.3-0.4,1.1-0.1,1.5-0.4C97.3,120.3,96.5,120,96.2,120.3z M59.2,121.6c0-0.1-0.1-0.2-0.1-0.2
		c0,0-0.1,0-0.1,0c-0.1-0.1-0.1-0.3-0.1-0.5c0.3-0.2,0.8-0.2,1.2-0.1c0.1,0.1,0.1,0.2,0,0.5c0.3-0.1,0.6-0.2,0.9-0.4
		c0.3,0,0.6,0,0.7-0.1c0.1,0,0.3,0,0.4,0.1c0.1,0.3-0.2,0.3-0.2,0.6c-0.6,0-1.1,0-1.3,0.3c-0.5,0-0.9,0.4-1.4,0.5
		C59.4,121.9,59.3,121.7,59.2,121.6z M52.7,121.2c-0.6,0.2-0.4-0.3-0.7-0.4c0.1-0.2,0.5-0.2,0.7-0.2C52.7,120.9,52.7,121,52.7,121.2
		z M53.6,122.5c-0.3-0.4-1.1-0.4-1.3-0.9C52.6,121.4,53.4,122.1,53.6,122.5z M58.1,125.1c-0.1,0-0.1,0-0.2,0c0,0.2,0,0.5,0,0.7
		c0.2,0,0.4,0,0.6,0c0-0.3,0-0.5-0.1-0.6c1.1,0.6,2.2,1.2,3.3,1.7c0,0,0,0-0.1,0c-0.2,0.3-0.5,0.4-0.5,0.8c-2.1-1-3.9-2.3-6.1-3.2
		c-0.1-0.2-0.4-0.3-0.7-0.3c-0.3-0.1-0.6-0.2-0.9-0.3c-0.3,0.2-0.2,0.4,0,0.6c0,0,0,0.1,0,0.1c0,0,0.1,0.1,0.2,0.1
		c0.1,0.1,0,0.2-0.1,0.3c-0.1-0.7-1-0.6-1.3-1.1c0.3-0.2,1,0,0.9-0.6c-1.3-0.6-2.4-1.3-3.4-2c0.2-0.2,0.4-0.5,0.6-0.7
		c-0.2,0-0.4,0-0.6,0c0.1,0.4-0.2,0.4-0.5,0.4c-0.5-0.4-0.9-0.7-1.4-1.1c0.5,0.1,0.4-0.4,0.7-0.4C51.5,121.6,54.7,123.4,58.1,125.1z
		 M61.9,127c1.1,0.6,2.3,1.2,3.4,1.7c-0.6,0.1-0.9,0.4-1.6,0.5c-0.4-0.1-0.8-0.1-1.1,0c-0.1-0.6,0.3-0.6,0-0.9
		c-0.5-0.2-1-0.4-1.4-0.6c0.5,0.1,0.7,0.2,1-0.2C61.9,127.7,62,127.3,61.9,127z M60.1,128.8c0-0.5,0.3-0.6,0.6-0.9
		c0.7-0.2,0.2,0.8,0.7,0.7C60.9,129,60.7,128.8,60.1,128.8z M60.1,131.9C60.1,131.9,60.1,131.9,60.1,131.9
		C60,131.9,60,131.9,60.1,131.9C60,131.9,60.1,131.9,60.1,131.9z M62.1,131.9c0,0,0.1,0,0.1,0c0,0.1-0.1,0.2-0.1,0.3
		c0,0-0.1,0-0.1,0c0,0,0-0.1,0-0.2c-0.1,0-0.1,0-0.2,0c0,0-0.1,0-0.1,0c-0.1-0.1-0.3-0.2-0.4-0.3c-0.3-0.2-0.5-0.5-0.9-0.6
		c0,0,0,0-0.1,0C61,131,61.8,131.1,62.1,131.9z M58.7,128.8c0,0.1,0,0.1,0,0.2c-0.2,0-0.3,0.1-0.4,0.2c-0.1-0.1-0.1-0.3-0.2-0.4
		C58.3,128.8,58.5,128.8,58.7,128.8z M58,129.7c0,0-0.1,0-0.1,0c-0.1-0.1-0.2-0.2-0.3-0.4C57.8,129.4,58,129.5,58,129.7z
		 M56.8,127.3c0.2,0,0.3,0,0.5,0c0,0.4-0.3,0.6-0.7,0.5c0.1-0.1,0.3-0.2,0.3-0.4C56.9,127.4,56.9,127.4,56.8,127.3z M56.9,126.8
		c0-0.2,0-0.5,0-0.7c0.5-0.1,0.6,0.3,0.6,0.7C57.3,126.8,57.1,126.8,56.9,126.8z M57.5,130.6c0,0,0.1,0,0.1,0
		C57.5,130.6,57.5,130.6,57.5,130.6C57.5,130.6,57.5,130.6,57.5,130.6z M53.9,130.1c-0.1-0.2-0.3-0.4-0.4-0.6c0,0,0,0,0,0
		c0.1,0,0.1,0,0.2,0c0.1-0.3-0.1-0.4-0.3-0.4c0-0.1,0-0.2,0-0.3c-0.1,0-0.3,0-0.4,0c-0.1-0.2-0.3-0.3-0.5-0.4
		c0.2,0.1,0.4,0.1,0.5,0.1c0,0,0,0,0,0c0.1,0,0.2,0,0.2,0c0.5,0.1,0.8,0,1.2,0c0.2,0.3,0.4,0.6,0.6,1.1c0.3-0.1,0.4-0.3,0.7-0.4
		c0.1,0.1,0.2,0.1,0.4,0.1c0,0.3,0.3,0.5,0.2,1c-0.5,0.2-0.5-0.3-0.9-0.2c-0.3,0.1-0.3-0.2-0.6-0.2c-0.1-0.3-0.3-0.4-0.6-0.6
		C54.1,129.5,54.2,130,53.9,130.1z M54.3,130.6c0,0-0.1,0-0.1,0c0-0.1,0-0.1,0-0.1C54.2,130.5,54.2,130.5,54.3,130.6z M51.1,130.2
		c0.3,0,0.6,0,0.8-0.1c-0.1-0.3-0.4-0.6-0.7-0.9c0,0,0.1,0,0.1,0c0.2,0.3,0.7,0.3,0.7,0.7c0.1,0.1,0.2,0.1,0.4,0.2
		c0.1,0.4,0.1,0.5-0.1,0.9c0.1,0,0.1,0,0.2,0c0,0,0,0,0,0c0.2,0.1,0.4,0.1,0.4,0c0.4,0.1,0.5,0.4,0.5,0.6c-0.1-0.1-0.3-0.1-0.4-0.2
		c0-0.1-0.1-0.1-0.2-0.1C52.3,131,51.7,130.7,51.1,130.2z M52.8,131.3c-0.4-0.1-0.7-0.3-1-0.4C52.1,131,52.5,131.1,52.8,131.3z
		 M51.7,131.9c0,0-0.1,0-0.1,0c0,0,0,0,0-0.1C51.6,131.9,51.7,131.9,51.7,131.9z M48.1,128.9c0.1,0,0.3,0,0.4,0.1
		c-0.1-0.1-0.2-0.2-0.1-0.4c-0.1,0-0.1,0-0.2,0c-0.6,0-1.2-0.2-1.1-0.9c0.2-0.2,0.8-0.1,1.1,0.2c0.2,0,0.3,0,0.4,0.1
		c-0.3,0-0.6,0.1-0.8,0.2c0.5,0.5,1.5-0.1,0.7,0.7c0.3,0,0.6-0.1,0.8-0.1c0,0,0.1,0.1,0.1,0.1c-0.1,0.2-0.3,0.2-0.5,0.2
		c0.2,0.1,0.4,0.2,0.5,0.3c-0.1,0.1-0.3,0.1-0.4,0.2c0.3,0.1,0.7,0.3,1.2,0.4c0.1,0.1,0.2,0.2,0.3,0.3h0
		C49.5,130.3,48.9,129.5,48.1,128.9z M50.3,131.1c-0.7,0-1.6-0.3-2.1-0.5c0.2-0.2,0.5-0.2,0.8-0.3C49.5,130.6,49.9,130.9,50.3,131.1
		z M48.2,129.8c-0.2,0-0.3,0-0.5,0.1c0.1-0.1,0.2-0.2,0.2-0.3C48.1,129.6,48.2,129.7,48.2,129.8z M44.8,126.6c0-0.3,0.2-0.4,0.2-0.7
		c0.7,0.3,1.4,0.6,2,0.9c0.1,0.5-0.4,0.4-0.4,0.7c-0.3-0.1,0-0.2,0-0.4C46.1,126.5,45.4,127.1,44.8,126.6z M44.8,125.5
		c0-0.2,0-0.4,0-0.6c-0.7-0.2-1.3-0.5-2-0.7c0-0.4,0-0.7,0.1-0.9c0.6,0.1,0.9,0.4,1.2,0.9c0.1-0.1,0.1-0.1,0.2-0.1
		c0.1,0.1,0.2,0.2,0.4,0.2c0.3,0.2,0.6,0.5,0.7-0.1c-0.1,0-0.1,0-0.1,0c0.1,0,0.1-0.1,0.2-0.1c0.3,0.2,0.3,0.8,0.5,1.2
		c-0.1,0.1-0.2,0.2-0.1,0.5c0.4,0.3,0.8,0.2,1.1,0.2c0,0,0,0.1,0,0.2c0.3,0,0.4,0.2,0.7,0.2c0,0.2-0.3,0.3,0,0.3
		c0-0.4,0.5-0.2,0.4-0.7c-0.1-0.1-0.2-0.1-0.3-0.2c0,0,0.1-0.1,0.1-0.1c0.7,0.5,1.3,1.1,2.4,1.2c0.3,0,0.2-0.4,0.3-0.5
		c0.1,0,0.2,0,0.3,0c0,0.1-0.1,0.2-0.1,0.3c0.3,0,0.6,0,0.8,0c0,0.1,0.1,0.1,0.1,0.2c-0.4,0-0.7,0-0.9,0.2c0,0.2,0,0.4,0,0.6
		c-0.1,0-0.2,0-0.2,0c0.1-0.2,0.1-0.4-0.3-0.4c-0.1,0-0.2,0-0.3,0c0.1-0.1,0.1-0.2,0.1-0.4c-0.8,0.2-0.7-0.4-1.3-0.4
		c0,0.1,0,0.1,0,0.2c0,0,0,0.1,0,0.1c-0.2-0.1-0.5-0.1-0.6,0.1c-0.1,0.8,0.5,0.9,1.1,0.9c0,0,0.1,0,0.1,0c0,0-0.1,0-0.1,0
		C47.2,127.5,46.7,125.8,44.8,125.5z M41.8,117.2c-0.6-0.1-0.7,0.2-1.1,0.2c0.6-0.7,0.4-1,1.1-1.7c0-0.7-1-0.4-0.9-1.1
		c1.4,0.5,2.3,1.5,3.3,2.4c-0.4,0-0.9,0-1.3,0c0.5-0.8-0.5-0.8-0.9-1.1c-0.1,0-0.2,0.2-0.4,0.2C41.5,116.6,41.8,116.7,41.8,117.2z
		 M41.4,122.3c0.1,0.1,0.1,0.3,0.1,0.4c-0.4,0.4-0.7-0.4-1.5-0.2c-0.1-0.9,0.6-0.9,1.1-0.5c-0.1,0.1-0.1,0.2-0.2,0.3
		C41,122.3,41.2,122.3,41.4,122.3z M44.8,123.2c0,0.1,0,0.1,0,0.2c-0.1,0-0.2,0-0.3-0.1c0.1-0.1,0.1-0.1,0.2-0.2
		C44.7,123.1,44.8,123.1,44.8,123.2z M44.8,122.6c0.1,0.1,0.1,0.2,0.1,0.3C44.9,122.8,44.8,122.7,44.8,122.6z M45.7,124
		c0,0.1,0,0.1,0,0.2c-0.4-0.3-0.7-0.5-1.3-0.5c0-0.1,0-0.1,0-0.1C44.8,123.7,45.2,123.8,45.7,124z M49.7,123.3c0.2,0.3-0.9,0-1.3,0
		c0.1-0.6,0.9-1.3,1.5-0.9C50.1,122.9,48.8,123.2,49.7,123.3z M48.8,122.1c-0.3,0.3-0.6,0.6-0.7,1c-0.5,0.1,0.1-0.9-0.4-0.7
		c0-0.5,1-0.1,0.9-0.7c0.1,0,0.1,0,0.2,0C48.8,121.8,48.8,122,48.8,122.1z M48.4,125.3c-0.1,0-0.2,0-0.3-0.1c0.1,0,0.1-0.1,0.2-0.1
		C48.4,125.1,48.4,125.2,48.4,125.3z M47.2,121c0.6,0,1.1,0.1,1.1,0.7C47.6,121.8,47,121.8,47.2,121z M46.8,124.9
		C46.8,124.9,46.8,124.9,46.8,124.9c-0.3,0-0.4-0.1-0.6-0.3C46.4,124.7,46.6,124.8,46.8,124.9z M46.1,120.9c0.6-0.1,0.7,0.6,0.4,0.9
		C45.8,121.9,45.8,121.1,46.1,120.9z M46.7,124.2c0.2,0,0.3,0,0.4,0c0,0,0,0.1,0,0.1c-0.1,0-0.3,0-0.4,0
		C46.8,124.3,46.7,124.2,46.7,124.2z M47.1,125.1c0.2,0.1,0.3,0.2,0.5,0.4c-0.1,0-0.1,0.1-0.2,0.1c-0.3-0.1-0.5-0.2-0.8-0.4
		C46.7,125.1,46.9,125.1,47.1,125.1z M47.5,122.9c-0.7,0.1-0.7-0.4-1.3-0.4c0-0.6,0.7-0.6,1.1-0.7C47.2,122.3,47.7,122.3,47.5,122.9
		z M47.3,119.9c-0.1,0-0.2-0.1-0.3,0c-0.1,0.1-0.1,0.1-0.1,0.2c-0.1,0-0.3,0-0.4,0c0.2-0.2,0.2-0.7,0.2-1.1c0.4,0.1,0.5,0.4,0.9,0.4
		C47.5,119.6,47.4,119.8,47.3,119.9z M45,117.7c0.6-0.4,1.2,0.3,1.7,0.6C46.4,118.5,44.9,118.4,45,117.7z M43.3,119.9
		c0-0.5-0.1-1.1,0.2-1.3c0.4,0.1,0.9,0.2,0.9,0.7C43.4,118.6,43.7,120,43.3,119.9z M43.6,122.7c-0.5,0-1,0-0.9-0.6
		c0.2-0.1,0.8-0.2,1.2-0.1C43.8,122.2,43.7,122.4,43.6,122.7z M43.8,123.1c0,0,0,0.1,0,0.1c0,0,0,0,0,0
		C43.8,123.2,43.8,123.1,43.8,123.1C43.8,123.1,43.8,123.1,43.8,123.1z M43.6,123c0,0.1,0,0.1,0,0.2c0.1,0,0.1,0,0.2,0.1
		c0,0.1,0.1,0.3,0.1,0.4c-0.1,0-0.1,0-0.2,0c-0.1-0.3-0.4-0.6-0.6-0.8C43.3,123,43.5,123,43.6,123z M43.9,122.7
		c0.1-0.2,0.2-0.4,0.5-0.4c0,0.2,0,0.3,0,0.4C44.2,122.7,44.1,122.7,43.9,122.7z M53.8,126.5c-0.2-0.1-0.5-0.2-0.7-0.3
		c0.8-0.2,0.9,0,1.6,0.2c0,0.3-0.5,0.4-0.9,0.4C53.8,126.7,53.8,126.7,53.8,126.5z M54,125.8c-0.5,0-1.2,0.1-1.5-0.1
		c0-0.1-0.1-0.2-0.1-0.2C52.6,125.1,54.2,125.1,54,125.8z M52.4,127.3c-0.1,0-0.1,0.1-0.1,0.2c0.2,0.1,0.4,0.2,0.6,0.3
		c0,0.1,0,0.1-0.1,0.1c-0.1,0-0.1,0-0.1,0c-0.2,0.1-0.2,0.1-0.1,0.2c0,0-0.1,0.1-0.1,0.2c0,0.1,0,0.1,0,0.2
		c-0.1-0.1-0.2-0.1-0.2-0.2c-0.4,0-0.5,0.2-0.8,0.3c0,0-0.1,0-0.2-0.1c0-0.3,0.4-0.2,0.4-0.5c0.2-0.1,0.4-0.4,0.6-0.7
		C52.4,127.2,52.4,127.3,52.4,127.3z M52.4,129.5c-0.1,0-0.2,0-0.3,0c0-0.3-0.6-0.5-0.5-0.7C51.9,129.1,52.1,129.3,52.4,129.5z
		 M49.9,128.2c0.2,0,0.5-0.1,0.5-0.2c-0.2-0.1-0.2-0.2-0.1-0.3c0.1,0,0.2,0,0.3,0c0,0.1,0,0.1,0,0.2c0.4,0.2,0.6,0.3,0.8,0.2
		c-0.2,0.3-0.3,0.6-0.5,0.8C50.6,128.6,50.3,128.4,49.9,128.2z M55.6,127.5c0.1-0.2,0.4-0.2,0.7-0.2c0.1,0.1,0.1,0.2,0,0.4
		c-0.2,0-0.4,0-0.6-0.1C55.7,127.6,55.7,127.5,55.6,127.5z M39.4,116.6c-1.1,0.6-1.2-1.3-2.8-0.9c0.5-0.7,1.8-0.5,2.6-0.9
		c-0.4,0.5-0.6,1.1-1.1,1.1C38.5,116.3,39.4,115.6,39.4,116.6z M22.8,92.1c0-0.4,0-0.7,0-1.1c0.7-0.1,0.8,0.3,0.7,0.9
		C23.3,91.9,23.2,92.2,22.8,92.1z M23.6,101c-0.1-0.1-0.2-0.3-0.3-0.3C23.4,100.7,23.5,100.8,23.6,101z M21,91.4c0,0-0.1,0-0.1,0.1
		c0.1-0.3,0.4-0.6,0.6-0.8c0.2,0,0.3,0,0.4,0.2c0,0.1,0,0.1,0,0.2c0,0.1,0,0.1,0,0.2c0.2,0,0.2,0.3,0.2,0.6
		C21.5,91.8,21.4,91.5,21,91.4z M21.4,94.5c-0.1,0-0.1,0-0.2,0c-0.2-0.2-0.1-0.5-0.1-0.9C21.3,93.8,21.4,94.2,21.4,94.5z M20.2,91.9
		C20.3,91.9,20.3,91.9,20.2,91.9c-0.1,0.1-0.2,0.3-0.2,0.4c0,0-0.1,0-0.2,0c0-0.2,0-0.4,0-0.5c0-0.3-0.3-0.5-0.5-0.8
		c0-0.1,0-0.1-0.1-0.2c0.1-1-0.1-1.9-0.4-2.7c0.3,0.2,0.1,1,0.8,0.9c0-0.1,0-0.2,0-0.4c0,0,0,0,0,0c0.1,0.1,0.2,0.2,0.4,0.2
		c0,0.2,0,0.4,0,0.6c-0.1,0.9,1.2,1,0.6,1.8C20.1,91.1,20,91.7,20.2,91.9z M18.8,86.2c0.9,0.4,0.2,1.1,0.7,1.8
		C18.9,87.9,18.5,86.7,18.8,86.2z M19.5,87.3c0-0.1,0.1-0.2,0.2-0.2c0,0.1,0,0.2-0.1,0.3C19.6,87.4,19.5,87.4,19.5,87.3z M20.6,87.3
		c0,0.1,0,0.1,0,0.2c-0.2,0-0.4,0-0.6,0c0-0.2-0.1-0.4-0.3-0.4c0.3,0,0.7,0.1,0.9,0c-0.1-0.7-1.3-0.3-1.5-0.9
		c-0.1-0.2-0.2-0.5-0.3-0.8c0.1-0.1,0.3-0.1,0.5-0.1c0-0.4-0.3-0.5-0.6-0.6c0-0.2-0.1-0.5-0.1-0.7c0-0.1,0-0.1,0-0.2
		c0.1,0,0.2,0,0.3-0.2c-0.3,0.1-0.1-0.4-0.2-0.6c0.2-0.1,0.3-0.2,0.3-0.5c-0.9-0.1-0.6-1.2,0-1.5c-0.6-0.2-1-0.5-0.9-1.3
		c0.4,0.1,0.8,0,1.1-0.1c0.1,0.2,0.3,0.3,0.5,0.4c0,0.1-0.1,0.2-0.1,0.3c-0.3,0.4-0.4,1.1,0.3,1.2c0,0,0,0,0,0
		c-0.4,0.1-1.1-0.2-0.9,0.4c0.3,0,0.5,0,0.8,0c-0.1,0.1-0.2,0.2-0.5,0.2c-0.1,0.4,0.3,0.4,0.2,0.9c0.1,0.8,0.2,1.6,0.6,2.2
		c0.1,0.3,0.5,0.3,0.9,0.4c0,0.1,0,0.1,0.1,0.2c-0.4,0.1-0.9,0.2-0.9,0.7c0.4,0,0.7,0,1.1,0c0,0.2,0,0.3,0,0.5
		C20.9,87.1,20.7,87.1,20.6,87.3z M18.3,85.3c0-0.1,0-0.2,0-0.2c0.3-0.1,0.3,0.1,0.4,0.2C18.5,85.3,18.4,85.3,18.3,85.3z M18.4,86.2
		C18.4,86.2,18.4,86.2,18.4,86.2c0-0.1-0.1-0.2-0.1-0.3C18.4,86,18.4,86.1,18.4,86.2z M17.7,83.7c0-0.1,0-0.3,0-0.4c0,0,0,0-0.1,0
		c0.2-0.1,0.4-0.2,0.6-0.3c0,0.1,0,0.3,0,0.4c0,0.1,0,0.1,0,0.2c0.1,0.5,0.2,0.8,0.3,1.2c-0.1,0-0.1,0-0.2,0
		c-0.2-0.3-0.1-0.8-0.3-1.1C17.9,83.6,17.8,83.6,17.7,83.7z M18.1,84.6C18,84.6,18,84.6,18.1,84.6c-0.1,0-0.1,0-0.1,0
		C18,84.6,18,84.6,18.1,84.6z M17.9,84.3c0-0.1-0.1-0.2-0.2-0.2c0-0.1,0-0.1,0-0.2c0,0,0,0,0,0C17.9,83.9,17.9,84.2,17.9,84.3z
		 M15.9,83c-0.1,0-0.1-0.1-0.2-0.1c0.2-1.1-0.5-1.2-0.6-2c0.3,0.2,0.5,0.4,0.9,0.6c-0.3,0.7,0,0.8,0.2,1.2c-0.2,0-0.3-0.1-0.4-0.1
		C15.6,82.6,15.8,82.8,15.9,83z M14.4,80c0.1-0.2,0.3-0.2,0.4,0C14.6,79.9,14.5,79.9,14.4,80z M14.9,80.4c0,0.2,0,0.3,0,0.5
		c-0.1,0-0.2,0-0.3-0.1C14.8,80.7,14.9,80.6,14.9,80.4z M15.1,82c0.6-0.1,0.1,1,0.6,1.1c-0.3,0.6-0.5-0.5-1.1-0.2
		C14.4,82.2,15.5,82.8,15.1,82z M15.8,74.6c-0.2-0.2-0.3-0.3-0.4-0.3c0-0.2,0-0.4-0.1-0.5c0.1-0.1,0.2-0.3,0.4-0.3
		C15.7,74.1,15.7,74.1,15.8,74.6z M15.5,75.3c0,0,0-0.1,0-0.2c0.1,0,0.1,0,0.2,0c0.3,0.4,0.4,0.3,0.2,0.9c0.7-0.1,1.3,0.1,1.3,0.7
		c-0.2-0.3-1.1-0.6-1.5-0.2c0,0.1,0.1,0.2,0.2,0.2c-0.1,0-0.2-0.1-0.4-0.1c0.1,0.4,0.3,0.8,0.3,1.2c-0.5-1-0.3-1.7-0.9-2.8
		c0.1,0,0.3,0,0.4,0C15.4,75.2,15.4,75.3,15.5,75.3z M15.7,66.1c0-0.1,0-0.1,0-0.2c0-0.9,0.1-1.6,0.9-1.7c0,0.2,0,0.5,0,0.7
		c0,0.1,0,0.1,0,0.2c-0.5,0.4,1,1.5,0.5,2c0,0,0,0-0.1,0c0,0,0,0,0,0c-0.1,0-0.1,0.1-0.2,0.1c0.1,0.3,0.2,0.6,0.4,0.8
		c-0.1,0.4-0.3,0.8,0,1.2c-0.9,0.1-1-0.5-1.3-1.1C17,67.9,15.1,66.6,15.7,66.1z M14.1,67.4c-0.1,0.2-0.1,0.5-0.1,0.8
		c-0.1-0.1-0.2-0.2-0.3-0.2c0-0.1,0-0.1,0-0.2C13.8,67.7,13.9,67.6,14.1,67.4z M13.6,66.7C13.6,66.7,13.6,66.7,13.6,66.7
		c0.1,0,0.1-0.1,0.2-0.1c0,0,0,0.1,0,0.1C13.7,66.7,13.7,66.7,13.6,66.7z M13.9,62.4c0-0.4,0.1-0.7,0.1-0.9c0.1,0,0.3,0,0.4-0.1
		c0.8,0.5,0.2,1.3,0.5,2c-0.2,0-0.3,0-0.4,0.2c0,0,0,0,0,0C14.5,63,14.4,62.5,13.9,62.4z M14.4,59.5C14.4,59.5,14.4,59.5,14.4,59.5
		c0.4,0.3,0.4,1.2,0.1,1.7C14.2,60.5,14.7,59.9,14.4,59.5z M14.9,61.2c0-0.2,0-0.4,0-0.6c-0.1,0-0.1,0-0.2,0
		c0.2-0.7,0.5-1.3,1.1-1.5c-0.1,0.2-0.1,0.4-0.2,0.6c0.1,0,0.1,0,0.2,0c0,0.1,0,0.2,0,0.3c-0.3,0.1-0.6,0.2-0.7,0.5
		c0.2,0.2,0.5,0.2,0.8,0.3c0,0.2,0.1,0.3,0.1,0.5c-0.6,0.8-0.7,1.7-0.3,2.9c-0.4,0-0.2-0.5-0.7-0.4C15.6,63.2,14.9,62.2,14.9,61.2z
		 M16.5,63.1c0.4,0.1,0.8,0.1,1.1,0.3c-0.6,0-0.8,0.2-1,0.6c-0.2-0.3-0.6-0.3-0.5-0.9c0,0,0.1,0,0.1,0
		C16.4,63.1,16.4,63.2,16.5,63.1C16.6,63.1,16.5,63.1,16.5,63.1z M17.6,62.1c-0.2,0-0.3,0-0.5-0.1c-0.1,0.5,0.1,0.6,0.3,0.8
		c-0.1,0-0.1,0.1-0.1,0.2c-0.5,0-0.4-0.7-0.7-0.9c0.6,0.1,0.3-0.5,0.9-0.7C17.4,61.8,17.4,62,17.6,62.1z M19.6,59.4
		c0.1-0.2,0.3-0.3,0.5-0.4c0.1,0.8,0,1.8,0.3,2.4c0,0.1,0,0.2,0.1,0.4c0,0.1,0.1,0.1,0.2,0.1c0,0.1,0,0.3,0,0.4
		c-0.2,0.3-0.6,0.4-0.2,0.9c-0.3-0.4-0.8-0.2-0.9-0.4c-0.1-0.4-0.2-0.8-0.1-1.1c0.1,0.1,0.2,0.2,0.3,0.3c0.3-1,0.2-1.3,0.4-2.4
		C19.8,59.6,19.6,59.5,19.6,59.4z M20.4,53.1c0.2,0,0.5,0,0.7,0c-0.1,0.6,0.5,0.4,0.4,0.9c-0.3,0.5-0.9,0.7-1.3,1.1
		c0,0.7,0.3,0.5,0.7,0.4c-0.2,0.6-0.8,0.9-1.2,1.3c0.1-0.6,0.2-1.1-0.1-1.7C20,54.5,20.4,53.8,20.4,53.1z M20.3,50.9
		c0,0,0.1,0,0.1,0.1c0,0.1-0.1,0.1-0.1,0.2C20.3,51,20.3,50.9,20.3,50.9z M22.7,48.6c0.6,0.1,0.4,0.1,0.9,0
		c-0.2,0.7-0.4,1.6-0.7,2.2C22.4,50.1,23.5,49.4,22.7,48.6z M23.2,53.4c-0.1-0.6,0.6-0.4,0.4-1.1c0.1,0,0.2,0,0.2,0.1
		c-0.1,0.4-0.3,0.7-0.4,1.1C23.4,53.5,23.3,53.5,23.2,53.4z M23.2,85.1c-0.1-0.1-0.1-0.1-0.2-0.2c0,0,0.1,0,0.1,0
		C23.2,85,23.2,85,23.2,85.1z M21,82.2c0-0.1,0-0.1,0.1-0.2c0.4,0.1,0.9,0.1,1.3,0.2c0,0.1,0,0.1,0,0.2c-0.4,0.2-0.6,0.6-1,0.8
		c-0.1-0.3-0.2-0.5-0.4-0.7C21.1,82.5,21.1,82.4,21,82.2z M18.4,77.7c0.1,0,0.1,0.1,0.1,0.2c-0.6,0.1-1.1,0.1-1.4,0.4
		c-0.3-0.1-0.2-0.5-0.2-0.7c-0.2,0-0.3,0-0.4,0c0-0.1-0.1-0.2-0.2-0.3c0.9,0.4,1.2,0.6,2.6,0.2c0-0.3-0.3-0.4-0.7-0.4
		c0-0.6,1.5,0.5,2,0c0,0.7-0.3,1.2-0.5,1.8c-0.1,0-0.1,0-0.2,0c-0.1-0.2-0.1-0.6-0.1-0.8c0.2-0.1,0.4-0.3,0.4-0.7
		C19.3,77.4,18.7,77.4,18.4,77.7z M17.5,78.7c0.2-0.2,0.6-0.3,1-0.3c0,0.1,0.1,0.1,0.3,0.1c0.1-0.1,0.1-0.1,0.2-0.2c0,0,0,0,0,0
		c0,0.7-0.7,0.7-1.1,1.1C17.2,79.4,17.9,78.7,17.5,78.7z M17.9,79.8c-0.1,0.2-0.3,0.3-0.4,0.6c-0.3,0-0.4-0.3-0.4-0.7
		C17.5,79.5,17.6,79.7,17.9,79.8z M18.5,73c-0.1,0.3-0.2,0.6-0.2,0.9c0.4-0.3,0.6-0.2,0.8,0c-0.2,0.3-0.4,0.6-0.6,0.7
		c-0.2,0.6,0.3,0.6,0.6,0.7c-1.1,1.2-0.4-1.4-1.7-0.6c0.2-1.2,0.9-2-0.2-2.6c0.3,0,0.6,0,0.9,0c0.1,0.2,0.2,0.4,0.2,0.7
		C18.3,73,18.4,73,18.5,73z M18.2,71.5C18.3,71.5,18.3,71.5,18.2,71.5c0.3,0.1,0.4,0.3,0.4,0.5c-0.1,0-0.1,0-0.2,0.1
		C18.3,71.9,18.2,71.7,18.2,71.5z M19,66.1c-0.7-0.2-0.1-0.5-0.2-1.1c0.4-0.1,0.6,0,0.6,0.4c-0.1,0.4,0.2,1.3-0.2,1.5
		C18.4,66.9,19.1,66.5,19,66.1z M19,67.4c0.2,0,0.3,0,0.4-0.2c0.6,0.5,0.4,1.8,0.7,2.6c0,0.8,0.3,1.2,0.2,2
		c-0.3-1.2-1.1-1.9-1.1-3.5C19.2,67.9,18.8,68,19,67.4z M20.8,80.7c0.1-0.4,0.6-1.1,0.9-1c0,0,0,0,0,0c0,0,0,0,0.1,0
		c0,0,0.1,0,0.1,0.1c0,0.1,0,0.2,0.1,0.3c0,0.1,0,0.1,0,0.2C22.1,81,21.2,80.6,20.8,80.7z M19.9,72.8C19.9,72.8,19.9,72.8,19.9,72.8
		c0.2,0.1,0.4,0.2,0.7,0.2c-0.3,0.2-0.2,0.8-0.2,1.3C19.4,74.1,20.6,73.4,19.9,72.8z M20,72.4c0,0,0-0.1,0-0.1
		C20.1,72.3,20.1,72.4,20,72.4C20.1,72.4,20.1,72.4,20,72.4z M21,75.5C21,75.6,21,75.6,21,75.5c-0.2,0.5-0.2,0.8,0,1.3
		c-0.3,0-0.6,0-0.9,0C20,76,20.4,75.7,21,75.5z M20.4,78.7c0.3-0.3,0.7-0.6,0.9-0.3c0.1,0,0.1,0,0.2,0c0,0,0,0,0.1,0
		c0,0.2,0.1,0.4,0.1,0.5c-0.1,0.2-0.1,0.3-0.2,0.4c-0.5,0.1-0.7-0.2-1-0.3c0,0,0-0.1,0-0.1C20.6,78.9,20.5,78.8,20.4,78.7z
		 M21.5,77.7c0,0-0.1,0.1-0.1,0.1c0-0.1,0.1-0.1,0.1-0.2C21.5,77.6,21.5,77.6,21.5,77.7z M21.6,78.2c0,0,0,0.1,0,0.1
		c-0.2,0-0.3-0.1-0.3-0.2C21.4,78.1,21.5,78.1,21.6,78.2z M21.4,77.3c-0.1-0.1-0.2-0.1-0.4-0.1c0.1-0.3,0.3-0.4,0.4-0.3
		C21.4,77,21.4,77.2,21.4,77.3z M20.5,79.5c0.2,0,0.4,0.1,0.5,0.1c0,0.3-0.2,0.4-0.2,0.7c-0.1,0-0.1,0-0.2,0
		C20.4,80,20.4,79.9,20.5,79.5z M20.9,70c0,0,0,0.1,0,0.1c-0.2,0.3-0.1,0.6,0,1c0,0.4,0,0.8,0,1.2c-0.6-0.5-0.4-1.8-0.6-2.7
		C20.8,69.4,20.5,70.1,20.9,70z M19.9,71.3c0,0.1,0,0.1,0,0.1c0,0-0.1-0.1-0.1-0.1C19.8,71.3,19.9,71.3,19.9,71.3z M19.3,70.2
		C19.3,70.2,19.3,70.2,19.3,70.2c-0.1,0.4-0.2,0.3-0.5,0.3C19,70.3,19.1,70.2,19.3,70.2z M19.6,71.4c-0.1,0.3,0,0.7-0.4,0.6
		c0-0.2,0-0.4-0.1-0.6C19.2,71.5,19.4,71.5,19.6,71.4z M17.3,73.7c0.2,0.8-1.3,0.8-1.1,0C16.8,73.8,16.9,73.3,17.3,73.7z M19.9,80.7
		c0.6,0,0.9,0.3,1.4,0.4c-0.1,0.2-0.1,0.3-0.3,0.4c0-0.1-0.1-0.3-0.1-0.4c-0.3,0-0.7,0-1,0C19.9,80.9,19.9,80.8,19.9,80.7
		C19.9,80.7,19.9,80.7,19.9,80.7z M85.2,18.5c1.4-0.3,2.8,0.2,3.8,1C87.8,19.1,86.5,18.8,85.2,18.5z M20.9,68.1
		c-0.1-0.2-0.1-0.5-0.1-0.8c-0.2-0.7-0.4-0.7-0.2-1.5c0.1-0.1,0.2-0.1,0.4-0.1C21,66.4,20.9,67.2,20.9,68.1z M20.5,59.5
		C20.5,59.5,20.5,59.5,20.5,59.5c0-0.1,0-0.2,0-0.4C20.5,59.3,20.5,59.4,20.5,59.5z M20.5,59.1c0-0.1,0-0.1,0-0.2c0,0,0,0,0,0
		C20.5,59,20.5,59.1,20.5,59.1z M20.3,63c0.2,1.2-1.6,0.8-1.3-0.2C19.6,62.9,19.6,63.4,20.3,63z M19.7,64.5c0,0.1-0.1,0.2-0.1,0.3
		c-0.2,0.1-0.5-0.1-0.9-0.1c0-0.1,0-0.1,0-0.2C19,64.3,19.4,64.3,19.7,64.5z M18.8,69.1c-0.6-0.3-0.8-0.8-0.8-1.4
		c0.1-0.4,0.3-0.8,0.1-1.2c0-0.1,0-0.2,0-0.3c0.1,0,0.1-0.1,0.2-0.1C18.6,67,19,68.3,18.8,69.1z M17.8,62.8c0-0.4,0.3-0.1,0.6,0
		c0,0.1,0,0.1,0,0.2C18.4,62.9,18.1,62.8,17.8,62.8z M18,70.6c0,0.2,0,0.4,0.3,0.5c0.1-0.1,0.1-0.1,0.2-0.2c0,0.1,0,0.1,0,0.2
		c-0.1,0-0.3,0.1-0.4,0.2c0,0,0,0,0,0c0,0,0,0,0,0c-0.3,0.2-0.5,0.5-0.7,0.8c-0.8-0.4,0.4-1-0.4-1.7C17.2,70.5,17.6,70.5,18,70.6z
		 M17.3,63.7c0,0,0.1-0.1,0.1-0.1C17.4,63.6,17.4,63.6,17.3,63.7L17.3,63.7z M17.7,63.5c-0.1,0-0.1,0-0.2,0.1
		C17.6,63.5,17.6,63.5,17.7,63.5C17.7,63.5,17.7,63.5,17.7,63.5z M16.4,59.7c-0.2,0-0.3-0.1-0.4-0.2c0.1-0.2,0.2-0.3,0.4-0.4
		C16.4,59.3,16.4,59.5,16.4,59.7z M15.8,58.2c0-0.1,0-0.2,0-0.2c0.1,0,0.2,0,0.4,0.1C16.1,58.1,15.9,58.1,15.8,58.2z M16.9,70.9
		c0,0.5-0.3,0.6-0.4,0.9c-0.3-0.1-0.5-0.3-0.7-0.4C16.2,71.3,16.5,71,16.9,70.9z M15.8,78.7c0,0.1,0,0.2,0,0.3c0.2,0,0.4,0,0.5-0.1
		C16.3,79,16.1,79,16,79c0,0.4,0.1,0.7,0.2,1c-0.1,0-0.1-0.1-0.2-0.1c0,0.2,0.1,0.4,0.2,0.6c0,0.1,0,0.1,0,0.2
		c-0.4-0.4-0.3-1.3-0.6-1.8C15.7,78.8,15.8,78.8,15.8,78.7z M16.5,81.1c0.1,0.2,0.1,0.5,0,0.8c0.3,0.1,0.5,0.3,0.7,0.4
		c0-0.6-0.2-0.8-0.4-1c0.3,0.1,0.6,0.2,1.1,0.1c0,0.4,0,0.7,0,1.1c-0.4-0.4-0.9,0.2-1.7,0C16.2,82,16.2,81.5,16.5,81.1z M21.7,90.6
		c0.1,0,0.1-0.1,0.2-0.1c0.1,0,0.1,0.1,0.2,0.1c0,0,0,0.1,0,0.1C21.9,90.7,21.8,90.6,21.7,90.6z M21.8,86.5c0,0,0.1,0,0.1,0
		c0,0,0,0.1,0,0.1C21.9,86.6,21.8,86.6,21.8,86.5z M22.1,89.5C22.1,89.5,22.1,89.5,22.1,89.5C22.1,89.5,22.1,89.5,22.1,89.5
		C22.1,89.5,22.1,89.5,22.1,89.5z M22.1,85.6c-0.1,0-0.1,0-0.2,0c0-0.2-0.1-0.5-0.2-0.7c0.1,0,0.1,0,0.2,0c0-0.1-0.1-0.2-0.1-0.2
		c0.4,0.6,0.6,1.4,0.9,2.1c-0.1,0.1-0.2,0.1-0.3,0.1C22.2,86.6,22.1,86.2,22.1,85.6z M23.2,101.1c-0.2,0-0.3-0.1-0.4-0.2
		C22.9,101,23,101.1,23.2,101.1z M23.7,101.6c0-0.2-0.1-0.4-0.1-0.5c0,0.8,0.2,1.3,0.4,1.6c0.3,0.5,0.8,0.7,1.2,1.2
		c-0.5-0.5-0.9-0.8-1.2-1.2c-0.2-0.4-0.4-0.8-0.4-1.6C23.6,101.2,23.7,101.4,23.7,101.6z M25.2,92.7c0.4,0.1,0.8,0.2,1.1,0.4
		c0,0.3-0.6,0.1-0.6,0.6C25.5,93.4,25.2,93.3,25.2,92.7z M25.6,92.3c-0.3,0-0.4-0.2-0.7-0.2c0.2-1.4-0.7-1.8-0.7-2.9
		c-0.6,0.1-1,0.1-1.3,0c0,0,0,0,0-0.1c0-0.1,0-0.4,0.2-0.4c0-0.1,0-0.2,0-0.4c0.4,0,0.8,0.1,0.9-0.2c-0.1-0.5-0.2-0.9,0-1.1
		c0.5,1.4,1.1,2.7,1.7,4.1C25.3,91.5,25.2,91.8,25.6,92.3z M29.2,97.7c-0.2-0.2-0.3-0.4-0.5-0.7C28.9,97.2,29,97.5,29.2,97.7z
		 M123.1,49.6C123.1,49.6,123.1,49.6,123.1,49.6C123.1,49.6,123.1,49.6,123.1,49.6C123.1,49.6,123.1,49.6,123.1,49.6z M105.5,27.5
		c-1.8-1.3-3.7-2.5-5.6-3.6C102.2,24.3,104,25.7,105.5,27.5z M104,21.3C104,21.3,104,21.3,104,21.3C104,21.3,104,21.3,104,21.3
		C104,21.3,104,21.3,104,21.3z M101.3,17c1.2-0.5,1.7,0.4,3.1,0.2c0.1,0.4,0.2,0.8,0.4,1.1c0.6,0.1,0.7-0.3,1.3-0.2
		c-1,0.2,0,1,0.7,1.1c-3.1,0.5-6.7,0-8.3-2c-0.8,0.2-1.2,0-1.8-0.4C97.8,15.9,100.4,15.4,101.3,17z M95.8,20.8
		c0.4,0.3,0.1,0.7-0.1,1.1c-0.4-0.2-0.8-0.4-1.2-0.5C95,21.3,96,21.6,95.8,20.8z M95.2,17.3c-1.6,0.2-3.2-0.9-5.2-0.6
		C90.3,14.1,94.6,15.4,95.2,17.3z M90.1,18.6c0.7,0,1.2,0.2,1.7,0.4C91.5,19.3,89.9,19.4,90.1,18.6z M89.2,15.3
		c-0.3,1.2-2.5,0.5-3.5,0.9C86.3,15.4,87.9,15.5,89.2,15.3z M74.1,11.6c-0.1,0.9-1.2,0.4-1.7,0.2C72.6,11.1,73.3,11.9,74.1,11.6z
		 M72.2,12.2c-0.5,0.3-0.5-0.3-1.3,0C70.7,11.6,72.5,11.6,72.2,12.2z M66.9,14.6c2.6-0.7,5.4-2.2,8.3-0.9c-0.7,0.1-1.2-0.5-1.7,0
		c0,0.7,0.8,0.7,0.7,1.5c-1.2-0.2-2.3,0.3-2.6-0.6c0.7-0.3,0.7,0.4,1.7,0c-0.5-0.6-0.9-0.4-1.8-0.4C70.8,16,68.5,14.5,66.9,14.6z
		 M36.6,32.5c-0.2,0.2-0.4,0.4-0.6,0.6C35.7,32.8,36.2,32.5,36.6,32.5z M27.3,44.6c0,0.1-0.1,0.1-0.1,0.2
		C27.2,44.7,27.2,44.7,27.3,44.6C27.3,44.6,27.3,44.6,27.3,44.6z M26.5,46.2c-0.3,0.5-0.5,1.1-0.8,1.7
		C25.8,47.1,26.1,46.7,26.5,46.2z M25.1,45.5c-0.4-0.4,0.1-0.8,0.4-1.1C25.8,44.6,25.7,45.7,25.1,45.5z M24.9,44.4
		C24.5,43.1,26.3,43.3,24.9,44.4L24.9,44.4z M22.7,47.5c0.7-0.3,0.8-1.3,1.3-1.8c-0.3,0.9,0.3,1.2,0.6,2.4c-0.3,0-0.6,0.1-0.7,0.4
		c-0.4,0-0.1-0.7-0.2-0.9c-0.5-0.1-0.4,0.4-0.6,0.6c-0.4-0.3-0.8-0.5-1.3-0.7C21.8,47,22.5,47.4,22.7,47.5z M21.6,50.1
		c0.2,0,0.4,0,0.6,0c0.1,0.4-0.1,0.5-0.2,0.7C21.6,50.8,21.5,50.5,21.6,50.1z M22.5,51c0,1.1-0.5,1.5-0.6,2
		c-0.7,0.2-0.8-0.3-1.1-0.6c0.5-0.2,1.3,0,1.3-1.1c-0.7,0.3-1.3,0.2-1.8,0.7c0.1-0.4,0.1-0.8,0.1-1.2C21.1,51.2,21.4,51.1,22.5,51z
		 M21.2,45.5c0.2,0.7-0.2,0.8-0.3,1.2h0C21,46.4,21.4,46.2,21.2,45.5z M20,50.3c0.2,0,0.3,0,0.5,0c0,0,0,0,0,0
		c-0.3,0.2-0.3,0.6-0.5,0.9c-0.1,0-0.2,0-0.4,0c0.1-0.3,0.2-0.4,0.2-0.8C19.8,50.4,19.9,50.3,20,50.3z M18.6,48.3c0-0.1,0-0.1,0-0.2
		c0.2-0.4,0.9-0.1,1.1-0.5c0,0.3-0.2,0.6-0.2,1c0,0,0,0,0,0c0,0,0,0,0,0c0,0.2,0,0.4,0,0.5c-0.3,0-0.5,0-0.8,0
		c-0.1,0.2-0.1,0.3-0.1,0.4c0,0-0.1,0-0.1,0C18.5,49,19,48.7,18.6,48.3z M17.9,50.1c0.3,0,0.6,0,1,0c0,0.1-0.1,0.2-0.3,0.3
		c0.1,0,0.2,0,0.3,0c0,0.2,0.1,0.2,0.5,0.4c0,0.2-0.1,0.3-0.2,0.3c-0.3,0-0.7-0.1-0.9,0c0,0.1,0,0.2,0,0.2c-0.2,0-0.3,0-0.5,0
		C18.3,50.8,17.5,50.8,17.9,50.1z M17.3,52.1c0.1,0,0.3,0,0.4,0c-0.1,0.1-0.2,0.3-0.2,0.5c0.4,0.1,0.4-0.5,0.6-0.5c0,0,0,0,0.1,0
		c0.1,0,0.1,0,0.2,0.2c-0.4,0.5-0.1,1.2-1.1,0.7c0,0,0,0,0,0.1c-0.3-0.1-0.2,0.6-0.7,0.5C16.6,52.9,17.4,52.9,17.3,52.1z M17.3,53.6
		c0.2,0.3,0.5,0.5,0.2,0.6c-0.4-0.4,0,0.3,0.2,0.4c0.8,0.1,0.3-0.9,1.1-0.7c0,0.3,0.1,0.4,0.2,0.5c0,0,0,0,0,0
		c-0.1,0.1-0.1,0.3-0.1,0.4c-0.8,1.1-0.9,3.1-0.2,4.4c0,0.1,0,0.2,0,0.4c0,0.1,0,0.1,0,0.2c0,0,0,0,0,0.1c-0.4,0-1-0.1-0.6,0.5
		C18,60,18.3,60,18.6,60c0,0.2,0,0.4,0.2,0.4c-0.1,0.3-0.4,0.6,0,0.7c0.1,0,0.1,0,0.2,0c0,0,0.1,0.1,0.1,0.1c0,0.5,0,0.9-0.3,1.6
		c-0.1-0.1-0.1-0.1-0.2-0.2c0-0.1,0-0.1,0-0.2c-0.1-0.1-0.2-0.1-0.4-0.2c-0.1-0.1-0.1-0.1-0.2-0.2c-0.1,0-0.1,0-0.2,0
		c-0.5-0.2,0.1-0.6,0-0.9c0.1-0.3-0.9-0.3-0.7,0c-0.6-0.7,0.6-0.3,0.9-0.6c-0.4-0.5-0.7-1.2-0.8-1.9c0,0,0,0,0,0c0-0.2,0-0.5,0-0.7
		c0,0,0,0-0.1,0c0-1,0.3-2,0.8-2.6c0-0.3-0.2-0.4-0.2-0.7c-0.7-0.1-0.4,0.8-1,0.7c-0.1-0.2-0.1-0.3-0.2-0.4c0.3-0.2-0.5-0.5-0.2-1.1
		C17.2,54.3,17.2,54,17.3,53.6z M16.4,52.1c0,0.1-0.1,0.2-0.1,0.4c0-0.1,0-0.3,0-0.4C16.3,52.1,16.3,52.1,16.4,52.1z M16.2,54.5
		c0,0.1,0,0.1,0,0.2c-0.1-0.1-0.2-0.1-0.3-0.2C16.1,54.5,16.1,54.5,16.2,54.5z M15.8,56.2c0.2,0.2,0.2,0.6,0.2,1
		c-0.2,0.1-0.3,0.1-0.6,0.1C15.5,56.8,15.4,56.2,15.8,56.2z M15.5,50.5c0,0.2,0,0.3,0,0.5c-0.1,0.2-0.2,0.5-0.2,0.8c0,0,0,0.1,0,0.1
		c-0.1,0.2-0.2,0.3-0.4,0.4c0,0,0,0,0.1,0.1c-0.2,0.2-0.3,0.5-0.6,0.6c0-0.1,0-0.2,0-0.3C14.5,51.8,15,51.1,15.5,50.5z M14.4,50.1
		c0.6,0.1,0.3,0.7,0.2,1.1C14.3,51,14.2,50.3,14.4,50.1z M13.6,56.2c0-0.2,0-0.4,0-0.6c0.2-0.8,0.1-1-0.2-1.7
		c0.4-0.2,0.5-0.7,0.9-0.9c0.3,0.6,0.4,0.8,0.2,1.6c0,0.2,0,0.4,0,0.6c-0.4,1-0.3,2.2,0,3.1c0.1-0.1,0.2-0.1,0.3-0.2
		c0.2,0,0.3-0.1,0.4-0.1c0.1,0,0.2,0.1,0.4,0.2c-0.5,0.2-0.8,0.7-0.7,1.1c-0.1-0.1-0.2-0.1-0.3-0.2c0.1-0.1,0.2-0.3,0.1-0.6
		c-0.6-0.1-0.7,0.2-0.7,0.6c-0.1,0-0.2,0.1-0.3,0.2C13.3,58.4,13.3,57.2,13.6,56.2z M12.3,62.1c0.3-0.4,0.4-1.1,0.7-1.5
		c0-0.7,0-1.3,0.7-1.1c0.2,0.6-0.3,0.6-0.4,0.9c0,0,0.1,0.1,0.1,0.2c-0.1,0.2-0.2,0.4-0.3,0.6c0.1,0.1,0.2,0.2,0.3,0.2
		c0,0.3-0.1,0.6,0.1,0.9C13.1,62.5,12.7,62.5,12.3,62.1z M12.5,69.6c-0.7-0.6,0-1.7-0.6-2.8c0.4-0.3,0.3,0.1,0.9,0
		c0-0.5-0.3-0.4,0-0.7c0-0.3-0.6-0.1-0.7-0.4c-0.1-1.2,0.4-1.7,0.4-2.4c0.3-0.1,0.5,0,0.7,0.1c-0.1,0.4-0.2,0.8-0.2,1.4
		c0.1,0.2,0.4,0.1,0.6,0.2c0,0.3,0,0.6,0,0.9c-0.4,0-0.5-0.3-0.8,0c0.3,0.5,0.2,1,0.2,1.5c-0.1,0-0.2,0.1-0.4,0.2
		C12.6,68.2,12.9,69.3,12.5,69.6z M13.4,69.8c-0.5,0-0.5-1-0.3-1.5c0.1,0.1,0.1,0.3,0.3,0.4c0.1-0.1,0.2-0.2,0.2-0.4
		c0.1,0,0.1,0,0.2,0C13.9,69.1,13.8,69.5,13.4,69.8z M14.6,76.3c-0.8-0.9-0.6-1.9-0.7-3.3C14.5,73.9,14.7,75.2,14.6,76.3z M13.8,70
		c0.2-0.3,0.4-0.8,0.3-1.2c0.1,0,0.1,0.1,0.2,0.1c0.3-0.3,0.5-0.8,0.4-1.5c-0.2,0-0.4-0.1-0.5-0.2c0.3-0.5,0.5-1.1,0.3-1.5
		c0.1,0,0.1,0,0.2,0c-0.1-0.3-0.2-0.7-0.2-1.1c0.3-0.1,0.3-0.5,0.8-0.4c0.3,0.3,0.2,0.9,0.2,1.5c-0.2,0-0.4,0-0.6,0
		c0.7,1.1,0.2,1.6,0.9,2.2c-0.2,0.3-1,0.1-0.9,0.7c0.1,0.4,0.5,0.4,0.7,0.6c-0.4,0.7-1.2,2.7,0.2,2.9c-0.3,0.1-0.5,0.5-0.6,0.9
		c-0.1-0.4-0.3-0.8-0.5-1.1c0.1,0.9,0,1.6,0.2,2.3c-0.1,0-0.1,0-0.2,0C14.1,72.8,14.9,71.2,13.8,70z M15.7,78.7
		c-1.2,0.2,0,0.5,0,1.1c-0.2,0.1-0.4,0.2-0.7,0.2c0.1-1-0.2-1.5-0.4-2.2C15.1,77.9,15.6,78,15.7,78.7z M13.6,82.2
		c-0.5,0,0.2-1.1-0.4-1.1c0.1-0.2,0.5-0.2,0.7-0.2C14.2,81.6,13.6,81.6,13.6,82.2z M13.6,79c0.2-0.5,0.2-0.9-0.4-1.1
		c0.2-0.7,0.5,0,1.1-0.2c0,0.8,0.6,0.9,0.2,1.7C14.3,79.2,13.9,79.2,13.6,79z M18.2,94.5c0-0.3,0-0.6-0.2-0.7c0-0.3,0-0.5-0.2-0.6
		c-0.5,1.4,0.8,1.9,0.9,3.3c-0.3-0.7-0.7-0.2-0.9-0.7c-0.2-1.9-0.3-2.8-1.1-4.1c-0.7-0.8-0.4-2-1.1-3.1c-0.7-1.4-0.3-2.8-1.3-3.9
		c0.2,0,0.5,0,0.7,0c0.3-0.7-0.6-1.1-0.2-1.3c0.3,0.1,0.7,0.2,1.1,0.3c0,0,0,0,0,0c-0.2,0-0.5,0-0.7,0c1,1.1,0.6,2.5,1.3,3.9
		c0.7,1.1,0.4,2.3,1.1,3.1c0.8,1.3,0.9,2.2,1.1,4.1c0.3,0.5,0.6,0.1,0.9,0.7c-0.1-1.4-1.4-1.9-0.9-3.3c0.1,0.1,0.2,0.2,0.2,0.4
		c0,0,0,0.1,0,0.1c0,0,0,0.1,0,0.1c0,0.1,0,0.2,0,0.3c0.1,0,0.1,0,0.1,0c0,0.1,0,0.2,0,0.3c0.7,0.8,0.6,2.3,1.8,2.6
		c0.1,0,0.1,0,0.2,0c0.2,0.1,0.3,0.2,0.3,0.4c-0.1,0-0.2,0-0.3,0c0,0.1,0,0.2,0,0.3c-0.1,0-0.1,0-0.2,0.1c0,0.1,0.2,0.2,0.2,0.4
		c-0.4,0.1-0.4-0.3-0.9-0.2c0,0-0.1,0-0.1,0c0-0.1-0.1-0.1-0.1-0.2c0,0.1-0.1,0.1-0.1,0.2C18.9,96.7,18.9,95.3,18.2,94.5z M21,98
		c-0.2,0-0.3,0-0.4,0c-0.1-0.2-0.2-0.4-0.2-0.5C20.8,97.4,21.1,97.6,21,98z M21.2,103.4c-0.5-0.2-0.8-1.1-0.2-1.3
		c-1.2-0.1-0.5-1.6-1.1-2.6c-0.6-1-1.4-0.5-0.7-1.7c0.7,1.4,1,2.4,1.7,3.7c0-0.3,0-0.6,0.4-0.6c0.2,0.6,0,0.8,0.2,1.7
		c-0.2,0-0.5,0-0.6,0.2C21.1,102.9,21,103.2,21.2,103.4z M21.9,101.1C21.9,101.1,21.9,101.1,21.9,101.1
		C21.9,101.1,21.9,101.1,21.9,101.1C21.9,101.1,21.9,101.1,21.9,101.1z M22.8,103.2c-0.3-0.5-0.5-1-0.7-1.5c0.1,0,0.1,0,0.2,0
		c-0.2-0.8,0-1.1-0.2-1.7c-0.4-0.1-0.4,0.3-0.4,0.6c-0.1-0.1-0.1-0.2-0.2-0.3c-0.2-0.6-0.5-1.3-0.7-1.8c1.1,0.6,1.5,2.8,2.4,2.9
		c-0.1,0.5,0,1,0.6,1.7C23.2,102.8,23.3,103.3,22.8,103.2z M24.5,105c-0.9-0.1-1.2-0.7-1.3-1.7c0.4,0.1,0.7,0.4,1.3,0.4
		C24.1,104.1,24.6,104.4,24.5,105z M24.7,105.4c0.6,0.7,1.6,2,1.5,2.8C25.4,107.7,24.4,106.4,24.7,105.4z M25.6,109.1
		c0.4-0.2,0.4-1,1.1-0.9c-0.1,0.5-0.3,0.8,0.2,1.1C26.7,109.7,26.3,108.8,25.6,109.1z M29.3,112.2c-0.6-0.4-0.9-1.2-1.8-1.3
		c0.1-0.6-0.3-0.7-0.2-1.3c0.5,0,0.6,0.4,1.1,0.4c0,0.6,0.2,1.2,0.9,1.1C29.3,111.5,29.3,111.8,29.3,112.2z M29.4,106.1
		c0.3,0.2,0.4,0.5,0.7,0.7C29.8,106.6,29.7,106.3,29.4,106.1z M30.4,107L30.4,107c-0.1,0-0.2-0.1-0.3-0.2
		C30.2,106.9,30.3,107,30.4,107z M30.2,113.1c0.4,0.1,0.8,0.2,1.1,0.4C31.1,114.2,30.2,113.7,30.2,113.1z M33.7,116.4
		c-0.7-0.1-1.4-0.1-1.8-0.7c0.2-0.5,0.7-0.6,1.5-0.6C33.3,115.7,33.8,115.8,33.7,116.4z M33.2,110.2c-0.3-0.6,0.8,1,0.9,0.6
		c0.2,0,0.1,0.4,0.4,0.4C33.8,111.7,33.5,110.4,33.2,110.2z M34.8,112.6c0.5-0.1,0.7-0.3,0.7,0.4C35.1,113,34.8,113.3,34.8,112.6z
		 M36.8,121c-0.4-0.2-0.2-1.2-0.9-1.1c0.6-0.6,1.2,0.5,1.7,0.7C37.5,120.9,37.2,121,36.8,121z M37.8,120.1c0.2,0,0.4-0.1,0.5-0.2
		c0.3,0,0.6,0,0.9,0.1c0.2,0.2,0.5,0.4,0.7,0.5c0,0,0,0,0,0c-0.7,0.4,0,0.7,0.4,0.9C39.3,121.9,38.1,121.1,37.8,120.1z M40.7,122.7
		c0.1,0.1,0.2,0.3,0.2,0.6c-0.3,0-0.6,0-0.9,0C40.1,123,40.3,122.7,40.7,122.7z M40.7,124.2c0.1-0.4,0.5-0.3,0.4-0.9
		c0.8,0.3,1.5,0.7,1.8,1.5c0.9-0.3,0.7,0.2,1.5,0.4c-0.3,1.1-0.9-0.6-1.3,0C42.8,124.4,42,124,40.7,124.2z M44.6,126.8
		c-0.1,0.1-0.2,0.2-0.3,0.3c-0.1-0.1-0.3-0.2-0.4-0.3C44.1,126.6,44.4,126.6,44.6,126.8z M43.8,127.3c-0.1,0-0.3,0.1-0.5,0
		c0-0.1,0-0.2,0.1-0.2C43.5,127.1,43.7,127.2,43.8,127.3z M41.8,126c0.2,0,0.4-0.1,0.4-0.2c0,0,0,0,0,0c0-0.1,0.1-0.2,0-0.3
		c0.4,0.2,1.2,0.1,1.1,0.7c-0.1,0-0.2,0-0.3,0c-0.2-0.1-0.4-0.1-0.6-0.1c0,0.1,0.1,0.1,0.1,0.2c-0.2,0.1-0.5,0.1-0.8,0
		C41.6,126.2,41.7,126.1,41.8,126z M43.1,129.3c0-0.3-0.2-0.6-0.5-0.8c0.9,0.5,1.8,1,2.7,1.5C44.6,129.7,43.9,129.5,43.1,129.3z
		 M52.2,132.8C52.1,132.8,52.1,132.8,52.2,132.8c-1.7-0.5-3.2-1.2-4.6-1.9c-0.1,0-0.1-0.1-0.2-0.1c-0.1-0.4-0.6-0.3-1-0.4
		c-0.1,0-0.2-0.1-0.3-0.1c-0.1,0-0.1-0.1-0.1-0.2c-0.8-0.2-1.3-0.8-2-1.1c-0.5-0.9-2-0.8-2.4-1.8c1.3-0.1,1.8,1.1,3.1,1.5
		c0.1,0,0.1,0,0.2,0c0.1,0.4,0.9,0.2,0.9,0.7c0.7-0.1,0.7,0.4,1.3,0.4c0.9,0.6,1.5,1.5,2.8,1.7c0.9,0.2,1.3,0.8,2.2,0.9
		C52.6,132.2,52.3,132.5,52.2,132.8z M52.7,132.9c0-0.2,0-0.4,0-0.5c0.3,0.1,0.6,0.2,0.9,0.3C53.4,133.1,53.1,133,52.7,132.9z
		 M53,132.1c0-0.1,0-0.3,0.1-0.4c0.1,0.1,0.1,0.2,0.1,0.4c0.3,0,0.6,0.1,0.9,0.2C53.8,132.2,53.4,132.2,53,132.1z M54.9,132.8
		c-0.1-0.1-0.1-0.2-0.2-0.3c0.4,0.2,0.7,0.4,1.1,0.6C55.4,133.1,55.2,132.9,54.9,132.8z M54.6,132.2c0.2,0.1,0.5,0.2,0.7,0.3
		c-0.1,0-0.1,0-0.2,0C54.9,132.4,54.8,132.3,54.6,132.2z M54.1,131.1c0,0,0-0.1,0-0.1c0.1,0.1,0.2,0.2,0.4,0.1
		c0.4-0.1,0.4,0.3,0.9,0.2c0-0.1,0-0.1,0-0.2c0.2,0.1,0.3,0.2,0.5,0.3c0.3,0,0.5,0,0.8,0c-0.3,0-0.6,0.1-1,0.2
		C55.3,131.4,54.8,131.2,54.1,131.1z M56.2,134.8C56.2,134.8,56.2,134.8,56.2,134.8c0.1-0.1,0.2,0,0.3,0
		C56.4,134.8,56.3,134.8,56.2,134.8z M56.7,134.5C56.7,134.5,56.7,134.5,56.7,134.5c0.1-0.1,0.2,0,0.3,0
		C57,134.5,56.9,134.5,56.7,134.5z M60.2,134.7c-0.1,0-0.1,0-0.2-0.1c-1.1-0.2-2-0.5-2.9-0.8c-0.3-0.2-0.6-0.4-1-0.6
		c0.6,0.2,0.4-0.5,0.7-0.6c0,0.2,0.1,0.2,0.2,0.4c0.1,0,0.1,0,0.2,0c0.2,0.1,0.4,0.1,0.5,0.2c-0.1,0.1-0.2,0.2-0.2,0.3
		c0.5-0.2,0.5,0.3,0.9,0.2c0-0.1,0-0.1,0-0.2c0.5,0.2,0.9,0.4,1.3,0.8c0.2,0.1,0.3,0.2,0.5,0.2C60.3,134.6,60.3,134.7,60.2,134.7z
		 M57.7,132.7c0,0,0.1,0,0.1,0c0.6,0.4,1.3,0.9,2.1,1.2c-0.5-0.1-0.9-0.3-1.3-0.5c0-0.2-0.2-0.2-0.4-0.2
		C58,133,57.8,132.8,57.7,132.7z M60.8,134.8c0.1,0,0.1,0,0.2,0c0,0,0.1,0,0.1,0.1C61,134.9,60.9,134.8,60.8,134.8z M60.8,133.4
		c-0.3-0.2-0.6-0.4-0.9-0.6c0,0,0-0.1,0-0.1c0,0-0.1,0-0.1,0.1c-0.5-0.2-1-0.4-1.5-0.6c-0.1,0-0.1,0-0.2,0c0-0.1-0.1-0.1-0.1-0.2
		c0-0.2-0.1-0.3-0.1-0.5c-0.3,0-0.5,0.1-0.7,0.1c0.1-0.2-0.5-0.6-0.6-0.7c0.2,0,0.3-0.1,0.5-0.1c0.1,0.1,0.3,0.1,0.4,0.1
		c0.5,0.2,0.9-0.1,1.3-0.2c0,0.1,0,0.3,0.1,0.4c-0.2,0-0.4,0-0.4,0.2c-0.1,0.4,0.2,0.4,0.3,0.6c0,0-0.1,0-0.1,0
		c0.1,0.1,0.1,0.1,0.2,0.2c0,0,0,0,0,0c0,0,0,0,0.1,0c0.4,0.4,1,0.7,1.6,0.9c0.2,0.1,0.4,0.2,0.5,0.4c0.1,0,0.1,0,0.2,0
		c0.1-0.6,0.3-0.4,0.8-0.4c0.1,0.1,0.1,0.1,0.2,0.2c0.4,1.2,2.5,0.7,2.9,1.8C63.8,134.9,62.1,133.9,60.8,133.4z M62.6,131.4
		c0,0,0.1-0.1,0.1-0.2c0,0,0.1,0,0.1,0c-0.1,0.5,0.7,0.1,0.6,0.7C63.1,131.8,62.8,131.6,62.6,131.4z M64.1,131.3
		c-0.4-0.1-0.3-0.5-0.9-0.4c-0.1,0-0.1,0-0.2,0c-0.1-0.2-0.2-0.4-0.4-0.5c0-0.1-0.1-0.1-0.1-0.2c-0.1,0-0.1,0-0.2,0c0,0,0,0,0,0
		c0.1,0,0.1,0,0.2,0c0.5,0,0.8-0.1,1.1-0.3c0,0.3,0,0.5-0.1,0.4c0.5,0.6,1.2,0.7,2,1c-0.3,0.1-0.4,0.2-0.4,0.7
		C64.8,131.8,64.5,131.6,64.1,131.3z M71.5,135.8c-0.5,0-1-0.1-1.5,0c-0.4-0.1-0.6,0-0.6,0.4c-0.9-0.2-1.7-0.3-2.5-0.4
		c0.6,0,1.2,0.1,1.8,0.2c-0.1-0.3-0.4-0.5-0.1-0.7c0.1,0,0.2,0,0.3,0c0,0-0.1,0-0.1-0.1c0.5-0.1,1.5,0,2.4,0.2
		c0.4,0.1,0.8,0.3,1.2,0.4C72.1,135.8,71.8,135.8,71.5,135.8z M71.3,134.7c0.2,0.1,0.3,0.2,0.3,0.4c-0.3-0.1-0.5-0.1-0.7-0.3
		c0.2,0,0.4,0,0.6,0C71.4,134.8,71.4,134.8,71.3,134.7z M73.3,135c0,0,0,0.1,0,0.1c-0.2,0-0.3,0-0.4,0c-1.6-0.8-3.1-1.7-5.1-2.2
		c-0.1,0-0.1,0-0.2,0c-0.3,0.1-0.5-0.3-0.6,0c0.2,0.5,0.8,0.6,1.3,0.9c-1.1-0.5-2.1-1.2-3.1-1.8c0.3-0.1,0.7-0.2,1.1-0.4
		c0.1,0,0.2,0.1,0.3,0.2c0.2,0.4,0.8,0.6,1.3,0.7c0.3,0.3,0.8,0.3,1.3,0.4c-0.4-0.3-0.9-0.4-1.2-0.8c2.1,0.4,4.1,1.6,6.3,2.3
		c0.2,0.1,0.4,0.2,0.6,0.3C74.8,135.3,73.8,134.9,73.3,135z M67,129.6c1.8,0.9,3.6,1.9,5.4,2.8c-0.8-0.3-1.6-0.7-2.4-0.9
		c0,0,0,0,0,0c0,0,0,0,0,0c-0.5-0.2-1.1-0.3-1.7-0.4c0-0.5,0.3,0.3,0.7,0c-0.2-0.9-1.3-0.5-2.2-0.2c0-0.1,0-0.2,0-0.3
		c-0.1,0-0.3-0.1-0.5-0.2c0.3-0.1,0.7-0.1,1-0.2C67.3,130,67.2,129.8,67,129.6z M73,133.8c-1.2-0.4-2.4-1-3.5-1.5
		C70.8,132.6,71.9,133.2,73,133.8z M72.9,132.7c1.6,0.1,3.4,0.8,5,1.5c-0.2,0-0.4-0.1-0.7-0.1c-0.2-0.1-0.4-0.2-0.7-0.2
		C75.2,133.6,74,133.1,72.9,132.7z M70,131.5c0.3,0.4,0.9,0.4,1.3,0.7C70.9,132,70.3,131.9,70,131.5z M68.2,132.1
		c-0.1,0-0.1,0-0.2,0.1c0,0,0-0.1,0-0.1c0-0.1,0.1-0.1,0.2-0.1C68.1,132,68.2,132.1,68.2,132.1z M66.5,131.1c-0.1,0-0.2,0.1-0.3,0.1
		c-0.1-0.2,0-0.4,0-0.5C66.3,130.8,66.4,130.9,66.5,131.1z M65.6,128.9c0.2,0.1,0.4,0.2,0.6,0.3C66,129.1,65.8,129.1,65.6,128.9z
		 M76.2,135.6c-0.1,0-0.2,0-0.3-0.1c0-0.1,0-0.2,0-0.3c0.1,0,0.1,0,0.2,0c0.4,0,0.8,0.1,1.3,0c0,0,0,0,0,0c0.3,0.1,0.6,0.1,1,0
		C77.8,135.5,77,135.6,76.2,135.6z M80.3,135c0,0.1-0.1,0.1-0.1,0.1c-0.1,0-0.2,0-0.2,0.1c0,0,0,0,0,0c-0.4,0-0.9-0.1-1.3,0
		c-0.1,0-0.1,0-0.2,0c0,0,0,0,0,0c-0.4-0.1-0.7-0.1-1.1-0.2c0,0,0,0,0,0c0,0-0.1,0-0.1,0c0,0,0,0,0,0c0.8-0.1,1.6-0.1,2.2-0.3
		c0.1,0,0.2,0,0.4,0c0.5,0,1,0,1.5,0C81.1,134.9,80.8,135,80.3,135z M79.6,134.3c0.4,0,0.8,0,1.3,0.1c-0.4,0-0.7,0.1-1.2,0
		C79.8,134.4,79.7,134.4,79.6,134.3z M69.2,129.1C69.2,129.1,69.3,129.1,69.2,129.1c2.5,1.2,4.6,2.6,7.4,3.4
		c-1.2-0.6-2.5-1.1-3.8-1.7c2.9,1.2,6,2.2,9.6,2.6c0.6,0.4,2,0.1,2.9,0.2c0.1,0.6-0.8,0.1-0.9,0.6c-1.2-0.1-1.8,0.3-2.9,0.2
		c0,0,0,0-0.1,0c-8.4-0.9-13.8-4.8-20.2-7.7c-0.5-0.6-1.4-0.7-2-1.1c-0.7-0.1-1.1-0.5-1.7-0.7c-1.3-0.7-2.7-1.4-3.9-2.2
		c0.2,0,0.5,0,0.6-0.2c-0.4-0.6-2.1-0.5-1.3-1.7c-0.4-0.1-0.7-0.3-1.3-0.2c-0.1-0.8,0.8-0.6,1.3-0.4c0.1,0.1,0.1,0.3,0.4,0.2
		c0.1,0,0.2,0,0.3,0.1c0.2,0.5,1.2,0.6,1.5,1c0,0.2-0.3,0.2-0.6,0.2c1.2,0.8,2.6,1.5,3.9,2.2c0.6,0.2,1,0.6,1.7,0.7
		c0.6,0.4,1.6,0.5,2,1.1C64.7,126.7,66.9,127.9,69.2,129.1z M68.7,125.8c0.8-0.1,1,0.3,1.7,0.4C70.1,126.2,68.7,126.8,68.7,125.8z
		 M70.9,125.7c0-0.1-0.1-0.2-0.2-0.3c0.2,0,0.4-0.1,0.5-0.1C71.3,125.4,71.3,125.6,70.9,125.7z M87,126.8c0.3,0,0.6,0,0.9,0
		c0,0.3,0.2,0.4,0.2,0.7C87.5,127.5,87.1,127.3,87,126.8z M89,127.1c-0.1-0.7,0.5-0.6,1.1-0.6C90.2,127.2,89.3,126.9,89,127.1z
		 M93.8,125.5c0.1,0.7-0.4,0.8-0.9,0.9c-0.2,0-0.4,0-0.6,0c-0.7-0.1-1.3,0.5-1.8,0c-0.2,0-0.4,0-0.6,0c-2.5,0.2-5.8,0.2-8.8-0.4
		c-0.1,0-0.2,0-0.4,0c-0.8,0.2-2.4,0-2.9,0.2c-0.1,0-0.1,0-0.2,0c-1.3-0.1-2.2,0.2-3.3,0.2c-0.5,0-1,0-1.5,0c0,0.4-0.7,0.1-0.9,0.2
		c-0.4-0.7,0.2-1,0.4-1.7c-0.5,0.2-0.5-0.3-0.9-0.2c-0.2,0.1-0.1,0.3-0.1,0.5c-0.6-0.1-0.9-0.5-1.6-0.4c0,0.1,0,0.1,0,0.2
		c-0.7-0.1-1.4-0.1-1.5-0.7c-0.7,0.3-1.5,0.3-2.2,0.3c0.1-0.1,0.1-0.1,0.1-0.3c-0.5,0-1.1,0-1.7-0.1c-0.4-0.1-0.7-0.3-1.1-0.5
		c0.5-0.5-0.3-0.2-0.4-0.6c-0.1,0-0.1,0-0.2,0c-0.4,0.3,0.2,0.4-0.2,0.6c-0.1,0-0.1,0-0.2-0.1c0,0,0,0,0,0c-0.2-0.1-0.4-0.2-0.6-0.3
		c0,0,0,0,0,0c0-0.5,0-0.9,0.2-1.1c0.7,0,1,0.4,1.5,0.6c0.4-0.1-0.2-0.3,0.2-0.6c0.1,0,0.1,0,0.2,0c0.1,0.4,0.9,0,0.4,0.6
		c1.3,0.7,3.1,1.1,4.8,0.6c0.2,1.1,2.4,0.3,2.8,1.3c0.7-0.1,0-0.6,0.4-0.9c0.4-0.1,0.4,0.3,0.9,0.2c-0.1,0.7-0.7,1-0.4,1.7
		c0.3-0.1,1,0.2,0.9-0.2c0.5,0,1,0,1.5,0c1.1,0,2-0.3,3.3-0.2c0.1,0,0.1,0,0.2,0c0.5-0.2,2.1,0,2.9-0.2c0.1,0,0.2,0,0.4,0
		c3,0.5,6.3,0.5,8.8,0.4c0.2,0,0.4,0,0.6,0c0.5,0.5,1.1-0.1,1.8,0c0,0,0,0,0,0c0.1,0,0.2,0,0.2,0C93.5,125.4,93.7,125.4,93.8,125.5
		c0.3-0.1,0.6-0.2,0.8-0.4c0,0,0.1,0,0.1,0C94.5,125.4,94.1,125.4,93.8,125.5z M94.6,124.4c-0.1,0.1-0.3,0.1-0.5,0.1
		c-0.3-0.5-0.5-0.2-1.1-0.2c0.5-0.4,1.1-0.3,1.7-0.5c0.2,0,0.5,0,0.7,0C95.4,124.2,94.9,124.2,94.6,124.4z M96.3,122.9
		c0.5-0.2,1.1-0.4,1.5-0.6c0,0,0,0,0,0.1c0,0,0.1,0,0.1,0c-0.3,0.6-1.5,0.3-1.6,1.1c-0.1-0.1-0.3-0.2-0.5-0.2
		C96.1,123.2,96.3,123.1,96.3,122.9z M97.2,123.3c-0.1,0-0.2,0-0.3,0c0.1-0.1,0.1-0.2,0.2-0.3C97.1,123.1,97.1,123.2,97.2,123.3z
		 M96.5,124.2c0.3,0,0.4,0.2,0.4,0.6c-0.3,0-0.6,0-0.9,0c0-0.3,0.5-0.1,0.6-0.4c-0.2-0.1-0.4-0.2-0.4-0.6c0.4-0.1,0.9-0.1,1.1-0.5
		c0.1,0,0.1,0.1,0.2,0.1c0,0.3-0.5,0.1-0.6,0.4c0.3,0,0.6,0,0.9,0c0.1-0.4,0-0.6-0.4-0.6c0.1-0.1,0.3-0.2,0.5-0.3
		c0.3,0.1,0.7,0.3,1,0.3c0,0.2-0.1,0.2-0.2,0.4c0.5,0,0.7-0.7,0.9,0C98.8,124,97.1,123.5,96.5,124.2z M98,122
		c0.1-0.1,0.2-0.2,0.3-0.3c0.3-0.1,0.5-0.2,0.5-0.5c0.2-0.1,0.3-0.3,0.5-0.4c0.2-0.1,0.4-0.2,0.6-0.4C99.5,121.1,98.9,121.7,98,122z
		 M99.1,122.8c-0.1,0.2-0.3,0.3-0.7,0.2c0-0.1,0-0.1,0-0.2C98.6,122.9,98.8,122.8,99.1,122.8z M103.2,121.7c0.1,0,0.2,0.1,0.2,0.1
		c-0.1,0-0.2,0-0.3,0C103.2,121.7,103.2,121.7,103.2,121.7z M103.7,122.2C103.7,122.2,103.7,122.2,103.7,122.2c0,0,0,0.1,0,0.2
		c0.3-0.2,0.6-0.3,0.8-0.5c0.3-0.1,0.5-0.2,0.8-0.2c0.6,0.5,1.1-0.6,1.5-0.2c-0.1,0.2-0.2,0.4-0.4,0.6c-0.7-0.1-1,0.1-1.3,0.4
		c-0.4,0-0.5,0.3-1.1,0.2c-0.4,0.3-0.9,0.5-1.3,0.7c-0.1-0.4,0.5-0.2,0.6-0.6c-1.4,0.3-1.4-0.8-2.8-0.6c-0.3,0.7,0.6,0.1,0.6,0.6
		c-0.1,0.6-1,0.4-1.3,0.1c0.3,0,0.6-0.1,0.8-0.1c-0.2-0.7-0.5-0.1-0.9,0c0,0,0,0,0,0c0-0.1,0.2-0.2,0.2-0.3c-0.1,0-0.1,0-0.2,0
		c0-0.1,0-0.1,0-0.1c0.3,0,0.4-0.2,0.4-0.5c0.2-0.1,0.4-0.2,0.5-0.3c0,0.1,0,0.1,0,0.2c-0.3,0.1-0.5,0.3-0.5,0.7
		c0.3-0.2,0.5-0.2,0.8-0.2c0.2,0.1,0.6,0.2,0.8,0.2C102.4,122.4,103,122.8,103.7,122.2z M100.8,120.8c-0.1,0.1-0.1,0.2-0.2,0.2
		c-0.3-0.1-0.1-0.5,0.2-0.7C100.7,120.6,100.7,120.7,100.8,120.8z M100.6,121.7c-0.1,0-0.1,0-0.2-0.1c0,0,0.1,0,0.1,0
		C100.6,121.6,100.6,121.6,100.6,121.7z M100.9,121.2c0-0.1,0-0.3,0.1-0.4c0.1,0,0.3,0.1,0.3,0.2c0,0,0,0,0,0
		C101.2,121.1,101.1,121.1,100.9,121.2z M102.3,121.2c-0.2,0.1-0.4,0.2-0.6,0.3c-0.1,0-0.2-0.1-0.2-0.3c0.1,0,0.2-0.1,0.3-0.1
		C101.9,121.2,102.1,121.2,102.3,121.2z M106.5,113.4C106.5,113.4,106.5,113.4,106.5,113.4C106.4,113.4,106.4,113.5,106.5,113.4
		c-0.6,0.7-1.2,1.2-1.8,1.6c-0.3,2.2-2.7,2.3-3.3,4.2c-0.1,0-0.2,0-0.3,0.1c0,0,0.1-0.1,0.1-0.1c-0.1,0-0.1,0.1-0.2,0.1
		c-0.9,0.3-1.3,1.1-2,1.6c-0.4-0.1-0.5-0.4-0.8-0.5c0.1,0,0.2-0.1,0.2-0.1c-0.2-0.1-0.4-0.1-0.7-0.1c0.3-0.8-0.4-0.6-0.6-1.3
		c0.7,0.7,0.7-0.8,1.8-0.7c-0.1,0.6-0.9,0.5-0.9,1.1c0.6,0.2,1.3,0.3,0.6,0.9c0.6-0.3,1.1-0.7,1.7-1.1c-0.6-0.7-1.1,1-1.5,0
		c1.1-0.6,2.2-1.2,2.8-2.4c3.1-1.2,4.5-4.9,7-6.1C108,111.3,107.3,112.4,106.5,113.4z M108.1,112.5c1.4-0.9,2.3-2.2,3.5-3.3
		C110.5,110.3,109.5,111.6,108.1,112.5z M113.9,106.5c0.5-0.3,0.8-0.7,1.5-0.7C114.8,105.9,114.6,107.1,113.9,106.5z M118.1,98.8
		c0.1-0.1,0.2-0.2,0.2-0.4c0.1,0.1,0.1,0.2,0.1,0.4C118.3,98.8,118.2,98.8,118.1,98.8z M118.6,104.7c-0.8-0.2,0.1-0.6,0.2-1.1
		C119.6,103.7,118.8,104.3,118.6,104.7z M118.6,102.8c-0.5-0.6,0.7-1,1.1-0.4C119.8,103,118.6,102.3,118.6,102.8z M123.1,102.6
		c-0.4,0,0-0.8-0.6-0.7c0.4-0.2,0.4-0.7,0.9-0.7C123.6,101.9,123.1,102,123.1,102.6z M125.1,100.6c-0.6,0.1-0.7-0.3-1.3-0.2
		c-0.1-0.7,0.2-1,0.4-1.5c0.2,0.5,0.8,0.5,1.3,0.7C125.1,100,124.8,100,125.1,100.6z M124.4,95.8c-0.1-0.7,1.6-1.4,1.8-0.6
		C125.2,95.1,125,95.7,124.4,95.8z M126.9,91.6c-0.4,0.3-0.8,0.6-1.3,0.7c0,0.4,0.5,0.2,0.4,0.7c-1.6,1.3-2.9,2.9-4.4,4.2
		c-0.6,0.1-0.4-0.7-0.9-0.7c-0.9-0.1-0.6,1-1.1,1.3c-0.4,0.1-0.5-0.1-0.7-0.2c4.1-6.3,6.8-13.4,7.8-21.1c0-0.1,0.1-0.3,0.1-0.4
		c0,0,0,0,0-0.1c0.1-1,0.2-2,0.3-3c0.4-0.3,0.3-1.1,1-1c-0.1,0.4,0,0.7,0.2,0.9c0.7,0.3,0.6-0.4,1.1-0.4c0.1,0.4-0.3,0.4-0.2,0.9
		c-0.2-0.2-0.5-0.2-0.9-0.2c-0.3,2,0,3.6-0.7,5.2c0.9,0.8,0.8-0.8,1.5-0.7c-0.2,0.5-0.2,1,0,1.5c-0.6-0.3-0.7,0-1.5,0
		c0.5,0.8-0.1,1-0.6,1.3c0,0.5,0.5,0.5,0.7,0.7c0.6,0,0-1.2,0.7-1.1c-0.2,0.8,0.5,0.7,0.4,1.5c-1,0.7-1,0.1-2.2,0.6
		c0.7,0.2,0.5,1,0.2,1.7c0.9-0.3-0.4,1.3,0.6,1.5c-0.5,0.3-1,0.5-0.9,1.3c-1.1-1.4-2.6,1.4-1.7,2.8c-0.6,0.1-0.7-0.4-1.1,0
		c0,0.5,0.4,0.7,0.7,0.9c0.7-0.7,1.3-1.5,2.2-2c0.6,0,0.2,0.9,0.7,0.9c-0.2,0.5-0.7,0.7-0.9,1.3C126.3,91.1,127,90.9,126.9,91.6z
		 M129.9,95.4c0-0.6,1.2,0,1.1-0.7C131.7,95.2,130.4,96,129.9,95.4z M132.6,90.1c0.2-0.4,0.6-0.6,0.7-1.1c0.3,0.1,0.2,0.5,0.2,0.7
		C133.2,89.8,133.1,90.1,132.6,90.1z"/>
	<polygon class="st2" points="15,113 15,113 15,113 	"/>
	<path class="st2" d="M120.5,111.1c0-0.8,1.1-0.6,1.1-1.5C120.7,109,118.8,110.8,120.5,111.1z"/>
	<path class="st2" d="M120.1,112.1L120.1,112.1C120.1,112.1,120.1,112.2,120.1,112.1c-0.1,0-0.1,0.1-0.2,0.1c0,0,0,0,0,0
		c0,0-0.1,0.1-0.1,0.1c0,0,0,0,0,0.1c0,0.1,0,0.2,0,0.3c0,0,0,0,0,0c-0.1,0.1-0.1,0.2-0.2,0.4c0.9-0.1,1.4-0.6,2.2-0.7
		c0.1-0.4-0.2-0.4-0.4-0.6c0.5-0.2,0.8,0.5,0.9,0c-1.4-0.8,1-1.8,1.7-2.9c0.1-0.2-0.1-0.7,0-0.9
		C122.4,109.1,121.1,110.5,120.1,112.1z"/>
	<path class="st2" d="M129,98.9c-0.1-0.3-0.3-0.5-0.4-0.7c-1,0.3-1.5,0.3-2,1.3c0.8,0.3,0.5-0.6,1.1-0.6c-0.1,1.3-1.6,2.7-1.3,3.9
		c-1.1-0.1-1.3,0.7-1.7,1.3c0.4,0.1,0.5,0.5,1.1,0.4c0.3-0.5-0.2-0.9,0.7-0.9c-0.3,0.6-0.5,1.2-1.1,1.5c-0.9-1.3-1.4,0.9-1.7,1.3
		c-0.5,0.8-2.7,1.6-2.4,2.4c0.3,0.1,0.5,0.3,0.7,0.4c0.9-0.4,0.9-1.7,1.8-2c0,0.3,0,0.6,0,0.9c0.5-0.7,2.1-2.3,2.2-1.5
		c0.6-0.2,0.4-1.1,1.3-0.9c0-0.3,0-0.6,0-0.9c-1-0.3-0.8,1.5-1.5,0.9c1.4-2.5,3.1-4.6,4.2-7.4C129.3,97.9,129.7,99,129,98.9z
		 M124,106.9c-0.2-0.3,0.6-0.6,0-0.7c0.1-0.6,0.7,0.5,0.7-0.2C125,106.1,124.5,106.9,124,106.9z M127.1,101.7c0-0.9,1.3-0.6,0.9-1.8
		c0.2,0,0.4,0,0.6,0C128.4,100.7,128,102.2,127.1,101.7z"/>
	<path class="st2" d="M51.2,15.1c0,0.2,0,0.5,0,0.7c2.4-0.3,3.4-2,5.7-2.4c-0.4-1.2-1.7-0.5-2,0.2c-0.2-0.2-0.6-0.3-0.7-0.6
		c0.9-0.7,2.6-1.4,2.8-2.2c-0.8,0.2-0.8,0.1-1.5-0.2c-0.2,0.6,0.6,0.1,0.4,0.7c-0.6,0.1-1-0.9-1.3,0c0.2,0,0.4,0.1,0.4,0.4
		c-0.9,0.1-0.8,0.5-1.5,0c0.2,0.6-0.2,0.6-0.4,1.7c0.3,0.2,0.6-0.6,0.7,0C53.2,14.3,52.3,14.7,51.2,15.1z"/>
	<path class="st2" d="M15.5,19.5c0.5-0.6,0.3-1.9,1.5-1.8c0.1-0.7,0.3-1.1-0.4-1.3c-0.5,1.3-1.3,2.4-2.2,3.3
		C15,19.5,14.7,19.4,15.5,19.5z"/>
	<path class="st2" d="M21.4,36.1c0.1-0.4,0.4-0.9-0.4-0.9c0,0.7-0.4,2,0.2,2.4c0.4-1.4,2.3-2.3,2-3.9c0.1-0.1,0.2-0.1,0.3-0.2
		c0.1,0,0.1,0,0.2,0c0,0,0,0,0,0c0.1,0,0.1,0,0.1,0c0,0,0,0,0,0c0,0,0.1,0,0.1-0.1c0,0,0,0,0,0c0,0,0.1-0.1,0.1-0.2
		c1.6-0.9,3-2.1,4.2-3.3c-0.9,0.3-1.4,0.9-2.2,1.3c-0.1-1.3,0.4-2,1.3-2.8c-1.4-0.2-2.2,1.6-2.8,2.8C22.9,32.4,22,34.2,21.4,36.1z"
		/>
	<path class="st2" d="M119.9,31.7c-1.7-0.4-2-3.2-3.5-3.1c-0.4,1.7,2,2,1.8,4.1C119.3,32.8,119.9,32.8,119.9,31.7z"/>
	<path class="st2" d="M126.4,35.4c0.5,0,0.9,0,1.1,0.2c-0.1-1.3-1.7-1-1.3-2.4c-0.4-0.4-1.1-0.1-1.5,0
		C125.1,34.1,126.4,34.1,126.4,35.4z"/>
	<path class="st2" d="M122,38.3c0.1-1.1-0.2-1.8-0.9-2C120.9,36.9,121,38.3,122,38.3z"/>
	<path class="st2" d="M14.9,41.5c0.1-0.3,0.2,0,0.6,0c0-0.5,1-0.1,0.9-0.7c-0.8-0.2-0.8,0.4-1.3,0.6c-0.5-0.6,0.3-1.1,0.2-1.8
		C14.6,39.5,14.4,41.3,14.9,41.5z"/>
	<path class="st2" d="M21.2,42.6c-0.8,0.5-1.1,1.6-0.9,2.6c0.5,0.1,0.4-0.4,0.7-0.4c0.2-0.6-0.3-0.6-0.4-0.9
		C21,43.6,21.7,43.1,21.2,42.6z"/>
	<path class="st2" d="M12.5,83.5c-0.7,0.8,0.2,1.7,0.2,2.9c0.5-0.2,0.6-0.7,0.9-1.1C12.7,84.9,13.7,83.7,12.5,83.5z"/>
	<path class="st2" d="M121.6,95.3c0.5-0.9,0.5-1.1,0.9-2C121.9,93.5,121.3,94.7,121.6,95.3z"/>
	<path class="st2" d="M14.4,95.4c0.7,0.1,0.7,0.8,0.9,1.3c0.3-0.1,1.1,0.2,1.1-0.2c-0.7-0.3-1.6-0.9-0.7-1.7
		C15.3,95.2,14.7,95.2,14.4,95.4z"/>
	<path class="st2" d="M48.6,129c0.1,0.1,0.3,0.1,0.4,0.2C48.9,129.1,48.7,129.1,48.6,129z"/>
	<path class="st2" d="M113.3,112.2c0-0.6,0.8-0.4,0.7-1.1c-0.2,0-0.4,0-0.6,0C113.8,111.7,112.7,111.9,113.3,112.2z"/>
	<path class="st2" d="M107.2,117c1.5-0.3,2.1-1.5,3.1-2.2C109.2,114,107.9,116.1,107.2,117z"/>
	<path class="st2" d="M29.3,119c0.1,1.3,2.4,0.9,2,2.2c0.5,0.1,1.5,0.8,1.5-0.2c-0.6-0.3-1-0.8-1.7-0.9c1-1,1.5,0.5,2.8,0.4
		c-0.2-1-2.1-0.4-1.7-1.5C31.3,119.8,30.4,119.1,29.3,119z"/>
	<path class="st2" d="M82.2,4.8c-1.3,0.1-1.9-0.3-3.1,0.4C79.2,6.1,82.5,6.1,82.2,4.8z"/>
	<path class="st2" d="M2.2,41.1c1.3-1.5,2.8-3.8,3.1-5.7c-0.8-0.3-1.3,1.6-1.1,0.6c-0.8,0.5-1.6,1.9-0.9,2.8
		c-0.4,0.5-0.6,0.1-1.1,0.4c-0.2,0.7,0.6,0.6,0.4,1.3c-0.4,0.3-0.9,0.4-1.3,0.7c0,1.8-0.7,2.7-0.6,4.6C1.7,44.6,2,42.9,2.2,41.1z"/>
	<path class="st2" d="M93.8,0.2c1.8,0.7,3.4,0.5,5.5,0.9C98.1,0.3,95.6-0.2,93.8,0.2z"/>
	<path class="st2" d="M74.8,5.5C73,5.3,72,5.9,70.6,6.1C71.4,7.3,74.1,6.3,74.8,5.5z"/>
	<path class="st2" d="M56.9,3c-0.1,0-0.4,0-0.4-0.2c-1.1,0.7-2.3,3-4.1,2.2c-0.1,0.4-0.9,0.1-0.7,0.7c0.4,0.3,0.7-0.5,0.7,0
		c-1,0.6-2.2,1-2.8,2c2.5-0.6,4.9-2.8,7.4-4.1C56.6,3.5,56.9,3.4,56.9,3z"/>
	<path class="st2" d="M82.9,6.5C80,6.2,76.7,6,74.4,7c0.6,0.3,1.2,0.2,1.7-0.2C76.9,7.4,77.6,8,79,7.9c0.5-0.4-0.5-0.5,0-0.9
		c0.3,0,0.6,0,0.9,0c0,0.3-0.2,0.4-0.2,0.7c0.4,0.2,0.8,0.3,1.1,0.6c0.1-0.4,0-0.9,0.6-1.3c0.2,0.3,0.7,0.3,0.9,0.6
		C82.1,6.8,82.8,6.9,82.9,6.5z"/>
	<path class="st2" d="M45.3,12.4c0.2-1.1,1.3-1.4,1.8-2.2c0.1-0.5-0.4-0.4-0.6-0.6c-1.5,1.3-3.5,0.9-3.7,3.5
		C44.3,13.4,44.1,12.1,45.3,12.4z"/>
	<path class="st2" d="M42.4,12.5c-0.8,0.7-2.3,0.6-2.9,1.8c0.5,0.2,0.8-0.5,0.9,0c-0.8,0.8-1.8,1.2-2.4,2.2c2-0.4,2.7-2.2,4.6-2.8
		C42.6,13.5,43.2,12.5,42.4,12.5z"/>
	<path class="st2" d="M57.5,16.2c-0.6,0-1.5-0.1-1.8,0.2c0,1.1,1.4,0.6,2,0.4C57.7,16.5,57.6,16.4,57.5,16.2z"/>
	<path class="st2" d="M34.5,21c0.1-0.4,0.3-0.7,0.2-1.3c1.6-0.5,2.6-1.5,3.3-2.8c-1.3-0.3-2.3,0.6-3.3,1.5c0.4,1.9-2,2.1-2.4,3.7
		C33.5,22.3,33.2,20.8,34.5,21z"/>
	<path class="st2" d="M27.6,28.2c0.4-0.9,1-1.7,2-2c-0.2-0.7,0.4-0.9,0-1.3c1.3-0.5,2.2-1.3,2.6-2.6c-1.4,0.3-1.9,1.9-2.9,2
		c0,1.2-1.7,2.3-2.4,3.5C27.3,27.8,27.1,28.3,27.6,28.2z"/>
	<path class="st2" d="M34.3,29.9c1,0,1.5-0.6,1.8-1.3c0.5,0.2,1.6,0.3,1.5-0.6c-1,0.5-0.9,0.2-1.5-0.4c0.3,1-0.6,0.7-1.3,0.7
		C35.1,29.4,34.3,29.2,34.3,29.9z"/>
	<path class="st2" d="M130.8,40.5c0.7-1.1-1.1-1.7-0.6-2.8c-1.4,0.1-1-1.6-2.4-1.5C128.8,37.8,129.5,39.4,130.8,40.5z"/>
	<path class="st2" d="M20.6,39.6c-0.3-0.8,0.7-1.7-0.2-1.8c-0.4,0.6-0.8,1.1-0.9,2C20.1,39.9,20.1,39.5,20.6,39.6z"/>
	<path class="st2" d="M17.7,45.5c0.7-0.4,0.6-1.7,1.5-1.8c0.1-0.7-0.7-0.5-0.6-1.1c0.9-0.2,1-1.1,1.3-1.8c-1.6-1.3-1.6,1.8-2.6,2.4
		C18.4,43.9,16.2,45,17.7,45.5z"/>
	<path class="st2" d="M129.7,51.2c0.1,0.8,1.1,0.7,0.7,2C131.7,53,130.9,51.1,129.7,51.2z"/>
	<path class="st2" d="M129.7,54.9c0.7,0.1,0.9,0.3,1.3-0.2c0-0.5-0.3-0.6-0.4-0.9C130.1,53.9,129.7,54.2,129.7,54.9z"/>
	<path class="st2" d="M137.6,71.1c0.1,1.3-0.5,1.8-0.4,3.1c0.7,0,0.3-1.1,1.1-1.1C137.6,72.6,138.3,71.4,137.6,71.1z"/>
	<path class="st2" d="M141.3,75.5c0.6-0.1,0.9-0.4,0.9-1.1C141.3,74.3,141,75,141.3,75.5z"/>
	<path class="st2" d="M8.1,94.5c-0.4-1.3,0.1-2.7-1.5-3.1c0.1,1,0.7,1.7,1.1,2.4c-0.2,0-0.5,0-0.7,0c0.2,1.6,2,2.2,1.3,3.7
		c0.2,0,0.5,0,0.7,0c-0.4-0.9-0.2-1.3,0.4-2.2C8.7,95.3,8.4,94.9,8.1,94.5z"/>
	<path class="st2" d="M14,96c-0.6-0.2-1.5-0.1-1.7-0.7c0.1,1.5,0.4,2.9,2,2.9c0.3-1.2-1.2-0.8-1.3-1.7C13.6,96.5,14,96.5,14,96z"/>
	<path class="st2" d="M18.4,101.5c-0.4-0.2-0.6-0.6-1.3-0.6c0.2,0.8,0.3,1.6,0.6,2.4c0.2,0,0.5,0,0.7,0
		C18.2,102.7,17.5,101.9,18.4,101.5z"/>
	<path class="st2" d="M118.5,113.3c0,0.2,0,0.4,0,0.6c0.4,0.3,0.3-0.1,0.9,0c0-0.2,0-0.5,0-0.7C118.9,113,118.9,113.4,118.5,113.3z"
		/>
</g>
</svg>
