<?xml version="1.0" encoding="utf-8"?>
<!-- Generator: Adobe Illustrator 19.2.1, SVG Export Plug-In . SVG Version: 6.00 Build 0)  -->
<svg version="1.1" id="图层_1" xmlns="http://www.w3.org/2000/svg" xmlns:xlink="http://www.w3.org/1999/xlink" x="0px" y="0px"
	 viewBox="0 0 142.7 129.2" style="enable-background:new 0 0 142.7 129.2;" xml:space="preserve">
<style type="text/css">
	.st0{fill:#FFFFFF;}
	.st1{fill-rule:evenodd;clip-rule:evenodd;fill:#231815;}
	.st2{fill:#231815;}
	.st3{fill-rule:evenodd;clip-rule:evenodd;}
</style>
<g id="污点矢量包_10">
</g>
<g id="污点矢量包_09">
</g>
<g>
	<path class="st1" d="M85.8,0.1c-0.2-0.2-0.6-0.1-0.7,0.1C85.3,0.4,85.8,0.5,85.8,0.1z"/>
	<path class="st1" d="M66.6,0.4c-0.2-0.2-0.8-0.2-1,0C65.5,0.9,66.7,0.7,66.6,0.4z"/>
	<path class="st1" d="M72.8,1.2c-0.4-0.1-0.2-0.4-0.1-0.7c-0.5,0-0.7,0.2-0.7,0.7C72.1,1.3,72.8,1.5,72.8,1.2z"/>
	<path class="st1" d="M88.8,0.8c0.1-0.5-1-0.3-1.1-0.1C87.9,0.9,88.4,0.8,88.8,0.8z"/>
	<path class="st1" d="M76.3,0.8c-0.2,0-1-0.4-1,0.1C75.4,1.2,76.3,1.1,76.3,0.8z"/>
	<path class="st1" d="M67.3,1.9c1.2-0.3,2.7-0.3,3.4-1.1C69.4,1,68,1.1,67.3,1.9z"/>
	<path class="st1" d="M74.8,1.6c-0.1-0.4,0.2-0.4,0.1-0.7c-0.3-0.2-1.3-0.2-1.6,0C73.5,1.4,74.4,1.2,74.8,1.6z"/>
	<path class="st1" d="M45.9,1.1c-0.2,0-0.5,0-0.7,0C45,1.5,46.1,1.5,45.9,1.1z"/>
	<path class="st1" d="M50.2,1.1c-0.4,0-0.8,0.1-1,0.3C49.7,1.3,50.2,1.5,50.2,1.1z"/>
	<path class="st1" d="M62.4,1.1c-1,0-1.8,0.1-2,0.8C61,2.1,61.8,1.4,62.4,1.1z"/>
	<path class="st1" d="M63.6,2.2c1.2-0.4,2.2-0.3,3.1-0.8C65.8,1.2,64,1.3,63.6,2.2z"/>
	<path class="st1" d="M92.6,1.6c0-0.4-1-0.6-1.1-0.1C91.7,1.7,92.2,1.6,92.6,1.6z"/>
	<path class="st1" d="M63.5,2.3c0-0.6-0.7-0.1-1-0.1C62.4,2.7,63,2.1,63.5,2.3z"/>
	<path class="st1" d="M75.6,2.8c0.9-0.3,2.9,0.2,3.3-0.5C77.8,2.1,76.4,2.1,75.6,2.8z"/>
	<path class="st1" d="M61.1,2.3c-0.6,0-1.1,0-1.1,0.5C60.6,2.8,61.3,3,61.1,2.3z"/>
	<path class="st1" d="M35.4,2.4c-0.5-0.1-1,0.3-0.7,0.5C34.8,2.7,35.5,2.9,35.4,2.4z"/>
	<path class="st1" d="M96.1,2.7c-0.4-0.1-1.2-0.5-1.4,0C95.2,2.7,95.9,3.3,96.1,2.7z"/>
	<path class="st1" d="M54.2,3.8c-0.5-1.5-0.9-0.3-1.4,0.1C53.4,4,53.6,3.7,54.2,3.8z"/>
	<path class="st1" d="M56.2,4.2c1-0.4,2.2-0.5,2.9-1.2C57.7,3,56.5,3.1,56.2,4.2z"/>
	<path class="st1" d="M62.4,3.9c0.7-0.1,1.2-0.3,1.8-0.8C63.3,3.1,62.4,3.1,62.4,3.9z"/>
	<path class="st1" d="M66.6,3.5c-0.8-0.2-1.6-0.2-1.8,0.5C65.7,4.1,66.3,4,66.6,3.5z"/>
	<path class="st1" d="M96,4.3c0.1,0.2,1.1,0.2,1.2,0C97,4.2,96.1,3.7,96,4.3z"/>
	<path class="st1" d="M33.1,5.2c0.5-0.2,0.7-0.6,1-1c-0.6,0-1.3,0.1-1.2,0.8C32.9,5,33.1,5,33.1,5.2z"/>
	<path class="st1" d="M100.8,5.2c-0.2-0.2-0.7-0.2-0.7,0.1C100.3,5.5,100.7,5.5,100.8,5.2z"/>
	<path class="st1" d="M87.8,6c0.4,0,0.6,0.2,1.1,0.1C89,5.2,87.9,5.4,87.8,6z"/>
	<path class="st1" d="M90.4,5.7c-0.3-0.1-0.5-0.4-1-0.3C89.3,5.9,90.3,6,90.4,5.7z"/>
	<path class="st1" d="M102.3,5.8c0-0.5-0.6-0.4-1.1-0.4C101.1,5.9,102,6,102.3,5.8z"/>
	<path class="st1" d="M13.8,6.1c-0.4,0-0.9-0.7-1.4-0.3C13,5.7,13.3,6.6,13.8,6.1z"/>
	<path class="st1" d="M42.3,6.1c0-0.2-0.1-0.3-0.3-0.4C42,6,41.5,5.8,41.7,6.2C42,6.3,42.2,6.2,42.3,6.1z"/>
	<path class="st1" d="M15,6.6c-0.1-0.4-0.2-0.8-0.7-0.8C14.1,6.1,14.3,6.8,15,6.6z"/>
	<path class="st1" d="M68.8,6.2c0,0.3,0,0.5,0.1,0.7c0.4-0.1,1.1,0,1.2-0.4C69.5,6.6,69.1,6.7,68.8,6.2z"/>
	<path class="st1" d="M72.4,6.8c0.1-0.3,0.9,0.1,0.8-0.4C72.9,6,72,6.4,72.4,6.8z"/>
	<path class="st1" d="M66,6.9c0.3-0.1,0.6,0.5,0.1,0.8c0.3,0,0.6,0,1,0c0.2-0.5,0.7-0.7,0.7-1.4C67.1,6.4,66.1,6.2,66,6.9z"/>
	<path class="st1" d="M28.7,6.8c-0.5,0-0.6,0.3-0.5,0.8C28.6,7.6,28.7,7.2,28.7,6.8z"/>
	<path class="st1" d="M86.3,7.3c0.1-0.5-0.7-0.8-1-0.4c0.2,0.1,0.3,0.1,0.4,0.3c-0.4,0-0.9-0.1-1,0.3C85.3,7.4,86,7.6,86.3,7.3z"/>
	<path class="st1" d="M56.5,7.2c-0.1,0.2-0.2,0.4-0.1,0.7c0.6-0.2,1.3-0.2,2-0.1c0.1-0.3,0.3-0.3,0.3-0.7C57.7,6.5,57,8.3,56.5,7.2z
		"/>
	<path class="st1" d="M92.7,7.1c-0.2-0.2-1.1-0.3-1.2,0C91.9,7.1,92.6,7.5,92.7,7.1z"/>
	<path class="st1" d="M104.4,7.2c-0.2-0.2-0.5-0.3-1-0.3C103.5,7.4,104.3,7.9,104.4,7.2z"/>
	<path class="st1" d="M64.5,8.1c0.1-0.7-0.4-0.8-0.7-1.1c-0.2,0.3-0.7,0.3-0.8,0.7c0.1,0.2,0.5,0,0.5,0.3c-0.6,0.1-0.7,0.7-1,1.2
		c0.2,0.1,0.3,0.2,0.5,0.3C63.5,9.2,63.1,9.2,63,9C63.8,8.8,63.5,7.7,64.5,8.1z"/>
	<path class="st1" d="M48.6,7.6c-1.2,0.1-2.3,0.3-3.4,0.5c0.6,0.2,0,0.4,0,0.8c0.6-0.1,0.8,0.2,1.2,0.3c0-0.3-0.2-0.3-0.1-0.5
		c0.6-0.2,1.5-0.4,2.6-0.7C48.7,8,48.7,7.7,48.6,7.6z"/>
	<path class="st1" d="M55.1,7.6c-0.1,0.8,0.8,0.8,1,0.3C55.5,8.1,55.7,7.5,55.1,7.6z"/>
	<path class="st1" d="M41.3,7.7c-0.4,0.1-1,0-1,0.5C40.9,8.4,41.1,8,41.3,7.7z"/>
	<path class="st1" d="M66.2,8c-0.2-0.2-0.5-0.2-0.8-0.1c0,0.3,0,0.7,0.1,0.8C66,8.7,66,8.3,66.2,8z"/>
	<path class="st1" d="M27.8,8.3c0,0.3-0.2,0.4-0.3,0.7C27.9,9.1,28.3,8.2,27.8,8.3z"/>
	<path class="st1" d="M84.6,8.4c-0.4,0.2-0.9,0.2-1.2,0.4C83.8,9.1,84.5,8.9,84.6,8.4z"/>
	<path class="st1" d="M82.6,9.2C82.5,8.8,83,9,83.1,8.7c-0.5,0-1.1,0.1-1.4,0.4C81.9,9.3,82.3,9.2,82.6,9.2z"/>
	<path class="st1" d="M45.7,9.2c-0.6,0.2-2.2-0.4-2.5,0.7C44.1,9.7,45.4,10,45.7,9.2z"/>
	<path class="st1" d="M91.2,9.5c0-0.3-0.6-0.1-0.7,0C90.3,9.9,91.4,9.9,91.2,9.5z"/>
	<path class="st1" d="M37.9,9.8c-0.3-0.2-1,0.1-1.2,0.4C37.2,10.2,37.8,10.2,37.9,9.8z"/>
	<path class="st1" d="M34,10.5C33.9,11.2,33,11.1,33,12c0.3,0,0.4,0.2,0.8,0.1c0.2-1.3,2.1-0.8,2.7-1.8C35.6,10.2,34.8,10.9,34,10.5
		z"/>
	<path class="st1" d="M43.6,11.1c-0.1,0.8,0.6,0.5,1.1,0.4C44.7,11,44.1,11.2,43.6,11.1z"/>
	<path class="st1" d="M102.4,12.1c0.4-0.1,1.1,0.2,1.2-0.1c-0.4-0.3-0.9-0.5-1.5-0.5C102,11.9,102.3,11.8,102.4,12.1z"/>
	<path class="st1" d="M98.6,12.1c-0.4-0.3-0.9-0.4-1.5-0.4c-0.4,0.2-0.1,0.4-0.3,0.7c-0.3,0-0.6,0-1,0
		C96.2,13.4,98.4,12.8,98.6,12.1z"/>
	<path class="st1" d="M100.6,13.6c-0.2-0.1-0.3-0.2-0.3-0.4c0.2,0,0.4-0.2,0.1-0.3c-0.5,0.3-1.5,0.1-1.8,0.3
		C98.9,13.6,100.3,13.7,100.6,13.6z"/>
	<path class="st1" d="M22.5,13c-0.2,0.3-0.6,0.4-0.5,1C22.3,13.9,22.7,13.3,22.5,13z"/>
	<path class="st1" d="M96.3,13.2c0,0.2-0.1,0.3-0.1,0.4c0.4,0,0.8,0.1,0.8-0.3C96.8,13.2,96.6,13.1,96.3,13.2z"/>
	<path class="st1" d="M30.4,14.7c-0.2-0.6,0.1-0.6,0.1-1.2C29.6,13.3,29.6,14.7,30.4,14.7z"/>
	<path class="st1" d="M21.4,14.5c-0.3,0-0.3,0.2-0.5,0.1C20.8,15.3,21.6,15.2,21.4,14.5z"/>
	<path class="st1" d="M30.5,14.5c-0.1,0.4,0.2,0.4,0.1,0.7c0.5,0.1,0.8-0.1,0.8-0.5C31.1,14.6,31,14.7,30.5,14.5z"/>
	<path class="st1" d="M26.6,15.1c-0.4,0-0.3-0.2-0.5,0C25.9,15.6,26.7,15.6,26.6,15.1z"/>
	<path class="st1" d="M33.2,15.1c-0.5,0.1-1.4,0.4-1.1,1C32.6,15.8,32.9,15.5,33.2,15.1z"/>
	<path class="st1" d="M28.3,16.2c0.1,0.5,0.5,0.6,1,0.8c0-0.1,0.1-0.2,0.3-0.1c0-0.4,0-0.7,0-1.1c-0.2,0-0.3-0.1-0.4-0.1
		C29.2,16.4,28.9,16.3,28.3,16.2z"/>
	<path class="st1" d="M23.8,16.3c0.3,0,0.5-0.2,0.5-0.5c-0.3,0-0.7,0-0.8,0.1C23.5,16.2,23.7,16.2,23.8,16.3z"/>
	<path class="st1" d="M25.1,17.5c0.4,0.4,0.7,1,1.5,1c0-0.7,0.3-1.3-0.1-1.6C26.1,17.3,25.5,17.3,25.1,17.5z"/>
	<path class="st1" d="M23.8,17.3c0.2,0.2,0.3,0.4,0.5,0.5C24.7,17.6,24.1,16.5,23.8,17.3z"/>
	<path class="st1" d="M98.3,17.7c0.3,0.1,0.2,0.4,0.7,0.3c0-0.3,0-0.5-0.3-0.5C98.7,17.6,98.3,17.5,98.3,17.7z"/>
	<path class="st1" d="M32.5,18.6c0.4-0.1,0.8-0.3,1.1-0.5c0.1-0.4-0.3-0.3-0.4-0.4C33,18,32.5,18,32.5,18.6z"/>
	<path class="st1" d="M17.4,18.1c-0.1,0-0.3,0-0.4,0c0,0.2-0.1,0.3-0.1,0.4c0.3,0.2,0.2,0,0.5,0C17.4,18.4,17.4,18.2,17.4,18.1z"/>
	<path class="st1" d="M107.6,19.2c-0.2-0.2-1-0.5-1.1,0C106.6,19.3,107.5,19.5,107.6,19.2z"/>
	<path class="st1" d="M25.9,19.2c-0.2-0.2-0.6-0.1-1-0.1c-0.1,0.4,0.2,0.4,0.1,0.8C25.6,19.9,25.9,19.7,25.9,19.2z"/>
	<path class="st1" d="M14.7,19.4c-0.5,0-0.5,0.4-0.7,0.7C14.4,20.1,14.6,19.8,14.7,19.4z"/>
	<path class="st1" d="M23.6,19.7c-0.4-0.1-0.6,0.1-0.5,0.5C23.4,20.3,23.6,20.1,23.6,19.7z"/>
	<path class="st1" d="M106.6,20.9c-0.3,0-0.4-0.1-0.4-0.4c0.3,0,0.3,0.2,0.5,0.1c-0.1-0.4,0.2-0.4,0.1-0.7c-0.5-0.2-1-0.4-1.5-0.1
		c-0.2,0.3,0.5,0.4,0.1,0.5c-0.8-0.4-1.2-0.3-1.9-0.7c-0.1,0.4,0.4,0.3,0.3,0.8C105,20.4,105.7,21.4,106.6,20.9z"/>
	<path class="st1" d="M102.3,20.1c-0.3,0-0.7,0-0.8,0.1C101.3,20.8,102.5,20.6,102.3,20.1z"/>
	<path class="st1" d="M19.6,20.5c-0.5,0-0.6,0.5-0.8,0.8C19.3,21.3,19.6,21.1,19.6,20.5z"/>
	<path class="st1" d="M107,20.7c0,0.6,1.1,0.7,1.4,0.3C107.9,20.9,107.5,20.3,107,20.7z"/>
	<path class="st1" d="M102.1,21.4c0-0.2,0-0.4,0-0.5c-0.2,0.1-0.7,0-0.8,0.3C101.6,21.2,101.7,21.4,102.1,21.4z"/>
	<path class="st1" d="M22.3,22.7c0.5,0.1,0.4-0.4,1-0.3c0-0.3,0-0.5-0.3-0.5C23.1,22.4,22.2,22.1,22.3,22.7z"/>
	<path class="st1" d="M19.5,22c-0.3,0-0.3,0.2-0.5,0.1c0,0.2,0,0.5,0.1,0.5C19.1,22.4,19.3,22.3,19.5,22z"/>
	<path class="st1" d="M24.9,22.2c-0.3-0.3-0.3,0-0.7,0C24.2,22.8,24.9,22.5,24.9,22.2z"/>
	<path class="st1" d="M25.2,23c0.1-0.5-0.2-0.4-0.5-0.4C24.6,22.9,24.8,23,25.2,23z"/>
	<path class="st1" d="M18.2,23.9c0.1-0.2,0.6-0.2,0.4-0.7C18.3,22.8,17.6,23.8,18.2,23.9z"/>
	<path class="st1" d="M18.4,24.1c0,0.6,0.3,1.1,0.7,1.4c0-0.2,0.2-0.1,0.4-0.1c-0.4-0.8,0.1-1.1,0.4-1.6
		C19.3,23.3,18.8,23.9,18.4,24.1z"/>
	<path class="st1" d="M29.3,24.5c0-0.2,0.6-0.4,0.1-0.5c-0.5,0.2-1.4-0.2-1.5,0.5C28.5,24.4,28.7,24.4,29.3,24.5z"/>
	<path class="st1" d="M16.5,25.3c0.2,0,0.5,0,0.7,0c0.2-0.2,0.2-0.5,0.1-0.8C16.9,24.6,16.4,24.7,16.5,25.3z"/>
	<path class="st1" d="M104.2,24.8c-0.2-0.5-0.9-0.3-0.8,0.3C103.5,25.2,104.1,25.1,104.2,24.8z"/>
	<path class="st1" d="M113.2,25.2c0.5,0,0.9,0,1.4,0c-0.2-0.5-1.3-0.7-1.6-0.5C113.1,24.7,113.2,24.9,113.2,25.2z"/>
	<path class="st1" d="M18.8,25.3c-0.4,0.1-0.4-0.2-0.7-0.1c0.1,0.8-1,0.5-0.8,1.6C18.2,26.8,18.5,26,18.8,25.3z"/>
	<path class="st1" d="M24.8,25.4c-0.2,1,1.1,1,1.1,0.3C25.4,25.8,25,25.7,24.8,25.4z"/>
	<path class="st1" d="M105.9,25.4c-0.3,0-0.5,0-0.8,0C105.1,25.9,106.1,26,105.9,25.4z"/>
	<path class="st1" d="M114.4,26.1c0.4,0.1,1.1,0.6,1.5,0.3c-0.2-0.3-0.7-0.3-0.7-0.8c-0.2,0-0.4,0-0.5-0.1
		C114.8,25.9,114.3,25.7,114.4,26.1z"/>
	<path class="st1" d="M102.3,26c0.2,0,0.9,0.4,0.8-0.1C103,25.5,102.3,25.8,102.3,26z"/>
	<path class="st1" d="M22.5,26.1c0,0.4,0.4,0.4,0.3,1c0.2,0,0.4,0,0.5,0c0.2-0.3-0.1-0.4,0.1-0.8C23.2,26.1,22.8,26.1,22.5,26.1z"/>
	<path class="st1" d="M107,26.5c-0.3-0.1-0.3-0.3-0.7-0.3C106.2,26.7,106.9,26.8,107,26.5z"/>
	<path class="st1" d="M105,27.1c0.3-0.3-0.5-1-0.8-0.5C104.4,26.8,104.5,27.1,105,27.1z"/>
	<path class="st1" d="M23,28.2c1-0.1,1.6-0.6,1.8-1.5C23.7,26.1,23.4,27.5,23,28.2z"/>
	<path class="st1" d="M17.2,27.2c-0.3,0-0.3-0.2-0.5-0.1c-0.2,0.4-0.4,0.7-0.4,1.2C16.9,28.4,17.1,27.8,17.2,27.2z"/>
	<path class="st1" d="M103.3,27.3c0,0.4,0.2,0.4,0.5,0.4C103.9,27.4,103.7,27.3,103.3,27.3z"/>
	<path class="st1" d="M124.9,27.9c-0.4,0.1-0.4-0.3-0.7,0C124,28.4,124.9,28.2,124.9,27.9z"/>
	<path class="st1" d="M24.9,28.4c-0.1,0.5,0.5,0.3,0.5,0.5c-0.2,0.2-0.5,0.4-0.5,0.7c0.6-0.3,1.1-0.7,1.4-1.4
		C25.8,28.1,25.5,28.5,24.9,28.4z"/>
	<path class="st1" d="M105.5,29.1c-0.1-0.5-0.4-0.8-1-1C104.6,28.7,105.1,28.9,105.5,29.1z"/>
	<path class="st1" d="M13.5,28.6c-0.2,0-0.2-0.2-0.4-0.1c-0.2,0.2-0.2,0.7,0.1,0.7C13.2,28.8,13.6,28.9,13.5,28.6z"/>
	<path class="st1" d="M12.8,30.2c0.4,0,0.6-0.2,0.5-0.7C13,29.6,12.8,29.8,12.8,30.2z"/>
	<path class="st1" d="M25.6,29.8c-0.1,0.4-0.8,0.8-0.4,1.2c0.4-0.3,0.7-0.6,0.8-1.1C25.8,29.9,25.8,29.8,25.6,29.8z"/>
	<path class="st1" d="M138.6,31c0.6,0.1,0.9-0.8,0.5-1.2C139.1,30.3,138.8,30.6,138.6,31z"/>
	<path class="st1" d="M120.1,31.2c-0.3-0.3-0.5-0.8-1-1C119.2,30.7,119.7,31.4,120.1,31.2z"/>
	<path class="st1" d="M12.7,30.5c-0.2,0-0.2-0.2-0.4-0.1c0,0.2-0.2,0.3-0.1,0.5C12.5,30.9,12.7,30.8,12.7,30.5z"/>
	<path class="st1" d="M12,31.8c0.2-0.6,0-1-0.5-1.2C11.2,31.1,11.4,31.7,12,31.8z"/>
	<path class="st1" d="M26.7,31c-0.7,0-0.9,0.4-1.2,0.8C26,32.2,26.2,31.2,26.7,31z"/>
	<path class="st1" d="M121,31.3c-0.3-0.1-0.2-0.4-0.7-0.3C120.3,31.4,120.9,31.6,121,31.3z"/>
	<path class="st1" d="M27.6,32.1c0.3-0.1,0.6-0.2,1.1-0.1c0-0.4-0.4-0.4-0.8-0.4C28,31.9,27.6,31.8,27.6,32.1z"/>
	<path class="st1" d="M122.3,32.1c-0.2,0-0.6-0.5-0.8-0.1C121.7,32,122.1,32.5,122.3,32.1z"/>
	<path class="st1" d="M11.2,32c-0.4,0-0.9,0.6-0.5,1C10.7,32.5,11.1,32.4,11.2,32z"/>
	<path class="st1" d="M116.8,33.9c-0.1-0.6-0.1-1.4-0.7-1.5C116.2,33.1,116.4,33.6,116.8,33.9z"/>
	<path class="st1" d="M133.2,32.7c-0.2,0-0.5,0-0.7,0c0.1,0.5,0.3,1,0.5,1.4C133.1,33.5,132.9,33.3,133.2,32.7z"/>
	<path class="st1" d="M19.5,32.9c-0.8-0.1-1,0.4-1,1.1c0.5,0.1,0.8,0.3,1.4,0.4C19.9,33.6,19.8,33.6,19.5,32.9z"/>
	<path class="st1" d="M21.8,34.3c0.1-0.5-0.3-0.5-0.7-0.5C21,34.3,21.3,34.3,21.8,34.3z"/>
	<path class="st1" d="M124.7,35.1c-0.3-0.6,0.5-0.2,0.4-0.7c-0.3-0.3-0.5-0.7-1.1-0.7c0,0.3-0.1,0.6-0.3,0.7
		c-0.1-0.4-0.5-0.5-1.1-0.4C123,35,124.2,34.3,124.7,35.1z"/>
	<path class="st1" d="M139.4,34.3c0.3-0.1,0.9,0,0.8-0.5C139.8,33.7,139.3,33.7,139.4,34.3z"/>
	<path class="st1" d="M12.4,35.2c-0.1-0.3,0.2-0.9-0.3-0.8c-0.1,0.4-0.5,0.2-0.8,0.1C11.4,35.1,11.7,35.3,12.4,35.2z"/>
	<path class="st1" d="M18.7,35.5c0.4,0.1,0.6-0.2,0.7-0.4C19.2,35,19,34.9,18.7,35C18.7,35.2,18.7,35.3,18.7,35.5z"/>
	<path class="st1" d="M109.5,35.9c0.3,0,0.1,0.5,0.4,0.5c0.3-0.3-0.1-0.2,0-0.7C109.7,35.8,109.5,35.8,109.5,35.9z"/>
	<path class="st1" d="M126.8,44.2c0,0.2-0.2,0.1-0.4,0.1c0.1,0.4,0.1,1,0.7,1c0.5-1.4-0.8-3.4-1-5.2c-0.1-1.6,0.4-4.4-1.9-3.9
		c0.3,0.5,0.5,0.3,1,0.4c-0.1,0.4,0.2,0.5,0.3,0.8c-0.2,0.1-0.5,0.1-0.5,0.4c0.3,0.5,0.6,1,1.1,1.4c0,0.4-0.5,0.2-0.5,0.5
		c0.6,0.7,0.4,2.3,1.1,3.3c-0.1,0-0.3,0-0.4,0C126,43.7,126.5,43.8,126.8,44.2z"/>
	<path class="st1" d="M119.8,36.3c0,0.3-0.4,0.3-0.4,0.5c0.3,0.1,0.4,0.3,0.7,0.4C120.1,36.9,120.1,36.5,119.8,36.3z"/>
	<path class="st1" d="M132.8,37.4c0,0.3,0,0.7,0.3,0.7C133.2,37.9,133.2,37.3,132.8,37.4z"/>
	<path class="st1" d="M120.5,37.8c-0.2-0.2-0.5-0.4-0.8-0.1c-0.1,0.5,0.6,0.3,0.4,1C120.5,38.7,120.4,38.2,120.5,37.8z"/>
	<path class="st1" d="M6.4,38.8c0-0.2,0.5-0.6,0.1-0.8C6.5,38.3,5.8,38.6,6.4,38.8z"/>
	<path class="st1" d="M8,39.7c0-0.4,0.6-1,0.3-1.4C8.1,38.8,7.2,39.4,8,39.7z"/>
	<path class="st1" d="M120.8,39.5c-0.2,0-0.4,0-0.5,0c0,0.7,0.3,1.4,0.7,1.9C121.2,40.8,120.7,40.2,120.8,39.5z"/>
	<path class="st1" d="M9,39.9c0,0.2,0,0.4,0,0.5c0.1,0,0.3,0,0.4,0C9.4,40.1,9.3,39.8,9,39.9z"/>
	<path class="st1" d="M10.9,40.8c0.1-0.2,0.2-0.3,0.3-0.5c-0.4-0.2-1-0.1-1,0.5C10.6,40.7,10.5,40.7,10.9,40.8z"/>
	<path class="st1" d="M7.5,40.4c-0.4-0.2-0.6,0.6-0.3,0.7C7.3,40.8,7.6,40.9,7.5,40.4z"/>
	<path class="st1" d="M5.6,41.8c-0.3-0.2,0.1-1.1-0.4-1.1C5.3,41.2,5,41.3,5,41.8C5.2,41.8,5.4,41.8,5.6,41.8z"/>
	<path class="st1" d="M134.7,41.8c0.4,0,0.4-0.2,0.4-0.5C134.7,41.2,134.6,41.4,134.7,41.8z"/>
	<path class="st1" d="M119.3,41.9c-0.1,0.5,0.2,0.5,0.5,0.5C119.9,42,119.7,41.9,119.3,41.9z"/>
	<path class="st1" d="M7.8,42.1c0,0.4,0.1,0.8-0.1,1C8,43.1,8.3,42,7.8,42.1z"/>
	<path class="st1" d="M6.7,44c0-0.4-0.2-0.7-0.4-1c-0.1,0-0.3,0-0.4,0c0,0.2,0,0.4-0.1,0.5C6.2,43.5,6.1,44.1,6.7,44z"/>
	<path class="st1" d="M135.2,43.7c0,0.4,0,0.8,0.4,0.8C135.5,44.2,135.5,43.8,135.2,43.7z"/>
	<path class="st1" d="M3.9,45c0.1-0.3,0.2-1.1-0.1-1.2C4,44.3,3.3,45,3.9,45z"/>
	<path class="st1" d="M142.4,44.1c-0.2,0.2-0.1,0.7,0.3,0.7C142.7,44.4,142.7,44.1,142.4,44.1z"/>
	<path class="st1" d="M6.7,45c0.2,0.1,0.7,0.5,1,0.1c-0.5,0,0-1.1-0.7-1C7,44.6,6.6,44.6,6.7,45z"/>
	<path class="st1" d="M5.9,44.4c0,0.4-0.1,0.8,0.3,0.8c0.2-0.2,0.2-0.5,0.1-0.8C6.1,44.4,6,44.4,5.9,44.4z"/>
	<path class="st1" d="M133.6,44.6c-0.1,0-0.3,0-0.4,0c0.5,0.5,0,1.4,0.7,1.6C133.8,45.6,133.5,45.3,133.6,44.6z"/>
	<path class="st1" d="M3.7,46.4c0.1-0.3,0.2-0.9-0.3-1C3.2,45.7,3.1,46.5,3.7,46.4z"/>
	<path class="st1" d="M118.6,47.9c0.4-0.5,0.1-1,0.1-1.8c-0.7-0.1-0.9,0.2-1.4,0.3c0,0.6,0,1.1,0.4,1.2c0.3-0.1,0-0.8,0.3-0.8
		C118,47.4,118,47.9,118.6,47.9z"/>
	<path class="st1" d="M120,46.4c-0.2-0.2-0.7-0.4-1-0.1c0.4,0.4-0.4,1.3,0.5,1.2C119.5,46.9,119.5,46.5,120,46.4z"/>
	<path class="st1" d="M126.5,47c0.7,0.1,0.7-0.4,1-0.7C126.9,45.8,126,46.4,126.5,47z"/>
	<path class="st1" d="M4.4,47.5c-0.1,0.8,1,0.3,1.1,1c-0.3,0.3-0.3,0.7,0.1,0.8c0.6-0.5,0.3-1.6-0.4-1.9C5.4,48,4.4,47.8,4.4,47.5z"
		/>
	<path class="st1" d="M126.5,47.4c0,0.4,0,0.7,0.4,0.7C127.2,47.8,126.7,47.5,126.5,47.4z"/>
	<path class="st1" d="M119.6,48.9c0.1-0.5,0.1-0.4,0.1-1C119,47.6,118.9,49,119.6,48.9z"/>
	<path class="st1" d="M3.9,48.2c0,0.8-0.5,1.1-0.4,1.6c0.8,0,0.5-1,0.8-1.5C4.2,48.3,4.2,48.1,3.9,48.2z"/>
	<path class="st1" d="M8.7,48.3c-0.3,0-0.4-0.2-0.8-0.1C7.8,48.9,8.7,48.8,8.7,48.3z"/>
	<path class="st1" d="M7.4,49.5c0.5-0.8-0.8-1-1.4-0.7C6.1,49.4,7,49.2,7.4,49.5z"/>
	<path class="st1" d="M117.8,49.8c0.1-0.5,0.2-0.8-0.1-1.1C117.5,48.9,117.4,49.8,117.8,49.8z"/>
	<path class="st1" d="M129.1,48.9c0,0.3,0,0.6,0,1c0.4,0,0.5-0.4,1.1-0.3C130.2,48.9,129.4,49.2,129.1,48.9z"/>
	<path class="st1" d="M7.6,49.9c-0.8-0.7-1.7,0.1-2.5-0.5c0,0.2,0,0.4,0,0.5c1.1-0.3,0.5,1.2,1.4,1.2c0.3-0.3-0.5-0.9,0.1-1.2
		C6.8,50.1,7.5,50.2,7.6,49.9z"/>
	<path class="st1" d="M10.8,49.8c-0.1-0.4-0.8-0.2-1.1-0.4c0,0.4,0.2,0.9,0.3,1.6c-0.1,0.3-1.1-0.2-1,0.4c0.2,0.3,1.2,0.2,1.4,0
		c0-0.5,0-1-0.1-1.4C10.5,50.1,10.9,50.2,10.8,49.8z"/>
	<path class="st1" d="M5.4,51.3c0.2-0.2,0-0.8-0.4-0.8C4.9,50.9,4.8,51.4,5.4,51.3z"/>
	<path class="st1" d="M6.4,52.7c-0.7,0.4-0.9-0.6-1.6-0.5c-0.2,0.6,0.5,0.8,0.1,1.8c0.6,0.3,1-0.1,1.5-0.1
		C6.4,53.3,6.6,53.1,6.4,52.7z"/>
	<path class="st1" d="M4.2,54.4c0.3,0,0.4-0.2,0.5-0.4c-0.6,0.1-0.2-0.8-0.7-0.8C4.3,53.8,4,54,4.2,54.4z"/>
	<path class="st1" d="M118.9,55.8c0.1-0.9-0.3-1.7,0-2.3c-0.2-0.2-0.5-0.2-0.8-0.1c-0.1,0.8,0.2,1.3,0.4,1.8
		c-0.5,0.3-0.3,1.2-0.3,1.6c0.2,0,0.3,0.1,0.4,0.1c0.1-0.1,0-0.5,0.4-0.4c0.3,0.1-0.4,0.7,0.3,0.7c0.5-0.8,0.2-1.9,0.4-3
		C118.7,54.2,119.5,55.4,118.9,55.8z"/>
	<path class="st1" d="M6.4,54.9c0.5-0.1,0.2,0.6,0.7,0.4c-0.2-0.6-0.5-0.9-0.3-1.6c-0.1,0-0.2,0-0.3,0c0,0.1,0,0.2-0.1,0.1
		c-0.1,0.3,0.2,0.3,0.1,0.7c-0.5-0.3-0.7,0-0.8,0.4c0-0.3-0.2-0.3-0.1-0.5c-0.3,0-0.5,0-0.8,0c0.5,0.6,0.6,1.1,0.4,2.2
		c0.8-0.3,0.1,1,0.7,1c0.4-0.3,0-1.3-0.4-1.2c0.2-0.4,0.2-0.3,0.1-1C6.2,55.5,5.9,54.8,6.4,54.9z"/>
	<path class="st1" d="M1.8,56.1c0.2-0.5,0.6-1.6,0.1-1.9c0,0.4-0.9-0.1-1,0.3c0.2,0.2,0.5,0.3,0.5,0.7C1.2,55.2,1.2,55,1,55
		C0.9,55.7,1.6,55.6,1.8,56.1z"/>
	<path class="st1" d="M117.5,54.4c0.1,0.5-0.2,1.3,0.1,1.5C117.6,55.6,118.1,54.7,117.5,54.4z"/>
	<path class="st1" d="M119.4,58.1c0-0.2,0.1-0.3,0.1-0.4c-0.5-0.3-0.8,0.1-1.2-0.3c-0.2,0.2-0.2,0.6,0,0.8
		C118.9,58,118.8,57.8,119.4,58.1z"/>
	<path class="st1" d="M117.6,59.5c0.4-0.5,1.1,0.2,1.1-0.7c-0.5,0-0.8,0.2-1.4,0.1C117.3,59.3,117.6,59.2,117.6,59.5z"/>
	<path class="st1" d="M0.5,61.7c0.5,0,1.1,0.7,1.2-0.1c-0.3-0.1-0.6-0.2-0.8-0.3c0.2,0,0.4,0,0.5,0c-0.2-0.4,0-0.6,0-1.1
		c-0.5-0.1-0.9-0.3-1,0.3c0.6-0.2,0.4,0.4,0.4,0.8c-0.2-0.1-0.4-0.2-0.5-0.3C0.4,61.3,0.7,61.3,0.5,61.7z"/>
	<path class="st1" d="M1,62.6C1,62.1,0.6,62,0.3,61.9c-0.2,0.4,0,0.5,0.1,0.8C0.7,62.8,0.7,62.6,1,62.6z"/>
	<path class="st1" d="M126.1,63c0-0.3-0.2-0.5-0.5-0.5C125.5,62.9,125.8,63.3,126.1,63z"/>
	<path class="st1" d="M1.4,63.7c-0.1,0.4,0.4,0.9,0.5,0.5C1.7,64.1,1.7,63.7,1.4,63.7z"/>
	<path class="st1" d="M121.6,67.5c-0.1,0.5,0.3,0.7,0,1c0.5-0.1,0.8,0.4,1-0.1c-0.3,0-0.5-0.2-0.7-0.4c0.3-0.3,0.3,0.3,0.8,0.1
		C122.7,67.5,122.2,67.5,121.6,67.5z"/>
	<path class="st1" d="M125.3,68.6c0,0.4,0.6,0.3,1,0.4C126.3,68.5,125.7,68.6,125.3,68.6z"/>
	<path class="st1" d="M120.9,70.8c0-0.2,0-0.4,0-0.5c-0.2,0-0.5,0-0.5,0.1c0.1,0,0.2,0,0.3,0c0,0.2-0.2,0.2-0.3,0.4
		C120.5,70.8,120.7,70.8,120.9,70.8z"/>
	<path class="st1" d="M121.9,70.5c-0.2,0-0.5,0-0.7,0C121,70.9,122.1,70.9,121.9,70.5z"/>
	<path class="st1" d="M123.2,71.5c0.2,0,0.3,0.2,0.5,0.1c0-0.5-0.1-0.8-0.4-1c0,0.3,0.2,0.3,0.1,0.5
		C123.5,71.4,123.3,71.3,123.2,71.5z"/>
	<path class="st1" d="M125.5,72.1c0,0.5,0.1,0.8,0.4,1c0.2-0.2,0.1-0.6,0.1-1C125.9,72.1,125.7,72.1,125.5,72.1z"/>
	<path class="st1" d="M123.5,73.4c-0.4,0-0.7,0.2-0.7,0.5c0.2,0,0.5,0,0.7,0C123.5,73.7,123.5,73.6,123.5,73.4z"/>
	<path class="st1" d="M125.5,73.8c0,0.8,0.1,0.8,0,1.5C126,75.1,126.1,73.9,125.5,73.8z"/>
	<path class="st1" d="M122.8,74.7c0,0.4-0.1,0.9,0.3,1C123,75.1,123.5,74.7,122.8,74.7z"/>
	<path class="st1" d="M123,75.8c-0.2,0.5-1,1.5-0.4,2C123,77.6,123.2,76,123,75.8z"/>
	<path class="st1" d="M124.9,77.6c0.4,0.1,0,1,0.5,1c0-0.4,0.1-0.9-0.1-1.1C125.1,77.5,124.9,77.4,124.9,77.6z"/>
	<path class="st1" d="M122.7,78.1c-0.3,0-0.5,0-0.7-0.1c0.4,0.8-0.5,0.5-0.3,1.5C122.3,79.3,122.7,78.8,122.7,78.1z"/>
	<path class="st1" d="M3,78.7c-0.4-0.1-0.3,0.4-0.5,0.4c-0.1,0-0.2-0.1-0.3-0.1c0,0.4,0.4,0.3,0.7,0.4C3,79.2,3,79,3,78.7z"/>
	<path class="st1" d="M123.8,79.6c-0.3,0.3-0.4,0.9-0.4,1.5c0.3,0,0.3-0.2,0.5-0.1C123.8,80.4,123.9,79.9,123.8,79.6z"/>
	<path class="st1" d="M122.3,80.2c0-0.3-0.3-0.3-0.7-0.3c0,0.7-0.1,0.8-0.5,1.2c0.4,0,0.1,0.5,0.5,0.4
		C121.6,80.9,122.1,80.6,122.3,80.2z"/>
	<path class="st1" d="M124.2,80.3c-0.1,0.5,0.3,0.5,0.7,0.5c0-0.2,0-0.5,0-0.7C124.5,80.1,124.3,80.2,124.2,80.3z"/>
	<path class="st1" d="M124,81.3c0,0.4-0.1,0.9,0.4,0.8c0-0.1,0-0.3,0.1-0.3C124.6,81.5,124.4,81.3,124,81.3z"/>
	<path class="st1" d="M120.8,81.5c0.4,0.7,0.1,0.8,0,1.6c-0.2,0.1-0.5,0.1-0.7,0.3c0.1,0.4,0.2,0.6-0.1,0.8c0.3,0,0.5,0,0.8,0
		c0.3-0.5-0.1-0.9,0.5-1c-0.3-0.7,0.2-0.9,0.3-1.6C121.2,81.8,121.2,81.4,120.8,81.5z"/>
	<path class="st1" d="M122.7,82.2c0,0.5-0.2,1.2,0.4,1.1c-0.4-0.6,0.4-0.4,0.3-1.1C123.1,82.2,122.9,82.2,122.7,82.2z"/>
	<path class="st1" d="M122.1,84c-0.1,0.3-0.2,0.7-0.1,1.2c0.6-0.1,0.6-0.7,0.7-1.2C122.5,84,122.3,84,122.1,84z"/>
	<path class="st1" d="M122.7,84.9c0.3,0.1,0,0.6,0.5,0.4C123.4,84.9,122.8,84.6,122.7,84.9z"/>
	<path class="st1" d="M121.3,86.4c0.3,0,0.6-0.1,0.5-0.5C121.4,85.8,121.3,86,121.3,86.4z"/>
	<path class="st1" d="M7.8,88.5c0,0.7,0.5,0.2,0.8,0.4c-0.2-0.4,0-1.8-0.4-1.5c0,0.3-0.1,0.4,0.1,1C8.1,88.4,8,88.5,7.8,88.5z"/>
	<path class="st1" d="M8.4,89c0,0.3-0.2,0.3-0.1,0.5c0.3,0,0.2,0.4,0.5,0.3C8.7,89.5,9,89.5,9,89.2C8.8,89.1,8.7,89,8.4,89z"/>
	<path class="st1" d="M10.6,89.8c-0.2-0.2-0.5-0.2-0.8-0.1c0.1,0.5-0.1,0.8-0.1,1.1C10.1,90.6,10.8,90.6,10.6,89.8z"/>
	<path class="st1" d="M8.2,90.8c0.2,0.2,1.1,0.3,1.1-0.1C8.8,90.4,8.5,90.8,8.2,90.8z"/>
	<path class="st1" d="M9.9,91.5c0.4,0,1.1,0.2,1.1-0.3C10.8,91,10,91.1,9.9,91.5z"/>
	<path class="st1" d="M10.2,92.2c-0.1,0.4,0.2,0.4,0.1,0.7c0.4-0.2,0.6-0.2,1-0.3c0-0.2,0-0.4,0-0.5C10.8,91.9,10.7,92.3,10.2,92.2z
		"/>
	<path class="st1" d="M9.3,92.8c0.2,0.2,0.4,0.4,0.7,0.5c0-0.6-0.1-1-0.5-1.1C9.4,92.6,9.2,92.6,9.3,92.8z"/>
	<path class="st1" d="M11,94.6c0.5,0,1.1,0,1.1-0.5C11.6,94.1,11,94.1,11,94.6z"/>
	<path class="st1" d="M9,95.6c0-0.3-0.1-0.6-0.3-0.7C8.5,95.1,8.6,95.6,9,95.6z"/>
	<path class="st1" d="M11.4,95.2c0,0.3-0.2,0.3-0.1,0.5c0.3,0,0.3,0.2,0.5,0.1C11.8,95.5,11.6,95.4,11.4,95.2z"/>
	<path class="st1" d="M116.6,97.2c0.4,0.1,0.6-0.2,0.7-0.4C116.8,96.8,116.5,96.8,116.6,97.2z"/>
	<path class="st1" d="M3.1,97.6c0,0.4,0.4,0.7,0.7,0.4C3.9,97.6,3.5,97.6,3.1,97.6z"/>
	<path class="st1" d="M114.8,99c0.6-0.1,1.2-0.9,1.1-1.2C115.5,98.2,114.7,98.1,114.8,99z"/>
	<path class="st1" d="M9.9,99c0.2,0,0.4,0,0.5,0c0.1-0.4-0.2-0.6-0.4-0.7C10.2,98.7,9.9,98.6,9.9,99z"/>
	<path class="st1" d="M15.7,99.6c0-0.3-0.2-0.4-0.4-0.5c0,0.2-0.2,0.2-0.3,0.4C15.3,99.6,15.4,99.9,15.7,99.6z"/>
	<path class="st1" d="M6.9,100.9c0,0.5,0.2,0.8,0.5,1C7.5,101.3,7.3,101,6.9,100.9z"/>
	<path class="st1" d="M6.4,103.6c-0.1,0.5,0.3,0.5,0.3,1c0.4,0.1,0.4-0.2,0.7-0.1C7.1,104,6.9,103.7,6.4,103.6z"/>
	<path class="st1" d="M8.4,105c-0.2-0.3-0.2-0.9-0.7-1C7.8,104.5,8.1,104.8,8.4,105z"/>
	<path class="st1" d="M5.7,104.3c0,0.2,0,0.4,0,0.5c0.2,0,0.4,0,0.5,0C6.2,104.5,6.1,104.3,5.7,104.3z"/>
	<path class="st1" d="M0.3,105.8c-0.1,0.6,0.6,0.3,0.8,0.5C1.1,105.9,0.7,105.8,0.3,105.8z"/>
	<path class="st1" d="M103.8,108.4c0.1-0.4-0.2-0.5-0.3-0.8c0.9-0.8,1.8-0.4,2.6-1c-0.6-0.5-1.2-0.1-1.8-0.5
		c0.2,1.1-1.7,1.7-2.3,1.9c0-0.4,0.3-0.4,0.7-0.4c-0.2-0.4,0-0.6,0-1.1c-0.4,0-0.8,0.1-1.1,0.3c0.1,0.6,0.2,0.7,0,1.4
		C102.2,108.6,102.8,108.5,103.8,108.4z"/>
	<path class="st1" d="M4.9,107c-0.2-0.5-0.7-0.8-1.4-0.8C3.8,106.7,4.3,107.3,4.9,107z"/>
	<path class="st1" d="M1.6,106.7c-0.3-0.1-0.3,0-0.8-0.1C0.7,107.2,1.5,107,1.6,106.7z"/>
	<path class="st1" d="M21.6,107.1c-0.2-0.1-0.4-0.4-0.7-0.1C20.8,107.4,21.7,107.4,21.6,107.1z"/>
	<path class="st1" d="M25.5,108.1c0.3,0,0.5,0,0.8,0C26.3,107.5,25.4,107.3,25.5,108.1z"/>
	<path class="st1" d="M29.7,108.6c0.1-0.5-0.3-0.6-0.7-0.7C28.6,108.4,29.2,109,29.7,108.6z"/>
	<path class="st1" d="M9.3,108.8c-0.3-0.1-0.4-0.5-0.7-0.5C7.9,108.6,8.8,109.2,9.3,108.8z"/>
	<path class="st1" d="M28,108.5c-0.3,0-0.7,0-0.7,0.3c0.2,0,0.2,0.2,0.4,0.3C27.8,108.8,28,108.7,28,108.5z"/>
	<path class="st1" d="M31.3,109.2c-0.4-0.1-0.8-0.3-1.1-0.5C30.3,109.1,31,109.8,31.3,109.2z"/>
	<path class="st1" d="M87,108.6c-0.4,0.1-0.8,0.2-1.1,0.4C86.4,109.4,86.8,108.9,87,108.6z"/>
	<path class="st1" d="M103.6,108.9c-0.3,0-0.4,0.2-0.8,0.1c0.2,0.5-0.4,0.3-0.3,0.7c0.2,0,0.5,0,0.7,0
		C103.1,109.2,103.6,109.3,103.6,108.9z"/>
	<path class="st1" d="M29,111.2c0.4,0,0.6-0.1,0.5-0.4c-0.3,0-0.4-0.2-0.7-0.3C28.8,110.9,28.9,111.1,29,111.2z"/>
	<path class="st1" d="M10.2,111.8c-0.3-0.5-0.5-0.4,0-0.8c-0.6,0.2-0.9,0.3-1.6,0c-0.1,0.3-0.3,0.3-0.3,0.7
		C8.7,111.9,9.6,111.7,10.2,111.8z"/>
	<path class="st1" d="M18.1,112.2c-0.7,0.1-1.8,0.3-1.6-0.4c-1.1,0.5-1.6-0.5-2.6,0.1c-0.4-0.2-0.5-0.8-1.1-0.8
		c-0.5,0.3,0.6,0.5,0.1,0.8c-0.2-0.5-1.4-0.2-1.9-0.4c0.2,0.8,1.5,0.5,1.9,1.1c0.6-0.4,1.1-0.1,1.5-0.5c1,0.4,2.2,0.5,3.4,0.7
		C17.7,112.3,18.1,112.4,18.1,112.2z"/>
	<path class="st1" d="M19.1,111.9c0.1-0.5-0.9-0.6-1-0.1C18.3,112,18.7,111.9,19.1,111.9z"/>
	<path class="st1" d="M19.5,112.9c-0.2-0.2-0.8-0.2-0.7,0.3C19.1,113.1,19.5,113.2,19.5,112.9z"/>
	<path class="st1" d="M7.5,114.5c-0.7-0.3-1.1-1-1.9-1.2C5.5,113.8,6.8,115.2,7.5,114.5z"/>
	<path class="st1" d="M6.8,113.7c0.3,0.1,0.4,0.3,0.8,0.3C7.7,113.6,6.8,113.5,6.8,113.7z"/>
	<path class="st1" d="M33.9,113.9c0.1-0.5-0.9-0.6-1.1-0.3C33.3,113.6,33.5,114.3,33.9,113.9z"/>
	<path class="st1" d="M2.7,114.1c0.5,0.4,1.2,0.6,1.8,0.8C4.2,114.4,3.3,113.8,2.7,114.1z"/>
	<path class="st1" d="M32.4,114.1c-0.2-0.2-0.7-0.2-0.7,0.1C32,114.3,32.3,114.5,32.4,114.1z"/>
	<path class="st1" d="M32,115.3c-0.4-1-1.7-0.8-2.5-1.1c0.9,1,2.5,1.3,3.9,1.6C33.4,115,32.6,115.6,32,115.3z"/>
	<path class="st1" d="M26.1,114.5c0.5,0.2,0.8,0.5,1.1,1c0.1-0.3,0.5,0,0.4,0.3c0.4-0.1,0.6-0.1,1,0C28.1,115.1,27,114.3,26.1,114.5
		z"/>
	<path class="st1" d="M44,114.8c0.5,0.2,0.8,0.1,1.6,0.1C45.7,114.1,44.2,114.3,44,114.8z"/>
	<path class="st1" d="M20.4,115.2c0.1-0.3,0.9,0.1,0.8-0.4c-0.9,0.2-1.7,0.4-2,1.1c0.6-0.5,1.5,0.1,1.9-0.4
		C20.9,115.4,20.5,115.4,20.4,115.2z"/>
	<path class="st1" d="M88.4,116c0,0.2,0,0.4,0,0.5C88.9,116.6,88.9,115.9,88.4,116z"/>
	<path class="st1" d="M22.2,116.4c0.3,0.2,0.6,0.5,1.2,0.4C23.3,116.4,22.5,116.1,22.2,116.4z"/>
	<path class="st1" d="M20.7,117.4c0.2,0.3,1,0,1-0.4C21.2,116.9,20.7,116.9,20.7,117.4z"/>
	<path class="st1" d="M77.6,117.4c0.3,0,0.7,0,0.7-0.4C77.9,116.9,77.7,117.1,77.6,117.4z"/>
	<path class="st1" d="M96,119c0.7-0.2,0.5-1.1,1.2-1.2c-0.2-0.1-0.4-0.2-0.7-0.1C96.8,118.5,95.8,118.1,96,119z"/>
	<path class="st1" d="M93.8,117.8c-0.5,0-1.2-0.1-1.5,0.1c-0.3,1.2,1.4,0.3,1.9,0.8c-0.9,0.5-1.6,1.2-2,2c0.9,0.2,0.7-1,1.5-0.5
		c-0.4-0.9,1-0.9,1-1.9C94,118.7,94.1,118,93.8,117.8z"/>
	<path class="st1" d="M95.9,117.9c-0.1,0.2-0.4,0.1-0.3,0.5c0.1,0,0.3,0,0.4,0C96,118.2,96,117.9,95.9,117.9z"/>
	<path class="st1" d="M23.3,118.4c0.4,0.3,0.9,0.3,1.4,0C24.2,118,23.7,117.9,23.3,118.4z"/>
	<path class="st1" d="M95.7,119.3c0-0.3,0-0.7-0.3-0.7C95.2,118.8,95.3,119.4,95.7,119.3z"/>
	<path class="st1" d="M81.8,120.3c0.8,0,1.3-0.3,1.5-0.8c-0.5-0.1-0.9,0.4-1.2,0c-0.1-0.4,0.3-0.3,0.3-0.5c-0.4-0.1-0.6,0.1-1,0.1
		C81.3,119.7,81.9,119.7,81.8,120.3z"/>
	<path class="st1" d="M26.3,119.7c0.5,0.6-0.3,0.4-0.3,1.1c0.2,0,0.5,0,0.7,0C27,120.3,26.9,119.8,26.3,119.7z"/>
	<path class="st1" d="M40.2,120.8c-0.3,0-0.5,0-0.7,0.1C39.4,121.4,40.4,121.2,40.2,120.8z"/>
	<path class="st1" d="M74.8,121c-0.1,0.7,1.1,0.4,1-0.1C75.3,120.8,75.2,121.1,74.8,121z"/>
	<path class="st1" d="M90.5,121.7c0.5,0.2,1-0.6,0.4-0.7C91.1,121.5,90.4,121.2,90.5,121.7z"/>
	<path class="st1" d="M101.3,121.6c-0.4,0.2-0.9,0.2-1.2,0.5C100.6,122.1,101.1,122,101.3,121.6z"/>
	<path class="st1" d="M32.7,121.8c0.4,0.4,0.4,0.6,0.7,0.8c0.2-0.6,0.7-0.3,1.4-0.3C34.3,121.7,33.7,122,32.7,121.8z"/>
	<path class="st1" d="M39.8,122.4c0.5,0.6,1.4,0,2,0.3C41.5,122.4,40,121.8,39.8,122.4z"/>
	<path class="st1" d="M97.6,122.3c0.2,0.1,1.6,0.3,1.1-0.1C98.8,122.4,97.8,121.8,97.6,122.3z"/>
	<path class="st1" d="M96.7,122.4c-0.1,0.5-1.1,0.1-1.4,0.4c-0.1,0.3,0.2,0.3,0.1,0.7c0.7-0.1,1.2-0.3,1.5-0.7
		c0,0.2-0.1,0.3-0.1,0.4c0.4,0,0.9,0.1,0.8-0.4C97,122.9,97.1,122.4,96.7,122.4z"/>
	<path class="st1" d="M44,124.2c0.3,0.3,0.7,0,0.7-0.4C44.3,123.8,44.1,123.9,44,124.2z"/>
	<path class="st1" d="M92.3,124.3c0.5,0,1.1,0,1.2-0.4C93,123.9,92.4,123.8,92.3,124.3z"/>
	<path class="st1" d="M46.7,124.7c0.5,0.1,0.8-0.1,0.8-0.5C47,124.1,46.8,124.4,46.7,124.7z"/>
	<path class="st1" d="M88.2,124.4c0.3,0,0.3,0.4,0.4,0.5c1.4-0.5,2.1,0.6,3.3,0C90.5,124.8,89.3,123.7,88.2,124.4z"/>
	<path class="st1" d="M86.2,124.7c-0.1,0.8,0.4,0.2,0.7,0.5c-0.3,0-0.4,0.1-0.4,0.4c0.4,0.3,1.3,0.1,1.9,0.1c0-0.2,0-0.4,0.1-0.5
		C87.5,125.3,87.1,124.7,86.2,124.7z"/>
	<path class="st1" d="M50.2,125c-0.1,0.5,0.7,0.5,0.5,0C50.6,125,50.4,125,50.2,125z"/>
	<path class="st1" d="M76,125.7c-0.3,0-0.6,0.1-0.7,0.4C75.7,126.1,76,126.1,76,125.7z"/>
	<path class="st1" d="M78.6,0.9c-0.2-0.4-1.7-0.6-2,0C77.3,1.1,77.5,0.7,78.6,0.9z"/>
	<path class="st1" d="M71.5,0.7c0.1,0.5-0.3,0.5-0.7,0.8C71.2,1.9,72.1,0.9,71.5,0.7z"/>
	<path class="st1" d="M60,1.5c-0.5,0.5-1.8,0-2.3,0.7C58.1,2.3,60.4,1.9,60,1.5z"/>
	<path class="st1" d="M71.6,1.9c-1.2,0.8-2.4,0.8-3.4,1.5c0.5,0.4,1.4-0.7,1.9,0C70,2.4,71.9,2.7,71.6,1.9z"/>
	<path class="st1" d="M34.3,14.3c-0.2,0.1-0.4,0.3-0.7,0.4c0.1,1.2-1.2,1.1-1.5,1.9c1.9,0.5,2.1-1.9,4.1-1.8c0.3-0.3,0.8-0.6,1.1-1
		c-0.8-0.1-1,0.4-1.6,0.4c1-1.1,3.1-1.1,4.2-2c-0.7-0.3-2.1,0.5-2.6,0.4c1.2-0.6,2.1-2.1,3.5-2c0,0.4-0.6,0.2-0.5,0.7
		c1.2-0.1,1.7-0.8,2.3-1.4c-0.3-0.4-1,0.3-1.2-0.1c0.4-1,2.2-0.7,2.9-1.5c0-0.2-0.4-0.1-0.4-0.3c0.6-0.3,1.4-0.5,2-0.8
		c0,0.4-0.2,0.3,0,0.5c0.5-0.2,1.3-0.2,1.4-0.8c-0.4-0.2-0.8,0.4-1,0c0.7-0.4,1.2-1,1.9-1.4c0,0.2,0.2,0.3,0.1,0.5
		c-0.2,0-0.2-0.2-0.4-0.1c0.1,0.4-0.2,0.4-0.1,0.7c0.7,0,1.1-0.3,1.4,0.3c0,0.3-0.4,0.2-0.3,0.5C49.6,7.4,49.2,7.8,49,8
		c1.2-0.1,1.9-0.2,2.9-0.3c0.2-0.5-0.5-0.1-0.4-0.4c0.3-0.3,0.9-1,1.4-0.7c0,0.5-1,0-1,0.5c1.1,0.2,1.3-0.5,2.2-0.5
		C54,6.3,54,5.9,53.6,5.8c0.1,0.5-0.2,0.5-0.5,0.5c0-0.2,0.2-0.3,0.1-0.5c-1.4,0.2-2.5,0.9-3.4,1.6c-0.1-0.4-0.9-0.6-0.4-1.2
		c-0.2-0.1-0.7,0.2-0.7-0.1c0.4-0.9,1.2-0.6,2-1c-0.1,0.6-0.8,0.6-1.2,1C51,6,52.1,5.7,52.8,4.9C52.1,5,51.5,5.2,51.1,5
		c0-0.3,0.5-0.3,0.4-0.7c-0.7,0.5-0.8-0.2-1.5,0c0,0.3,0.2,0.3,0.1,0.5c-0.9,0.1-1.7,0.5-2.6,0.1c-0.7,0.5-1.5,0.9-2.2,1.5
		c-0.2,0-0.5,0-0.7,0C40.7,8.5,36.9,10.8,34.3,14.3z"/>
	<path class="st1" d="M119.7,85.6c0.2,0,0.7,0.1,0.5-0.3c-0.3-0.2-0.6-0.3-1-0.4c-0.3,0.3-0.2,0.9-0.5,1.1c-0.2-0.4,0.4-0.8-0.1-1.2
		c0.3,0,0.4-0.3,0.5-0.4c0-0.6-0.5-1,0-1.4c-0.1-0.2-0.6,0-0.7-0.3c0.5,0.1,0.8-0.1,1.1-0.1c0.3-1,0.1-1.7,0.7-2.2
		c0-0.1,0-0.3,0-0.4c-0.2,0-0.5,0-0.5-0.1c0.5,0,0.6-0.2,0.8-0.8c-0.2-0.1-0.5-0.1-0.7-0.3c-0.2,0.1,0,0.6-0.3,0.7
		c-0.2,0-0.4,0-0.5,0c0-0.4,0.2-0.3,0-0.5c-0.5-0.1-0.8,0.4-1-0.1c1.1-0.2,1.9-0.1,2.9-0.5c-0.4-0.2,0.2-0.9-0.3-1.5
		c-0.3-0.1-0.9,0.2-0.8-0.3c0.3-0.4,1.1-0.1,1.4,0.1c0.2-0.6,0.2-1.2-0.1-1.6c0.2,0,0.5,0,0.7,0c-0.1-0.4-0.4-0.5-0.8-0.5
		c-0.3,0.2,0.1,0.7-0.1,0.7c-0.3,0-0.7,0-0.7-0.3c0.1-1,1.6-0.7,1.9,0c0.1-0.5-0.1-1.1-0.8-1.4c-0.6,0.3-2.2,0.5-2.7-0.3
		c0.5,0,0.9,0,1.4,0c-0.3-0.6,1-0.4,0.7-1.1c0.3,0.2,0.6,0.3,1,0.4c0.3-0.2,0.5-0.5,0.8-0.5c-0.1-0.5-0.5-0.7-1-1
		c-0.4,0.2,0.2,0.6-0.1,0.7c-0.4-0.2-0.1-0.7-1-0.7c-0.2,0.2,0.2,0.8-0.4,0.8c-0.2-0.2-0.1-0.7-0.4-0.7c-0.3,0.2,0.1,1.2-0.5,1.1
		c0-0.3,0-0.7,0.1-0.8c-0.9-0.2-1.3,0.2-2,0.3c-0.1-0.7-1-0.7-1.2-1.2c0-0.6,0.5-1.6,1-0.8c-0.6,0.3,0.3,0.7-0.1,1.2
		c0.7,0.3,2.3,0.8,2.5-0.4c-0.4-0.1-0.8-0.2-1.4-0.1c0.1-0.6-0.7-0.3-0.5-0.8c0.9-0.1,1.2,0.7,2,0.3c-0.1-1.2,0.5-1.6-0.1-2.3
		c0.3-0.3,0.8,0.2,1.1-0.1c0.3,0.8-0.1,1.6,0.5,2c0.1-0.5,0.4-1,0.7-1.6c0-0.4-0.6-0.2-0.7-0.5c0.1-0.3,0.3-0.5,0.7-0.5
		c0.2-0.7-0.4-0.7-0.4-1.2c0.1-0.1,0.5,0,0.4-0.4c0-0.5-0.4-0.6-1-0.5c0.9,0.7-0.1,2.4-1.4,1.8c-0.2-0.6,0.5-0.4,0.5-0.8
		c-0.5-0.3-1.3-0.3-1.4-1.1c0.1,0,0.2-0.1,0.3-0.1c0.4,0,0.1,0.5,0.5,0.4c-0.1-0.9,0.5-0.3,0.8-0.5c-1.1-1.9-0.2-3.8-0.3-5.6
		c-0.2,0-0.4,0-0.5,0c-0.2,0.5,0,0.7,0,1.4c-0.9-0.1-0.8,0.9-1.6,0.5c-0.1,0.3-0.3,0.3-0.3,0.7c0.4,0,0.8,0.1,1,0.4
		c-0.6,0.4-0.1,1.2-0.4,1.8c-0.4-0.1-0.2-0.8-0.3-1.4c-1.1,1.3,0.2,3.9-1,5.4c0.5-0.7-0.3-0.7-0.4-1.2c0.2,0.2,0.3,0.2,0.5,0
		c0-2.3,0.1-3.9,0.3-5.9c-0.2-0.1-0.7,0-0.8-0.3c0.1-0.2,0-0.7,0.4-0.7c0.1,0.3-0.2,0.3-0.1,0.7c0.3,0,0.3-0.2,0.5-0.1
		c-0.1-0.7-0.6-0.9-0.8-1.5c0.4-0.2,0.5,0.3,1-0.1c-0.6-0.9,0.7-2.1-0.1-3.1c0.8-1.4,0.1-2.7,0.4-4.6c-0.1-0.1-0.3-0.3-0.4-0.4
		c0.1-0.4,0.6-0.3,0.5-0.8c-0.2-2.2-0.4-3.8-0.5-5.6c-0.1-0.3-0.6,0.3-0.8-0.1c0.3-0.1,1.1-0.8,1.9-0.4c0,0.3-0.1,0.6-0.3,0.7
		c-0.3,0-0.3-0.2-0.5-0.1c0.1,0.7,0.8,0.8,1.2,1.2c-0.2,0.3-1,0-1,0.5c0.3-0.4,0.6,0.8,1.4,0.3c0.1-0.4-0.4-0.9,0-1.1
		c0.3,0.4,0,1.3,0.7,1.2c0.1-0.3,0.3-0.3,0.3-0.7c-0.5-1.1-0.5-3-0.8-4.6c-0.2-0.2-0.9,0-0.8-0.5c0.2,0.1,0.1,0.4,0.5,0.3
		c0.3-0.3-0.3-0.9,0.1-1.2c0.2,0.1,0.4,0.5,0.5,0c-0.2-0.2-0.3-0.5-0.3-1c-0.4-0.1-0.4,0.2-0.7,0.1c0-0.2,0-0.4-0.1-0.5
		c0.1,0,0.3,0,0.4,0c0.1-0.9-1-1.4-1.5-0.8c-0.4-1.6-1.3-2.8-1.5-4.6c-0.8,0.3-0.6,2.1-0.1,2.3c-0.2,0.1-0.5,0.1-0.7,0.3
		c-0.4-0.9-0.6-2-1.1-2.9c-0.5-0.1-0.6,0.2-0.8,0.3c0.7,2.9,1.2,5.3,2,8.2c-0.2,0-0.2,0.2-0.4,0.3c-0.7-3-2.1-5.4-3-8.2
		c-0.4,0.1-0.8,0.2-1.2,0.3c-0.1,0.2,0.2,0.7-0.1,0.7c-0.7,0.3-0.1-0.7-0.7-0.5c0.3,0.6,0.2,1,0.4,1.6c0.2,0.4,0.5-0.5,0.7,0
		c-0.1,0.3-0.6,0.2-0.7,0.5c0.1,0.8,0.5,1.3,0.5,2c-0.5-0.5-0.7,0.2-1.2-0.3c0.2,0.6,0.1,0.8-0.4,1c-0.1-0.4-0.3-0.7-0.3-1.2
		c0.3,0,0.7,0,0.8-0.1c0.2-0.8-0.4-0.8-0.5-1.4c-0.6,0.4-1.1-0.3-0.7-0.8c-0.9-0.5-1.2-1.2-1.1-2.2c-1-0.6-1.5-1.7-2.3-2.5
		c0-0.3,0.2-0.3,0.3-0.4c-2.3-1.7-3.3-3.9-6-5.3c1.3,0.4,3,0.9,4.1,0c-0.3-0.5-0.6,0.1-1.1,0.1c-1.1,0.1-2-0.4-2.6-1.1
		c0.9-0.1,1.4,0.7,1.8,0.3c-0.1-0.1-0.5,0-0.4-0.4c0.3-0.2,0.7-0.7,0.5-1c-0.9-0.2-1.4,1-1.9,0.3c0.2-0.1,0.5-0.1,0.5-0.4
		c-0.8-0.2,0-0.2,0-0.5c-1-0.7-2.4-0.4-3.3-1.4c0.2-0.1,0.3-0.3,0.3-0.5c-0.2,0-0.7,0.1-0.5-0.3c0.1-0.2,0.3-0.3,0.5-0.3
		c0,0.2,0,0.4,0,0.5c0.8,0.1,1.3-0.1,1.8-0.3c0,0.2,0.2,0.2,0.3,0.4c-0.3,0-0.5,0-0.5,0.3c0.7,0.8,1.9,0.1,2.3-0.5
		c-0.1-0.3-0.9,0.1-1-0.3c1.5-0.5,2.4,0,3.5,0.7c0.3,0,0.1-0.5,0.4-0.5c0.4,0.5,2,0.8,2.5,0.1c-0.3-0.5-1.3-0.2-1.6-0.4
		c0.5,0.1,0.6-0.2,0.8-0.4c-0.7-0.4-1.9-0.1-2.3-1c0.5,0.1,1.2,0.2,1.4-0.3c-0.5,0-0.9-0.1-1.1-0.4c0.2-0.1,0.4-0.2,0.7-0.1
		c-0.5-0.6,0.1-0.3,0.3-0.8c-0.9,0-1.6,0.2-2.3,0.4c0.2,0.1,0.3,0.3,0.3,0.7c-1.1,0-2,0.2-2.2,1.1c1-0.1,2.4-0.4,2.3,0.4
		c-1.7,0.2-2.4-0.1-3.8,0.4c-0.3-0.3,0.1-0.2,0-0.7c-1.3-0.5-2,0-3.1,0.3c-0.1,0.4,0.8,0.4,0.4,0.7c-1.2-0.1-1.8-0.8-2.5-1.4
		c1.5,0.7,2.7-0.7,4.2-0.4c0.3-1.1,2-0.1,3.3-0.4c0.2-0.4,0.4-0.7,0.8-0.8c-0.9,0.1-1.3-0.4-1.8-0.7c0-0.3,0.5-0.1,0.5-0.4
		c-1.9-0.6-3.8-0.8-5.4-1.2c0.1-0.3,0.5-0.4,0.4-1c-0.4-0.4-0.9,0.2-1.1-0.3c0-0.4,0.6-0.2,0.5-0.7c-1.5-0.6-3.3,1-4.2-0.3
		c1.1,0.3,2.3,0.4,2.6-0.7c0.5,0.1-0.1,0.6,0.5,0.5c0.4-0.6,1.3,0.1,1.9-0.1c-0.6-0.4-1.6-0.4-2.2-1c-0.2,0.2-0.6,0.1-0.8,0.3
		c-0.1,0.4,0.3,0.4,0,0.7c-0.3,0-0.6,0-1,0c0.4-1.1-2-0.4-2.2-1.2c-0.8,0.1-2,0.3-2.5-0.3c0.2,0,0.7,0.1,0.5-0.3
		c-1.1-0.1-1.5-0.3-2.5,0.1c0.4,0.3-0.4,0.5-0.3,0.7c-0.5,0-0.4-0.2-0.1-0.4c-1.1,0.2-3-0.9-3.8,0.4c-0.3-0.6,0.5-0.2,0.4-0.7
		c0.1-0.4-0.6-0.1-0.7-0.4c0.1-0.1,0.5,0,0.4-0.4c-0.2-0.1-0.3-0.2-0.3-0.4c-1.1,0.5-1.9,0.5-2-0.8c0.7-0.8,1.7,0.3,2.5-0.4
		c-0.6-0.6-1.7,0.1-2-0.7c-1.2,0.8-2.6,1.3-3.1,2.7c-0.4,0-1.1,0.2-1.1-0.3c0-0.3,0.5-0.3,0.4-0.7c-1.4-0.7-3.1,1.4-4.5,0.8
		c0.1-0.4,0.3-0.6,0.4-1c-0.2-0.2-0.6-0.3-0.8-0.5c0.4-0.4,0.9,0.1,1.5,0c0-0.3,0.4-0.3,0.4-0.5C71.8,7.3,72,7,71.9,6.6
		c-1.2,0.1-2.1,0.5-2.5,1.5c0.2,0.4,0.6,0,0.8,0.3c-0.1,0.2-0.1,0.5-0.4,0.5c-0.5-0.7-1.2-0.1-2.5-0.3c-0.1,0.5-0.4,0.8-0.7,1.1
		c-0.6-0.1-1.3,0.2-1.5,0c0.2,0,0.3-0.1,0.4-0.3c-0.2-0.1-0.5-0.1-0.4-0.5c-1.3,0.2-2.6,0.9-3.8,0.8c-0.1,0.2,0.2,0.7-0.1,0.7
		c-1.1,0.1-1.8,0.4-2.3-0.4c0.7,0,0.1-0.4,0.4-0.7c0.8,0.1,1.8-0.6,2.7-0.8c0-0.2,0-0.5,0-0.7c-0.7-0.6-1.7,0-1.9,0.7
		c-0.3,0-0.2-0.4-0.5-0.3c-1.4,0.2-2.8,1-4.1,1.2c-0.2,0-0.3-0.2-0.5-0.1c-0.5,0.2-0.8,0.8-1.4,0.8c-1,0.1-1.9-1-3-0.3
		c0.3,0,0,0.5-0.1,0.4c-0.2-0.6-0.7,0-1.1-0.3c-0.7,1.5-3.1,0-4.1,1.1c-0.4,0.3,0.4,0.4,0,0.7c-1.2-0.2-1.8,0.7-2.9,1
		c0-0.2,0.6-0.4,0-0.4c-0.6,0.2-0.5,1.2-1.6,0.8c-0.5,1.3-2.9,0.7-3.5,1.9c0.2,0,0.5,0,0.5,0.1c-0.6,0.2-0.9,0.8-1.8,0.8
		c0.1-0.4,0.7-0.4,0.8-0.8c-1.3,0-2.1,0.4-2.5,1.4c0.5,0.2,0.6-0.6,1-0.1c-0.4,0-0.5,0.4-0.8,0.4c0,1.5-1.6,1.6-2.5,2.3
		c-0.4,0.4-0.2,1-1,1c-0.5,0-0.8-0.2-1.2-0.3c-0.1,0.5-0.8,0.3-0.8,0.8c0.5,0,1.1-0.6,1.6-0.1c-0.5,0.5-1.8,1.1-2.5,0.3
		c-1.5,1.4-2.6,3.2-4.6,4.1c0.1-0.3,0.3-0.3,0.3-0.7c-0.4,0-0.8,0.1-0.8,0.5c0.3,0.1,0.6,0.3,0.4,0.8c1.5-0.1,1.3-1.9,3-1.8
		c0,0.2,0,0.4,0,0.5c0.7,0.3,1.3-0.4,1.5-1.1c-0.4,0-0.5,0.4-1,0.3c-0.1-0.2-0.2-0.3-0.3-0.5c0.3-0.1,0.3-0.5,0.7-0.5
		c1.3,0.8,2.8-0.1,3.8,0.3c-0.7,0.2-1.1,0.7-1.5,1.1c0.3,0.3,0.7,0.4,0.7,1.1c-0.1,0-0.2,0.1-0.3,0.1c-0.2-0.1-0.5-0.1-0.4-0.5
		c-0.6,0.1-0.6,0.5-1.2,0.3c0,0.6,0.9,0.6,0.5,1.2c1.3-0.1,2.4-1.1,3.4-0.3c0.1,0.8-0.9,0.5-1.5,0.5c-0.5,1.3-2.7,0.9-3.1,2.2
		c2,0.2,2.8-0.7,4.5-0.1c-1,0.4-1.7,1.1-2.9,1.4c-0.3,0.3,0.1,0.4-0.1,0.7c-0.6,0.2-1.4,0.3-1.6,0.8c1.7-0.1,2.8-0.8,4.2-1.2
		c-0.7,0.9-2.3,0.8-3,1.8c0.7,0.2,1.2-0.6,1.8-0.1c-0.7,0.6-2.1,0.6-2.5,1.5c0.5,0.4,1.3-0.9,1.6-0.1c-0.7,0.5-2.6,0.4-2.3,1.5
		c0.6-0.2,1.7-0.9,2.5-0.9c-0.2,0.3-0.5,0.6-0.7,0.9c-0.5-0.1-0.9-0.1-1.2,0.3c-0.1,0.4,0.4,0.2,0.4,0.5c-0.7-0.1-0.9,0.3-1.2,0.7
		c-0.3-0.2-0.5,0.2-0.7-0.1c0.1-0.5,0.8-0.4,0.7-1.1c-0.8-0.2-0.4,0.8-1,0.8c-0.2-0.2-0.3-0.5-0.3-0.8c-0.4-0.1-0.4,0.2-0.7,0.1
		c0.3,0.8-0.6,1.3-1.1,1.8c0.2-0.6,0.3-1.3,1-1.5c0-1.7,1.6-3,2.2-4.8c-1.1,0.5-1.2,2.5-2.9,1.9c0,0.4-0.5,0.1-0.4,0.5
		c0.5,0,0.8,0.2,1.1,0.4c-0.4,0.4-0.6,1.1-1.1,1.5c-0.3,0-0.4-0.2-0.8-0.1c-0.7,2.1-1.8,3.7-3.1,5.2c-0.2-0.7-0.7-0.1-1-0.3
		c0.2-0.1,0-0.5,0.3-0.5c0.3,0.4,0.8,0.3,1-0.1c-0.3-0.2-0.6-0.3-1-0.5c0.3-0.5,0.8,0,1.2-0.3c0.2-0.2,0.2-0.5,0.1-0.8
		c-0.4-0.1-0.5,0.7-0.8,0.3c0.2-0.2,0.1-0.6,0.5-0.5c0.1-0.4-0.4-0.3-0.3-0.7c0.6-0.3,1.4-0.3,2.3-0.1c-0.2-0.4-0.4-0.8-0.3-1.5
		c0.5-0.1,1.2-0.6,1-1c-0.7-0.1-0.8,0.5-1.4,0.5c0.1,0.5-0.1,0.7-0.4,0.8c0-0.6-0.8,0.3-0.7-0.5c-0.9,0.1-0.5,1.4-1.4,1.5
		c0.3,0.7-0.3,1.3-0.7,1.8c-0.5-0.1-1.2-1.4-0.1-1.5c-0.1-0.3-0.1-0.7-0.5-0.7c0,0.3,0,0.7-0.3,0.7c-0.3-0.1-0.6-0.2-0.8-0.4
		c0-0.7,0.5-1,0.5-1.6c-0.3,0.1-0.8,0.1-1-0.3c0.3-0.3,0.5-0.7,0.8-1c0.3,0,0.3,0.5,0.7,0.4c0.4-0.6,0.3-1.3-0.4-1.2
		c0.9-0.2,0.8-1.3,1.8-1.4c-0.1-0.4-0.1-0.3,0-0.7c0.7-0.2,1-0.7,1.4-1.2c0.3,0.3,0.7,0.4,0.7,1.1c0.6,0.2,1.2-0.3,1.2-1.1
		c-0.4-0.7-1.1,0.1-1.4-0.4c0.4-0.1,0.4-0.5,0.5-0.8c-0.9,0.3-1.1,0.8-2.2,0.5c-0.8,0.3-0.8,1.3-1.5,1.6c0.2,1.2-0.4,1.8-1.2,1.6
		c0,0.4,0.6,0.2,0.5,0.7c-0.5,0-0.9-0.2-1.4-0.1c-0.1,0.4,0.4,0.3,0.3,0.8c-0.5,0.3-0.8,1.5-1.4,0.8c0.5,0.5,0.1,0.9,0,1.5
		c0.1,0.1,0.5,0,0.4,0.4c0.4,0.1,0.5-0.1,0.8-0.1c-0.1,0.2,0.2,0.7-0.1,0.7c-0.4-0.4-0.9-0.6-1.5-0.4c-0.1,0.9-0.7,1.4-1.4,1.8
		c0.7,0.1,0.1,0.9,0.4,1.5c0.6,0,0.7-0.5,1.1,0c-0.4,0.5-1.5,0.2-1.9,0.5c0.2,0.7-0.3,0.6-0.5,0.8c0.7-0.1,0.4,0.8,0.8,1
		c-1.1-0.1-1.2,0.8-1.9,1.1c0.5-0.1,0.2,0.4,0.3,0.7c-0.3,0.1-0.3-0.2-0.7-0.1c0,0.7,1,0.5,0.3,1.1c0.5,0.1,0.3-0.5,0.7-0.5
		c-0.2,0.9,0.8,0.5,1,0.7c0,0.7-1.1,0.3-1.4,0.7c-0.2-0.2,0-0.8-0.5-0.7c-0.3,0.3-0.1,1.1,0,1.5c-0.5,0-0.2,0.8-0.8,0.4
		c0.1,1.2-0.6,1.6-0.5,2.7c0.4,0.1,0.8,0.3,1.2,0.4c0.2-0.5,0.2-1.2,0.7-1.4c-0.2,1.1-0.9,2.5-0.4,3c-0.9,0-0.5,1.4-1.1,1.8
		c0-0.4-0.2-0.7-0.5-0.8c-0.7,0.5-1.7-0.6-2.6-0.5c0.1,1,0.4,0.4,1.1,0.4c0,0.5,0.5,0.5,0.7,0.8c-0.4,0.9-1.4,1.7-0.7,3
		c0.4,0.2,0.1-0.4,0.5-0.3c-0.1,0.4,0.2,0.4,0.3,0.7c-0.5,0.1-0.9,0.3-1.4,0.5c-0.1-0.6-0.6-0.2-0.8-0.8c-0.2,0.4-0.3,1.6,0.3,1.6
		c0.3-0.1-0.3-0.6,0.1-0.8c0.5,0.4,0.8,1,0.7,2c-0.2,0-0.3,0.2-0.5,0.1c-0.1,0.7,0.3,0.9,0.3,1.5c-0.1,0.2-0.2,0.3-0.4,0.4
		c-1.2-0.4-0.1-1.9-1.1-2.6c-0.6-0.2-0.6,0.5-1,0.1c0.1-0.8-0.5-1.9-1-2.6c-0.7,0.2-0.3,1.4-0.8,1.8c-0.3,0-0.5-0.1-0.5-0.3
		c0-0.5,0-0.9,0-1.4c-1,0.2-0.2,1.2-0.3,1.9c0.3,0.2,0.7-0.1,0.8,0.4c-0.4-0.1-0.6,0.1-1,0.1c0.1,0.5,0.7,1.3,0.1,1.6
		c-0.3-0.1,0-0.8-0.3-0.8c-0.4,0.5,0.2,0.8,0.4,1.1c-0.5,0-0.4,0.5-0.7,0.7c0.2,0.1,0.3,0.2,0.3,0.4c0.6,0,0.9-0.2,1.2,0.3
		c-0.5,0-1.1-0.1-1.4,0.1c0.9,0.9-0.4,2,0.1,3.5c-0.3,0-0.5,0-0.8,0c0,0.2,0.1,0.3,0.1,0.4c-0.5-0.1-0.7,0.2-1.1,0.1
		c0.2,0.1,0.3,0.3,0.3,0.7c0.5,0.2,0.1-0.5,0.4-0.4c0.3,0.2,0.5,0.4,0.7,0.7c-0.2,0.2-0.2,0.4-0.7,0.3c0.2,0.6,0.7,0.3,0.3,1
		c0.3-0.1,0.3,0.2,0.7,0.1c-0.1-1-0.2-1.6,0.1-2c0.6-0.1,0.5,0,1.1,0c0.1-0.6-0.6-0.4-0.7-0.8c0.9,0,0.2-0.8,0.5-1.1
		c0.1,0,0.3,0,0.4,0c0.1,0.6,0.1,1.8,0,3c-0.6-0.1-0.3-1.1-1.1-1c0,1.1,1,1.8,1,2.5c-0.4,0.1-0.1-0.7-0.5-0.5c0,0.4,0.1,0.8-0.3,0.8
		c-0.2-0.4-0.9-0.5-1.4-0.3c0.1,0.4,0.5,0.8-0.1,1c0.2,0.5,0.3,1,0.5,1.5c0.5-0.4,0.4,0.1,1.1,0.1c0.1-0.3-0.2-1,0.1-1.1
		c0.1,0.6,0.2,1.1,0.4,1.6c0.4,0.1,0.7-0.4,0.8,0.1c-0.4,0.1-0.7,0.3-1.2,0.3c0-0.2,0-0.4,0-0.5c-0.4,0-0.6-0.3-1.1-0.3
		c-0.2,0.2-0.1,0.8-0.1,1.2c0.3,0,0.5,0.1,0.5,0.3c0,0.2,0,0.5,0,0.7c-0.2,0.2-0.5,0.2-0.8,0.1c0.2,0.8,0.6,1,1.1,1.6
		c-0.2,0-0.4,0-0.5,0.1c0.9,1.5,1.3,3.6,2.3,5c1.2,0.5,1.1,2,1.8,3.3c0.7-0.3,1.1,0.4,1.4,1c-0.5,0.1-0.8,0.1-1.4,0
		c0.1,0.8,0.7,0.4,1.2,0.3c1,0.2-0.2,2,1.1,2c-0.4-0.5,0.1-1.1-0.4-1.5c0.1-0.2,0.2-0.3,0.4-0.4c0.2,0.2,0.1,0.6,0.1,1
		c0.3-0.2,0.8-0.4,1.1,0c-0.2,0.1-0.7,0-0.8,0.3c0.4,0.1,0.2,0.9,0.7,1c-0.1,0.3-0.5,0.1-0.4,0.5c0.5-0.2,0.8-0.4,1.1-0.8
		c-0.7,0.1-0.3-0.9-0.3-1c0.5,0,0.8,0.2,1.2,0.3c0,0.2-0.2,0.3-0.1,0.5c0.6,0,1.6,0.4,2.5,0.1c-0.2-0.9-1.1-1.1-1.9-0.7
		c0.1-0.4,0.5-0.5,0.5-1c-0.7-0.3-1.3-0.6-1.9-1c0.1-0.3,0.2-0.6,0.5-0.7c0.3,0,0.1,0.5,0.4,0.4c-0.5-1-0.8-3-2-1.9
		C9,81,10.2,81.3,9.9,80C9.5,80,9.3,79.6,9.4,79c0.3-0.1,0.6-0.3,1.1-0.3c0.1,0.3,0.3,0.4,0.4,0.7c-1,0.9,0.6,1.4,0.8,2.3
		c-0.2,0-0.2-0.2-0.4-0.1c0.2,1.1,1,1.3,1,2.5c0.9,0.1,0.8,0.7,1.2,1.1c0.5,0,0.7-0.2,1-0.4c0.1,0.3,0.5,0.3,0.4,0.8
		c-0.5,0.1-0.7-0.2-1.1-0.1c-0.1,0.5,0.2,0.6,0.3,0.8c0.4,0,1.1-0.4,1.4,0c-0.2,0.2-0.5,0.3-0.8,0.3c0.2,1,1-0.3,1.4,0.4
		c-0.7,0.4-0.5,0.7-1.4,1c2.4,0.3,3.4,2,4.8,3.3c1.5-0.1,2.2,1.7,3.8,1.9c-0.1-1.1-1-1.3-1.2-2.3c1.1,0.8,1.8,3.5,3.5,2.9
		c0.2,0.5,0.9,0.3,1.1,0.8c-0.1,1,0.2,2.6,0.4,3.8c0.3,0,0.3-0.2,0.4-0.3c0,0.6-0.2,0.9-0.1,1.5c0.2,0.2,0.8,0,0.8,0.4
		c-0.2,0.1-0.5,0.1-0.4,0.5c0.3,0.5,0.5-0.6,0.8-0.1c0.2,0.4-0.4,0.1-0.3,0.5c0.8,0.7,1.3,1.7,1.8,2.9c0.9-0.1,1.4,0.8,1,1.6
		c0.3,0.3,0.3-0.2,0.7-0.1c1.1,1.3,2.1,2.6,3.4,3.7c-0.2,0.2-0.2,0.3,0,0.5c0.4,0.2,0.7,0,1-0.3c-0.2,0-0.5-0.4-0.1-0.4
		c0.2,0,0.3,0.1,0.4,0.3c-0.5,0.3-0.1,0.8,0,1.4c0.4,0.1,0.3-0.4,0.7-0.3c0.9,0.5,1.2,1.4,2.2,1.8c0.2-0.4-0.4-0.7,0-0.8
		c0.1,0.6,1.4,0,1.4,0.7c-0.2,0-0.5,0-0.7,0c0,0.8,1.5,0.1,1.4,1.1c0.8-0.1,1.5,0.2,1,0.7c0.2,0.2,0.8,0.1,1,0.4
		c-0.6,0.2-0.1,0.5,0,0.8c-0.6,0-0.7-0.4-0.8-0.8c-0.5-0.2-1.3-0.2-1.8-0.4c0-0.3,0.4-0.2,0.3-0.5c-0.8,0.3-1.1-0.6-2.3-0.5
		c-0.6-0.4-0.6-1.5-1.4-1.8c0.1,0.8-0.8,0.1-1.2,0.3c0,0.5,0.7,0.2,0.7,0.7c-1.4-0.3-3,0.1-3.7-0.8c0-0.3,0.6-0.1,0.8-0.1
		c0,0.1,0,0.3,0,0.4c0.2-0.1,1.1-0.3,0.8-0.5c-0.7-0.3-3-0.3-3-1c-0.2,0.3-0.6,0.3-0.7,0.7c0.9,0.8,2.2,1.4,3.4,1.9
		c-0.3,0-0.5,0-0.5,0.3c0.3,0.4,1,0.4,1.4,0.7c0,0.2-0.2,0.2-0.1,0.4c1.7,0.8,3,2,4.6,2.9c-0.2,0-0.5,0-0.4,0.3
		c0.7,0.1,1.3,0.3,1.8,0.7c-0.4,0.7-1.6-0.3-1.9,0.4c1.1,0.1,1.6,0,2.6,0.1c0.4,0.9,1.9,1.5,3,1.2c3.9,1.1,7,2.1,11.4,1.5
		c-0.9-0.4-2,0.2-2.7-0.4c0.9-0.3,1.9,0.3,2.6-0.3c-1.2,0.2-1.5-0.4-1.9-0.7c-0.4,0.2,0,0.3-0.3,0.5c0-0.3-0.4-0.2-0.4-0.4
		c0.4,0,0.5-0.3,0.5-0.7c0-0.6-1-1.1-0.5-0.5c-1.3-0.4-2.7-0.6-3.9-1c-0.1-0.2,0.5-0.3,0.1-0.4c-0.5-0.2-2.3-0.2-2.9-0.8
		c0.2,0,0.4,0,0.5,0c-0.1-0.7-1-0.5-1.8-0.5c0,0.6,1,0.2,0.5,1c1-0.1,1.1,0.6,2.2,0.4c-0.4,0.5,0.5,0.8,0.8,1.1
		c-0.9,0.1-2.4-0.4-1.8-1c-0.5-0.2-1.3-0.1-1.9-0.3c0-0.8-1-1-1.6-0.7c0.2-0.5-0.5-0.7-0.4-1.5c0.4,0.5,1.2,0,1.5-0.4
		c-0.5-0.4-1.1-0.8-1.9-1c0.4-0.4,0.1-0.5,0-1c0.7,0.1,1.1,0.8,1.8,0.5c0,0,0.1,0,0.1,0c1.4,0.7,2.8,1.6,4.1,2.5
		c-0.1-0.4,0.2-0.4,0.4-0.5c0.4,0.4-0.2,0.4-0.1,0.8c1.2,0,1.9,0.5,2.7,0.8c0.7-0.6,0.9-0.3,1.8-1c-1,0.5-2.3-0.9-2,0
		c-0.2-0.3-0.7,0.1-0.7-0.1c0-0.2,0.2-0.2,0.3-0.4c-0.3-0.3-1-0.3-1.2-0.7c1.9-0.2,3.3,1.3,4.8,0.7c0.3,0.2,0.5,0.5,0.8,0.7
		c-0.3,0-0.5,0-0.8,0c0.2,0.6,0.8,0.6,1.5,0.7c0-0.2,0-0.4,0.1-0.4c0.5,0.4,1.6,0.2,2.3,0c1.6,0.4,2.4,1.6,4.4,1.6
		c-0.2-0.7-1.2-0.4-1.5-1c0.7,0,1.6,0.2,2.3-0.4c4.8,0.5,8.8-0.2,13.1-0.8c0.1-0.7-0.9-0.2-1-0.7c0.6-0.1,1.7,0.3,1.6-0.4
		c-0.8-0.2-1.2,0-1.9-0.3c0.9-0.1,1.3-0.5,2.1-0.7c0,0,0,0,0,0c0,0,0.1,0,0.1,0h0c0.5,0.5,1.1,1,1.3,1.8c-0.3,0.6-1.6-0.1-1.8,0.4
		c0.2,0,0.4,0,0.4,0.1c-0.2,0.1,0,0.5-0.3,0.5c-0.4,0-0.5-0.3-0.8-0.4c-0.2,0.4-0.2,0.7,0,1.1c-1.1,0-1.7,1.2-2.9,0.7
		c0.4-0.2,0.8-0.4,1.2-0.5c-0.2-0.4-0.3-0.3-0.4-0.7c0,0.5-0.7,0.9-1.1,0.7c0-0.4,0.5-0.1,0.4-0.5c-1-0.3-2.9,0.8-4.6,0.7
		c-0.2,0.4,0.4,0.8,0,1c-0.3-0.4-1.3-1.3-1.9-0.5c0.2,0.1,0.3,0.1,0.4,0.3c-0.3,0-0.5,0-0.8,0c0.1-0.5-0.3-0.6-0.4-1
		c-0.3,0.1-0.9-0.2-1,0.1c0.2,0.3,1.1-0.1,1,0.5c-1.1,0.1-1.9,1.1-2.9,0.8c0.3-0.2,0.8-0.2,0.8-0.7c-0.1-0.3-0.5-0.3-1-0.3
		c-0.7,1-1.5,0.6-2.9,0.5c-0.2-1-2.1-0.2-2.3-1.2c-0.7,0.3-1.3-0.1-1.5-0.1c0.2,0.1,0.3,0.2,0.3,0.4c-0.1,0-0.2,0.1-0.3,0.1
		c-0.7,0.1-0.5-0.6-1-0.7c0,0.4-0.4,0.5-0.5,0.8c-0.3-0.2-0.7-0.2-0.5-0.7c-0.4-0.1-0.3,0.4-0.8,0.3c0-0.2,0-0.4,0-0.5
		c-0.6-0.2-1.3-0.1-1.6,0.4c1.1,0.1,1.5,0.8,2.7,0.5c0.5,0.7,2.4,0.2,3.5,1c0.5,0.1,0.3-0.5,0.8-0.4c-0.3,1.3,1.8,1.4,2.9,1.8
		c-1.1,0-1.6-0.2-2.6-0.1c-0.4-0.6-1.6-0.7-2,0c-1.1,0-2.5-0.6-3.1,0.3c1.1,0.3,2.8,0.6,3.4-0.1c1.2,0,1.8,1.1,3.3,0.4
		c0.1,0.3,0.4,0.4,0.7,0.5c-0.9,0.2-1.7-0.1-2.9,0.1c-0.1,0.5,0.5,0.3,0.5,0.7c2.7-0.3,3.9,0.2,6.4-0.1c0.2-0.1,0-0.5,0.3-0.5
		c0.3,0,0.5,0,0.8,0c-0.5,0.5,0.4,0.5,0.5,0.8c0.4-0.5,1.5-0.3,2.2-0.5c0.2-0.9-0.8-0.6-1.1-1c0-0.3,0-0.7,0.3-0.7
		c0.4,0,0.7,0.2,1.2,0.1c-0.2,0.4,0,0.5-0.3,1c0.4,0.4,1.2,0.4,1.8,0.5c-0.3,0.4-1.3,0.1-1.4,0.7c0.4,0.1,0.7,0.2,1,0.4
		c-0.1,0.3-0.4,0.4-0.7,0.4c-0.2-0.6-0.6-0.2-1.1-0.4c0-0.2,0-0.4,0-0.5c-2.8,0.4-5.6,0.6-7.8,1.6c-0.3,0-0.5-0.2-1-0.1
		c0.1,0.5,0.5,0.7,0.7,1.1c2.2-0.3,4.2-0.1,6-0.8c0.9,0,1.3,0.4,1.5,0.8c0.5,0-0.3-0.4,0.1-0.4c1.7-0.9,2.5-0.7,4.4-0.1
		c0,0.5,0.4,0.7,0.7,1c-0.3,0.3-0.5-0.1-1,0c0-0.2,0-0.4-0.1-0.5c-0.5-0.1-0.7,0.2-1.1,0.1c0.1,0.4,0.3,0.7,0.5,1
		c-0.4-0.1-0.7-0.5-1.1-0.1c-0.2-0.4-0.5-0.7-1-0.8c-1.7,0.6-3.6,1-5.2,1.8c0.4,1.2,1.7,0.6,2.2,0.5c1.6-0.2,3.7,0.2,5.3-0.4
		c-0.1-0.5,1.4,0.4,1.6-0.5c1.5-0.2,1.9,0.8,3,0.1c0-0.3-0.2-0.3-0.3-0.4c0.1-0.2,0.5,0,0.5-0.3c0,0,0.1,0,0.1,0
		c1.1,1.1,1.9-1.1,3.7-0.3c-1.4-0.6-2.2-1.6-3.4-2.3c0.7-0.2,1.4,0.4,1.9,0c-0.2-0.1-0.3-0.2-0.3-0.4c0.2-0.1,0.8-0.5,1.1-0.1
		c-0.2,0.4,0,1.1-0.4,1.2c0.5,0.3,0.4,1,1.1,1.1c1.3-0.3,1.8-0.8,3.5-0.7c0-1.3-1.3,0-1.6-0.7c1-0.3,2.2-0.4,2.3-1.6
		c-0.2-0.2-0.6-0.1-0.5-0.5c0.3,0.1,0.6-0.4,0.8,0c-0.1,0.2-0.2,0.3-0.3,0.5c0.8,0.4,2.4,0.6,2.2-0.5c-0.6-0.2-0.4,0.5-0.8,0.4
		c-0.1-0.2-0.6,0-0.7-0.3c0.6-1.1,2-1.3,3-1.9c0.3,0.4,0.9,0.5,1.5,0.5c-0.1-0.5-0.9-0.3-1.1-0.7c0.1-0.1,0.5,0,0.4-0.4
		c-0.3,0-0.3-0.2-0.4-0.3c-1.1,1-3.1,1.8-4.8,1.9c0.3-1,1.7-0.9,2.2-1.6c-0.6-0.6-1.4,0.9-1.5-0.1c0.8-0.4,2.3-0.4,2.6-0.5
		c-0.3-0.5-1.6,0.2-2-0.4c0-0.2,0.6-0.4,0-0.4c-1,0.8-2.9,1.4-4.1,0.8c0.2-0.2,0.5-0.3,0.8-0.4c0.8,1,2-0.3,2.9-0.5
		c-0.1-0.3-1,0.1-0.8-0.5c0.7-0.1,1.2-0.7,1.8-0.4c0.1-1.1,0.9-0.7,1.4-1.4c0.4,0.3,0.6,0.4,1.2,0.7c0,0.3-0.1,0.5-0.3,0.5
		c-0.3,0-0.7,0-0.8,0.1c0,0.1,0,0.3,0,0.4c0.5,0.8,1.7,0.1,2.2,0.8c0.4-0.3,1.1-0.1,1.4-0.5c-0.4-0.1-0.8-0.3-1.2-0.4
		c0,0.2,0,0.4-0.1,0.4c-0.2-0.2-0.6-0.2-0.8-0.4c1.4-1.3,3.1,0,4.2-0.1c0.2-0.8-1.4-0.2-1.8-1c0.7-0.5,3.4-2.3,3.3-0.4
		c0.4,0.1,0.3-0.4,0.8-0.3c0-0.7-0.5-0.9-0.5-1.5c-0.5,0-0.8,0.3-1.4,0.3c0.4-0.6,0-0.4-0.4-0.8c0.6,0.1,1.2-0.3,1.5,0
		c0.2-0.3-0.2-0.6,0.5-0.5c0.6,0.5,0.9,1.1,1.1,1.8c-0.3,0.1-0.3,0.3-0.7,0.3c0,0.4,0.5,1,0.3,1.1c-0.3,0-0.3-0.2-0.5-0.1
		c-0.2,1.1-1.1,1.4-2.2,1.6c0.3,0.3,0.9,0.3,1.2,0.7c-0.2,0.2-0.5,0.3-0.5,0.7c0.7-0.4,0.4,0.5,1.1,0.4c0.2-0.3,0.2-0.8,0.4-1.1
		c0.2,0.3,0.4-0.2,0.5,0.1c-0.1,0.5-0.7,0.4-0.5,1.1c0.6,0,0.6-0.7,1.1-0.8c0,0.2-0.2,0.3-0.1,0.5c0.5,0.1,0.6-0.2,0.8-0.3
		c0.1-0.5-0.5-0.2-0.4-0.7c0.6,0.2,0.8-0.1,1.4-0.3c-0.3-0.6-0.1-0.5,0.1-1c-0.9-0.6-0.3-1.9,0.8-1.9c0.2-0.4-0.4-0.1-0.3-0.5
		c0.3,0.4,1.1,0.1,1.6,0c0,0.3,0.2,0.3,0.1,0.5c-0.2,0.4-0.9,0.8-1.4,0.5c1,1.3,2.1-0.3,3-0.7c-0.7-0.3-0.6-0.4-0.3-1
		c-0.9-0.3-1,0.8-1.6,0.3c0-0.2,0.2-0.3,0-0.4c0.1,0.5-1.1,0.3-1.1,0c0.3,0,0.4-0.1,0.4-0.4c-0.9-0.1,0.1,0,0-0.4
		c-0.5-0.1-1-0.2-1.1,0.4c0.2,0,0.5,0,0.5,0.1c-0.4,0.7-0.8,1.4-1.4,2c-0.7-0.3-1.2,0.2-1.5,0.1c0.1-0.6,0.5-0.8,1.1-0.7
		c0.1-0.3,0.4-0.8,0.1-1.1c-0.6-0.2-0.5,0.7-1,0.3c0.3-0.6,1.3-0.5,1.5-1.2c-0.1-0.5-0.7,0.2-0.7-0.1c1-1,2.6-1.3,3.4-2.5
		c-0.5,0-1-0.1-1.4-0.3c1.1-0.5,0.7-1.6,0.4-2.5c-0.4,0-0.6,0.4-0.8,0.5c-0.2-0.6-0.9,0.2-1.1-0.4c0.6-0.1,0.8-1.3,1.5-1
		c-0.5,0-0.2,0.7-0.5,0.8c0.8-0.1,1-0.4,1.8,0c-0.4-0.7,0.6-0.7,0.4-1.2c0.2,0,0.4,0,0.5,0c0.1,0.7,0.2,0.8,0.3,1.4
		c0.8-0.3,0.1-1.2,0-1.6c0.3,0.3,0.7,0.4,1.1,0.5c-0.2-0.6,0-0.7,0.5-0.8c0.1-0.5-0.5-0.2-0.4-0.7c0.5-0.1,0.5-0.7,1.1-0.7
		c0.2,0.7,0.5,0.8,0.3,1.6c0.6,0.1,1.2,0.8,0.7,1.4c0.4-0.1,0.7,0,0.8,0.3c0.3-0.3,0.6-0.5,1.1-0.3c0,0.3-0.3,0.6,0.1,0.7
		c0.2-0.5,0.8-0.6,0.8-1.2c-0.2,0-0.2-0.3-0.3-0.4c-0.9-0.2-1.1,1-1.8,0.7c0.2-0.3,0.7-0.2,0.7-0.7c-0.5,0-1.1,0.1-1.2-0.3
		c-0.1-1,1.2-0.6,1.2-1.4c0.1,1,1.1,0.1,1.4,0.3c-0.4,0.4-1,0.5-1.6,0.7c0.5-0.1,0.2,0.6,0.8,0.4c0.2-0.3,0.7-0.5,1.1-0.7
		c0.3,0.3,0,1.1-0.4,0.7c0.1,0.3,0.2,0.6,0.5,0.7c0.8-0.2,0.8-1.3,1.5-1.6c-0.2,0.5,0.4,0.5,0.5,0.3c-0.1-0.4-0.4-0.4-0.3-1
		c0.5-0.3,0.7-0.4,1.4-0.3c0.1-0.7,0.7-0.9,1-1.4c-0.2-0.1-0.7,0.2-0.7-0.1c0.2-1.3,2.5-0.3,2.3-1.5c0,0.3-0.5,0-0.5,0
		c0.2-0.3-0.4-0.9-0.4-1.5c0.2,0.2,0.3,0.2,0.5,0c-0.2-0.4-0.1-0.8,0.3-1c0.2,0.1,0,0.7,0.4,0.5c0-0.8,1-0.6,1-1.5
		c-0.1-0.4-0.6-0.3-0.7-0.7c0.4-0.5,0.4-1.5,1.4-1.4c-0.2,0.4-0.5,0.7-0.5,1.2c1.1,0.5,1-1,1.2-1.4c-0.1,0-0.2-0.1-0.1-0.3
		c-0.1-0.3-0.6,0.3-0.8-0.1c0.3-0.6,1.1-0.8,1.2-1.2c0.4,0.2-0.2,0.5,0.1,0.7c0.7,0.2,1,0,1.5,0.3c0-0.9-0.4-1.7,0-2.9
		c-0.2,0-0.4,0-0.5,0c0.2,0.6-0.4,1-0.5,0.8c0.4-0.6,0-1.1,0.5-1.4c-0.1-0.1-0.5,0-0.4-0.4c0.1-0.3,0.2-0.7,0.7-0.7
		c0.1,0.3-0.2,0.3-0.1,0.7c0.6,0.1,0.4-0.4,1-0.1c-0.2-0.6-0.4-1.1-0.1-1.8c-0.3,0-0.7,0-0.7-0.3C119.7,87.3,120.5,86.1,119.7,85.6z
		 M118.7,68.9c0,0.2-0.9,0.3-0.7-0.1C118.4,68.4,118.3,68.9,118.7,68.9z M117.4,64.2c0.2,0.2,0.6,0.2,0.7,0.4c0,0.4-0.3,0.4-0.7,0.4
		C117.1,64.8,117.4,64.7,117.4,64.2z M116.4,67.7C117,68.1,116.2,69.6,116.4,67.7L116.4,67.7z M116.7,42.6c0.1-0.8-0.6-0.7-0.1-1.4
		c0.6,0.1,0.9,0.4,1,1C117.2,42.2,117.1,42.6,116.7,42.6z M117.2,37.2c0.4,0.1,0.5,0.7,0.5,1.2C117.5,38.1,117.1,37.4,117.2,37.2z
		 M116.1,39.1c0.4,0.5,0.4,0.8,1.1,0.8c-0.4,0.2-0.6,0.6-0.7,1.1c-0.1-0.1-0.2-0.1-0.4-0.1C116.5,40.3,116.1,39.7,116.1,39.1z
		 M98.3,18.6c0,0.4-0.7,0.3-0.7-0.1C97.9,18.5,98.2,18.5,98.3,18.6z M28.3,22c0.1-0.4-0.3-0.4,0-0.7c0.5,0.1,0.8,0.3,0.8,0.8
		C28.8,22,28.7,21.9,28.3,22z M12.9,42.7c-0.8,0.1-0.3-0.9-0.1-1.1C13.2,42,12.6,42.4,12.9,42.7z M2.7,63.2C2.9,63,2.9,62.7,3,62.5
		c0.3,0.4,0.2,0.5,0.5,1C3.1,63.5,3,63.2,2.7,63.2z M1.9,69.3c0.2-0.3,1.2-0.4,1.6-0.1C3.1,69.4,2.4,69.5,1.9,69.3z M3.3,59.3
		c-0.1-0.6,0.1-0.9,0.1-1.4c0.1,0,0.3,0,0.4,0C4,58.6,4,59.3,3.3,59.3z M10.5,82.9c0,0.3-0.4,0.2-0.3,0.5c-0.5,0-0.8-0.2-0.8-0.7
		C9.9,82.5,10.1,82.8,10.5,82.9z M7.8,67.4c0.3,0.1,0.1,0.8,0.1,1.1C7.5,68.5,7.6,67.6,7.8,67.4z M6.5,67.1
		c-0.3,0.3-0.4-0.2-0.8-0.1c0.4-0.2,0.3-0.5-0.1-0.5c0.2-0.3,0.5-0.6,1-0.7C6.8,66.5,6.3,66.4,6.5,67.1z M6.4,67.9L6.4,67.9
		c0,0.1-0.1,0.3-0.1,0.4C6.4,68.2,6.4,68.1,6.4,67.9z M5.8,67.3c-0.4,0.1-1.1-0.1-1.2,0.4C4.7,67.3,5.4,67.5,5.8,67.3z M5,63.3
		c0.4,0.2,0.4,0.4,0.3,0.8C4.7,64.2,4.9,63.6,5,63.3z M6.4,65.6c-0.9-0.2-0.1-1.4-0.8-1.8c-0.1-0.3,0.2-0.3,0.1-0.7
		c0.4,0,0.3,0.5,0.8,0.3c-0.1,0.8,0.1,1.4,0.8,1.4C6.9,64.9,6.7,65.4,6.4,65.6z M7.2,61c0.1,0.6,0.2,1.3-0.1,1.8
		c-0.2-0.5-0.2-1.1-0.4-1.8C6.9,61,7,61,7.2,61z M4.2,58.1C5,58.4,5,58.5,5.9,58.3c0,0.5,0.4,0.6,0.4,1.1c-0.8,0.4-1.1,2.4,0.3,2.3
		c-0.5,0.4-0.1,0.4-0.3,1C5.7,62.7,5,63,5.2,62.1c0.2,0.2,0.6,0.5,0.7,0c-1-0.3-0.5-1.5-0.5-2.3C4.9,59.3,3.9,58.9,4.2,58.1z
		 M4.9,79c0.3-0.3,0-1.8-0.8-1.9c-0.3-0.9-0.3-1.8-1.1-2.5C3.4,74,3.4,73.9,3.3,73c0.2-0.3,0.9-0.1,0.8-0.7c0.7,0.4,0.4,1.3,0.4,2.2
		c0.5,0.4,1.4,0.3,1.8-0.1c0,0-0.7-1.1,0-1.1c0-0.3-0.5-0.1-0.7-0.1C6,72.2,5,72.2,4.9,71.5c0.4-0.1,0.5,0.1,0.8,0.1
		c-0.2-0.7,0-1.8-0.3-2.5C5.5,69,5.7,68.9,6,68.9c0-0.2-0.2-0.3-0.1-0.5c-0.7,0-1.5,0.1-1.8-0.3c0.1-0.2,0.3-0.3,0.5-0.3
		c0,0,0,0,0.1,0c0,0,0,0,0-0.1c0.9-0.2,2.3,0.6,1.2,1.6c0.5,0.7,0.2,2.2,1.1,2.5c0.1,0.4-0.4,0.2-0.4,0.5c0.8,0.4,0,1.1,0,1.9
		c0,0.3,0.5,0.1,0.5,0.3c0.1,1.7-2.3,0-2.6,1.4c0,0.3,0.5,0.2,0.7,0.4c0,0.4-0.3,0.7,0.3,0.8c-0.3,0.4-0.4,0.8,0.3,0.8
		C5.5,78.2,5.6,79,4.9,79z M6.9,77.9c-0.3-0.1-0.2-1.1,0.3-1c-0.3-0.5-0.5-1-1.2-1.1c-0.1-0.4,0.5-0.1,0.5-0.4
		c1.3,0.5,0.8,1.1,1.1,2.5C7.4,77.9,7.1,77.5,6.9,77.9z M7.5,72.1c0.4-0.2,0.7-0.5,0.5-1.2c-0.2,0.1-0.3,0.2-0.3,0.4
		c-0.3-0.6,0.4-2.2-0.8-2.2c0.4-0.4,1.4-0.8,1.6,0C8.3,69.2,8.3,69,8,69c0,0.2,0,0.2-0.1,0.3c0.1,0.2,0.4,0.3,0.8,0.3
		C8.6,69.8,8.4,69.9,8,70c0.1,0.3,0.1,0.7,0.5,0.7c-0.2,0.6-0.3,1.2-0.5,1.8C7.6,72.6,7.9,72,7.5,72.1z M7.8,74.3
		c-0.1-0.7,0.7-0.4,0.4-1.2c0.2,0,0.5,0,0.7,0c0.1,0.3-0.4,0.5,0,0.5C8.3,73.5,8.5,74.3,7.8,74.3z M8.6,80.9
		c-0.3-0.1-0.4-0.6-0.1-0.8C8.7,80,8.8,80.1,9,80.2C9.1,80.6,8.4,80.4,8.6,80.9z M14.2,83.5c-0.3-0.6-0.4-1.3-0.7-1.9
		C13.8,82.2,14,82.9,14.2,83.5z M13.2,46.6L13.2,46.6C13.2,46.6,13.2,46.6,13.2,46.6L13.2,46.6z M11.4,45.9c0.3,0.3,0.2,0.5,0.1,0.8
		C10.9,46.7,11.3,46.1,11.4,45.9z M11.6,47.5c-0.1-0.5,0.1-0.8,0.1-1.1c0.1,0,0.3,0,0.4,0C12,46.9,12,47.4,11.6,47.5z M11.7,77.3
		c0.1,0,0.3,0,0.4,0c0.1,0.2-0.2,0.7,0.1,0.7C12,78.4,11.8,77.5,11.7,77.3z M12.1,45.9c-0.1-0.5,0.2-0.6,0.3-0.8
		C13,45.1,12.5,46,12.1,45.9z M12.5,46.7c0.2,0,0.4,0,0.5,0c0,0.2,0,0.4,0,0.5c-0.4,0-0.5,0.3-0.7,0.5
		C12.1,47.6,12.7,47.2,12.5,46.7z M12.5,49.4c0.1,0,0.3,0,0.4,0c0,0.6-0.5,0.7-0.4,1.4C12.2,50.5,12.4,49.7,12.5,49.4z M12.8,81.3
		c0.2,0,0.3-0.2,0.5-0.1c0,0,0,0,0,0c-0.1,0.2-0.4,0.2-0.3,0.7C12.8,81.8,12.8,81.6,12.8,81.3z M13.3,82.6c0.2,0.1,0.5,0.3,0.4,0.7
		C13.2,83.5,13.3,83,13.3,82.6z M13.6,83.6c0.4-0.3,0.7,0.3,0.7,0.8C14,84.1,13.8,83.9,13.6,83.6z M17.7,40.1c0.2,0,0.3,0.2,0.3,0.5
		c-0.2,0-0.5,0-0.7,0C17.1,40.2,17.9,40.7,17.7,40.1z M16.6,38.8c0.5,0,0.9,0.1,0.8,0.7C17,39.4,16.7,39.2,16.6,38.8z M17.6,36.5
		c-0.4,0-0.7,0-0.5-0.4C17.3,36.1,17.6,36.1,17.6,36.5z M16.3,34.8c0-0.4,0.9-0.3,1.1-0.1c0,0.3-0.4,0.2-0.3,0.5
		C16.6,35.4,16.6,35,16.3,34.8z M15.4,36.5c0.3-0.1,0.8,0.2,0.7-0.3c0.3,0,0.3,0.3,0.3,0.7c-0.3,0.2-0.8,0.2-1.1,0.4
		C14.9,37.2,15.6,37,15.4,36.5z M14.9,84.9c0.1,0.2,0.3,0.3,0.4,0.5C15.2,85.2,15.1,85,14.9,84.9z M15.7,40.6
		c-0.4,0.1-0.2-0.4-0.5-0.4c0-0.3,0.6-0.1,0.8-0.1C15.9,40.3,15.8,40.5,15.7,40.6z M16.5,36.6c0.9-0.1,0.5,1.2,0.3,1.9
		c-0.1-0.2-0.4-0.4-0.4-0.7C16.9,37.6,16.6,37,16.5,36.6z M18.1,46.4c0,0.1,0,0.2,0,0.3c-0.4-0.2-0.6,0-1.1,0
		c-0.1-0.4,0.2-0.4,0.1-0.8c0.5,0,0.4,0.6,1.1,0.4C18.3,46.4,18.2,46.4,18.1,46.4z M18.4,44.5C18.2,44.3,18,44,18,43.7
		c-0.3,0-0.7,0.7-0.7-0.1c-0.2,0.2-0.4,0.8-0.8,0.4c0.1-0.5,0.4-0.2,0.1-0.7c0.9-0.3,1.5,0.4,1.9-0.1C19.2,43.5,18.4,44,18.4,44.5z
		 M20.7,41.5c-0.9,0.1-0.9-0.1-2,0c0.4-0.5,0.4-1.3,0.8-1.8c0.5,0.3-0.2,0.5-0.1,0.8c0.3,0.4,0.8-0.1,1.4,0.4
		C20.5,41.2,20.7,41.1,20.7,41.5z M21.1,40.8L21.1,40.8c0-0.1,0-0.2,0-0.4C21,40.5,21,40.6,21.1,40.8z M21.1,40.9c0,0.1,0,0.2,0,0.2
		C21.1,41.1,21.1,41,21.1,40.9C21.1,40.9,21.1,40.9,21.1,40.9z M22.9,89.6c0.2,0,0.4,0,0.5,0C23.5,90.1,22.8,90.1,22.9,89.6z
		 M24,89.8c-0.6,0.1-0.4-0.6-0.3-1C24.4,88.9,24,89.4,24,89.8z M24.5,38.5c0.2-0.2,0.8-0.2,0.7,0.3C24.9,38.7,24.4,39,24.5,38.5z
		 M24.5,90.8c0.2-0.1,0.8,0.2,0.8-0.1c0.2,0,0.1,0.1,0,0.1c0,1.2,1.1,1.3,1,2.6C25.4,92.8,24.9,91.8,24.5,90.8z M26,37.6
		c0.2-0.5-0.4-0.3-0.4-0.5c0.5-0.6,1.1-0.6,1.9-0.4C27.3,37.2,26.4,37.1,26,37.6z M36.6,112.4c0.2-0.6,0.4-0.2,1.1-0.3
		C37.8,112.8,36.9,112.6,36.6,112.4z M51.9,119.8c-0.3-0.1-0.7-0.2-1.2-0.1C50.3,119.5,52.1,119.3,51.9,119.8z M53,119.9
		c-0.2,0.4-0.7,0-0.8-0.1C52.4,119.3,52.6,120,53,119.9z M51.3,117.9c0,0.3-0.4,0.2-0.4,0.4c0.4,0.2,1.5-0.2,1.5,0.7
		c-0.4-0.1-2-0.1-2.5-0.5C50.3,118.1,50.7,117.9,51.3,117.9z M47.4,118.4c-0.7,0.3-1.7-0.3-2-0.8C46.1,117.8,46.5,118.4,47.4,118.4z
		 M43.2,108.8c-0.3,0.2-1.1,0.1-1.1-0.4C42.6,108.2,43,108.2,43.2,108.8z M41.8,108.6c-0.4,0.1-0.5-0.2-1-0.1
		C40.8,107.9,41.9,108,41.8,108.6z M39.6,104.1c-0.2,0.4-1,0.1-1.1-0.1C38.8,103.6,39.2,104.2,39.6,104.1z M35.1,22.9
		c0,0.1,0,0.3,0,0.4c-0.4,0.1-0.3-0.3-0.5-0.3C34.7,22.6,34.8,22.8,35.1,22.9z M32.3,23.3c0.2-0.4,0.5,0,1.1-0.1
		C33.2,23.7,32.8,23.2,32.3,23.3z M32.4,30.6c-0.3,0.4-0.9,0.6-1.5,0.8C31.2,31,31.8,30.8,32.4,30.6z M31.7,103.5
		c0.2-0.3,0.1-0.9,0.7-0.8c0.1-0.4-0.2-0.4-0.1-0.7c-0.5-0.2,0,0.6-0.5,0.4c-0.3-0.5-0.7-0.7-0.4-1.4c0-0.3-0.6,0-0.7-0.3
		c0.2-1.8-1.7-2.3-0.5-3.8c0.4,0.1,0.8,0.3,1.1,0.5c0,1.2,0.2,2.2,1.5,2c0.6,0.9,0.7,2.4,0.8,3.1c-0.5-0.1-0.5-0.6-0.8-0.8
		c-0.2,0.4-0.1,0.8,0.1,1.2C32.3,102.6,32.3,103.5,31.7,103.5z M33.1,105.8c0.4-0.3,0.7-0.6,1-1.1c0-0.3-0.3-0.3-0.7-0.3
		c0.4-0.3,0.7-0.2,1.2-0.1c0-0.7-0.6-0.7-0.7-1.4c1.5,0.6,2.7,1.5,3.7,2.6c0.9-0.1,2,0.5,2.3,1.4c0-0.9,0.6,0.4,1.4-0.1
		c0,0.3,0.5,0.3,0.4,0.7c-0.2-0.1-0.3-0.2-0.5-0.3c0,0.3,0.3,0.4,0,0.7c-1.4,0.3-1.2-0.8-2.5-0.7c0.1-0.6-0.3-0.7-0.8-0.7
		c-0.1,0.1,0.1,0.6-0.5,0.5c0.2-0.5,0.1-0.6-0.5-0.5c0.2-1-1.2-1.3-1.8-1.9c-0.2,0.3-0.7,0.4-0.8,0.8c0.7-0.5,0.6,0.4,1.2-0.1
		c0,1-1.1,0.1-1.5,0.3c-0.2,0-0.5,0.4-0.1,0.4C33.6,106.3,33.2,105.8,33.1,105.8z M36.8,109.3c-0.3-1.1-1.2-0.8-1.9-1.4
		c0.3-0.3,0-0.5,0-0.8c-0.4-0.1-0.5,0.2-1,0.1c0.1-0.5-0.3-0.4-0.3-0.8c0.4,0,0.6,0,0.5,0.4c0.3-0.1,0.1-0.5,0.5-0.4
		c0,0.2,0.1,0.2,0.1,0.4c0.2,0,0.1-0.2,0.1-0.4c0.6-0.1,0.4,0.5,1,0.4c0.3-0.2,0.1-0.8,0.3-1.1c0.2,2.3,2.1,3.5,4.2,4.4
		c0.4,0.1,0.3-0.3,0.4-0.4c0.3,0.2,0.6,0.4,0.7,0.8c0.9-0.2,1.2,0.1,1.9,0.4C41.1,111.6,39.2,109.4,36.8,109.3z M44.2,14.8
		c0.3-0.2,0.5-0.6,0.8-0.8C44.6,14.2,44.5,14.6,44.2,14.8z M44.8,15.1c-0.1-0.1-0.1-0.2-0.1-0.4c0,0,0,0,0,0
		c0.1-0.1,0.3-0.1,0.5-0.1C45.2,14.9,45.2,15.1,44.8,15.1z M50.4,12.6c0.1,0.5-0.7,0.2-0.5,0.7c-0.2,0-0.3-0.2-0.5-0.1
		C49.4,12.7,49.8,12.7,50.4,12.6z M48.9,13.5c0,0.2,0,0.4,0.1,0.4c-0.2,0.5-1-0.1-1.4-0.3C47.8,13,48.3,13.6,48.9,13.5z M47.3,13.5
		C47.3,13.5,47.3,13.5,47.3,13.5C47.3,13.5,47.3,13.5,47.3,13.5L47.3,13.5z M47.8,14.7c-0.1,0.4-0.4,0.5-0.8,0.5
		c-0.1-0.1-0.1-0.3-0.1-0.5C47.4,14.8,47.2,14.8,47.8,14.7z M47.5,16.2c0.1,0.1,0.1,0.2,0.1,0.4c-0.2,0.2-0.6,0.2-0.8,0
		C47,16.4,47.1,16.1,47.5,16.2z M47.4,113.7c0.2-0.2,0.7-0.6,1-0.3C48.2,113.8,47.8,113.9,47.4,113.7z M51.3,113.7
		c-1.5-0.1-2-1.1-3.5-1.1c0.4-0.4-0.1-0.7-0.7-0.5c0-0.5-0.3-0.7-0.5-1c0.3-0.4,0.6,0.4,0.8,0.5c1.6-0.3,2.5,1.8,4.2,1.4
		C52,113.2,51.4,113.5,51.3,113.7z M52.4,12.1c-0.1-0.3,0.9-0.5,0.8,0C53.1,12.3,52.6,12.3,52.4,12.1z M53.5,11.8
		c-0.1-0.5,0.4-0.4,0.8-0.4C54.1,11.6,53.9,11.8,53.5,11.8z M61.4,118.3c-0.1-0.3,0.3-0.2,0.3-0.4c0.5,0.3,0.6,0.1,1.1,0.3
		C62.6,118.8,61.9,118.2,61.4,118.3z M62.4,120.1c0.1-0.3,0.9-0.1,1.1,0C63.3,120.6,62.7,120.2,62.4,120.1z M64.8,119.7
		c0.2-0.2,0.6-0.1,1-0.1C65.7,119.7,64.9,120.3,64.8,119.7z M67.5,119.9c-0.3-0.1-0.8,0.2-0.7-0.3C67.1,119.4,67.6,119.5,67.5,119.9
		z M69.3,122.8c-0.5-0.1-0.9-0.4-1.4-0.5c0.3-0.2,0.8-0.2,1.2-0.3C69.3,122.1,69.3,122.5,69.3,122.8z M66.6,125.5
		c0.1-0.5,1.1-0.1,1.1-0.7c0.2,0,0.2,0.2,0.4,0.3C67.9,125.6,67,125.8,66.6,125.5z M70.3,125c-0.4,0.1-0.3-0.3-0.5-0.3
		c0.2-0.6,1.2-0.2,1.6-0.1C71.3,125.3,70.2,124.3,70.3,125z M97.4,114.6c0.1,0,0.3,0,0.4,0c-0.1,0.6,0.6,0.4,0.4,1.1
		c-0.4-0.2-0.6,0-1.1,0c0.2-0.4-0.4-0.1-0.3-0.5C97.3,115.3,97.3,114.9,97.4,114.6z M98.3,21.5c-1.9,1.2-3.5-1.2-5.3-1.5
		C94.8,19.9,96.5,21.1,98.3,21.5z M97.1,101.4c0,0.3-0.5,0.1-0.7,0.1c-0.3-1.2,1.1-0.5,1.2-1C98.5,100.8,96.6,101.2,97.1,101.4z
		 M97.6,26.4c0.2,0.1,0.4,0.2,0.5,0.4C98,26.7,97.8,26.6,97.6,26.4z M94.8,107.4c-0.8,0.6-2.4,0.1-3.7,0.3c1.5-0.4,3.4-1.9,4.4-0.9
		c-0.3,0.2-1.1,0-1.4,0.3C94.1,107.4,94.4,107.4,94.8,107.4z M90,109.2c-1.4,0-2,1.5-3.3,1.1c0.8-1,2.7-0.9,3.1-2.2
		c0.1,0,0.1,0.1,0.1,0.1c0,0.2,0.3,0.1,0.3,0C90.7,108.5,89.7,108.5,90,109.2z M90.4,109.7c-0.3,0.4-1,0.2-1,1
		c-0.1,0-0.1-0.2-0.1-0.3c0-0.2-0.2-0.1-0.4-0.1C89.1,109.6,89.8,109.5,90.4,109.7z M85.6,109c0.3-0.7,1.2-0.9,1.9-1.2
		c0.2,0.2,0.1,0.7,0.3,1c-0.6,0-0.7,0.5-1,0.8C86.2,109.6,86.1,109.2,85.6,109z M88.8,104.3c-1.4,0.1-2,1.1-3.4,1.2
		c1.3-0.7,2.5-2,3.8-1.9c0.2-0.5-0.6,0-0.4-0.5c2.3-0.6,3.5-2.2,5.2-3.4c0.1,0,0.1-0.1,0.2-0.1c0.2-0.1,0.4-0.3,0.7-0.4
		c-1.7,1.9-3.7,3.4-5.9,4.8C88.6,103.9,89.1,104.1,88.8,104.3z M86.5,103.7c0.1,0.1,0.1,0.2,0.3,0.3c-0.6,0.1-0.8,0.5-1.4,0.5
		c0.1-0.3,0.2-0.4,0.3-0.5C86,103.9,86.2,103.8,86.5,103.7z M85.9,17.3c0.4,0,0.4,0.4,0.7,0.5C86.4,18.1,85.4,17.7,85.9,17.3z
		 M86.9,18.1c0.4-0.2,0.9-0.3,1.5-0.3C88.4,18.6,87.3,18.1,86.9,18.1z M88.4,102.8c-0.1,0.1-0.2,0.1-0.3,0.2
		C88.1,102.9,88.2,102.9,88.4,102.8z M91.2,18.4c0.1,0.8-1.6,0.7-2.2,0.3C89.9,18.3,90.4,19,91.2,18.4z M89.3,15
		c1.4-0.5,3,0.3,3.9,1C92.3,15.8,90.7,15.2,89.3,15z M90.8,21.2c-0.4-0.2-0.3,0.2-0.5,0.3c0,0,0,0,0,0c-0.2-0.1-0.3-0.2-0.5-0.3
		c-0.1-0.1-0.1-0.3,0-0.5C90.3,20.6,90.7,20.8,90.8,21.2z M94.2,104.7c0.5-0.1,0.4,0.4,0.4,0.8C94,105.4,94.4,105.2,94.2,104.7z
		 M94.8,105.9c0.9-0.6,1.5-1.5,2.6-1.9C96.6,104.7,96.1,106.7,94.8,105.9z M94.9,24.3C94.9,24.3,94.9,24.3,94.9,24.3
		C94.9,24.4,94.9,24.4,94.9,24.3C94.9,24.3,94.9,24.3,94.9,24.3z M95.6,24.8c0.1,0,0.1,0,0.2-0.1c0,0.1,0,0.1,0,0.2
		C95.7,24.9,95.6,24.9,95.6,24.8z M96.8,22.9c0.3-0.3,1.4-0.1,1.5,0.3C97.9,23.4,97.5,22.7,96.8,22.9z M94.1,17.3
		c-0.2-0.2-0.5-0.2-0.8-0.1c0-0.6,0.8-0.4,1.1-0.7C94,16.7,93.9,16.8,94.1,17.3z M96.9,15.5c0.1,0.4,0.4,0.4,0.4,0.8
		c-0.5,0.3-1,0.2-1.6,0.1c0-0.3,0.4-0.2,0.4-0.4c-0.6-0.3-1.9-0.3-2.6-0.5C94.7,14.9,95.7,15.2,96.9,15.5z M94.4,12.6
		c0.1,0.1,0.1,0.3,0.1,0.5c-0.2,0.2-0.5,0.2-0.8,0.1C93.7,12.9,93.9,12.7,94.4,12.6z M94.1,13.9c-0.3,0.6-1.3,0.5-1.9,0.8
		c-0.3-0.4-0.9-0.4-1.5-0.5C91.7,13.9,93,14,94.1,13.9z M90.7,10.9c0,0.6-0.5,0.6-1,0.4C89.8,10.9,90.4,11,90.7,10.9z M89.7,13.2
		c-0.3,0.5-0.9,0.2-1.4,0.1C88.7,13.2,89.4,13,89.7,13.2z M89.2,10.6c0,0.3-0.2,0.5-0.4,0.7c-0.6,0.1-0.5-0.5-1-0.5
		C88,10.4,88.8,10.7,89.2,10.6z M86.6,10.1c-0.1,0.3-0.7,0.1-0.8,0C85.8,9.8,86.5,9.9,86.6,10.1z M89.2,13.9
		c-0.6,0.2-1.2,0.5-1.6,0.8c-0.2-0.2-0.1-0.6,0.1-0.7c-0.4-0.5-1.2-0.6-1.9-0.8C87,12.8,88.2,13.6,89.2,13.9z M85.9,15.4
		c0,0.5-0.5,0.6-1.1,0.5C84.9,15.5,85.4,15.4,85.9,15.4z M84.8,13.7c0,0.4-0.6,0.2-1,0.3C84,13.7,84.5,13.5,84.8,13.7z M84.8,18.8
		c0,0.1-0.1,0.1-0.1,0.2c-0.2-0.1-0.3-0.1-0.5-0.2C84.4,18.8,84.7,18.8,84.8,18.8z M84.6,106.2c-0.1,0.5-0.7,0.4-1.2,0.4
		C83.6,106.3,84,106.1,84.6,106.2z M82.9,105.6c-0.5-0.1-0.7,0.2-1,0C82.2,105.3,82.8,105,82.9,105.6z M81.4,110.8
		c-0.1-0.6,0.1-0.6,0.4-0.6C81.5,110.1,81.3,110.2,81.4,110.8z M80.6,109.2c0.1-0.6,0.8-0.7,1.5-0.7
		C81.7,108.9,81.1,108.9,80.6,109.2z M81.3,110.8c-0.3,0-0.5,0.1-0.7,0.1C80.8,110.9,81,110.9,81.3,110.8z M81.8,10.3
		c0.2,0.1,0.7,0,0.7,0.4C82.1,10.8,81.8,10.8,81.8,10.3z M81.8,106.6c-0.3,0-0.7,0-0.8-0.1C81,106.2,82,106.2,81.8,106.6z M81,14.4
		c-0.1,0.4,0.1,0.5,0.4,0.4c-0.3,0.2-0.5,0.7,0.3,0.5c-0.3,0.3-1.7,0.1-2.6,0C79.3,14.3,80.5,15.1,81,14.4z M75.1,16.3
		c0.1-0.1,0.3-0.1,0.3-0.3C75.4,16.2,75.2,16.3,75.1,16.3L75.1,16.3z M77.1,111.2c-0.6,0.6-1.9,1.2-3.1,0.8
		C74.8,111.7,75.9,110.9,77.1,111.2z M74.5,15.4c0.4,0,0.9,0,1.3,0.1C75.4,15.5,74.9,15.5,74.5,15.4z M75.7,15c0,0.4-0.6,0.2-1,0.3
		C74.6,14.7,75.4,15.1,75.7,15z M77.4,16.2c-0.6-0.1-1.3-0.2-1.9-0.1C76.1,16,76.8,16.1,77.4,16.2z M76.2,15.7
		c0.2-0.2,0.7-0.1,1-0.1C76.9,15.7,76.4,15.6,76.2,15.7z M77.1,14.7c-0.1,0.1-0.1,0.2-0.1,0.4c-0.4,0.1-0.6-0.1-1-0.1
		C76.1,14.6,76.7,14.4,77.1,14.7z M76.7,9.6c-0.5,0.3-0.1,0.3,0,0.7c-1.1-0.2-1.9,0.1-3.1,0C74.3,9.9,75.7,10.2,76.7,9.6z M74.8,9.2
		c-0.6-0.2-1.7,0.1-1.9-0.4C73.3,9.3,74.7,8.3,74.8,9.2z M70.8,14.8c0.4,0,0.3,0.6,0.1,0.8c-0.2,0-0.4,0-0.5,0
		C70.3,15.1,70.7,15.2,70.8,14.8z M72.8,108.5c-1.1,0.6-2.3,0.8-3.7,0.8C70.1,108.8,71.5,108.7,72.8,108.5z M73.8,111.2
		c-1.8,1.1-4.5,0.5-6.9,0.4C69,111.5,71,111.3,73.8,111.2z M66.3,15.5c0.1,0.1,0.1,0.2,0,0.3c-0.4,0-0.8,0-1.1,0c0,0,0,0,0,0
		C65.6,15.7,65.7,15.4,66.3,15.5z M64.3,10.1c-0.2,0.3-0.7,0.3-1.2,0.3C63.3,10.1,63.8,10.1,64.3,10.1z M63.7,11.1
		c-0.4,0.7-1.5,0.1-2.2,0.7C62,11.3,63.3,11.2,63.7,11.1z M62.6,12.1c-0.8,0.3-1.7,0.6-2.9,0.5C60.6,12.2,61.5,12,62.6,12.1z
		 M57.9,9.8c0.3,0,0.3,0.3,0.3,0.7c-0.5,0.1-0.7,0.2-0.8-0.4C57.6,10,57.8,10,57.9,9.8z M58,12.5c0,0.1,0,0.3,0,0.4
		c0.5,0.1,0.8,0,0.7-0.5c0.3,0.1,0.3,0.3,0.7,0.3c-0.3,0.5-0.9,0.6-1.8,0.5c0.3-0.3,0-0.5-0.3-0.5C57.3,12.3,57.8,12.6,58,12.5z
		 M56.5,112c0.3,0,0.6,0,1,0c-0.4,0.4-1.1,1.3-1.6,0.7C56,112.4,56.8,112.8,56.5,112z M58.8,114.1c0.3,0.4,1,0.4,1.6,0.4
		c0.2,0.1,0,0.5,0.3,0.5c-2.1,0.3-4.4-0.8-5.4-1.6c1.6-0.3,1.8,0.7,2.9,1c0.3-0.1,0.1-0.8-0.1-0.8c0.2-0.4,1.1,0.4,0.8-0.5
		c0.5,0.1,0.5-0.1,1.1-0.4c-0.2,0.7,0.7,0.2,0.8,0.5c-0.7,0.1-1,0.1-1.6,0.4C59.5,113.7,59.3,114.1,58.8,114.1z M58.7,110.8
		c-0.1-0.2-0.2-0.3-0.4-0.4c0.7,0,2.9,0.6,4.5,0.8c0.5,0.1,1.3-0.3,1.5,0.4C62.4,111.9,60.9,110.9,58.7,110.8z M61.7,112.9
		c-0.2,0-0.1-0.3-0.1-0.5c0.4-0.1,0.3,0.3,0.5,0.3C62.1,112.8,61.7,112.6,61.7,112.9z M62.4,115.2c0.5-0.3,0.1-0.8,1-0.8
		c-0.3-0.4-0.5-0.8-1.4-0.7c0.5-0.4,1-0.8,1.3-1.3c0.1,0,0.2,0,0.3,0c1.4,0.4,3.3,0.3,4.1,1.5c-1.1,0.1-3.3-0.3-3.1,0.5
		c-0.3-0.3-1.1-0.3-1.4,0.1c0.9,0.4,2.4,0.3,3.5,0.4C65.3,115.7,64.2,115.4,62.4,115.2z M74.2,114.6c-2.1,0.4-5,1.1-7.4,0.8
		c0.6-0.9,2.1-0.5,3.4-0.5c1.6-0.1,3.2-0.5,4.6-0.4C76.5,114.6,74.4,114.6,74.2,114.6z M76.9,113.1c-0.8,0.2-1.7,0.7-2.7,1
		C75.2,113.7,76.1,113.3,76.9,113.1c0.3-0.1,0.5-0.1,0.8-0.1C77.4,113,77.2,113,76.9,113.1z M75.2,108.8c0.4-0.5,1.3-0.6,2-0.7
		c0,0.2,0,0.4,0,0.5c0.6,0.2,0.5-0.3,1-0.3C78,109.5,75.7,109.1,75.2,108.8z M78,10.3c0-0.2,0.2-0.3,0.5-0.3
		c-0.1-0.2-0.2-0.4-0.1-0.7c-0.1-0.3-0.5-0.3-1-0.3c0.7-0.6,1.5-0.3,2.2,0.1c0,0.3-0.6,0.1-0.8,0.1c0,0.6-0.2,0.5,0,1
		C78.7,10.5,78.2,10.5,78,10.3z M79,108.9c0-0.1,0.2-0.1,0.3-0.1c0-0.4-0.2-0.4-0.5-0.4c0.3-0.6,0.6,0.1,1.1,0.1
		c0.1-0.4-0.3-0.4-0.5-0.5c0-0.2,0.4-0.7,0-0.8c0.3-0.3,0.5,0.6,1.1,0.4c-0.2,0.3-0.7,0.7,0.1,0.7C80.2,108.7,79.5,108.7,79,108.9z
		 M73.1,118.4c0.5-0.1,1.3-0.2,1.6-0.8c0.6,0.1,0.8,0.7,1.6,0.7c-0.2,0.4-0.7,0.4-1.1,0.5c0,0.2,0.3,0.1,0.5,0.1
		c-0.2,0.5-1,0-1.4-0.1c-0.4,0.5-1.6,0.8-2,0.1C72.6,118.8,73.7,118.9,73.1,118.4z M73.5,120.6c-0.5,0.1-0.8-0.1-1.2-0.1
		C72.5,120.1,73.5,120,73.5,120.6z M70.9,119.3c0.5,0,0.9-0.3,0.8,0.4C71.4,119.7,70.9,119.7,70.9,119.3z M71.8,121.4
		c-0.1-0.5,0.6-0.2,1-0.3C72.7,121.6,72.1,121.4,71.8,121.4z M74.3,123.9c0.5-0.3,0.7,0.1,1.5,0C75.7,124.5,74.7,124.2,74.3,123.9z
		 M75.2,123.1c-0.4-0.3-1.3-0.1-1.5-0.7c-0.3,0-0.4,0.2-0.5,0.4c-0.3-0.2-0.5-0.5-0.5-1c0.6,0.4,1.2,0.2,1.9,0c0.1-0.5-0.6-1,0-1.2
		c0-0.3-0.5-0.1-0.7-0.1c0.1-0.4,0.6-0.3,0.8-0.5c0.4,0,0.3,0.6,1,0.4c-0.1-0.3-0.5-0.1-0.4-0.5c0.8-0.2,1.2-0.7,2.2-0.4
		c-0.2,0.3,0,0.2,0,0.5c-0.5,0.2-0.9,0.5-1.4,0.7c0,0.2,0.2,0.3,0.1,0.5c0.2,0.2,0.7,0.1,0.8,0.4c0.6,0.1,0.5-0.5,1-0.5
		C77.4,122.1,76.3,122.6,75.2,123.1z M78.4,118.2c-0.8-0.5-0.9,0.3-1.9,0.1c0-0.9,0.9-0.1,1-0.8c-0.5-0.5-0.7,0.6-1.2,0.1
		c0.7-0.7,1.9-0.8,2.6-1.5c0-0.2-0.3-0.1-0.5-0.1c0.2-0.2,0.5-0.3,0.8-0.4c0.2,0.3-0.1,0.7,0.4,0.8c0.4,0,0.4-0.4,0.5-0.7
		c0.6,0.5,0.9-0.2,1.5-0.1c0.2,0.7-0.4,0.6-0.3,1.2c-0.3-0.4-0.8-0.6-0.8,0.3C79.6,117.2,78.7,117.4,78.4,118.2z M80.6,117.1
		c0.3,0.2,0.4,0.6,0.8,0.7c-0.1,0.2-0.4,0.2-0.7,0.3C81,117.5,80.7,117.5,80.6,117.1z M79,121.3c0.2-0.3,0.4-0.7,0.7-1
		c0.3,0.1,0.5,0.2,0.5,0.5C79.7,120.9,79.6,121.4,79,121.3z M79.2,118.7c-0.1-0.5,0.6-0.3,0.7-0.7c0.6-0.1,0.2,0.7,0.7,0.7
		C80.4,119,79.8,118.5,79.2,118.7z M81.2,122.3c0.7-0.7,2.1-1.4,3.3-0.8C83.6,121.9,82,122.7,81.2,122.3z M83.1,118.3
		c0.2,0,0.1,0.2,0.1,0.4c0.6,0,0.7-0.4,1.4-0.3c-0.2,0.4-1,0.4-1.1,1c0.2,0.4,0.5-0.2,0.8-0.1c0.1,0.7-0.7,0.5-0.5,1.2
		c-1.2,0.2-2,1.2-3.1,0.7c0.1-0.4,0.5-0.4,0.7-0.7c0-0.3-0.5-0.2-0.5-0.5C80.9,118.5,82.3,118.9,83.1,118.3z M82.8,115.4
		c-0.1-0.3-0.8,0.1-0.7-0.4C82.5,115,82.8,115,82.8,115.4z M83.6,113.7c0.1-0.3,0.7-0.4,1-0.1C84.5,113.8,83.9,113.6,83.6,113.7z
		 M85,114.9c-0.2-0.3-0.5-0.4-0.8-0.5c0.2-0.6,0.4,0.1,1,0C85,114.5,85,114.7,85,114.9z M85.8,113.8c0-0.4,0.9-0.6,0.8,0
		C86.3,113.8,86.1,113.8,85.8,113.8z M85.2,112.3c-0.1-0.6,0.4,0.1,0.4-0.3c-0.4-0.6-1.6-0.7-2-0.5c0,0,0.3,0.4-0.3,0.1
		c-0.2,0.7,1.2,0.1,0.7,0.8c0.5,0.1,0.4-0.5,1.1-0.3c-0.1,0.3-0.7,0.3-0.8,0.7c-1.1,0-1.5-0.8-2.7-0.4c0.1,0.5,0.8-0.3,0.8,0.1
		c-0.5,0.9-2.2,0.3-3-0.3c1.1-1.3,3-1.3,4.2-2.6c0.3,0,0.6,0,1,0c0.3,0,0-0.4-0.1-0.4c0.6-0.2,1.6,0.4,1.9,1c-0.3,0.3-0.4-0.1-0.8,0
		c0.2,0.9,2,0.7,2.7,0.7c-0.1,0.8-0.8,0.1-1.5,0.3c-0.3,0.1,0.4,0.3,0.1,0.8C86.1,111.9,85.7,112.6,85.2,112.3z M88.1,113.5
		c-0.4,0.2-1,0.2-1.2-0.1C87.1,112.6,88.2,112.3,88.1,113.5z M87.8,112.3c0.3-0.5,0.8-0.1,1.2,0C88.7,112.9,88.5,112.1,87.8,112.3z
		 M88.8,113.5c0.2-0.3,0.7-0.3,1-0.5c-0.1,0.5-0.2,0.4,0.1,1.1C89.4,114,89.5,113.3,88.8,113.5z M89.3,111.2
		c0.3-0.5,0.7-0.1,1.2-0.1C90.4,111.7,89.8,111.1,89.3,111.2z M90.1,106.3c-0.4-0.3-1-0.4-1.1-1c0.4-0.1,0.6,0.1,0.5,0.5
		c0.6,0.2,0.5-0.3,1-0.3C90.6,106.1,90,105.8,90.1,106.3z M91.4,114.2c0-0.4,0.5-0.1,0.4-0.5c0.3,0,0.4,0.1,0.4,0.4
		C91.9,114.1,91.8,114.3,91.4,114.2z M90.8,109.6c0.2-0.7,1.4-0.3,1.4-1.2c0.2,0.2,0.4,0.3,0.4,0.7
		C92.1,109.3,91.6,109.6,90.8,109.6z M94.2,110.7c0-0.5-0.7-0.4-1.2-0.4c0.5-0.6,1.1-0.3,1.8,0C94.6,110.5,94.6,110.7,94.2,110.7z
		 M94.5,109.3c0.3-0.2,0.2-0.7,0.7-0.7c0.1,0.8,1.1,0,1.4,0.7C96.4,109.7,95.1,109.3,94.5,109.3z M95.4,110.3
		c0.4-0.2,0.3,0.2,0.5,0.3C95.9,110.8,95.2,110.7,95.4,110.3z M96.1,110.8c0-0.2,0-0.4,0-0.5c0.4,0.2,0.5,0,1.1,0
		c0,0.4,0,0.6,0.4,0.5C97.4,111,96.7,110.7,96.1,110.8z M97,102.9c0.1-0.3,0.3-0.6,0.6-0.6C97.3,102.3,97.2,102.6,97,102.9z
		 M98.2,101.1c-0.1,0.5-0.6,0.5-0.4,1.1C97.5,101.6,98.1,101.6,98.2,101.1z M97.7,102.1c0.1-0.1,0.1-0.3,0.2-0.4
		C97.9,101.9,97.8,102,97.7,102.1L97.7,102.1z M99.3,108.2c0.2,0.2,0.1,0.6,0.3,0.8c0.4,0.1,0.5-0.1,0.8-0.1
		c-0.3,0.9-1.5,1.5-2.5,1.4c0-0.5,0.5-0.5,0.4-1.1c0.4,0.1,0.5-0.1,0.8-0.1c-0.1-0.2-0.1-0.5-0.5-0.4
		C98.7,108.4,98.9,108.3,99.3,108.2z M97.4,24.8c0.2-0.3,0.9-0.1,1-0.5c0.1,0,0.1,0.1,0.3,0.1c0,0.1,0,0.2,0,0.3
		C98.1,24.6,97.8,25.2,97.4,24.8z M99.2,96.4L99.2,96.4c-0.3,0-0.4,0-0.6,0.1C98.7,96.4,98.9,96.4,99.2,96.4z M99,98.3
		c0,0.1,0,0.2-0.1,0.3v0C99,98.5,99,98.4,99,98.3z M98.9,98.7C98.9,98.7,98.9,98.7,98.9,98.7C98.9,98.7,98.9,98.7,98.9,98.7
		C98.9,98.7,98.9,98.7,98.9,98.7z M98.7,103.1c0.3-0.2,0.3-0.9,1-0.8C99.5,102.7,99.3,103,98.7,103.1z M99.3,98.2
		c0.2-0.2,0.4-0.5,1-0.4C100.2,98.2,99.6,98.4,99.3,98.2z M99.9,24.9c0.2,0.1,0.4,0.4,0.6,0.4C100.2,25.2,100.1,25,99.9,24.9z
		 M100.6,25.3C100.6,25.3,100.6,25.3,100.6,25.3C100.6,25.3,100.6,25.3,100.6,25.3L100.6,25.3z M100.6,25.3L100.6,25.3
		C100.6,25.3,100.6,25.3,100.6,25.3C100.6,25.3,100.6,25.3,100.6,25.3z M119,74.2c-0.2,0.2-0.1,0.6-0.5,0.5
		c-0.1-0.1-0.1-0.3-0.1-0.5C118.5,74,118.8,74,119,74.2z M120.4,75.8c-0.1,0.2-0.3,0.3-0.5,0.3c-0.1-0.6-1.1-0.8-1.5-0.4
		C118.6,74.5,120.1,75.1,120.4,75.8z M119.1,76.2c-0.1,0.3-0.9-0.1-0.8,0.4c0.1,0.2,0.3,0.3,0.5,0.3c0,0.2-0.3,0.1-0.5,0.1
		c-0.1,0.5,0.7,0.2,0.5,0.7c-0.3,0-1-0.4-0.8,0.3c-0.5-0.1-0.1-0.8,0.1-1c-0.1-0.2-0.2-0.3-0.4-0.3c0-0.4,0.2-0.7,0.4-1
		C118.6,75.9,118.8,76.2,119.1,76.2z M117.2,74.1c0.3,0,0.2,0.4,0.5,0.3c-0.2,0.4-0.4,0.1-0.8,0.4C117,74.5,117.3,74.4,117.2,74.1z
		 M117.2,84.5c-0.1,0.6-0.7-0.1-1.2,0.1C116.2,84.5,117,84.2,117.2,84.5z M116.9,87.5C116.9,87.5,116.9,87.5,116.9,87.5L116.9,87.5
		C116.9,87.5,116.9,87.5,116.9,87.5z M116,72.4c0.1,0.4,0.4,0.6,0.5,1c-0.4-0.1-0.6,0.2-0.7,0.4C115.5,73.4,116,72.8,116,72.4z
		 M115.7,84.3c-0.5,0.1-0.2-0.6-0.1-0.7C116,83.4,116,84.3,115.7,84.3z M115.5,85.5c-0.2,0-0.4,0-0.5,0c0.1-0.4,0.3-0.7,0.4-1.1
		C115.8,84.9,115.2,85,115.5,85.5z M114.8,78.8c0-0.3-0.6-0.1-0.5-0.5c0.1,0,0.1,0.1,0.3,0.1c0.1-0.1,0.2-0.1,0.3-0.3
		C115.2,78.3,114.6,78.5,114.8,78.8z M114.9,88.2c-0.2,0.3-0.7,0.3-1,0.5c0.1-0.1,0.1-0.3,0.1-0.5C114.4,88.2,114.6,88.2,114.9,88.2
		z M115.3,75.8c0.6,0-0.1,0.6,0,1C114.9,76.6,115.5,76.2,115.3,75.8z M115.1,42.2c-0.4,0-0.1-0.7-0.4-0.8
		C114.9,41,115.1,41.8,115.1,42.2z M114.5,55.4c0.5-0.1,0.1,0.8,0.5,0.7c0.1-0.2,0.1-0.5,0.1-0.7c0,0,0,0,0,0c0,0,0-0.1,0-0.1
		c0.2-1.4,0.1-2.9,0.3-4.6c-0.1-0.6-1-0.3-0.8-1.2c0.3,0,0.2,0.4,0.4,0.4c0.7-0.4,0.6-2.9-0.1-3.1c0.1,0,0.3,0,0.4,0
		c0-1.6-0.2-3-0.4-4.4c0.9,0.7,1,2.3,0.5,3.4c0,0.3,0.5,0.1,0.5,0.3c-0.3,0.5-0.1,1-0.4,1.6c0.8,3.3-0.1,7.1,0.1,10.9
		c0.1,0.3-0.3,0.2-0.3,0.4c0.3,0.6,0.3,1.6-0.4,1.9c0.1-1.4,0.4-3,0-4.5c-0.2,0-0.3,0.2-0.5,0.1C114.5,56.1,114.5,55.8,114.5,55.4z
		 M114.5,57.4c0.7,0.3-0.2,0.6,0,1.2c0,0-0.1-0.1-0.1-0.1c0-0.3,0-0.5-0.1-0.8C114.4,57.6,114.5,57.5,114.5,57.4z M114.2,56.1
		c0-0.2-0.1-0.4-0.1-0.6C114.2,55.7,114.2,55.8,114.2,56.1C114.2,56.1,114.2,56.1,114.2,56.1z M114,50.4c0.5,0.8,0.1,2.8,0,4.2
		c-0.1-0.3-0.1-0.7-0.2-1C113.9,52.6,113.8,51.6,114,50.4z M113.4,40.7c0-0.1,0-0.3,0-0.4c0.1,0,0.1,0.3,0.3,0.3
		c-0.1,0.3-0.5,0.7-0.8,0.4C112.9,40.7,113.1,40.7,113.4,40.7z M113.3,89.2c-0.9-0.4,0.8-2,0.1-1.2
		C113.4,88.4,113.5,88.9,113.3,89.2z M113.1,50.5c0,0,0.1-0.1,0.2-0.1c0.2,0.2,0.1,0.4-0.1,0.5C113.2,50.7,113.2,50.6,113.1,50.5z
		 M112.1,45.5c0.2,0.7,0.3,1.6,0.4,2.5c-0.1-0.2-0.2-0.4-0.2-0.7c0-0.4-0.1-0.8-0.3-0.9c0-0.1-0.1-0.2-0.1-0.3
		C111.9,45.9,112.2,45.9,112.1,45.5z M111.2,40.4c0.2,0.1,0.3,0.3,0.3,0.7c-0.3,0.1-0.3-0.2-0.7-0.1c0-0.4-0.4-0.7-0.1-1
		C110.9,40.1,110.9,41,111.2,40.4z M110.7,38.5c0.2,0.1,0.5,0.3,0.4,0.7c-0.3,0.1-0.5-0.4-0.5,0C110.2,39,110.7,38.7,110.7,38.5z
		 M110.4,93.1C110,94.1,109.4,93.5,110.4,93.1L110.4,93.1z M110.4,97.1c-0.1,0.2-0.4,0.3-0.8,0.3c0-0.2,0-0.4,0-0.5
		C109.9,96.8,110.2,97,110.4,97.1z M110.3,42.6c-0.1-0.3-0.2-0.5-0.4-0.8C110.1,42,110.2,42.3,110.3,42.6z M110,41.2
		c-0.4-0.1-0.5-0.5-0.5-1C109.9,40.4,110,40.7,110,41.2z M109.2,38.9c0.3,0.1,0.7,1.2,0,1.1C109.2,39.6,109.2,39.3,109.2,38.9z
		 M107.3,34.7c-0.2,0.1,0,0.6-0.3,0.7C106.5,35.4,106.8,34.4,107.3,34.7z M107.4,100.5c0,0.2-0.2,0.3-0.1,0.5c-0.4,0-0.8,0-0.8-0.4
		C107,100.7,107,100.4,107.4,100.5z M106.7,96.1c0.1-0.1,0.2-0.2,0.1-0.4v0C106.9,95.9,106.8,96,106.7,96.1
		c-0.2,0.1-0.4,0.1-0.6,0.3C106.3,96.2,106.6,96.2,106.7,96.1z M105.4,99.6c-0.7-0.1-0.8-0.1-1.5,0
		C103.8,98.8,105.3,99.1,105.4,99.6z M104.4,100.9c-0.2,0-0.5,0-0.7-0.1C103.9,100.9,104.2,100.8,104.4,100.9z M103.7,100.8
		C103.7,100.8,103.7,100.8,103.7,100.8c0.2-0.1,0.3-0.1,0.5-0.2C104,100.7,103.9,100.7,103.7,100.8z M102.1,29.3
		c0.4,0.1,0.5,0.4,0.8,0.5C102.6,30.2,102,29.8,102.1,29.3z M103.1,31.2c0,0.2-0.1,0.2-0.1,0.4c-0.1-0.1-0.2-0.2-0.3-0.4
		C102.8,31.2,102.9,31.2,103.1,31.2z M101,28.4c0.5,0,0.9-0.3,0.8,0.4C101.4,28.9,101,28.9,101,28.4z M101.9,30.4
		c-0.1-0.1-0.1-0.1-0.2-0.2c0,0,0.1,0,0.1,0C101.9,30.3,101.9,30.3,101.9,30.4z M101.2,102.2c0-0.3,0.3-0.3,0.7-0.3
		C101.9,102.4,101.3,102.4,101.2,102.2z M101.2,100.1c0.4-0.2,0.6,0.1,1.1-0.1c0.1,0.3,0.3,0.5,0.5,0.5c0.4,0,0.5-0.4,1.1-0.3
		c-0.4,0.2-0.6,0.6-1,0.8C102.4,100.3,101.3,101,101.2,100.1z M103.1,102.2c0.2-0.6,0.8,0.2,0.8,0.7
		C103.3,103.1,103.7,102.1,103.1,102.2z M103.9,101.7c0.1-0.2,0.8-0.5,1-0.1C104.9,102.1,104.1,101.7,103.9,101.7z M107.6,103.1
		c-0.2-0.5,0.4-0.3,0.4-0.7C108.2,102.4,108,103.2,107.6,103.1z M107.3,101.6c0,1.2-0.6,1.8-1.8,1.9c0.2-0.7-0.6-0.3-0.5-0.8
		c0.9,0,1-0.6,1.9-0.3c0.4-0.2-0.5-0.2-0.3-0.5c0.6-0.1,0.8-1.3,1.5-0.8C108,101.4,107.6,101.4,107.3,101.6z M107.4,99.8
		c0.9-0.2,0.8,0.5,1.5,0.5C108.7,101.3,107.8,100,107.4,99.8z M108.9,99.1c0.5,0,1.2-0.2,1.1,0.4C109.6,99.7,109,99.6,108.9,99.1z
		 M109.6,103.7c-0.2-0.6,0.6-0.7,0.8-0.4C110.4,103.7,110,103.7,109.6,103.7z M109.9,101.1c-0.3-0.2,0.1-0.3-0.1-0.7
		c0.5,0,0.5-0.5,0.8-0.7C110.9,100.3,109.9,100.6,109.9,101.1z M110.6,98.7c-0.7,0-1.5-0.1-1.6-0.7c0.5-0.5,1.1,0,1.8-0.3
		C110.5,98.1,110.7,98.4,110.6,98.7z M109.9,96.4c0.4-0.4,1.8-1.2,2.2-0.5C111.1,95.8,111,96.5,109.9,96.4z M111.8,97.5
		c0.1-0.3,0.6-0.4,0.8-0.1C112.4,97.7,112,97.8,111.8,97.5z M112.1,92.7c0.1,0.4,0.3-0.1,0.5,0c-0.2,0.5,0.4,0.3,0.3,0.7
		c-0.5,0.2-0.3-0.4-0.5-0.4c-0.4-0.1-0.2,0.4-0.4,0.5c0.2,0.4,0.5-0.2,0.7,0.1c-0.2,0.5-0.9,0.7-1.5,0.8c-0.3-1.1,0.8-1.7,1.1-2.6
		c0.6,0.6,0.5-0.4,1.2-0.4C113.4,92.3,112.4,92.1,112.1,92.7z M113.4,90.1c0.3,0,0.5,0.2,0.5,0.5C113.5,90.7,113.4,90.5,113.4,90.1z
		 M114,97.8L114,97.8c0.1-0.1,0.1-0.2,0.2-0.3C114.1,97.6,114.1,97.7,114,97.8z M114,92.4c-0.1-0.4,0.4-0.3,0.3-0.7
		c0.2,0,0.2,0.1,0.4,0.1C114.7,92.3,114.3,92.4,114,92.4z M115.5,96.9c-0.3,0.1-0.6,0.5-0.8,0.3c0-0.3,0.2-0.5,0.5-0.5
		C115.3,96.8,115.3,96.9,115.5,96.9z M114.8,88.8c-0.1-0.5,0.5-0.2,0.8-0.3C115.6,88.8,115.1,88.8,114.8,88.8z M115.5,86.7
		c0.1-0.4,0.9-0.6,1.2-0.4C116.5,86.7,116,86.7,115.5,86.7z M116.8,92.8c0.5-0.5-0.4-0.8,0-1.4c0.5,0.2,1.2,0.2,1.1,1
		C117.2,92.1,117.3,92.6,116.8,92.8z M117.1,81.8c0.2-0.2,0.8-0.2,1,0C118.1,82.4,117.1,82.4,117.1,81.8z M117.8,80.6
		c0.3,0.2-0.1,0.7-0.5,0.5C117.1,80.6,117.8,81,117.8,80.6z M117.9,80.5c-0.2-0.3-0.7-0.2-0.7-0.7c0.3,0,0.5,0,0.8,0
		C118.1,80.1,117.8,80.1,117.9,80.5z"/>
	<path class="st1" d="M95.2,113.5c-0.8-0.1-1.1,0.3-1.5,0.5c0.3,0.3,0.3-0.2,0.7-0.1c0,0.1,0.1,0.2,0.1,0.3
		c-0.2,0.1-0.3,0.3-0.3,0.7c0.6-0.1,1.1-0.3,1.2-0.8C95.2,114,94.9,113.8,95.2,113.5z"/>
	<path class="st1" d="M89.2,8.3C89,8.1,88.1,7.8,88,8c0.2,0,0.2,0.2,0.3,0.3c-1.3,0.2-1.8-0.4-2.9-0.4c-0.1,0.6,0.7,0.3,1.2,0.4
		c1,0.5,2.9,0.8,3.9,0.8c-0.2,0-0.1-0.2-0.1-0.4c-0.7-0.1-1,0.3-1.6-0.3C88.9,8.4,89.2,8.4,89.2,8.3z"/>
	<path class="st1" d="M25.6,9.1c-0.9,0.4-2,1.3-1.9,2.3C23.7,10.5,25.5,10.4,25.6,9.1z"/>
	<path class="st1" d="M34,13.6c-0.4-0.4-0.4,0.3-1,0.1c-0.2-0.6-0.8-0.9-0.7-1.8c-0.5-0.1-0.6,0.3-1,0.4
		C31.8,13.1,33.3,14.5,34,13.6z"/>
	<path class="st1" d="M28.3,15.2c0.6-0.2,0.7-0.1,1.2-0.3C29,14.7,28.5,14.7,28.3,15.2z"/>
	<path class="st1" d="M17,17.8c0.1-0.8,0.4-1.4,1.2-1.5c0,0.3-0.4,0.9-0.1,1c0.3-0.5,0.7-1.7,0.5-2c-0.4,1.1-1.7,1.1-2.3,1.9
		C16.5,17.5,16.7,17.7,17,17.8z"/>
	<path class="st1" d="M109.5,21.5c-0.4-0.1-1.3,0-1.9,0.1c0.5,1.5,2.6,1.6,4.2,2c-0.1,0-0.2,0-0.3,0c0.2,0.7,0.6-0.5,1-0.5
		c-0.5-0.5-1.2,0.1-1.5-0.5c0-0.3,0.4-0.1,0.4-0.4c-0.6-0.3-1.8-1.5-2.5-1C109.2,21.3,109.6,21.1,109.5,21.5z M110.3,21.6
		c-0.1,0.7-1,0.6-1.4,1c-0.1-0.2-0.5-0.2-0.7-0.4C109.1,22.2,109.5,21.2,110.3,21.6z"/>
	<path class="st1" d="M21.9,30.5c-0.3-0.2-0.2,0-0.5,0c0,0.2,0,0.4-0.1,0.4c-0.3-0.1-0.5-0.2-0.8-0.3c0,0.4-0.1,0.3-0.4,0.7
		c0.2,0.1,0.3,0.2,0.4,0.4C21.1,31.5,21.4,30.9,21.9,30.5z"/>
	<path class="st1" d="M117.5,36.5c0.3-0.3,0.1-0.6,0-1c0.2,0,0.2-0.2,0.4-0.1c0.3,0.1-0.1,0.8,0.4,0.7c-0.1-0.6-0.6-0.8-0.3-1.5
		c-0.2,0-0.2-0.2-0.3-0.3c-0.8,0.1-0.5,0.3-1.1-0.1C116.8,35.1,116.9,36.1,117.5,36.5z"/>
	<path class="st1" d="M11.6,37.7c-0.5,0.1-0.6,0.1-0.4,0.5c-0.2,0-0.3-0.1-0.4-0.1c0,0.3,0.3,0.4,0,0.7c0.5,0.2,1.2,0,1.8,0.1
		c0-0.2,0-0.4,0-0.5c-0.6,0.1-0.9-0.1-0.8-0.7c0.8,0,0.7-0.7,1.4-0.4c0-0.3,0-0.7-0.3-0.7c-0.1,0.2-0.1,0.3-0.3,0.4
		c-0.1-0.4,0.2-0.4,0.1-0.8c-0.2-0.1-0.4-0.2-0.7-0.1c0,0.7-0.5,0.8-0.8,1.2c0-0.2-0.2-0.1-0.3-0.3c0-0.2,0.2-0.2,0.1-0.4
		c-0.2,0-0.3-0.1-0.4-0.1c-0.1,0.3-0.4,1-0.1,1.2C10.7,37.5,11.4,37.1,11.6,37.7z"/>
	<path class="st1" d="M4.8,41.6c-0.1,0-0.3,0-0.4,0c-0.2,0.9-0.3,1.4-0.5,2c0.5-0.1,0.7-0.5,1.4-0.5C5.3,42.4,4.5,42.5,4.8,41.6z"/>
	<path class="st1" d="M9.4,46.4c-0.1-0.6-0.9-0.6-1.1-1.1c-0.2,0.2-0.2,0.5,0,0.7C8.9,45.7,8.8,46.4,9.4,46.4z"/>
	<path class="st1" d="M1.4,62.6c0.1,0,0.2,0,0.1,0.1c0,0.2-0.2,0.1-0.3,0.3c0.3,0.3,0.3,0,0.7,0C2,62.7,1.4,62.4,1.4,62.6z"/>
	<path class="st1" d="M6.3,85.4c0,0.2,0,0.4,0.1,0.5c0.3,0,0.8-0.5,0.5-0.7C6.8,85.7,6.7,85.3,6.3,85.4z"/>
	<path class="st1" d="M13.2,96.5c-0.4-0.3-0.7,0.7-1.1,0c0,0.4,0.3,0.4,0.3,0.8c-0.1,0-0.2,0.1-0.3,0.1c-0.4,0-0.7-0.2-0.8-0.5
		c-0.2-1.2-0.7-2.3-1.5-3.3c0.5,2.6,2.1,4.7,2.9,7.1c-0.2,0-0.4,0-0.5,0.1c-0.1,0.8,0.9,1.2,0.5,1.9c-0.1-0.7-0.6-0.9-0.8-1.5
		c-0.5,0.3-0.6,0-0.8,0.4c0.6,0.9,1.1,1.9,1.9,2.6c0.4,1.3,0.8,1.8,1.9,2.3c0-0.4-0.7-0.7-0.3-1.1c0.1,0.1,0.7,0.5,1,0.1
		c-0.3-0.1-0.8-0.7-0.4-1c0.4,0.6,1.1,1,1.4,1.8c0.6-0.1,0.8,0.2,1.1,0.4c0.3-0.5-0.1-0.7-0.3-1.1c0.5,0.1,0.7-0.1,0.8-0.4
		c-0.4-0.2-0.6-1.2-1.2-0.7c0-0.2-0.1-0.3-0.1-0.4c0.3-0.3,0.7-0.5,1.4-0.4c0,0.6,0.5,0.6,0.1,1.1c0.4,0.1,0.4,0.4,1,0.3
		c-1-1.5-1.7-2.6-2.7-4.1c-0.3-0.2-0.4,0.5-0.5,0.1c-0.1-0.5,0.5-0.2,0.4-0.7c-1.4,0.2-1.4-1.1-2.5-1.4c0.7-0.4-0.4-1,0-1.5
		c0.4,0.1,0.5,0.5,1,0.5c-0.2-0.9-0.5-0.8-0.1-1.8c-0.5-0.3-0.7,0.7-1.1,1c-0.4-0.3-0.8,0.2-1-0.4C12.8,96.9,13.4,97.1,13.2,96.5z
		 M17.4,104.7c0.1,0.5-0.5,0.3-0.3,1c-0.2,0-0.2-0.2-0.4-0.3C16.9,105,16.9,104.6,17.4,104.7z M17,102.5c0.1,0.3-0.4,0.5,0,0.5
		c-0.1,0.3-0.4,0.5-0.8,0.5c0-0.5-0.3-0.6-0.8-0.5C15.9,102.6,16.4,103,17,102.5z M12.8,101c0.3,0,0.5,0.2,0.5,0.5
		C13.1,101.8,12.7,101.5,12.8,101z M14.2,105.2c0-0.2-0.2-0.3-0.1-0.5c0.2,0,0.4,0,0.5,0C14.6,105,14.5,105.3,14.2,105.2z
		 M14.8,102.6c-0.4,0-0.6,0-0.5-0.4C14.7,102.2,14.9,102.3,14.8,102.6z M14.4,103.7c-0.3,0.1-0.5-0.4-0.5,0c-0.7-0.3-0.1-1-0.4-1.6
		C14.1,102.4,14.4,102.9,14.4,103.7z M13.9,101.1c-0.3,0-0.6-0.1-0.5-0.5C13.7,100.6,13.9,100.8,13.9,101.1z M13.1,97.6
		c0.2,0.1,0.1,0.4,0.5,0.3c0,0.7-0.9,0.5-0.7,1.5c-0.3-0.5-0.9-0.7-1-1.4C12.3,97.8,13,98.5,13.1,97.6z"/>
	<path class="st1" d="M14,95.8c0,0.1,0.2,0.1,0.1-0.1c-0.3,0-0.4,0.3-0.7,0c0,0.3,0,0.5,0.3,0.5C13.8,96.1,13.9,95.9,14,95.8z"/>
	<path class="st1" d="M29.8,113c-0.4-0.1-0.5-0.5-0.1-0.7c-0.7,0-1.8,0-2.6,0.4c-0.1-0.4,0-0.4-0.3-0.8c0.6,0.2,1.5,0,2.2-0.1
		c-0.2-0.4-0.2-0.9-0.5-1.1c0,0.2,0,0.4-0.1,0.4c-0.5-0.1,0.1-0.5-0.4-0.5c0,0.2,0,0.4-0.1,0.4c-0.2-0.1-0.6-0.1-0.7-0.3
		c0.2-0.3,0.7-0.2,0.5-0.8c-0.2-0.2-1-0.2-1.2,0c-0.1-0.9-2.2-1.7-3.1-1.4c0.4-0.9-0.8-0.9-1.4-1.2c0,0.3,0.3,0.4-0.1,0.5
		c-0.7-0.4-1.6-0.6-2-1.2c0-0.5,0.8-0.2,0.8-0.7c-0.5,0-0.5,0-1.2-0.3c-0.2,0.4-1,0.7-1.5,0.4c0,0.6,1.8,0,1.1,0.8
		c0.3,0.1,0.3-0.2,0.7-0.1c0,0.5,0.5,0.5,0.7,0.8c-0.2,0-0.3-0.1-0.4-0.1c-0.1,0.7,1.2,0.7,0.8,1.2c-1.1-0.6-1.8-1.5-3-1.5
		c0.8,0.9,2.5,1.6,2.9,2.5c-1.1-0.1-1.4-1-2.3-1.4c-0.6,0.6-1.6-0.7-2.3-1c0,0.2,0,0.5-0.3,0.4c1.8,3.3,6.4,3.9,9,6.4
		c0.6-0.1,0.9,0.1,1.2,0.3c-1.6-1.4-3.7-2.4-5.7-3.4c0.1-0.4,0.6-0.5,1-0.7c0.1-0.3-0.6-0.5-0.1-0.7c0.5,0.2,0.8,0.5,1.2,0.8
		c-0.4,0.2-0.1,0.3-0.1,0.8c0.3,0.1,0.9,0.7,1.2,0.3c-0.4,0.1-0.8-0.3-0.5-0.4c0.5,0.3,0.8,0,1.2-0.1c0.1,0.4-0.2,0.4-0.1,0.7
		c1.1,0.2,1.9,0.8,2.6,1.4c-0.5,0.4-0.6-0.4-1.2-0.3c0.1,0.6,1.4,0.7,1.6,0.7c-0.2,0-0.2-0.2-0.3-0.3c0.5,0,0.8,0.2,1,0.5
		c-0.1,0-0.3,0-0.4,0c0,0.7,1.1,0.7,1,0.1c0.5-0.1,1,0.9,1.4,0.1c-0.6-0.3-1.1-0.8-1.8-1.1C28.7,113,29,113,29.8,113z M17.6,109.3
		c0.1-0.3,0.5-0.3,1-0.3C18.5,109.5,17.8,109.5,17.6,109.3z M19.7,109.7c-0.5-0.1-0.8,0-0.7,0.5c-0.2-0.1-0.2-0.4-0.3-0.7
		c0.3,0.1,0.3-0.2,0.3-0.4C19.3,109.4,19.8,109.2,19.7,109.7z M23.6,109.7c-0.4,0-0.6,0-0.5-0.4C23.4,109.3,23.7,109.3,23.6,109.7z
		 M24.5,109.2c0.2,0,0.5,0,0.7,0c-0.1,0.1-0.1,0.2-0.1,0.4C24.8,109.5,24.5,109.5,24.5,109.2z M25.7,111.5c0.2-0.4,0.6,0.4,0.8,0
		c-0.2-0.3-0.9-0.8-1.4-0.4c-0.2,0-0.1-0.1,0-0.1c-0.1-0.4-0.4-0.6-0.4-1.1c0.5,0.2,0.2,0.7,1,0.4c0.2,0.8,1.2,0.9,1.6,1
		c0,0.2,0,0.2,0.1,0.3C27,112,26.2,111.9,25.7,111.5z"/>
	<path class="st1" d="M24.6,107.4c-0.2-0.2-0.7-0.8-1-0.4C24,107,24.9,107.7,24.6,107.4z"/>
	<path class="st1" d="M108.5,107.5c0.5,0.1,1.1-0.5,0.8-0.7C109.1,107.2,108.6,107.1,108.5,107.5z"/>
	<path class="st1" d="M4.1,113.5c0-0.5-0.8-0.3-0.8-0.8c0.2,0,0.4,0,0.5,0c-0.5-0.7-0.9-1-1.2-1.6c0.2,0,0.4,0,0.5,0
		c0-0.6-0.5-0.4-0.8-0.3c-0.2-0.8-1.7-1.2-1.1-1.9c-0.6,0.1-0.8-0.7-1.2-0.3c1.1,1.6,2.3,3.2,3.4,4.8C3.8,113.3,3.8,113.6,4.1,113.5
		z"/>
	<path class="st1" d="M5.9,112.4c-0.5-0.3-1.7-0.6-1.5-1.1c0.3,0.1,0.4,0.3,0.8,0.3c0.2-0.3-0.5-0.4-0.1-0.5c0.7,0.4,1-0.4,1.6,0
		c0-0.4-0.3-0.4-0.3-0.8c0.3,0,0.4-0.2,0.8-0.1c0-0.3-0.2-0.3-0.3-0.4c-0.4,0.2-1.1,0.9-1.6,0.3c0.1-0.9-0.8-0.7-0.5-1.4
		c-0.7,0.2-0.6-0.4-1.2-0.3c-0.1,0.2-0.2,0.3-0.3,0.5c0.4,0.4,1,0.6,1.4,1.1c-0.9-0.2-1.5-0.8-1.9-1.5c0.2,0,0.4,0,0.5,0
		c-0.2-0.9-0.8,0.1-1.5-0.3c0.8,1.6,2,2.6,2.6,4.4C5,112.7,5.5,113.3,5.9,112.4z M4.1,110.5c0.4,0,0.7,0,0.7,0.4
		C4.5,110.8,4,111,4.1,110.5z"/>
	<path class="st1" d="M105.3,109.2c-0.7,0.7-1.3,1.6-1.9,2.5c0.2,0,0.5,0,0.7,0c0.2-0.1,0-0.7,0.4-0.5c-0.2,0.2-0.2,0.5,0,0.7
		c0.3,0,0.5,0,0.7-0.1c0-0.4-0.3-0.5-0.4-0.8c0.3-0.4,0.5-0.9,1.1-1.1C105.8,109.4,105.6,109.2,105.3,109.2z"/>
	<path class="st1" d="M6.3,112.2c0.1,0.4,0.6,0.5,1.1,0.5C7.3,112.2,6.4,112.5,6.3,112.2z"/>
	<path class="st1" d="M9.7,113.1c1.3,0.2,1.9-0.4,2.7-0.8C11.5,112.8,10.1,112.1,9.7,113.1z"/>
	<path class="st1" d="M35,116.4c-0.1,0.2-0.2,0.3-0.3,0.5c0.3,0,1.2,0.5,1,0.3c-0.5-0.3,0-0.4,0.1-0.7
		C35.6,116.4,35.3,116.4,35,116.4z"/>
	<path class="st1" d="M86.5,126.2c-0.4-0.3-1.1-0.1-0.5-0.7c-0.5,0.2-0.7,0.7-1.4,0.7c0.5,0.2,0.8-0.1,1.1,0.1
		c-0.8,0.5-1.6-0.2-2.2-0.4c-1,0.9-2.4,0.8-4.1,1.1c0-0.2,0-0.5-0.3-0.4c-2,2-5.9-0.2-8.4,1.5c0.7,1.3,3.8,1.4,4.9,0.4
		c1.1-0.3,2.1,0,3.4,0.4c0-0.3-0.2-0.3-0.3-0.4c0.4-0.7,1.2-0.4,2-0.5c0.1,0.3,0,0.6,0.4,0.5c0.1-0.4-0.3-0.4,0-0.7
		C83,127.3,85.2,127.2,86.5,126.2z M73.3,128.9c0.1,0,0.2,0,0.3,0c0,0,0,0,0,0C73.6,128.9,73.5,128.9,73.3,128.9z"/>
	<path class="st1" d="M7.4,38.4c-0.2-0.8,0.7-1,0.5-2.2c0.3,0,0.6-0.1,0.7-0.4c-0.4,0-0.1-0.6-0.7-0.4c-0.1,0.9-1.2,1.6-1.1,2.3
		C7.4,37.2,6.6,38.6,7.4,38.4z"/>
	<path class="st1" d="M72.3,3.4c0.7,0,1.9-0.2,2.7-0.5c-0.5-0.5,0.3-0.5,0-1c-0.4-0.1-0.6,0.1-1,0.1c0,0.2,0,0.4,0.1,0.5
		C73.7,3.2,72.5,2.4,72.3,3.4z"/>
	<path class="st1" d="M23.3,30.8c-0.6,0.2-1.5-0.4-1.5,0.7c0.3,0,0.4,0.1,0.4,0.4c0.4-0.1,0.4-0.1,0.8,0
		C23,31.3,23.6,31.1,23.3,30.8z"/>
	<path class="st1" d="M6.1,108.6c-0.2,0-0.5,0-0.5,0.1c0.5,0.5,1.2,0.4,2,0.3c-0.1-0.7-1-0.4-1-1.2c-0.4,0-1-0.1-1.2,0.1
		C5.3,108.5,6.1,108.2,6.1,108.6z"/>
	<path class="st1" d="M16.3,110.1c0.2,0.7,0.9,1,1.6,1.2c0.2-0.4-0.3-0.5,0.3-0.8C17.4,110.6,17.2,110,16.3,110.1z"/>
	<path class="st1" d="M64,0.7c-0.5-0.5-1.2-0.1-1.4,0.5C63.3,1.2,64,1.3,64,0.7z"/>
	<path class="st1" d="M61.4,3.9c-0.4-0.4-1.3-0.2-1.5,0.4c0.2,0.4,0.8-0.4,0.7,0.4C61,4.6,61.3,4.4,61.4,3.9z"/>
	<path class="st1" d="M53.2,5c0.4,0.1,0.3-0.4,0.8-0.3c0.5,0.5,0.6,1,0.5,1.6c0.2,0,0.4,0,0.5,0c-0.1-0.5,0.5-1.5,1.1-0.7
		C56,5.7,56.1,6,56,6.1c0.2,0,0.5,0,0.7,0c0-0.2,0-0.5,0-0.7c0.5,0.1,0.5-0.4,0.8-0.5c0.1,0.4-0.1,0.5-0.1,0.8
		c0.4-0.2,1.1,0,1.2-0.5C57.9,5,58.2,5,58.3,4.3C57.9,4.4,58,4,57.6,4.1c-0.4,0.6-1.5,1-2.5,0.8c0.4-0.2,0.6-0.4,0.5-1.1
		C54.9,4.1,53.1,4.2,53.2,5z"/>
	<path class="st1" d="M78.2,5c-0.1-1.3-2.1,0-2.9,0.1C76.2,5.1,77.4,5.3,78.2,5z"/>
	<path class="st1" d="M74.2,6.4c0,0.2,0,0.4,0,0.5c0.8,0.2,0.2-0.3,0.7-0.3c0.1,0.7-0.9,0.3-1,1c0.8,0.5,1.9-0.2,2.9-0.4
		c-0.3-0.8-0.7-0.3-1.4-0.1c-0.1-0.2-0.4-0.4-0.1-0.7C74.8,6.3,74.8,6.3,74.2,6.4z"/>
	<path class="st1" d="M84.8,7.6c-0.4,0-0.6-0.2-1.1-0.1c0-0.2,0.2-0.2,0.3-0.4c-0.2,0-0.4,0-0.5,0c0.1,0.4-0.2,0.5-0.3,0.8
		C83.6,8.1,84.7,8.1,84.8,7.6z"/>
	<path class="st1" d="M28.3,15.4c-0.9-0.1-1.3,0.4-1.4,1.1C27.7,16.4,28.1,16,28.3,15.4z"/>
	<path class="st1" d="M30,17.5c0.7-0.1,1.2,0.1,1.5-0.7C30.8,16.7,29.8,16.6,30,17.5z"/>
	<path class="st1" d="M13.5,29.1c0.5,0.1,0.6,0.7,1.1,0.8c0.7-0.4,0.3-2.3,1.5-2.6c-0.2-0.5,0.2-1.3-0.4-1.6
		C15.9,27.5,14.4,28.1,13.5,29.1z"/>
	<path class="st1" d="M13.9,31.4c0-0.2-0.1-0.3-0.1-0.4c-0.3,0-0.4,0.2-0.8,0.1c0,0.2,0,0.4,0,0.5c0.4,0.1,0.4-0.2,0.8-0.1
		c0,0.3,0.2,0.4,0.1,0.8c-0.2,0.1-0.3,0.2-0.5,0.3c0-0.4-0.6-0.2-1-0.3c-0.2,0.8,0.3,0.9,0.7,1.1c0.1,0.5-0.3,0.8,0,1.1
		c-0.1,0-0.3,0-0.4,0c-0.1,0.5,0.1,0.7,0.4,0.8c0.2-0.5,1-0.8,0.7-1.5c0.3,0,0.5,0,0.5-0.3c-0.2,0-0.3-0.1-0.4-0.3
		c0.6-0.9,1-2,1.5-3C14.5,29.8,14.4,31.1,13.9,31.4z"/>
	<path class="st1" d="M22.7,32.9c-0.7,0.3-0.4,0-0.4-0.7c-0.4-0.2-0.5,0-1,0c0.1,0.4,0,1.1,0.4,1.2C21.9,32.9,22.7,33.7,22.7,32.9z"
		/>
	<path class="st1" d="M8.9,35.5c0.3-0.7,0.9-1.2,1.1-2c-1.1-0.3-0.6,1.1-1.4,1.1C8.6,34.9,8.5,35.5,8.9,35.5z"/>
	<path class="st1" d="M8.7,40.7c0,0.5,0.3,0.9,0.7,1.5c0,0.4-0.7,0.1-0.8,0.4c0.2,0.2,0.5-0.2,0.5,0.4c-0.4,0.5-0.7,1.1-0.8,1.8
		c0.2,0.3,0.4,0.5,0.8,0.5c0-0.6-0.2-0.9-0.3-1.5c0.7-0.1,0.8,0.3,1.1,0.5c0.7-0.6-0.3-0.7-0.4-1.2c0.1-0.7,0.6-0.8,0.5-1.6
		C9.6,41.2,9.2,40.9,8.7,40.7z"/>
	<path class="st1" d="M8.3,47.8c0-0.3,0-0.5,0-0.8c-0.7-0.1-0.8-0.7-1.5-0.4c-0.1,0.4,0.4,0.2,0.4,0.5c-0.5,0.1-0.7,1.1-0.3,1.4
		C7,47.8,7.5,47.6,8.3,47.8z"/>
	<path class="st1" d="M1.2,52.1c0-0.5,0.3-0.6,0.4-1c0.4,0,0.1,0.5,0.5,0.4c-0.3-0.7-0.5-1.2-0.1-1.9c-0.2,0-0.3-0.2-0.5-0.1
		C1.6,50.5,0.7,51.2,1.2,52.1z"/>
	<path class="st1" d="M2.7,52c0.1-0.3,0.2-0.3,0.4-0.1C3,52.2,2.8,52.9,3,53.2c0.9,0.1-0.1-1.7,0.8-1.6c0-0.5,0.1-1.1-0.1-1.4
		c-0.4,0-0.7,0.2-0.7,0.5c0,0.2,0.6,0.4,0.1,0.5c-0.3,0-0.1-0.4-0.4-0.4C2.6,51,2.4,51.9,2.7,52z"/>
	<path class="st1" d="M119.6,49.9c-0.4-0.1-0.4,0.2-0.7,0.1c-0.4-0.5,0.3-1.4-0.3-1.8c-0.6,0.8-0.5,1.9,0,2.6
		c-0.8,0.1-0.4,1.8,0.1,1.8c0.3-0.1,0-0.8,0.3-0.8c0.1,0.3,0,0.6,0.4,0.5C119.8,51.4,119.7,50.9,119.6,49.9z M119.1,51.2
		c-0.5-0.2-0.4-0.4-0.3-1C119.4,50.2,119.3,50.8,119.1,51.2z"/>
	<path class="st1" d="M1.6,53.9c0.2-0.5-0.4-0.3-0.4-0.5c0-0.2,0.1-0.7-0.3-0.5c-0.1,0.2-0.2,0.4-0.1,0.7
		C1.2,53.5,1.2,53.9,1.6,53.9z"/>
	<path class="st1" d="M1.8,59.3C1.5,59,1.3,58.6,1.2,58c0.1-0.4,0.7-0.4,0.7-1c-0.1-0.2-0.2-0.4-0.1-0.7c-0.4-0.1-0.4,0.2-0.8,0.1
		c-0.1,0.6,0.2,0.8,0.1,1.4c-0.2,0-0.4,0-0.5,0C0.5,58.8,1,59.2,1.8,59.3z"/>
	<path class="st1" d="M123.5,82.8c0,0.5-0.3,0.9,0.1,1.1c0-0.3,0.5-0.3,0.4-0.7C123.9,83,123.8,82.7,123.5,82.8z"/>
	<path class="st1" d="M120.4,87.1c0.6,0.3-0.2,1.1-0.1,1.8c0.2,0,0.4,0,0.5,0c-0.2-0.6,0.3-0.5,0.5-0.7c-0.2-0.8,0.1-0.6,0.1-1.4
		C121,86.8,120.6,86.9,120.4,87.1z"/>
	<path class="st1" d="M11.8,111.1c-0.1-0.4-1-0.6-0.7-1c0.2,0.2,0.8,0.1,0.7,0.7c1.4-0.6,1.6,1.2,2.6,0.4c-0.6-0.2-1-0.7-1.2-1.2
		c0.3-0.1,0.9,0.1,1.4-0.1c0.1-0.3-0.2-0.3-0.1-0.7c-0.2,0.5-1.7,0.2-2.2,1.1c-0.2-0.2-0.7-0.2-0.5-0.8c0.6,0.1,1.3-0.6,2.2-0.7
		c-0.7-1.4-2.3-1.7-3-3.3c-0.3-1-0.8-1.8-1.5-2.5c0.1,0.5,0.4,0.9,0.5,1.4c-0.5-0.1-1.3,0.2-1.2-0.4c-0.1-0.3,0.6,0.1,0.4-0.4
		c0.1-0.4-0.3-0.3-0.3-0.5c-0.4,0.1-0.6,0.3-0.7,0.7c0.6-0.1,0.3,0.8,0.5,1.1c0.6-0.1,0.8,0.2,1,0.5c-0.3,0-0.2,0.4-0.4,0.4
		c-0.3-0.1-0.3-0.3-0.7-0.3c-0.2,0.3,0.4,0.6,0,0.7c-0.2-0.2-0.7-0.9-1.1-0.4c0.4,0.6,0.8,1.1,1.1,1.8c-0.4-0.1-0.4-0.6-0.8-0.7
		c-0.3,0.1-0.6,0-0.5,0.4c0.6,0.6,2,1,3,0.8c0-0.1,0-0.3,0-0.4c-0.2-0.3-0.5-0.3-0.7-0.5c0.4-0.2,0.6,0.2,0.8-0.3
		c-0.5,0-0.8-0.1-1-0.4c0.4,0.1-0.1-0.6,0.3-0.5c0.2-0.3,0.5,0.2,0.8-0.1c0.1-0.5-0.8-0.6-0.4-1c0.3,0.4,0.8,0.7,0.8,1.5
		c-0.2-0.1-0.4-0.2-0.7-0.1c0.1,0.8,0.9,0.2,1.2,0.7c-0.1,0.5-0.7-0.4-0.5,0.3c0,0.4,1.4,0.2,1,0.7c-0.5-0.3-0.8,0-1.4-0.4
		c-0.1,0.5,0.3,0.4,0.3,0.8c0.7,0,1.3,0.1,1.4,0.7c-0.7,0.3-1.9-0.5-2.3,0.1c0.3,0.1,0.9-0.2,1,0.1c-0.6,0,0,0.5,0.1,1
		c-0.6,0.1-0.9-0.3-1.2-0.5c-0.7,0.5-1.7-0.1-2.2,0.5c0.1,0.1,0.5,0,0.4,0.4C9,110.1,10.5,110.8,11.8,111.1z"/>
	<path class="st1" d="M106.8,107.8c0-0.3,0.5-0.1,0.5-0.3c-0.1-0.3,0.2-0.9-0.1-1c-0.3,0.6-1.8,1.8-0.8,2.3c0-1,1.8-0.2,1.9-1.1
		C107.5,107.8,107.2,108.1,106.8,107.8z"/>
	<path class="st1" d="M17.8,113.3c-1-0.3-2.1-0.4-3.3-0.5c0,0.2,0,0.5,0,0.7c1.5,0.2,2.7,0.1,3.7,1.1c-0.6-0.1-1.4,0.4-1.8-0.1
		c0.3,0,0.6-0.1,0.8-0.3c-0.6-0.3-1.5,0.2-2,0.4c1.2,0.1,1.4,1,2.9,0.5c0-0.5,1.1-0.7,0.8-1.1C18.6,114.2,17.3,113.9,17.8,113.3z"/>
	<path class="st1" d="M100.6,114.5c-0.4,0.2-0.5,0-1,0c0.2,0.7-0.3,0.8-0.4,1.2C99.9,115.5,100.5,115.2,100.6,114.5z"/>
	<path class="st1" d="M93.5,116.5c-1.1-0.1-1.6,0.4-2.2,0.8C92.2,117.7,93.4,117.4,93.5,116.5z"/>
	<path class="st1" d="M37.7,122.7c-0.2,0.1,0.1,0.4-0.1,0.7c0.7,0.4,1.8,0.2,2.5-0.3C39.2,123.1,38.4,122.4,37.7,122.7z"/>
</g>
</svg>
