<?xml version="1.0" encoding="utf-8"?>
<!-- Generator: Adobe Illustrator 19.2.1, SVG Export Plug-In . SVG Version: 6.00 Build 0)  -->
<svg version="1.1" id="图层_1" xmlns="http://www.w3.org/2000/svg" xmlns:xlink="http://www.w3.org/1999/xlink" x="0px" y="0px"
	 viewBox="0 0 151.4 110.8" style="enable-background:new 0 0 151.4 110.8;" xml:space="preserve">
<style type="text/css">
	.st0{fill:#FFFFFF;}
	.st1{fill-rule:evenodd;clip-rule:evenodd;fill:#231815;}
	.st2{fill:#231815;}
	.st3{fill-rule:evenodd;clip-rule:evenodd;}
</style>
<g id="污点矢量包_10">
</g>
<g id="污点矢量包_09">
</g>
<g>
	<path class="st2" d="M91.9,2.2c0.3,0.2,0.6-0.2,0.7-0.4c-0.6,0.3-0.4-0.6-0.8-0.5C92,1.7,91.8,1.8,91.9,2.2z"/>
	<path class="st2" d="M103.5,0.5c0-0.3-0.8-0.4-0.7,0C102.9,0.7,103.3,0.5,103.5,0.5z"/>
	<path class="st2" d="M101.3,1.5c-0.1-0.2,0.1-0.3,0.2-0.4c-0.5,0.1-0.7,0.4-1,0.1c-0.1,0.3,0,0.5,0.2,0.8
		C101.1,1.9,100.7,1.2,101.3,1.5z"/>
	<path class="st2" d="M106,0.8c0-0.3-0.1-0.6-0.4-0.6C105.5,0.4,105.5,1,106,0.8z"/>
	<path class="st2" d="M99.6,1.9c0.1,0,0.1,0,0.2,0c0-0.1,0-0.1,0.1-0.1c0-0.1,0-0.2,0-0.2c-0.1,0-0.1,0-0.1-0.1c-0.1,0-0.1,0-0.2,0
		c0,0.1,0,0.1-0.1,0.1c0,0.1,0,0.2,0,0.2C99.6,1.8,99.6,1.8,99.6,1.9z"/>
	<path class="st2" d="M105.3,0.7c-0.2,0-0.1-0.3-0.3-0.3c0.2,0.5-0.1,0.3-0.4,0.3c-0.1,0.1-0.1,0.3,0,0.6C105,1.2,105.3,1,105.3,0.7
		z"/>
	<path class="st2" d="M89.8,4.2c-0.1-0.5,0.8-0.4,0.8-0.9c-0.8,0.3-1.3,0.5-1.9,0.5C88.8,4.4,89.4,3.8,89.8,4.2z"/>
	<path class="st2" d="M102.6,1.4c0-0.4-0.3-0.3-0.6-0.2c0,0.2,0.1,0.3,0.1,0.5C102.4,1.6,102.3,1.4,102.6,1.4z"/>
	<path class="st2" d="M99.1,2.4c0.1-0.1,0.1-0.3,0-0.6C98.7,1.8,98.8,2.4,99.1,2.4z"/>
	<path class="st2" d="M100.1,2.6c0-0.2,0.1-0.2,0-0.5c-0.1,0-0.2,0-0.3,0.1C99.8,2.4,99.9,2.6,100.1,2.6z"/>
	<path class="st2" d="M91.7,5.1c-0.3-0.5-0.1-0.9-0.4-1.2c0,0.1-0.1,0.1-0.2,0.2C91.5,4.7,91,5.1,91.7,5.1z"/>
	<path class="st2" d="M101.8,2.9c-0.1-0.4-0.2-0.7-0.4-0.9C101.4,2.4,101.3,3,101.8,2.9z"/>
	<path class="st2" d="M94.1,3.7c-0.3-0.2-0.5,0.1-0.5,0.3C93.9,4,94.2,4,94.1,3.7z"/>
	<path class="st2" d="M104.6,2.8c0.2-0.1,0-1-0.3-0.9c0,0.2-0.1,0.3-0.3,0.3C104.2,2.5,104.3,2.9,104.6,2.8z"/>
	<path class="st2" d="M106.4,2.3c0.1-0.2,0-0.7-0.4-0.6C105.8,1.9,106.2,2.1,106.4,2.3z"/>
	<path class="st2" d="M105.1,3.2c0.4-0.1,0.8-0.2,0.7-0.6c-0.3,0.3-0.5,0-0.8,0.3C105.1,3,105.1,3.1,105.1,3.2z"/>
	<path class="st2" d="M88.6,6.8c-0.1-0.3-0.3-0.4-0.4-0.5C87.9,6.6,88.1,7,88.6,6.8z"/>
	<path class="st2" d="M99.7,4.3c0.1,0.3,0.1,0.5,0.2,0.8C100.4,5,100,4.3,99.7,4.3z"/>
	<path class="st2" d="M94.6,5.4c-0.4,0-0.6,0.2-0.6,0.5C94.3,5.8,94.7,5.7,94.6,5.4z"/>
	<path class="st2" d="M102.9,4.2c0.2,0,0.4,0.2,0.7,0.1c0-0.3-0.1-0.4-0.2-0.5C103,3.8,102.9,4,102.9,4.2z"/>
	<path class="st2" d="M113.1,2.2c0,0.2,0.1,0.3,0.1,0.4C113.7,2.7,113.5,2.1,113.1,2.2z"/>
	<path class="st2" d="M88.2,7.2c0,0.4,0.3,0.3,0.6,0.2C88.8,7.1,88.5,7.1,88.2,7.2z"/>
	<path class="st2" d="M100.9,5.2c-0.1,0.2-0.3,0.3-0.1,0.7c0.3,0.1,0.3-0.5,0.4-0.2c0.2,0.3,0.1,0.2,0,0.5c0.3,0.2,0.3-0.1,0.7-0.1
		c0-0.2-0.1-0.3-0.1-0.4c-0.2,0-0.4,0.1-0.5,0c0.5-0.2,1.3-0.2,1.5-0.6c-0.7,0.3-0.7-0.4-1.2-0.3C101.7,5.2,101.3,5.2,100.9,5.2z"/>
	<path class="st2" d="M117.2,1.6c0.1,0.4,0.3,0.5,0,0.8c0.2,0,0.4-0.1,0.6-0.1c-0.2-0.4,0.2-0.4,0.1-0.7
		C117.7,1.4,117.5,1.5,117.2,1.6z"/>
	<path class="st2" d="M93.9,6.8c0-0.2-0.1-0.3-0.1-0.5c-0.2,0-0.2,0.2-0.4,0.2c0-0.1-0.1-0.3-0.3-0.2c-0.2,0.3,0.1,0.2,0.1,0.6
		C93.7,6.8,93.5,6.7,93.9,6.8z"/>
	<path class="st2" d="M118.6,2.2c0-0.2,0.1-0.2,0.2-0.4C118.4,1.5,118.1,2.2,118.6,2.2z"/>
	<path class="st2" d="M100.2,5.5c0,0.3,0.1,0.6,0.4,0.4C100.5,5.6,100.5,5.4,100.2,5.5z"/>
	<path class="st2" d="M100.5,6.3c-0.4-0.7-1.8-0.4-1.9,0.3C99.3,6.2,100,6.5,100.5,6.3z"/>
	<path class="st2" d="M94.2,7.8c0-0.3-0.1-0.6-0.4-0.6c0.2,0.4-0.6,0.2-0.6,0.5c0,0.1,0.1,0.3,0.1,0.4c0.3,0,0.4-0.5,0.7-0.2
		c-0.1,0.3-0.5,0.5-0.8,0.6c0-0.3-0.1-0.5-0.3-0.5c0,0.4-0.2,0.7-0.4,1c0.7-0.1,0.4,0.5,0.9,0.8c0.3-0.5-0.2-0.7-0.2-0.9
		c1.3-0.1,2.3-1.5,3.7-2C96.2,7,94.4,7.1,94.2,7.8z"/>
	<path class="st2" d="M109.6,4.3c-0.4-0.3-0.4,0.3-0.5,0.6C109.4,4.8,109.3,4.5,109.6,4.3z"/>
	<path class="st2" d="M105.3,6.2c-0.1,0-0.2-0.2-0.2-0.3c-0.5,0.1-0.7-0.1-0.7,0.4C104.5,6.4,105.1,6.5,105.3,6.2z"/>
	<path class="st2" d="M121.8,2.6c-0.2-0.2-0.6,0-0.7,0.2C121.4,3,121.7,2.8,121.8,2.6z"/>
	<path class="st2" d="M101.7,6.7c-0.5,0-0.5,0.3-0.6,0.6c0.3,0.2,0.4-0.1,0.8-0.2C101.9,6.9,101.7,6.9,101.7,6.7z"/>
	<path class="st2" d="M114.7,5.4c0.3,0.6,0.7,0,1-0.2c-0.3-0.5-0.1-0.7,0-1.2c-0.3,0.1-0.4-0.1-0.6,0.1
		C115.5,4.7,115.5,5.4,114.7,5.4z"/>
	<path class="st2" d="M90.5,9c-0.1,0-0.2,0-0.3,0.1c0.4,0.9-1.1,0.5-0.9,1.2c0.3-0.2,0.6,0.1,0.8,0.1c0.6-0.1,1.5-1,1.6-1.6
		c-0.5,0.1-0.4,0.7-1,0.8C90.4,9.4,90.5,9.3,90.5,9z"/>
	<path class="st2" d="M95.7,8.2c-0.5,0.3-1.8,0.8-2.1,1.6c0.8-0.1,1.3-0.6,2-1C95.2,8.4,95.6,8.6,95.7,8.2z"/>
	<path class="st2" d="M88,10.4c0,0.2-0.1,0.3-0.3,0.3c0,0.3,0.3,0.3,0.4,0.6c0.5-0.3,0.9-0.5,1.1-0.8c-0.2-0.1-0.5-0.3-0.7,0
		c-0.1-0.2-0.2-0.3-0.3-0.4c0.1-0.2,0.7-0.1,0.6-0.5c-0.5-0.2-0.8,0.5-1.3,0.3C87.4,10.5,87.8,10.2,88,10.4z"/>
	<path class="st2" d="M118.9,4.3c0,0.2-0.2,0.1-0.3,0.1c-0.1,0.2,0,0.4,0,0.7c0.5,0,1.3-0.3,1.8-0.9c0.1,0.3,0.1,0.7,0.4,0.6
		c0.4-0.4-0.1-0.7-0.3-1c-0.4,0.1-0.6,0.2-0.7,0.4c0.1,0,0.3,0,0.3,0.2c-0.4,0-0.4,0.3-0.9,0.3C119,4.4,119,4.2,118.9,4.3z"/>
	<path class="st2" d="M107.6,6.9c0.3,0,0.5-0.1,0.4-0.4C107.7,6.5,107.5,6.6,107.6,6.9z"/>
	<path class="st2" d="M92.7,9.6c-0.2,0.3,0.1,0.5,0.3,0.5C93.2,9.8,93,9.6,92.7,9.6z"/>
	<path class="st2" d="M92.2,9.9c-0.5,0.4-1.1,0.1-1.4,0.6c0.8-0.6,0.2,0.6,0.9,0.5c0.2-0.3,0-0.4-0.1-0.7
		C91.8,10.3,92.2,10.2,92.2,9.9z"/>
	<path class="st2" d="M115.3,5.8c-0.3,0.1-0.7,0.1-0.6,0.4C114.8,6.2,115.4,6.1,115.3,5.8z"/>
	<path class="st2" d="M101.5,8.6c-0.3,0.1-0.5,0.1-0.8,0.2C100.8,9.3,101.3,8.7,101.5,8.6z"/>
	<path class="st2" d="M93.5,10.3c-0.4,0.1-0.3,0.1-0.8,0.2c0,0.3,0.1,0.4,0.2,0.5C93.3,10.8,93.5,10.6,93.5,10.3z"/>
	<path class="st2" d="M113.4,6.5c-0.3-0.2-0.7,0.1-0.7,0.4C112.9,6.8,113.4,6.8,113.4,6.5z"/>
	<path class="st2" d="M97.7,10.1c-0.2-0.1-0.6,0-0.5,0.3C97.5,10.4,97.7,10.3,97.7,10.1z"/>
	<path class="st2" d="M116.5,6.9c0.1,0.3,0,1,0.3,1.1c-0.2-0.7,0.4-0.9,0.4-1.5C116.9,6.2,117,7,116.5,6.9z"/>
	<path class="st2" d="M114.8,7.7c-0.1-0.3-0.2-0.5-0.4-0.6c0.1,0.3,0,0.5-0.1,0.6C114,7.3,113.4,8,113.1,8
		C113.4,8.5,114.3,7.9,114.8,7.7z"/>
	<path class="st2" d="M110,9c0.1,0.6,0.7,0,0.9-0.2C110.4,8.9,110.4,8.8,110,9z"/>
	<path class="st2" d="M111.3,8.9c0.3,0.2,0.8-0.1,0.7-0.4C111.7,8.8,111.3,8.4,111.3,8.9z"/>
	<path class="st2" d="M116.1,7.7c0,0.3,0.1,0.5,0.3,0.5C116.5,8,116.4,7.6,116.1,7.7z"/>
	<path class="st2" d="M125.5,6.6c0-0.2-0.2-0.2-0.2-0.4c-0.3,0.2-0.6,0.2-0.9,0.2C124.5,6.9,125.1,6.6,125.5,6.6z"/>
	<path class="st2" d="M105.5,10.7c-0.4,0.1-0.8,0.2-1,0.4c0.3-0.2,0.2,0.3,0.5,0.2C104.9,10.8,105.6,11.3,105.5,10.7z"/>
	<path class="st2" d="M111.1,9.6c-0.2,0.1-0.8,0-0.6,0.4C110.8,10,111,9.9,111.1,9.6z"/>
	<path class="st2" d="M93.7,14.4c0.3,0,0.5-0.1,0.4-0.4C93.7,14,93.6,14.1,93.7,14.4z"/>
	<path class="st2" d="M95,14.5c0.5-0.2,0.8-0.4,1.2-0.2c0-0.2-0.2-0.2-0.2-0.4C95.5,14,95,14.1,95,14.5z"/>
	<path class="st2" d="M126,9.6c0.1-0.4,0.4-0.7,0.9-0.5c-0.7-0.3-1.5,0.3-2.2,0.6C125.2,9.9,125.7,9.3,126,9.6z"/>
	<path class="st2" d="M124.5,9.6c-0.3,0-1-0.1-1,0.3C123.7,10,124.3,9.8,124.5,9.6z"/>
	<path class="st2" d="M132,17.7c-0.1-0.5-0.5-0.4-0.7-0.1C131.5,17.6,131.7,17.8,132,17.7z"/>
	<path class="st2" d="M121.2,20.9c-0.2-0.3-0.1-0.3-0.1-0.7c-0.1,0-0.2,0-0.3,0.1C120.8,20.6,120.8,20.9,121.2,20.9z"/>
	<path class="st2" d="M134.7,73c0.3,0,0.5,0.1,0.8,0C135.5,72.6,134.6,72.8,134.7,73z"/>
	<path class="st2" d="M130.6,79.4c1.1-0.2,1.9,0.2,2.4-0.2c-0.6-0.3-1.4-0.2-2.1-0.4C131.2,79.2,130.5,79,130.6,79.4z"/>
	<path class="st2" d="M133.3,79.2c0.3,0,0.9,0.2,1-0.1C134.1,79,133.3,78.8,133.3,79.2z"/>
	<path class="st2" d="M138.6,79.2c0,0.3,0.4,0.2,0.6,0.2C139.1,79.1,138.8,79.2,138.6,79.2z"/>
	<path class="st2" d="M92,2.7c0.6,0.3,0.2,1.7,0.8,1.9c0.1-0.4,0.4-0.8,0.2-1.4c-0.4,0.1-0.4-0.3-0.5-0.6C92.2,2.6,92.3,2.6,92,2.7z
		"/>
	<path class="st2" d="M104.9,2.6c0.5-0.1,1.1-0.1,0.8-0.7C105.2,1.9,104.8,2.1,104.9,2.6z"/>
	<path class="st2" d="M105.9,4.3c0-0.1,0.2-0.2,0.3-0.2c0-0.5-0.7-0.2-0.9,0c0.4,0.3,0.6,0.8,0.3,1.3c-0.2-0.3-0.3,0.1-0.6,0.1
		c0.1,0.4,0.4,0.4,0.8,0.3c-0.2-0.6,1.1-0.6,1.5-0.8c0,0.2,0.1,0.3,0.1,0.4c0.6,0,0.5-0.5,0.8-0.6c-0.3-0.2-0.2,0.1-0.4,0.2
		c0-0.1,0.1-0.3,0.2-0.4c0.4-0.2,0.8,0.2,0.8-0.3c-0.5,0.1,0-0.2-0.1-0.3c-0.7,0.2-1.2,0.1-1.6,0c0-0.2-0.2-0.6,0-0.6
		c0.1,0,0.2,0.1,0.4,0c-0.1-0.5-0.4,0-0.7-0.2c-0.2,0.4,0.4,0.8,0.1,1C106.5,4.2,106,4.6,105.9,4.3z"/>
	<path class="st2" d="M108.4,7.2c0.6-0.4,0.1,0.4,0.4,0.5c0.1-0.5,0.4-0.1,0.6,0c0.1-0.3-0.1-0.8,0.4-0.8c0-0.4-0.5,0-0.5-0.4
		c0.4,0,0.4-0.3,0.8-0.3c0.2,0.2-0.2,0.5,0.1,0.4c0.1-0.3,0.4-0.4,0.8-0.5c0.1,0.8-0.7,1.3-1.4,1.3c0,0.2,0,0.3,0,0.4
		c0.5,0.3,0.7-0.5,1-0.1c0.1-0.3,0.2-0.6,0.6-0.7c0,0.2,0.2,0.3,0.4,0.3c0-0.1,0.1-0.1,0.2-0.2c-0.5-0.6,0.3-1.8,1.3-1.3
		c-0.3,0-0.6,0.1-0.6,0.4c1,0.2,2-0.8,2.1-1.3c0,0.2-0.8,0.4-0.9,0.2c0.1-0.6,1.3-0.4,1.3-1.1c-0.9,0.2-1.6,0.6-2,1.1
		c-0.1-0.2,0.2-0.5-0.1-0.6c-0.1,0.5-0.3,0.1-0.6,0.1c-0.1,0.4-0.7,0.4-0.8,0.7c-0.4-0.4-0.8-1.2-0.3-1.7c-0.5-0.3-1.2-0.1-1.4,0.4
		c1.2-0.3,0.8,0.8,1.1,1.4c-0.6,0.1-1.4,0.9-1.8,0.5c-0.3,0.1-0.4,0.4-0.7,0.5C108.3,6.8,108.3,7,108.4,7.2z"/>
	<path class="st2" d="M74,18.6c-0.2-0.7,0.8-1,1.1-0.8c-0.2-0.7,0.5-0.6,0.8-0.5c0.1-0.3-0.7-0.2-0.3-0.4c0.4-0.2,0.5,0.1,0.8,0
		c0.2-0.6,1-0.7,1.2-1.3c0.4,0.3-0.2,0.4,0.2,0.8c0.5-0.1,0.4-0.2,0.8-0.2c0-0.7,0.3-1.3,1-1.6c0.1-0.3-0.5-0.3-0.2-0.4
		c0.1-0.1,0.8,0,0.8,0.5c-0.4-0.1-0.7,0.3-0.5,0.8c0.9-0.3,1.4-0.9,2.2-1.2c0.1,0.3-0.2,0.3-0.1,0.5c0.4-0.3,0.8-1,1.3-0.5
		c-0.4-0.5,0.3-1,0.9-1.3c0.1-0.4-0.2-0.2-0.3-0.4c0.3-0.2,0.8-0.1,0.9-0.6c-1.2-0.5-1.8,1-3.2,1c0,0.1-0.1,0.3-0.2,0.4
		c-1.2-0.4-2.4,1.1-3.8,1.7c-1.9,0.8-3.8,2.2-4.6,3.4C73,18.8,73.5,18.8,74,18.6z M81,13.6c-0.2,0.2-0.4,0.5-0.7,0.6
		c0-0.1-0.1-0.3-0.1-0.5C80.5,13.7,80.8,13.7,81,13.6z"/>
	<path class="st2" d="M147.5,64.4c-0.6,0.1-1.5-0.2-2.4-0.1c-2.6,0.1-5.1,0.1-6.8-0.7c0.2-0.2-0.1-0.7,0.2-0.7
		c2.6,0,5.5-1.3,8.2-0.3c0.1-0.2,0.7-0.2,0.6-0.6c-0.2,0-0.7,0.3-0.7-0.1c0-0.3,0.7-0.1,0.5-0.6c-0.3,0.1-0.5,0.1-0.6-0.1
		c-0.1-0.5,0.3-0.4,0-0.8c0.3-0.1,0.6-0.1,0.5-0.4c-0.1-0.2-0.2-0.2-0.5-0.1c-0.1,0-0.1,0-0.2,0c-0.1-0.2-0.6,0.1-0.7-0.2
		c-0.1-0.4,0.5-0.3,0.7-0.6c-0.4-0.1-0.1-0.3-0.4-0.5c0.9-0.5,0.3-2-0.3-2.2c0.6-0.5-0.4-0.7-0.6-1.1c0-0.4,0.5-0.4,0.4-0.8
		c-0.2-0.3-0.6-0.2-0.6-0.8c0.4,0,0.4-0.2,0.7-0.2c-0.1-0.5-0.1-0.9-0.1-1c2-0.1,3.5,0.6,5.3,0.7c0.3-0.7-0.4-0.5-0.5-1.2
		c-0.6,0-1.2-0.3-1.8,0.1c-0.1,0.4,0.4,0,0.3,0.4c-0.5-0.1-0.5-0.3-0.9,0.1c-0.3-0.2-0.4-0.5-0.2-0.8c-1.3,0-2.4-0.7-3.1-2
		c0.4-0.2,0.6,0,0.7,0.2c0-0.3,0.1-0.2,0.4-0.2c0.3-0.3-0.5-0.4-0.1-0.7c0.4-0.3,0.1,0.6,0.5,0.4c0.2-0.3,0-0.4-0.1-0.7
		c0.5,0,0.5-0.3,0.3-0.7c0.4,0,0.5-0.2,0.6-0.4c0-0.4-0.2-0.4-0.2-0.7c-0.3,0.1-0.5,0.1-0.6-0.1c0-0.2,0.2-0.4,0.1-0.7
		c-0.1,0-0.3,0.1-0.4,0c-0.1-0.4,0.3-0.9,0-1.4c0.5-0.2,0.4-0.9,0.6-1.3c-0.5-0.4-0.6-1.4-1.2-1.8c0-0.2,0.4-0.2,0.2-0.5
		c-0.3,0.1-0.4,0.1-0.5-0.1c0-0.4,0.6-0.3,0.6-0.7c-0.1-0.5-0.6-0.5-0.5-0.9c-0.2-0.1-0.6,0-0.7-0.2c0.2-0.2,0.2-0.5,0.3-0.8
		c-0.4,0.3-0.7-0.9-0.3-0.9c-0.1-0.3-0.4-0.4-0.6-0.6c0.4-0.3,0-0.3-0.2-0.5c1.2-1.1-1.2-1.9-1-2.9c0.2,0.6,0.3-0.3,0.7-0.2
		c-0.5-0.9,0.3-1.6-0.1-2.7c-1.2,0-2.1,0.6-3.5,0.8c0.1-0.1,0.2-0.6-0.1-0.6c0,0.2-0.1,0.3-0.3,0.3c-0.2-0.1-0.2-0.3-0.1-0.5
		c-0.7,0.1-1.4,0.3-1.9,0c0.4-0.3,1-0.4,1.3-0.5c-0.1-0.4-0.4-0.5-0.7-0.7c0.1-0.2,0.4-0.3,0.4-0.5c-0.4,0.1-0.8,0.2-0.9,0
		c-0.1-0.4,0.2-0.4,0.1-0.8c-0.4-0.2-1.3,0.1-1.6-0.3c0.1-0.3,0.8-0.1,0.9-0.4c-0.3-0.1-0.3,0.1-0.5,0c-0.2-0.4,0.4-0.2,0.2-0.6
		c-0.1-0.3-0.5-0.3-0.7-0.5c0.3-0.1,1,0,1.1-0.3c-0.2-0.2-0.7-0.1-1-0.3c0.6-0.4-0.3-0.8,0-1.4c-0.4-0.2-0.8-0.4-1.1-0.7
		c0-0.4,0.5-0.5,0.4-0.9c-0.3-0.3-0.7-0.6-1.3-0.6c0.1-0.1,0.3-0.2,0.5-0.2c0-0.4-0.4-0.1-0.4-0.4c0.4-0.1,0.6-0.4,0.7-0.7
		c-0.3-0.1-0.6-0.5-0.5-0.8c-0.4-0.4-1.6,0.4-1.9-0.2c-0.7,0.1-1.7,0.5-2.1,0.6c-1.2,0.4-1.7-0.7-2.1-1.1c-0.2-0.1-0.5,0-0.5-0.2
		c0-0.2,0.7-0.5,0.2-0.7c0.4-0.1,0.7-0.2,0.6-0.6c-0.6-0.4-1.3-0.5-1.8-0.9c0.5-0.1,1.5-0.3,1.2,0.3c0.6-0.2,1,0,1.3,0.3
		c0.3-0.2,0.7-0.4,0.8-0.7c-0.4-0.2-1.1,0.1-1.5,0.3c-0.1-0.2-0.3-0.5-0.5-0.6c-0.5,0.1-1,0.2-1.2-0.1c0.7-0.2,1.6-0.2,1.9-0.6
		c0.2,0,0.1,0.5,0.3,0.5c-0.1-0.7,1.4-0.4,1.7-0.8c-1.3-0.3-2.5,0.2-4,0.2c-0.1-1.9,2.1-0.6,2.8-1.7c0.4-0.1,1.1,0.2,1.1-0.4
		c-0.6,0-1.1,0.4-1.4-0.2c0.3,0,0.5-0.1,0.4-0.4c-0.9-0.4-1.8-0.4-2.8-0.5c0.5,0,0.5-0.3,0.9-0.4c0.1,0.1,0.2,0.2,0.3,0.3
		c0.2-0.3,0.9-0.3,1.2-0.6c-0.7-0.3-1.9,0.2-2.4-0.3c0.1-0.1-0.1-0.4,0.1-0.5c0.5-0.1,0.8,0,1.4-0.2c0.1-0.2,0-0.7-0.2-0.8
		c-0.5,0.1-0.6,0.4-0.9,0.5c-1.3-0.5-3.8,1.1-4.8-0.1c0.4-0.1,0.6-0.3,0.7-0.5c-0.5,0-0.6,0.1-1.1,0.1c-0.2,0.2-0.2,0.7-0.4,0.9
		c-0.2,0-0.7,0.3-0.8,0c0.2-0.2,0.5-0.3,0.3-0.8c-0.6-0.3-0.8,0.4-1.6,0.4c-0.4-0.8-0.8-2.4,0.6-2.3c-0.2,0.1,0.1,0.5-0.1,0.6
		c-0.4,0.1-0.7,0.2-0.7,0.5c0.5,0.2,1.1-0.3,1.7-0.4c0-0.4-0.3-0.3-0.4-0.5c0.2-0.2,0.7-0.1,0.6-0.5c-0.2-0.4-0.8,0-0.7-0.8
		c-0.5,0.3-0.4,0-0.8-0.1c0,0.1,0.1,0.3,0,0.4c0.1-0.6-0.7-0.2-0.6,0.1c0.3,0.3,0.8,0.3,1-0.1c0,0.2,0.3,0.1,0.3,0.4
		c-0.7,0.2-1.2-0.1-1.5,0.2c0-0.2-0.1-0.4-0.1-0.6c-0.8,0.4,0.5,1.8-0.2,2.1c-0.2-0.2-0.5-0.1-0.7-0.2c-0.2-0.6,0.3-0.7,0.4-1
		c-1.4,0.3-2.5,1-4.1,1.4c0.1-0.4,0.2-1.4-0.4-1.3c0,0.4,0.5,0.6,0,0.8c-0.2-0.3-0.3-0.6-0.7-0.6c-0.1,0.3,0.2,0.4-0.1,0.7
		c0.2,0.1,0.5,0,0.4,0.4c-0.2,0.8-1.6,0.2-2,0.9c0.3,0,0.6,0.1,0.9,0.2c-0.4,0.1-0.6,0.1-0.8,0.5c-0.2-0.1-0.4-0.5-0.2-0.7
		c-1.2,0.6-2.4,1.3-3.5,0.7c0.3,0.2,0.5-0.2,0.6-0.5c-1.3,0.2-2.4,1-3.4,1.1c0-0.3-0.1-0.4-0.3-0.4c0.1,0.2-0.4,0.1-0.5,0.2
		c-0.2,0.2,0.3,0.4-0.1,0.6c-1.2,0.2-2.4,0.5-3.3,0.9c0,0-0.1,0-0.1,0c-0.3,0.2-0.6,0.2-0.6,0.6c0.2,0,0.6-0.3,0.7,0
		c-0.4,0.3-0.2,0.4-0.4,0.9c-0.1-0.4-0.6-0.3-0.5-0.9c-1.3,0.2-2.7,0.5-4.2,1.1c-0.1-0.2-0.1-0.6-0.4-0.5c0.4,0.7-0.6,0.6-0.5,1.1
		c-1.4,0.3-2.9,1-4.5,1.7c0.8,1.5,2.2-1,2.7-0.3c-0.7-0.1-0.4,0.5-0.5,0.8c-0.5-0.5-1.6,0.8-2.3,0.2c-0.2-0.4,0.1-0.6-0.2-0.8
		c-1.4,0.9-3.6,2.3-5.3,2.4c2.3-1.1,4.7-2.3,7-3.4c-0.2,0-0.4,0.1-0.6,0.1c0.2-0.2,0.3-0.5,0.5-0.7c0.4-0.2,0.4,0.3,0.8,0.1
		c-0.1-0.2-0.4-0.6,0-0.7c0,0.6,0.4,0.1,0.7,0.1c-0.3,0.5-0.1,0.2,0.3,0.4c0-0.5,0.5-1.1,0.2-1.6c0.6-0.5,1.2,0,1.5,0.4
		c1.7-1.7,4.7-2.7,6.5-3.1c0.1,0.2-0.1,0.3,0,0.5c1.4-0.8,2.3-1.1,4-1.6c0.2-0.3-0.1-0.2-0.2-0.4c0.6-0.6,1.2-0.2,2-0.5
		c-0.2,0.3,0.1,0.5,0.4,0.6c-0.3,0.4-0.6,0.1-0.8,0.6c-0.3-0.4,0-0.4,0-0.8c-0.4-0.1-0.6,0.1-0.9,0.3c0.1,0.4,0.5,0.4,0.6,0.8
		c0.4-0.4,0.8,0.3,1-0.3c0.3,0,0.2,0.6,0.6,0.5c0.2,0,0-0.3,0.2-0.4c0.2,0.1,0.2,0.5,0.4,0.5c0-0.5,0.3-0.4,0.7-0.4
		c-0.5-0.3,0-0.5-0.3-0.9c-0.4,0-0.1,0.5-0.5,0.4c-0.8-0.3-0.5-1.1,0.1-1.5c0,0.2,0.1,0.4,0.1,0.7c0.5-0.2,0.6,0.3,0.9,0.4
		c0-0.3,0-0.5-0.2-0.9c0.4-0.1,0.8-0.2,0.8-0.6c-0.6,0-1,0.5-1.5,0.3c0-0.2,0.3-0.3,0.1-0.6c-0.6,0-0.4,0.6-0.8,0.7
		c-0.2-0.3-0.5,0.3-0.7,0c-0.1-0.3,0.7,0,0.4-0.4c-0.6,0-0.6,0.4-1,0.3c0.3-0.8,1.2-0.8,1.9-1.1c-0.2-0.7-0.8-0.1-1.3,0
		c-0.2-0.1-0.4-0.1-0.4-0.4c0.3,0,0.6-0.1,0.5-0.3c-1.3,0.1-2.2,0.6-3,1.2c0-0.1,0.1-0.2,0-0.4c-0.4,0.3-0.7,0.4-1.3,0.4
		c0.2,0.5-0.2,0.7-0.4,1c-0.5-0.2-1-0.1-1.3,0.3c0.1,0,0.3-0.1,0.4,0c-0.1,0.2-0.1,0.4-0.2,0.5c-0.4-1.1-1.3,0.5-1.8,0
		c0.2-0.5,1.4-0.7,0.9-1.3c-0.3,0.6-1,0.9-1.8,1.2c0.1,0.4,0,0.6-0.2,0.7c-0.2,0-0.1-0.4-0.3-0.4c0,0.3-0.4,0.3-0.2,0.7
		c0.3,0.1,0.4-0.4,0.4-0.1c-0.1,0.3-0.5,0.3-0.9,0.4c0-0.2,0.3-0.3,0-0.5c-0.4,0.1-1,0.6-1.3,0.4c0-0.4,0.7-0.3,0.7-0.6
		c-0.8-0.3-1.2,0.4-2.2,0.4c0,0.2,0.1,0.4,0,0.5c-0.2,0-0.2-0.3-0.2-0.4c-0.4,0.5-0.4,0-0.8-0.1c0,0.2,0.3,0.7,0,0.8
		c-0.3,0.1,0-0.5-0.4-0.3c0,0.1,0.1,0.3,0,0.4c-0.9,0.4-2.4,0.6-3.2,1c0,0.6,0.5-0.2,0.5,0.1c0,0.3-0.3,0.4-0.3,0.7
		c0.1,0.1,0.4-0.1,0.5,0.1c-0.1,0.1-0.3,0.2-0.2,0.5c0.2,0.1,0.6-0.1,0.6,0.2c-0.2,0-0.4,0.1-0.7,0.1c0-0.1,0.1-0.2,0-0.4
		c-0.2,0-0.5,0.4-0.7,0.1c0.6-0.2-0.2-0.9,0.3-1.2c-1.6-0.1-3.3,1.4-5,1.9c-1.7,0.1-3.1,1.3-4.8,1.9c-2.9,1-6,1.9-7.9,3.9
		c0.2,0.1,0.3,0.1,0.5,0c0.1,0.1,0.1,0.1,0.2,0.2c0.4-0.2,0.9-0.4,1.2-0.6c0.4-0.1,0.9-0.2,1.2,0.1c0-0.2,0.1-0.3,0.3-0.3
		c0.1-0.5-0.5,0.1-0.4-0.4c0.5-0.1,0.8-0.3,1.1-0.4c0.1,0.1,0.2,0.2,0.2,0.4c0.5-0.1,0.5-0.5,1.1-0.4c0.1-0.5-0.7,0.1-0.7-0.2
		c0.3,0,0-0.5,0.4-0.4c0.4,0,0.5,0.5,0.9,0.4c0.1-0.3,0.7-0.3,0.7-0.6c-0.1,0-0.3,0.1-0.4,0c0.3-0.2,0.6-0.4,1.1-0.6
		c0.1,0.2,0.2,0.2,0.1,0.3c0.3-0.5,1.3-1,1.9-1c-0.4,0.4-1.2,0.5-1.4,1c0.8,0.1,1.9-0.9,2.6-0.3c0.4-0.4-0.3-0.8,0.1-1.1
		c0.2,0.2,0.7,0,0.8,0.3c0.4-0.1,0.2-0.6,0.7-0.7c1.8,0,2.9-1.1,4.6-1.6c-0.1,0.7-0.9,1-1.6,1.3c0.6,0.4-0.8,1-0.1,1.1
		c0.5-0.5,1.9-0.2,2.5-1.1c-0.1-0.7-0.8,0.1-0.8-0.1c0.7-0.4,1.6-1.1,2.6-1.2c-0.1-0.4,0-1.6,0.8-1.3c-0.1,0.4-1,0.5-0.5,1
		c0.4-0.2,0.6-0.2,0.9,0c-1.1,0.2-2.2,0.8-2.4,1.9c-1.2,0.3-2.5,0.6-3.7,0.9c-0.3-0.4,0.7-0.6,0.4-1.2c-0.8,0.2-1.1,0.8-1.6,1.1
		c-1.2,0.2-2.5,0.4-3,1.2c-0.8,0.3-1.6,0.5-2.4,0.8c0-0.1,0-0.2-0.1-0.3c-1.5,0.4-3.1,1.3-4.5,2.1c-1.2,0.5-2.5,1-3.7,1.5
		c-0.3,0.1-0.7,0.1-1,0.2c-0.2-0.6-0.1-1.2,0.8-1.4c-0.2,0.2,0.2,0.5,0,0.6c-0.4,0.2-0.7,0.4-0.7,0.7c0.6,0,1.2-0.6,1.7-0.9
		c0-0.4-0.4-0.2-0.6-0.4c0.1-0.2,0.8-0.3,0.6-0.6c-0.3-0.3-0.9,0.2-1-0.6c-0.5,0.4-0.4,0.1-0.9,0.1c0,0.1,0.1,0.3,0,0.4
		c0-0.6-0.8,0-0.6,0.3c0.4,0.2,0.9,0.1,1.1-0.4c0.1,0.2,0.4,0,0.4,0.3c-0.8,0.4-1.4,0.3-1.6,0.6c-0.1-0.2-0.2-0.4-0.2-0.5
		c-0.7,0.5,0.4,1.3,0.4,1.9c-0.3,0.1-0.7,0.1-1,0.2c-0.3-0.5,0.2-0.7,0.3-1c-0.9,0.4-1.6,0.8-2.3,1.3c-0.6,0.1-1.3,0.2-1.9,0.3
		c-0.1-0.3-0.2-0.5-0.6-0.4c0,0.2,0.2,0.3,0.3,0.5c-0.1,0-0.3,0-0.4,0.1c-0.2-0.1-0.3-0.2-0.6-0.1c0,0.1,0,0.1,0,0.2
		c-0.3,0-0.6,0.1-0.9,0.2c0.1-0.1,0.2-0.3,0.2-0.4c-0.2,0.4-0.7,0.1-0.7,0.5c-0.1,0-0.1,0-0.2,0c-0.6,0.1-1.2,0.2-1.8,0.3
		c0.2-0.2,0.4-0.3,0.4-0.6c-0.7,0.1-1.1,0.8-1.6,0.7c0-0.2,0.3-0.3,0-0.6c-0.6,0.1-0.4,0.6-0.6,0.8c-0.1,0-0.2,0-0.3,0c0,0,0,0,0,0
		c-0.2,0-0.3,0.1-0.5,0.1c0.2-0.1,0.6-0.1,0.3-0.4c-0.5,0.1-0.6,0.3-0.7,0.5c-0.1,0-0.2,0-0.3,0.1c0.2-0.8,1.2-1,1.9-1.5
		c-0.4-0.7-0.9,0.1-1.4,0.3c-0.2,0-0.4,0-0.5-0.3c0.3-0.1,0.6-0.2,0.5-0.5c-1.4,0.4-2.3,1.1-3.1,2c-0.1-0.1,0.1-0.2,0-0.4
		c-0.4,0.4-0.7,0.6-1.4,0.7c0.2,0.3,0.1,0.5,0,0.7c-0.3,0.1-0.5,0.3-0.8,0.4c-0.4,0.1-0.7,0.3-0.9,0.6c0.1,0,0.2-0.1,0.2-0.1
		c-0.1,0.1-0.2,0.2-0.3,0.2c0.1,0.1,0.2,0.2,0.2,0.4c-0.6-0.9-1.4,0.9-1.9,0.5c0.2-0.5,1.4-1.1,0.7-1.6c-0.2,0.7-0.9,1.1-1.7,1.6
		c0.2,0.3,0.1,0.6-0.1,0.8c-0.2,0-0.2-0.4-0.4-0.3c0,0.3-0.4,0.4-0.1,0.8c0.3,0,0.3-0.5,0.5-0.2c0,0.3-0.5,0.5-0.9,0.6
		c0-0.2,0.3-0.4-0.1-0.5c-0.5,0.2-1,0.8-1.4,0.7c-0.1-0.4,0.7-0.4,0.7-0.8c-0.9-0.1-1.2,0.7-2.4,1c0,0.2,0.2,0.4,0.1,0.5
		c-0.2,0.1-0.2-0.2-0.3-0.4c-0.3,0.6-0.4,0.1-0.9,0.1c0,0.2,0.4,0.6,0.2,0.8c-0.3,0.2-0.1-0.5-0.5-0.2c0,0.1,0.1,0.3,0,0.4
		c-0.9,0.7-2.6,1.3-3.3,1.8c0.1,0.6,0.5-0.3,0.6,0c0,0.1-0.1,0.2-0.1,0.4C40,33.9,39.8,34,39.7,34c0-0.1,0-0.2,0.1-0.3
		c-1.3,0.2-2.4,1.3-3.6,2.2c-0.8,0.4-1.5,0.9-2.3,1.3c-0.5,0.2-0.9,0.5-1.3,0.8c-2.1,1.3-4.1,2.6-6.1,4c-1,0.6-1.9,1.2-2.7,1.9
		c-0.9,0.7-1.9,1.4-2.8,2.1c0.7-0.5,1.4-1,2-1.4c-0.4,0.4-0.8,0.9-1.1,1.3c1,0.1,2.3-1.5,3.4-1.1c0-0.2,0.1-0.3,0.3-0.4
		c0-0.5-0.5,0.2-0.5-0.3c0.5-0.2,0.8-0.5,1.1-0.7c0.1,0.1,0.3,0.1,0.3,0.4c0.5-0.2,0.5-0.6,1.1-0.7c0-0.5-0.7,0.3-0.9,0
		c0.3-0.1-0.1-0.4,0.3-0.5c0.4-0.1,0.6,0.4,1.1,0.2c0-0.3,0.7-0.4,0.7-0.8c-0.1,0-0.3,0.2-0.4,0c0.3-0.3,0.6-0.6,1.1-0.8
		c0.1,0.1,0.2,0.1,0.1,0.3c0.2-0.6,1.3-1.3,1.9-1.4c-0.3,0.5-1.1,0.8-1.4,1.3c-3,2.1-5.8,4.5-8.6,6.8c-3.2,1.5-6.6,2.5-9.9,4
		c-3.7,1.6-9.7,3.5-11.4,6c0.5,0.3,0.4,0.7,1,0.7c0.1-0.3,0.1-0.6,0.2-0.9c-0.3,0-0.3,0.5-0.5,0.2c0.2-0.7,0.7-1.3,1.5-1.8
		c0.7-0.4,1.4-0.7,2.3-1c0,0,0,0,0,0c0.1,0,0.2-0.1,0.2-0.1c0,0,0,0,0.1,0c0.1,0,0.1,0,0.2-0.1c0,0,0,0,0.1,0c0,0,0.1,0,0.1-0.1
		c0,0,0,0,0,0c0.1,0,0.1,0,0.1-0.1c0,0,0,0,0,0l0,0c0,0,0,0,0,0c0,0,0,0,0,0c3.4-1.2,7.3-2.2,9.3-3.7c0.2,0.2,0.4,0.1,0.7,0.1
		c1.4-0.9,2.1-0.9,3.6-1.5c0.2,0.2-0.1,0.3,0.1,0.6c0.4,0,0.7-0.1,0.8-0.5c-0.1-0.2,0.1-0.4,0.4-0.6c-0.1,0.2-0.2,0.5-0.3,0.7
		c-0.2,0.4-0.4,0.8-0.7,1.2c-0.5,0.8-1.5,2-1.3,2.2c0.3,0.3,0.4,0.5,0.4,0.7c-1.5,0.4-2.9,0.9-4.1,1.4c0.4,0,0,0.4,0.3,0.6
		c1.2-0.5,2.5-1,3.7-1.5c-0.3,0.4-0.9,0.7-0.8,1.2c0.3,0.4,0.5,0.8,0.8,1.2c-0.3,0.1-0.7,0.2-1,0.4c-0.1-0.2-0.5,0.1-0.5-0.3
		c-0.4,0.1-0.1,0.4-0.6,0.5c-2.5,0.7-5,1.5-7.2,1.7c-0.1-0.2-0.2-0.2-0.3-0.4c-0.5,0.5-1.4,0.3-2,0.5c-0.3,0.8-1.1,1.4-0.8,2.5
		C6,61.7,6,62.2,6.4,62c0.4-0.3,0.5-0.8,0.4-1c1.3-0.4,1.7,0.5,1.3,1.4c-0.5-0.1-0.8,0.4-1.3,0.6c0.6,0.9,0.2,2,1.1,2.5
		c0.6-0.2,0.7-0.6,0.7-1c0.9-1.1,2.4-2.4,3.7-2.2c-0.1-0.4-0.5-0.1-0.3-0.5c1.6-0.4,3.7-0.9,4.6-0.5c-3.4,0.9-5.1,3.4-8.3,4.9
		C8.4,66.9,8.6,67.3,9,68c0.6-0.1,0.5-1.1,1.1-0.7c-0.7,0.4-0.8,1.1-0.8,1.7c0.4-0.6,0.7-1.2,1.5-1.7c0.7,0.8-0.7,0.9-0.5,1.5
		c0.5-0.2,0.8-0.3,1.1-0.1c-0.1,0.3-0.5,0.6-0.4,0.9c0.3,0,0.7-0.2,1,0c-0.1,0.1,0.2,0.4-0.1,0.5c-0.5,0.4-1.1,0.1-1.3,0.6
		c0.7,0,1.5-0.1,1.9,0.5c-0.1,0.3-1.1,0.4-1.1,0.7c0.3,0,0.6,0,0.9,0.1c0.2,0.5,0.2,1,0.3,1.6c0.2-0.2,0.2-0.6,0.1-1
		c0.1,0.4,0,0.8-0.1,1c0,0,0,0,0,0c0,0,0,0,0,0c0.1,0.7,0.3,1.3,0.9,1.7c-0.1,1.4-1.3,2.5-1.4,4c0,0,0,0,0,0c0,0,0,0.1,0,0.1
		c0,0,0,0.1,0,0.1c0,0,0,0,0,0.1c0,0.1,0,0.1,0.1,0.2c0,0,0,0,0,0c0,0.3,0.1,0.6,0.2,0.9c3,0.4,6.7-0.8,9.8-0.6
		c0.1,0.2,0.2,0.5,0.3,0.7c-0.7,0.3-1.4,0.6-2.1,0.9c-0.3,0.2-0.5,0.7-0.8,1c0.3,0.2,0.7,0.4,1,0.5c0.3,0.1,0.7,0,1.2,0
		c-0.7,0.9-1.3,1.6-1.9,2.3c0.1,0.2,0.2,0.5,0.3,0.7c0.3-0.1,0.5-0.1,0.8-0.2c-0.1,0.1-0.1,0.1-0.2,0.2c0.1,0.3,0.3,0.7,0.4,1
		c-0.6,0.5-1.1,1.1-1.2,2.2c1.9-0.7,3.7-1.4,5.6-2.1c0,0.2,0,0.3,0.1,0.5c-2.2,1.1-4.5,2.2-6.7,3.4c0.1,0.2,0.2,0.3,0.2,0.5
		c2.3-0.9,4.6-1.8,6.9-2.7c0.3,0.7,0.6,1.5,0.2,2.1c-0.2,0.3,0.5,0.2,0.5,0.5c-0.7,0.6-0.6,1.5-1,2.6c-0.7,1.7-2.6,3.4-1.1,5.3
		c3.2,0.1,6.7-0.4,10.1-0.7c0,0,0.1,0,0.1-0.1c1.3-0.2,2.2,0.6,3.9-0.4c0,0,0.1,0,0.1-0.1c0.1,0.2,0.4-0.1,0.5,0.2
		c-0.4,0.2-0.7,0.3-1.1,0.5C38.3,99,38.1,99,38,99.1c-0.4,0.1-0.2,0.3-0.4,0.4c0.2,0.3,0.5,0.3,0.8,0.5c0.2-0.1,0.5-0.2,0.7-0.3
		c0,0,0.1,0,0.1-0.1c0.4,0,0.9-0.2,1.4-0.3c0.8-0.3,1.6-0.5,2.4-0.8c0.1,0.3,0.7-0.4,0.8-0.1c-0.5,0.6-2,0.8-2.5,1.3
		c-0.3,0.1-0.6,0.3-1,0.4c-0.4-0.2-0.9,0.4-1,0.6c0.2,0.2,0.5,0.5,0.8,0.5c0.5-0.2,0.9-0.3,1.3-0.3c0.1,0.3,0.6-0.4,0.7,0
		c-0.5,0.3-1.4,0.4-1.5,0.9c0.4,0.2,1.1-0.4,1.6-0.3c-0.1,0.2-0.6,0.4-0.9,0.5c0.8,0.4,1.9-0.5,2.9-0.8c1.4-0.4,3.5-1,4.8-1.7
		c0,0,0.1,0,0.1-0.1c0.7,0,1.8-0.7,2.4-0.5c-2.5,1.7-6,2.7-8.5,3.6c0.5,0.6,1.6-0.2,2.3,0c-0.8,0.2-1,0.8-0.3,0.9
		c0.4,0.4,1,0.6,1.7,0.4c0.6,0.1,1.5-0.3,2.1-0.3c0.5,0,1-0.2,1.6-0.5c0,0,0.1,0,0.1-0.1c0.7-0.2,2.1-0.6,2.5-1
		c0.9-0.4,1.6-0.9,2.5-1.1c1.4-0.7,2.4-0.9,3.4-1.7c0.3-0.4,1-0.5,1.4-0.6c0.6,0.1,1-0.6,1.7-0.7c0,0,0.1,0,0.1-0.1
		c0.5,0.1,1.4-0.6,2.1-0.8c0,0,0.1,0,0.1-0.1c1.4-0.5,3-1,4.7-1.6c0.1,0,0.1,0,0.2,0c0,0,0,0,0,0c0.1,0,0.1-0.1,0.2-0.1
		c1.3-0.5,2.7-1,4.1-1.5c-0.1-0.1-0.8,0-0.5-0.2c1.4-0.2,2.2,0,3.3-0.9c0.1,0.1,0.2,0.2,0.3,0.3c2-1.1,4.1-0.7,5.6-2
		c0.2,0.2,0.6,0.3,0.9,0.2c2.8-1,5.2-1.1,7.7-1.9c0-0.2-0.3-0.2-0.1-0.3c0.8,0.4,1.9,0.1,2.8,0c0.3-0.2,0.1-0.5,0.5-0.6
		c1,0.5,1.6,0,2.6,0c0.1-0.2,0.2-0.3,0.2-0.5c-1.3,0-2.8,0.3-4.1,0.3c-0.2,0.3,0.4,0.2,0.1,0.5c-0.8-0.5-2,0.1-2.8-0.3
		c0.4-0.6,0.8,0,1.3-0.3c0-0.1-0.1-0.3,0.1-0.3c-0.7-0.8-2-0.4-3-0.7c0.7-0.4,1,0,1.6-0.5c0-0.5-0.4-0.1-0.5-0.3
		c0.2-0.3,1-0.5,1.2-0.4c-0.2,0.1-0.5,0.2-0.4,0.3c0.5-0.2,0.8,0.1,1.4-0.2c0-0.5-0.5,0.2-0.6-0.1c1-0.7,2.3,0.1,3.2-0.9
		c-0.3,0.1-0.6,0.1-0.7-0.1c1.7-0.8,3.7-0.8,5.5-1.2c-0.1-0.3-0.2-0.6-0.4-0.8c0.1-0.3,0.7-0.4,1-0.6c0.3,0.1,0,0.4,0.3,0.5
		c0.5-0.4,1.1,0,1.4-0.5c-0.3-0.1-0.8,0.2-0.9-0.2c1.1-0.2,1.5-0.3,2.5-1.2c-1.5,0.4-2.5,0.8-4,1.1c0.2-0.4,0.7-0.8,1.1-0.6
		c-0.7-0.7-3,0.8-3.4,0.1c1.6-0.2,4.2-1.7,5.4-1.5c-0.3,0.2-0.9,0.3-0.7,0.6c0.9,0,2-1.4,2.8-0.8c-0.5,0.1-0.3,0.5-0.5,0.7
		c0.7-0.3,1.3-0.7,1.6-1.2c0.1,0,0.2,0,0.3,0c0.1,0,0.1,0,0.2,0c0,0,0,0,0,0c0.1,0,0.1,0,0.1,0c1.2-0.2,2.5-0.3,3.8-0.5
		c-0.1-0.1-0.7-0.2-0.4-0.3c1.2,0.1,1.9,0.5,3-0.1c0,0.2,0.1,0.2,0.2,0.3c1.9-0.6,3.7,0.3,5.2-0.7c0.2,0.3,0.4,0.4,0.8,0.4
		c2.6-0.4,4.7,0.2,7-0.1c0-0.2-0.2-0.3-0.1-0.3c0.6,0.6,1.6,0.5,2.5,0.7c0.3-0.1,0.1-0.4,0.5-0.4c0.8,0.7,1.4,0.4,2.2,0.6
		c0.1-0.1,0.2-0.3,0.3-0.4c-1.2-0.3-2.5-0.3-3.6-0.7c-0.2,0.2,0.3,0.3,0,0.5c-0.6-0.6-1.7-0.4-2.4-0.9c0.4-0.5,0.7,0.2,1.2,0
		c0-0.1,0-0.3,0.2-0.3c-0.5-0.9-1.7-0.9-2.5-1.4c0.6-0.2,0.8,0.2,1.5-0.1c0.1-0.5-0.3-0.2-0.4-0.4c0.2-0.3,0.9-0.3,1.1-0.1
		c-0.2,0.1-0.4,0-0.4,0.2c0.5-0.1,0.7,0.3,1.3,0.1c0.1-0.5-0.5,0.1-0.5-0.2c1-0.5,2,0.7,2.9-0.1c-0.3,0-0.5,0-0.6-0.2
		c1.6-0.4,3.4,0.1,5,0.1c-0.1-0.3-0.1-0.6-0.2-0.9c0.1-0.2,0.6-0.2,1-0.3c0.2,0.2-0.1,0.4,0.2,0.5c0.5-0.2,1,0.3,1.3-0.1
		c-0.3-0.2-0.7,0-0.8-0.4c1,0.1,1.3,0,2.3-0.6c-1.4,0-2.3,0.2-3.7,0.1c0.3-0.3,0.7-0.6,1.1-0.3c-0.5-0.9-2.7,0.1-2.9-0.7
		c1.4,0.2,3.9-0.7,5-0.2c-0.3,0.1-0.8,0.1-0.7,0.4c0.8,0.2,2-0.9,2.5-0.1c-0.5,0-0.3,0.4-0.6,0.6c0.9-0.3,1.7-0.5,1.8-1.3
		c-0.4,0-0.7-0.2-1-0.3c0-0.2,0.6-0.1,0.4-0.4c-0.1-0.3-0.6-0.1-0.8-0.4c0.4-0.1,0.3-0.4,0.7-0.5c0-0.5-0.6-0.1-0.6-0.6
		c0.9-0.1-0.2-1,0.5-1.3c-0.7-0.5-0.2-1.5-0.8-2.3c0.6,0,0.4-0.5,0.8-0.6c4,0.2,7.5,0.1,11.6,0.1c0-0.2,0.2-0.2,0.3-0.3
		C150.4,63.7,148.8,64.3,147.5,64.4z M145.7,57.2c0,0,0.1,0.1,0.1,0.1C145.8,57.3,145.7,57.2,145.7,57.2z M145.9,57.8
		c0-0.4-0.1-0.8-0.5-1.1C145.8,56.9,146,57.3,145.9,57.8z M145.5,46.5c-0.2,0.2-0.5-0.1-1,0.2c0-0.1-0.1-0.2-0.2-0.2
		C144.6,46.3,145.1,46.2,145.5,46.5z M109,9.1c-0.2,0.3-0.2,0-0.5,0C108.5,8.8,109,8.7,109,9.1z M102.6,10.5
		c0.2-0.5,1.4-0.3,1.8-0.7C104.1,10.2,103.3,10.3,102.6,10.5z M106.5,7.1c-0.1,0.3-0.1,0.6-0.6,0.6C105.9,7.4,106.2,7.3,106.5,7.1z
		 M105.4,8.4c0,0.2-0.4,0.1-0.4,0.3c0.2,0.3,0.5-0.6,0.6,0.1c0.4-0.2-0.1-0.5-0.1-1c0.4,0,0.4,0.6,0.5,0.9c-0.3,0-0.2,0.3-0.4,0.3
		c-0.4,0-0.7-0.1-1.1,0.1c0.1-0.3,0.5-0.6-0.2-0.5C104.5,8.1,105.3,8.1,105.4,8.4z M104,8c0.1,0.3-0.6,1,0.2,0.8
		c-0.1,0.1-0.1,0.3,0,0.6c-0.5,0-0.6,0.3-1.1,0.3c-0.1-0.2-0.4,0-0.2-0.3c-0.4,0.2-0.4,0.1-0.9,0.2C102.7,9.1,103.3,8.5,104,8z
		 M99.7,10.7L99.7,10.7L99.7,10.7C99.7,10.7,99.7,10.7,99.7,10.7z M98.2,11.3c0,0.3-0.3,0.3-0.6,0.4C97.5,11.4,97.9,11.4,98.2,11.3z
		 M83,16.5c0-0.4,0.3-0.6,0.7-0.7C83.7,16.2,83.4,16.4,83,16.5z M84.4,16.1c0-0.4,0.7-0.9,0.8-0.2C84.8,16,84.6,16.3,84.4,16.1z
		 M86.1,15.6c0-0.4,0.8-1.1,1-0.4C86.5,15.1,86.6,15.6,86.1,15.6z M92.3,13.5c0.1-0.4,0.7-0.5,1.2-0.6
		C93.5,13.4,92.8,13.6,92.3,13.5z M47.8,101.9c0.3-0.4,0.5-0.5,1-0.6C48.8,101.6,48.1,101.7,47.8,101.9z M98.1,83.7
		c-0.3,0-0.5-0.2-0.6-0.5C97.9,83.1,97.9,83.6,98.1,83.7z M132.7,74.8c-0.3-0.1-0.4-0.3-0.5-0.6C132.6,74.1,132.5,74.6,132.7,74.8z
		 M16.5,67.4c0-0.6,0.8-0.3,1.3-0.7C17.6,67.2,17.1,67,16.5,67.4z M18.4,67.9c-0.4,0.1-0.8,0.4-1.1,0.4
		C17.2,67.9,18.3,67.6,18.4,67.9z M16.7,69.2c-0.2,0.1-0.5,0.2-0.7,0.3C15.9,69.1,16.6,68.7,16.7,69.2z M18.2,69.9
		c-0.4,0.7-1.3,0.7-2,0.9C16.3,70.1,17.5,70.2,18.2,69.9z M17,73.4c0.1,0.2-0.8,0.6-0.8,0.2C16.5,73.5,16.8,73.4,17,73.4z M17,73
		c0.3-0.6,1.2-0.9,1.9-0.8C18.7,72.9,17.5,72.8,17,73z M18.3,69.5c0.8-0.6,1.8-1,2.6-1.1C20.4,69.2,19.2,69.3,18.3,69.5z M25.3,67.2
		c-1.1,0.8-3,1.4-4.2,1c1.2-0.6,2.3-1,3.6-1.4C25.1,67,24.5,67.6,25.3,67.2z M25.7,60.2c-0.3,0.2-0.6,0.3-0.8,0.2
		C25.1,60.5,25.4,60.4,25.7,60.2z M24.8,60.4c-0.1,0-0.1-0.1-0.2-0.1C24.7,60.4,24.8,60.4,24.8,60.4L24.8,60.4z M32.8,39.4
		c0.1,0,0.3,0,0.5,0c-0.2,0.1-0.4,0.2-0.6,0.3C32.6,39.6,32.6,39.5,32.8,39.4z M35.5,38.1c-0.5,0.3-1,0.5-1.6,0.8
		c0-0.1,0.1-0.2,0.3-0.3C34.7,38.5,35.2,38.3,35.5,38.1z M35.1,38c-0.5,0.1-0.6,0.5-0.8,0.4C34.2,38,34.9,37.3,35.1,38z M39,35.8
		c0,0.3-0.2,0.6-0.5,0.9c-1,0.4-2,0.9-2.9,1.4C36.8,37.5,37.7,36.5,39,35.8z M37,36.7c-0.6,0.1-0.4,0.5-1,0.7
		C35.9,37,36.6,36.1,37,36.7z M42.3,33.7c0,0.4-0.9,0.8-0.4,1.1c0.4-0.3,0.6-0.3,1-0.2c-0.4,0.2-0.9,0.4-1.2,0.7
		c-0.4,0.2-0.9,0.4-1.3,0.5c0.4-0.3,0.8-0.5,1.2-0.7C41.5,34.8,41.4,33.7,42.3,33.7z M53.4,26.1c0.2-0.1,0.5-0.1,0.7-0.2
		c0,0.1,0.1,0.1,0.4,0c0,0.1,0,0.3,0,0.4c-0.7,0.2-1.4,0.4-1.8,0.8c-0.1,0-0.2,0.1-0.5,0.2C52.7,26.9,53,26.6,53.4,26.1
		C53.4,26.2,53.4,26.2,53.4,26.1z M55.6,25.7C55.6,25.7,55.6,25.7,55.6,25.7C55.6,25.7,55.6,25.7,55.6,25.7c0.1,0,0.2,0,0.2,0
		c0,0,0,0,0.1,0c0,0,0.1,0,0.1,0c0,0,0,0,0.1,0c0,0,0.1,0,0.1,0c0,0,0,0,0,0c0,0,0.1,0,0.1,0c0,0,0,0,0,0c0,0,0,0,0,0c0,0,0,0,0,0
		c0,0,0,0,0,0c0,0,0.1,0,0.1,0c0,0.1,0,0.2-0.2,0.3c-0.4,0.1-0.8,0.1-1.2,0.4c0.1-0.2,0.2-0.4,0.1-0.5
		C55.3,25.7,55.4,25.7,55.6,25.7z M59.2,25.3C59.2,25.3,59.2,25.3,59.2,25.3c-0.2,0.1-0.4,0.2-0.6,0.3c0-0.1,0-0.2,0.1-0.3
		C58.8,25.3,59,25.3,59.2,25.3z M58,26.2c-0.2,0.5-0.7,0.3-0.8,0.8c-0.3-0.2-0.2-0.4-0.2-0.6c0.2-0.1,0.4-0.2,0.7-0.3
		C57.8,26.2,57.9,26.2,58,26.2z M55.5,26.8c0,0-0.1,0-0.1-0.1c0-0.1,0.1-0.1,0.1-0.2c0.4-0.1,0.7-0.1,1-0.2
		C56.2,26.5,55.9,26.6,55.5,26.8z M54.1,26.8c-0.2,0.1-0.3,0.3-0.6,0.4c-0.1-0.1-0.3,0-0.3-0.1C53.5,26.9,53.8,26.9,54.1,26.8z
		 M57.5,25.9c-0.3,0-0.6,0.1-0.9,0.1c0.3-0.1,0.6-0.2,0.9-0.4C57.5,25.8,57.4,25.9,57.5,25.9z M54.7,27.1C54.9,27,55,27,55,26.9
		c0,0.1-0.1,0.1-0.1,0.1C54.9,27,54.8,27.1,54.7,27.1z M58.6,25.9c0,0,0-0.1,0-0.1c0.4-0.2,0.7-0.3,1.1-0.5c0.2,0,0.3,0.1,0.4,0.2
		C59.5,25.6,59,25.7,58.6,25.9z M59.5,25.9c-0.1,0.1,0.1,0.4-0.3,0.5c-0.3,0-0.5-0.2-0.6-0.4C58.9,25.9,59.2,25.9,59.5,25.9z
		 M56.2,26.8c0.2,0.3,0.6,0.3,0.8,0.6c0.4-0.5,0.9,0.1,1-0.6c0.3-0.1,0.3,0.6,0.7,0.3c0.2-0.1-0.1-0.3,0.1-0.4
		c0.2,0.1,0.3,0.5,0.6,0.4c-0.1-0.5,0.3-0.4,0.7-0.6c-0.6-0.1-0.1-0.5-0.4-0.7c1.2-0.1,2.5-0.2,3.3-0.9c-0.3,0.1-0.6,0.2-0.8,0.2
		c0-0.1,0.1-0.1,0.1-0.2c-0.2,0.1-0.5,0.2-0.7,0.3c-0.5,0.1-0.9,0.1-1.4,0.2c0-0.1,0-0.2-0.1-0.3c1.5-0.2,2.9-0.4,4-0.7
		c0.1,0,0.2,0.1,0.2,0.3c0,0.1,0,0.1-0.1,0.2c-0.4,0-0.8,0.1-1,0.2c0.1,0.1,0.5,0.1,0.8,0c-0.5,0.4-1.6,0.4-1.9,1
		c0.3-0.1,0.7-0.1,1,0c-0.2,0.1-0.4,0.2-0.5,0.3c-0.2,0.1-0.4,0.2-0.6,0.3c-0.1-0.1-0.2-0.3-0.1-0.4c-0.5,0.4-1.1,0.8-1.6,1.1
		c-0.4,0.2-0.7,0.3-1.1,0.5c-0.3,0.1-0.7,0.1-1,0c0.3,0.1,0.6-0.3,0.6-0.6c-1.4,0.5-2.5,1.6-3.5,2c-0.1-0.3-0.2-0.4-0.4-0.3
		c0.1,0.2-0.4,0.2-0.6,0.4c-0.2,0.3,0.4,0.4,0,0.6c-0.8,0.3-1.6,0.7-2.3,1.1c-1.8,0.8-3.6,1.6-5.5,2.3c0,0-0.1-0.1-0.1-0.1
		c-0.4,0.2-0.8,0.3-0.9,0.6c-0.2,0.1-0.4,0.2-0.6,0.2c0,0,0,0,0,0c1.5-2.1,4.7-3.8,6.5-4.7c0.1,0.2,0,0.3,0.1,0.5
		c1.4-1.2,2.3-1.7,4.1-2.6c0,0,0,0,0-0.1C55.9,27,56,26.9,56.2,26.8z M66.7,24c0.5-0.1,0.9-0.1,1.4-0.2c0,0.1,0,0.2,0.1,0.3
		c-0.2,0.1-0.4,0.2-0.6,0.3c0,0,0,0-0.1,0c0-0.1,0-0.2-0.1-0.3c-0.4,0.1-0.6,0.3-0.8,0.5c0,0,0,0,0,0c-0.1,0-0.3,0-0.4,0.1
		C66.3,24.4,66.5,24.2,66.7,24z M109.7,20.9L109.7,20.9L109.7,20.9L109.7,20.9z M112.4,20c0.2,0.3,0.8,0.1,1.1,0.3
		c-0.5,0.1-1,0.2-1.5,0.3C112.2,20.5,112.5,20.3,112.4,20z M112.5,19.4c0,0.1,0,0.2,0.1,0.3c-0.2,0.1-0.3-0.1-0.3,0.1
		C111.9,19.7,112.2,19.3,112.5,19.4z M115.9,19.3c0,0.2-0.5,0.2-0.4,0.5c-0.7,0.2-1.3,0.3-2,0.5c0.4-0.2-0.2-0.5,0.2-0.7
		c-0.1-0.3-0.5,0-0.5-0.4c0.5,0.1,1,0.3,1.5,0.4C114.3,19,115.2,19.4,115.9,19.3z M115.7,18.1c0,0,0,0.1,0,0.1
		C115.8,18.2,115.7,18.1,115.7,18.1z M116,18.8C116,18.8,116,18.8,116,18.8C116,18.8,116,18.8,116,18.8L116,18.8z M116.3,19.2
		c0.3-0.1,0.4-0.1,0.6,0c0,0.1,0,0.1,0,0.2c-0.1,0-0.3,0.1-0.4,0.1C116.4,19.5,116.4,19.3,116.3,19.2z M118.4,18.3
		c1.7,0.2,2.8-0.2,4.9-0.4c-0.7,0.6-3.2,1.2-4,0.8c0,0.5-0.9,0.8-1.2,0.4C117.9,18.6,118.4,18.6,118.4,18.3z M120.4,13.3
		c0.1,0.3-0.5,0-0.4,0.3c-0.4,0-0.1-0.3-0.4-0.6c0.3-0.1,0.5-0.1,0.8-0.2C120.5,13,120.1,13.3,120.4,13.3z M122.2,19.5
		c0-0.4-0.5-0.1-0.7-0.2c0.3-0.4,0.6-0.2,1.2-0.4c0,0.2-0.5,0.1-0.4,0.4c0.9,0.8,2.1-0.6,3.1-0.4c-0.2,0.7-0.6,1.1-1.6,1
		c0.1,0.1,0.3,0.2,0.6,0.1c-0.6,1.3-2.6,0.9-3.8,1.4c-0.1-0.1-0.2-0.4-0.3-0.5c-0.4,0.2-1,0.7-1.2,0c-0.3,0.1-0.1,0.6-0.3,0.8
		c-0.4,0.1-0.7-0.1-0.7-0.6c-0.2,0.1,0.1,0.5-0.1,0.6c-0.7,0-1.3,0-1.6-0.6C118.6,20.8,120.3,20.2,122.2,19.5z M123.5,16.2
		L123.5,16.2C123.5,16.2,123.5,16.2,123.5,16.2C123.5,16.2,123.5,16.2,123.5,16.2z M139.7,34.6c-0.2-0.1,0.8-0.3,1-0.4
		C140.7,34.6,140,34.5,139.7,34.6z M140.3,36.3c-0.2,0.1-0.3,0.3-0.5,0.4C140,36.6,140.2,36.4,140.3,36.3z M92.9,82.1
		c0,0.3-0.9,0.6-0.9,0.1C92.3,82.1,92.6,82.1,92.9,82.1z M28.2,68.6c-0.6,0.9-2.1,0.5-3.2,1.1C25.6,69.2,27.2,68.7,28.2,68.6z
		 M27.9,66.4c0.1,0,0.1,0.1,0.2,0.1C28.1,66.5,28,66.4,27.9,66.4z M27.7,62.9c0.3-0.4,0.9-0.6,1.4-0.6C28.9,62.6,28,62.8,27.7,62.9z
		 M33.2,91c-0.1,0.5-0.7,0.1-1,0.3C32.3,91,33,91.1,33.2,91z M43.3,34c0.5-0.6,1.3-0.4,1.7,0c-0.5,0.2-1,0.4-1.5,0.6
		C43.5,34.4,43.5,34.2,43.3,34z M42.5,33.7c0.1-0.4,0.6-0.6,1.2-0.9C43.7,33.3,43,33.7,42.5,33.7z M56.9,28.6
		c0.3-0.4,0.6-0.4,1.1-0.6C58.3,28.5,57.3,28.5,56.9,28.6z M95.1,19.5c-0.3,0-0.5-0.1-0.4,0.3c-0.3,0-0.7,0-1-0.2
		C94,19.7,94.8,18.8,95.1,19.5z M104.4,14.2c0.1,0.2,0,0.4-0.2,0.4c-0.2,0-0.3-0.1-0.4-0.1C104,14.4,104.2,14.3,104.4,14.2z
		 M103.7,14.9c-0.2,0-0.4,0-0.6,0C103.3,14.9,103.5,14.9,103.7,14.9z M102.8,14.9c0.1,0,0.2,0,0.3,0C103,14.9,102.9,14.9,102.8,14.9
		L102.8,14.9z M96,18.2c0.1-0.5,0.5-0.7,1-0.8C96.7,17.6,96.6,18.1,96,18.2z M116.7,20.2c0.2,0,0.3,0,0.3,0.3
		c-0.3,0.1-0.4,0.1-0.5-0.2C116.6,20.3,116.7,20.2,116.7,20.2z M120.2,25.5c-0.6,0.2-0.9,0-1.5,0.2c0.3-0.5,1.2-0.2,1.6-0.7
		C120.4,25.2,120,25.2,120.2,25.5z M122.9,25.6c-0.5-0.2,0.4-0.3,0.6-0.4c0.6,0-0.3,0.2-0.5,0.2C122.9,25.5,122.9,25.6,122.9,25.6z
		 M123.8,28.1c-0.1,0.3-0.8,0.2-1.1,0.3C122.6,27.9,123.5,28.1,123.8,28.1z M124.7,27.9c0.1,0,0.3-0.2,0.3-0.3
		c0.2,0,0.2,0.2,0.4,0.2C125.1,28.1,123.2,28.5,124.7,27.9z M107.4,28.5c0.1-0.1,0.3-0.2,0.4-0.3c0,0,0,0.1,0,0.1
		C107.7,28.4,107.5,28.5,107.4,28.5L107.4,28.5z M110.5,27.1c0.4,0.1,0.7-0.3,0.9,0c0,0.4-0.5,0.5-0.8,0.6
		C110.5,27.7,110.4,27.3,110.5,27.1z M117.6,26.2C117.6,26.2,117.6,26.2,117.6,26.2C117.6,26.2,117.6,26.2,117.6,26.2
		C117.6,26.2,117.6,26.2,117.6,26.2z M120.4,28c0-0.3,0.4-0.1,0.5-0.1C122,27.7,120.7,28.3,120.4,28z M117.3,29.2
		c0.4-0.1,0.8-0.1,1.1-0.2c0,0,0,0,0,0c0,0,0,0,0.1,0c0,0.1,0,0.2-0.1,0.2c-0.6,0.1-1,0.1-1.4,0.2C117.1,29.3,117.2,29.3,117.3,29.2
		z M119.8,28c0,0.3-0.7,0.2-0.8,0.2C119,27.9,119.7,27.9,119.8,28z M117.9,29c-0.1,0-0.2,0-0.3,0c0,0,0,0,0,0
		C117.7,29,117.8,29,117.9,29z M117.3,34.9c0,0-0.1-0.1-0.1-0.2C117.2,34.8,117.3,34.9,117.3,34.9C117.3,34.9,117.3,34.9,117.3,34.9
		z M111.8,38.1c0.1,0.3,0.1,0.6-0.2,0.6c-0.1-0.3,0.1-0.3-0.1-0.4c-0.3,0.2-0.8,0.3-1.2,0.4c0.3-0.2,0.5-0.3,0.8-0.5
		C111.3,38.2,111.6,38.2,111.8,38.1z M112.8,27.4c-0.3,0-0.6-0.2-0.8-0.3c-0.1-0.5,0.8-0.3,1.1-0.4c0,0.2,0.1,0.4,0.1,0.6
		C113,27.3,112.9,27.3,112.8,27.4z M116.6,27.5c0.1-0.1,0.2-0.1,0.4-0.1C116.8,27.4,116.7,27.5,116.6,27.5z M113.5,27
		c0-0.2-0.2-0.2-0.2-0.4c0.9-0.4,1.9-0.3,2.7-0.6c0,0,0,0,0,0C115.2,26.3,114.4,26.7,113.5,27z M115,21.6c0.1-0.2,0.5-0.2,0.8-0.3
		c0.1,0.2-0.2,0.8-0.7,0.8C115.1,22,115.1,21.8,115,21.6z M114.9,21.6c0,0.3-0.1,0.6-0.2,0.9c-0.5,0.1-0.8,0.1-1.2,0
		c0.4-0.3,0.8-0.5,1.1-0.8C114.7,21.7,114.8,21.7,114.9,21.6z M109.9,27.4c0,0.2,0.1,0.3,0.1,0.5c-0.4-0.3-0.7,0.1-1.3,0
		c0,0,0-0.1,0-0.1c0.1-0.1,0.3-0.2,0.4-0.3C109.4,27.5,109.6,27.6,109.9,27.4z M125,20.7c-0.1-0.4,1-1,1.1-0.3
		C125.6,20.4,125.4,20.6,125,20.7z M109.7,21.1L109.7,21.1C109.7,21.1,109.7,21.1,109.7,21.1L109.7,21.1
		C109.7,21.1,109.7,21.1,109.7,21.1z M108.2,21.5c0,0,0-0.1,0-0.1c0.1,0,0.3,0,0.4,0C108.5,21.4,108.4,21.5,108.2,21.5z M33.4,38.2
		c0.1,0.4-0.2,0.7-0.6,0.9C32.7,38.7,33,38.5,33.4,38.2z M26.5,59.6c-0.2,0.1-0.4,0.3-0.6,0.4C26.1,59.9,26.3,59.8,26.5,59.6z
		 M26.4,61.2c0.2,0,0.3,0.1,0.4,0.1c0.3-0.2-0.4-0.4-0.2-0.7c0.2-0.1,0.3-0.1,0.5-0.2c0.2,0.3-0.1,0.4,0.2,0.7
		c0.6-0.2,2.3-0.2,2.2-0.8c0.2,0,0.4,0.2,0.5,0.4c-0.1,0.1-0.2,0.1-0.2,0.2c0,0-0.1,0-0.1,0.1c-1.3,0.5-2.3,1.4-3.5,1.1
		C25.9,61.6,26.7,61.6,26.4,61.2z M25.7,67.2c-0.2-0.2-0.4-0.3-0.5-0.5c0.4-0.1,0.8-0.1,1.1,0C26.5,67.1,26.1,67,25.7,67.2z
		 M23.1,69.6c0.1,0.5-1.1,0.6-1.5,0.8C21.8,70,22.6,69.8,23.1,69.6z M20.7,77.3c-0.3,0.1-0.6,0.3-0.9,0.4c-0.1-0.1-0.1-0.3-0.2-0.4
		C20,77.3,20.3,77.3,20.7,77.3z M31.3,93.4C31.3,93.4,31.3,93.4,31.3,93.4c-1,0.5-2.5,0.6-3.5,0.7C28.9,93.3,30.1,93.7,31.3,93.4z
		 M33.4,95.3c-0.1,0.1-0.2,0.1-0.3,0.2c-1.9,0.4-4,0.6-5.7,0.5C29.5,95.6,31.4,95.5,33.4,95.3z M138.8,53.7L138.8,53.7L138.8,53.7
		L138.8,53.7z M140.7,35.6c-0.2,0.1-0.1-0.4-0.2-0.5c0.1,0,0.2,0,0.2,0.1c0.2-0.2,0.3-0.4,0.5-0.6C141.6,34.9,140.7,35.3,140.7,35.6
		z M141.4,32.2c-0.2,0.2-0.5,0.4-0.9,0.3C140.7,32,141,32.1,141.4,32.2z M139.3,33.9c0.3-0.3,0.7,0,1.2-0.2
		C140.4,33.9,139.4,34.4,139.3,33.9z M140,32.2c-0.1,0.6-0.4,0.5-1.1,0.6C139.1,32.5,139.6,32.4,140,32.2z M138.6,31.6
		c0.1-0.1,0.5-0.4,0.6-0.1C139.4,31.8,138.5,32,138.6,31.6z M139.2,49.7c-0.3,0.7-1.4,0.1-1.9,0.3C137.8,49.5,138.6,49.8,139.2,49.7
		z M136.9,49.9c-0.1,0.4-0.5-0.1-0.8,0.2C136.2,49.7,136.6,49.8,136.9,49.9z M135.8,29.1c-0.7,0.2-1.2,0-1.6-0.3
		C134.9,28.6,135.4,28.8,135.8,29.1z M134.4,27.9c-0.4,0-0.4,0.2-0.7,0.2C132.9,27.5,134.4,26.8,134.4,27.9z M131.1,21.8
		c-1-0.2-1.1,0.9-2,0.6C129.2,21.6,130.4,21.4,131.1,21.8z M129.5,23.9c0,0.2-0.2,0.7,0.3,0.5c-0.5,0.2-1,0.6-1.4,0.5
		C128.5,24.4,129.2,24.3,129.5,23.9z M127.1,26.8c-0.1,0.3-0.8,0.2-1,0.2C126.3,26.7,126.9,26.8,127.1,26.8z M126,25.3
		c-0.2-0.4,0.4-0.2,0.6-0.4C126.6,25.1,126.4,25.2,126,25.3z M125.8,19.1c0.2,0,0.4-0.1,0.6-0.1C126.6,19.4,125.7,19.7,125.8,19.1z
		 M124.4,18.7c0.2-0.3,0.6-0.4,1.1-0.4C125.5,18.9,124.9,18.5,124.4,18.7z M125.4,11.7c-0.1,0.2-0.3,0.4-0.6,0.5
		c-0.1-0.1-0.2-0.4-0.5-0.2c0.3,0.4-0.6,0.5-1.5,0.6C123.1,11.7,124.3,11.7,125.4,11.7z M125.2,12.6c-0.4,0.3-1.2,0.7-2,0.6
		C123.4,12.5,124.5,12.8,125.2,12.6z M123,13.2c-0.1,0.5-1.4,0.6-1.6,0.7C121.2,13.2,122.8,13.2,123,13.2z M122.7,15.9
		c0.9-0.2,2.2-1.1,2.7-0.2c-1.7,0.1-2.6,0.7-4.4,0.9C120.8,15.6,122,16,122.7,15.9z M120.8,14.2c-0.3,0.1-0.6,0.2-0.8,0
		C120,13.8,120.7,13.8,120.8,14.2z M120.5,11.9c-0.1,0.4-0.5,0.5-1.1,0.6C119.5,12.1,120,12,120.5,11.9z M119.4,16.5
		c0.2,0.7-1.1,0.4-1,1c-0.2-0.1-0.4-0.3-0.7-0.3C118,16.9,118.9,16.9,119.4,16.5z M117,10.1c0.3-0.2,0.2,0.3,0.4,0.4
		c0.3-0.1,0.1-0.3,0-0.6c0.6-0.1,0.6,0.2,1-0.2c0.1,0.4,0.1,0.8,0.2,1.1c-0.4,0.3-0.3-0.2-0.5-0.2c-0.2,0.1,0,0.4-0.1,0.5
		c-0.3-0.2-0.4,0-0.7,0.1c-0.1-0.1-0.2-0.4-0.4-0.4C117.1,10.7,117.1,10.5,117,10.1z M116.3,9.4c0.1,0.4-0.1,1.2,0.5,1.4
		c0.2,0.8-1,1.1-1.1,0.2c0-0.2,0.4-0.1,0.4-0.3c-0.3-0.3-0.4-0.2-0.4-0.9c-0.5,0-0.8,0.5-1.2,0.2C114.8,9.6,115.6,9.4,116.3,9.4z
		 M110.3,12.7c0-0.3-0.6,0.2-0.5-0.2c0.7-0.3,1.4-0.2,2.4-0.5c-0.2,0.3-0.1,0.5,0.3,0.4c0.3-0.2,0.1-0.2,0-0.5
		c0.3-0.2,0.2,0.3,0.5,0.2c0.4-0.1,0.4-0.8,0.8-0.5c-0.1-0.1-0.1-0.2-0.3-0.2c0.5-0.5,1.4-0.1,1.9-0.5c0.1,0.3,0.2,0.6,0,0.8
		c-0.2-0.1-0.3-0.2-0.3-0.5c-0.2,0.2,0,0.5-0.1,0.7c-0.3,0-0.3,0.3-0.6,0.4c0-0.1-0.1-0.2-0.2-0.2c0.1-0.1,0.2-0.1,0.5-0.2
		c-0.1-0.3-1.4-0.2-1.1,0.3c-0.4,0.1,0-0.2-0.3-0.3c-0.3,0.1-0.1,0.3,0,0.6c-1.2,0.1-2.4,0.5-3.4,1c0-0.3-0.1-0.5-0.3-0.5
		C109.7,12.9,110.1,12.9,110.3,12.7z M109.6,13.3c0.1,0.4-0.8,0.3-0.8,0C109.1,13.4,109.4,13.3,109.6,13.3z M106.9,11.5
		c0.1,0.6-0.8,0.3-1.1,0.3C106.1,11.5,106.4,11.6,106.9,11.5z M104,13.1c-0.6,0.2-1.3,0.2-1.8,0.5l0,0
		C102.6,13.3,103.3,13.2,104,13.1z M102,13.3c0,0.3-0.4,0.3-0.7,0.4C101,13.3,101.7,13.4,102,13.3z M95.4,15.6
		c0.3-0.4,0.9-0.6,1.6-0.7c0.2,0.1-0.7,0.3-0.6,0.7c0.7-0.4,1.3-1.2,2.6-1.4c-0.4,1-1.9,1.3-2.6,2c-0.3,0.2-0.2-0.3-0.5-0.2
		c-0.3,0.2-0.1,0.4-0.1,0.7c-0.1,0.1-0.3,0.1-0.4,0.2C95.2,16.6,95.6,15.7,95.4,15.6z M94.4,16.4c0,0.3,0.1,0.4,0.4,0.3
		c-0.1,0.2-0.3,0.4-0.3,0.6c-0.2,0.1-0.4,0.1-0.6,0.2C93.4,17.3,93.7,16.6,94.4,16.4z M83.1,20.1C83.1,20.1,83.1,20.1,83.1,20.1
		c0.1,0,0.2-0.1,0.2-0.1C83.3,20.1,83.2,20.1,83.1,20.1z M85.8,17.5c-0.4,0.1-0.8,0.2-1.2,0.3C84.8,17.5,85.3,17.5,85.8,17.5z
		 M65.5,24.3c-0.1,0.1-0.2,0.1-0.4,0.2c0-0.1,0-0.2,0-0.3C65.3,24.3,65.4,24.3,65.5,24.3z M56.8,23.7c0,0.3,0,0.6-0.5,0.7
		C56.2,24.1,56.6,24,56.8,23.7z M56.5,25.2c-0.1,0-0.2,0-0.3,0.1c-0.1-0.2-0.3-0.4-0.3-0.6C56.3,24.5,56.4,24.9,56.5,25.2z
		 M55.9,25.3c0,0,0,0.1-0.1,0.1c-0.4,0.1-0.7,0.2-1.1,0.3C55,25.2,55.8,25,55.9,25.3z M54.2,25.2c0.1,0.1,0,0.4-0.1,0.6
		c-0.2,0.1-0.5,0.2-0.7,0.2C53.7,25.8,54,25.5,54.2,25.2z M52.7,26.6c0,0-0.1,0-0.1,0c0.1-0.1,0.1-0.1,0.2-0.2
		C52.8,26.5,52.7,26.6,52.7,26.6z M50,29L50,29L50,29C50,29,50,29,50,29z M40.5,34.2c-0.1,0.2-0.3,0.3-0.2,0.5
		c0.2,0,0.6-0.3,0.7,0.1c-0.2,0.1-0.5,0.2-0.7,0.3c-0.1-0.1,0.1-0.2,0-0.4c-0.2,0.1-0.5,0.6-0.7,0.3c0.2-0.1,0.2-0.3,0.2-0.5
		C40,34.5,40.3,34.3,40.5,34.2z M11.4,60.6c0.1-0.3,0.9-0.5,1.2-0.5C12.5,60.5,11.7,60.7,11.4,60.6z M17.3,58
		c-0.3,0.7-1.5,0.4-2.3,1C15.2,58.4,16.6,58.4,17.3,58z M15.7,60.9c0-0.2,0-0.5-0.2-0.5c-0.1,0-0.2,0.1-0.3,0.1
		c0.1-0.1,0.2-0.1,0.3-0.1c1.1-0.4,2.8-0.9,4.3-1.1c0.3,0.4,0.7,0.6,1,0.7c-0.1,0-0.2,0.1-0.3,0.1c-0.1-0.1-0.2-0.2-0.3-0.4
		C18.6,60.4,17.2,60.6,15.7,60.9z M18.1,61c0.2-0.1,0.4-0.2,0.6-0.3C19.1,60.9,18.1,61.4,18.1,61z M16.5,62.5c0.3,0.3-0.2,0.3,0,0.6
		c-0.4-0.3-1.3,0.5-1.4-0.4C15.5,62.7,15.9,62.9,16.5,62.5z M14.7,64.4c1-1.3,3.8-1.7,5-3.2c0.2,0.5,0.9,0.1,1.3,0.3
		c-0.5,0.8-3,1.1-4,2.2c3.4-1.3,5.5-2.6,7.8-3.1c-0.4,1.1-2.8,0.7-3.2,1.7c1.3,0,2.8-1.5,3.8-1c0,0.3-0.7,0.4-0.5,0.7
		c0.4-0.2,0.8-0.4,1-0.2c0.1,0.4,0.3,0.2,0.4,0.6c-1.7,0.5-2.9,1-4.6,1.7c0,0-0.1,0-0.1,0.1c0,0,0-0.1,0-0.1
		c-0.6,0.2-1.6,0.5-1.5-0.2c-0.6,0.2-1.3,0.2-1.8,0.7c0-0.2,0.1-0.2-0.1-0.3c-0.3,0.4-0.8,0.3-1.2,0.8c-0.1-0.2-0.4,0-0.5-0.4
		c-0.6,0.2-1.3,0.6-1.8,0.4c0.6-0.1,0.7-0.4,1.1-0.6C15.6,63.8,14.9,64.7,14.7,64.4z M10.6,65.4c1.1-0.9,2.3-1.9,3.9-2.4
		c-0.3,0.5-0.8,0.7-1.5,0.9c-0.5,0.3,0.3,0.3,0.1,0.5C12.3,64.2,11.6,65.1,10.6,65.4z M12.6,73.7c0.8,0.2,0.5,1,0.9,1.5
		C13.1,74.7,13.4,73.9,12.6,73.7z M16.7,75.1c-0.2-0.5-1.1,0.6-1.3,0c1.4-0.3,3.2-1,4.3-1.2c0.3,0.4-0.7,0.4-0.7,0.7
		c0.1,0.2,0.3,0.3,0.5,0.3c-0.3,0.2-0.6,0.4-1,0.6c-0.1,0.1-0.2,0.3-0.2,0.5c-0.1,0-0.3,0-0.4,0c0.2,0.9-0.8-0.1-1.5,0.4
		c0.1,0.3,0.5,0,0.8-0.1c-0.8,0.5-3.2,1.5-4,0.9C14.2,76.4,15.9,76,16.7,75.1z M18.3,79.6c-2.1,0.8-3.6,0.2-5.4,0.5
		c-0.1-0.1-0.2-0.1-0.3-0.3c1.5-1.3,3.8-2.1,5.8-2.4c0.1,0.5,0.2,1,0.3,1.4c0.1,0.3,0.3,0.6,0.6,0.8C18.9,79.6,18.6,79.6,18.3,79.6z
		 M25.3,85.1c-0.8,0.6-2.1,0.7-2.9,1c0.1-0.1,0.3-0.3,0.4-0.4C23.6,85.5,24.4,85.3,25.3,85.1z M25.2,97.7c0.3-0.5,0.7-0.3,1.1-0.1
		c1.5-0.2,3-0.4,4.5-0.6c-0.1,0.1-0.2,0.1-0.3,0.2c0.1,0.1,0.1,0.2,0.2,0.2C28.9,97.6,27,97.7,25.2,97.7z M31.4,97.4
		c0.4-0.2,0.7-0.4,1.1-0.5c1.2-0.1,2.4-0.1,3.5-0.1C34.4,97.1,32.9,97.3,31.4,97.4z M44.3,100.2c-0.1,0-0.1,0-0.2,0
		C44.2,100.2,44.2,100.2,44.3,100.2L44.3,100.2z M44.3,100.2L44.3,100.2C44.3,100.2,44.3,100.2,44.3,100.2
		C44.3,100.2,44.3,100.2,44.3,100.2z M74.5,93.4c-0.1,0-0.3,0.1-0.4,0.1C74.3,93.5,74.4,93.5,74.5,93.4c0.3-0.1,0.5-0.2,0.8-0.3
		C75.1,93.2,74.8,93.3,74.5,93.4z M84.6,88.5c-0.4-1,0.9-0.6,1.4-0.7C85.7,88.2,85.1,88.1,84.6,88.5z M87.5,88.4
		c-0.1-0.1-0.1-0.2,0-0.3c-0.2-0.2-0.6-0.1-0.9-0.2c0.2-0.3,0.8-0.7,1.2-0.8c0.3,0.3-0.5,0.3-0.5,0.6c0,0.4,0.5,0,0.6,0.4
		C87.7,88.2,87.8,88.3,87.5,88.4z M89.6,89.1c-0.7,0.4-1.4,0-1.5-0.2C88.5,88.3,89.2,88.7,89.6,89.1z M110.5,78.7
		c0.2,0,0.5,0,0.8-0.1C111,78.7,110.7,78.7,110.5,78.7z M120.1,76.3c-0.2-1.1,0.8-0.3,1.3-0.4C121.1,76.2,120.6,76,120.1,76.3z
		 M122.7,76.6c-0.2-0.3-0.5-0.3-0.8-0.4c0.2-0.2,0.8-0.5,1.2-0.5c0.2,0.4-0.5,0.2-0.5,0.4c0,0.4,0.5,0.1,0.4,0.5
		c-0.2,0-0.2,0.2-0.4,0.2C122.6,76.7,122.7,76.6,122.7,76.6z M124.3,78.1c-0.7,0.3-1.3-0.4-1.3-0.6C123.5,77,124.1,77.6,124.3,78.1z
		 M127.6,71.9c0.3-0.1,0.6,0,0.8,0.1C128.3,72.2,127.5,72.4,127.6,71.9z M135.9,71.5c0.1-0.3,0.5-0.3,0.8-0.3
		C136.7,71.5,136.1,71.6,135.9,71.5z M136.9,70.7c0.1-0.2,0.4-0.2,0.7-0.2c-0.1,0.2-0.1,0.5-0.5,0.6C137,70.9,136.9,70.8,136.9,70.7
		z M137.2,71.6c0-0.4,0.6-0.3,0.8-0.5C138.2,71.7,137.5,71.8,137.2,71.6z"/>
	<path class="st2" d="M103,11.8c0-0.3,0.6,0.1,0.5-0.3C103.3,11.2,102.7,11.7,103,11.8z"/>
	<path class="st2" d="M126.3,9.6c0.4,0.5,1.1-0.3,1.4,0.2c0.2,0.2,0.6,0,0.7-0.2C127.6,9.5,126.9,8.9,126.3,9.6z"/>
	<path class="st2" d="M120.6,3.5c0-0.3-0.1-0.5-0.2-0.7c-0.6,0.3-1,0.7-1.4,1.1C119.5,3.6,120.2,3.7,120.6,3.5z"/>
	<path class="st2" d="M100.4,3.4c0.1-0.2,0.1-0.8-0.3-0.8C99.8,2.8,99.9,3.6,100.4,3.4z"/>
	<path class="st2" d="M117.7,1.1c-0.2-0.5-0.4-0.5-0.3-1.1c-0.9,0.1-0.4,1-0.3,1.5C117.4,1.4,117.2,1.1,117.7,1.1z"/>
	<path class="st2" d="M102,6.3c0.1,0.2,0.1,0.6,0.4,0.5c0-1.1,1.1-1.3,1.9-1.7c0.3,0.1,0.1,0.8,0.5,0.7c0-0.5,0.2-0.7,0.7-0.8
		c-0.1-0.6-1.1,0.1-1.3-0.5c-0.2,1-2.1,0.5-2.2,1.4c0.2,0.1,0.4,0.1,0.4,0.4C102.3,6.3,102.1,6.3,102,6.3z"/>
	<path class="st2" d="M89.4,9.4c-0.3-0.4-0.2-1.2-0.7-1.3C88.5,8.5,89,8.9,89,9.5C89.1,9.5,89.3,9.5,89.4,9.4z"/>
	<path class="st2" d="M116.3,5.8c0.2-0.6,0.4-1.5,1.1-1.5c0-0.2-0.1-0.4,0-0.5c0.5,0.1,0.8-0.5,0.9-0.3c-0.2,0.5-0.8,0.6-0.8,1.2
		c0-0.2-0.1-0.3-0.3-0.3c-0.3,1.2,0.6,1.4,1.4,1.2c-0.2-0.7-0.2-0.7-0.4-1.4c0.8-0.1,0.3-1.1,1.2-1.2c-0.9-0.1-1.8,0.2-2.6-0.1
		c0.1,0.4,0.3,0.6,0,0.8c-0.2,0-0.2-0.3-0.5-0.1c-0.1,0.5-0.3,0.6,0,1.2c-0.2,0-0.3,0.1-0.5,0.1C116,5.2,115.8,6,116.3,5.8z"/>
	<path class="st2" d="M86.4,12.1c-0.2,0.4-1.1,0.4-1.1,1c0.8-0.1,0.9-0.6,1.5-0.9c-0.2-0.3-0.1-0.4,0.1-0.6c0,0.1,0.1,0.1,0.2,0.1
		c0.1,0.2-0.1,0.3,0,0.5c0.5-0.2,1-0.4,1.3-0.7c-0.3,0.1-0.7,0.1-1,0.2c-0.1-0.3-0.1-0.6-0.2-0.9c0.1,0,0.3,0,0.3-0.2
		c-0.5,0-0.5-0.1-0.2-0.4c-1.1,0.1-2.1,1-2.6,1.8c0.3-0.1,0.5-0.3,0.7,0c-0.2,0.3-0.9,0.3-0.9,0.8C85.2,12.6,86,11.8,86.4,12.1z
		 M85.8,11.9c0-0.2-0.2-0.2-0.2-0.4c0.3-0.4,0.8-0.3,1.3-0.4C87.2,11.9,86,11.3,85.8,11.9z"/>
	<path class="st2" d="M89.5,11.5c0.6-0.2,1-0.5,1.2-0.9C90,10.3,89.3,10.8,89.5,11.5z"/>
	<path class="st2" d="M123,7.3c-0.7,0.2-1.5,0-2,0.4c0,0.2,0.1,0.2,0.2,0.3C122,7.9,122.8,7.6,123,7.3z"/>
	<path class="st2" d="M40.6,22.1c-0.6,0.5-0.5-0.5-1-0.3c0.3,0.4,0.1,0.6,0.2,0.9C40.3,22.8,40.5,22.3,40.6,22.1z"/>
	<path class="st2" d="M52.4,17.9c0-0.3-1-0.2-0.8,0.2C51.7,18.3,52.1,17.9,52.4,17.9z"/>
	<path class="st2" d="M50.1,19.5c-0.1-0.2,0.1-0.3,0.1-0.4c-0.6,0.2-0.7,0.6-1.1,0.4c0,0.4,0.1,0.5,0.3,0.7
		C49.9,20,49.3,19.4,50.1,19.5z"/>
	<path class="st2" d="M55.1,17.6c-0.1-0.3-0.3-0.5-0.5-0.5C54.4,17.3,54.6,17.9,55.1,17.6z"/>
	<path class="st2" d="M48.3,20.4c0.1,0,0.2-0.1,0.2-0.1c0-0.1,0-0.1,0.1-0.2c0-0.1-0.1-0.1-0.1-0.2c-0.1,0-0.1,0-0.2-0.1
		c-0.1,0-0.2,0.1-0.2,0.1c0,0.1,0,0.1-0.1,0.2c0,0.1,0.1,0.1,0.1,0.2C48.2,20.3,48.3,20.3,48.3,20.4z"/>
	<path class="st2" d="M54.4,17.7c-0.2,0.1-0.2-0.3-0.4-0.2c0.3,0.4-0.1,0.3-0.4,0.4c0,0.2,0,0.3,0.1,0.6C54,18.2,54.3,18,54.4,17.7z
		"/>
	<path class="st2" d="M38,25.2c-0.2-0.5,0.8-0.6,0.7-1c-0.8,0.5-1.4,0.8-2,1C36.9,25.6,37.5,24.9,38,25.2z"/>
	<path class="st2" d="M51.4,19.1c-0.1-0.4-0.4-0.2-0.7-0.1c0.1,0.1,0.1,0.3,0.2,0.4C51.3,19.4,51.1,19.1,51.4,19.1z"/>
	<path class="st2" d="M47.9,21c0-0.2,0-0.3-0.1-0.6C47.3,20.5,47.5,21.1,47.9,21z"/>
	<path class="st2" d="M49,20.9c0-0.2,0.1-0.3-0.1-0.5c-0.1,0.1-0.2,0.1-0.4,0.2C48.6,20.8,48.7,20.9,49,20.9z"/>
	<path class="st2" d="M40.3,25.6c-0.4-0.4-0.3-0.9-0.6-1.1c0,0.1,0,0.2-0.2,0.2C40,25.2,39.4,25.7,40.3,25.6z"/>
	<path class="st2" d="M50.9,20.8c-0.1-0.4-0.3-0.7-0.6-0.7C50.4,20.4,50.3,21,50.9,20.8z"/>
	<path class="st2" d="M42.6,23.6c-0.3-0.1-0.5,0.2-0.5,0.5C42.4,23.9,42.7,23.8,42.6,23.6z"/>
	<path class="st2" d="M53.9,20c0.2-0.2-0.2-1-0.5-0.8c0,0.2-0.1,0.3-0.3,0.4C53.4,19.7,53.6,20.1,53.9,20z"/>
	<path class="st2" d="M55.8,19c0.1-0.3-0.1-0.7-0.5-0.5C55.1,18.8,55.5,18.9,55.8,19z"/>
	<path class="st2" d="M55.3,19.4c-0.3,0.3-0.6,0.1-0.8,0.5c0,0.1,0.1,0.2,0.1,0.3C55,20,55.4,19.8,55.3,19.4z"/>
	<path class="st2" d="M37.1,28.1c-0.1-0.3-0.4-0.3-0.6-0.4C36.4,28,36.6,28.4,37.1,28.1z"/>
	<path class="st2" d="M48.9,22.6c0.1,0.2,0.2,0.5,0.3,0.7C49.8,23.2,49.2,22.6,48.9,22.6z"/>
	<path class="st2" d="M43.4,25.1c-0.4,0.1-0.6,0.4-0.6,0.6C43.2,25.6,43.6,25.4,43.4,25.1z"/>
	<path class="st2" d="M53.1,21.7c-0.1-0.3-0.2-0.4-0.3-0.5c-0.4,0.1-0.4,0.3-0.5,0.6C52.6,21.8,52.8,21.9,53.1,21.7z"/>
	<path class="st2" d="M63.2,17.2c0.1,0.1,0.1,0.3,0.2,0.4C63.8,17.5,63.6,16.9,63.2,17.2z"/>
	<path class="st2" d="M36.7,28.6c0.1,0.4,0.4,0.2,0.7,0.1C37.4,28.3,37.1,28.4,36.7,28.6z"/>
	<path class="st2" d="M50.7,23.7c0.2,0.3,0.2,0.2,0.1,0.5c0.3,0.1,0.3-0.2,0.7-0.3c-0.1-0.1-0.1-0.3-0.2-0.4
		c-0.2,0.1-0.4,0.2-0.5,0.1c0.5-0.3,1.4-0.6,1.5-1c-0.7,0.4-0.8-0.2-1.4,0c0.3,0.6-0.1,0.7-0.7,0.8c0,0.2-0.2,0.4,0,0.7
		C50.7,24,50.5,23.5,50.7,23.7z"/>
	<path class="st2" d="M67.7,16.2c0.2-0.1,0.4-0.2,0.6-0.3c-0.3-0.4,0.1-0.4,0-0.7c-0.2-0.1-0.5,0.1-0.8,0.2
		C67.7,15.8,67.9,15.9,67.7,16.2z"/>
	<path class="st2" d="M42.3,27c0.4-0.2,0.3-0.3,0.7-0.3c-0.1-0.1-0.1-0.3-0.2-0.4c-0.2,0.1-0.2,0.2-0.4,0.3
		c-0.1-0.1-0.1-0.2-0.3-0.1C41.9,26.7,42.2,26.6,42.3,27z"/>
	<path class="st2" d="M69.2,15.7c0-0.2,0.1-0.3,0.1-0.4C68.8,15.1,68.7,15.9,69.2,15.7z"/>
	<path class="st2" d="M49.6,23.7c0.1,0.3,0.2,0.5,0.5,0.3C50,23.8,49.9,23.5,49.6,23.7z"/>
	<path class="st2" d="M48,25.3c0.8-0.6,1.5-0.4,2.1-0.8C49.5,23.9,48,24.6,48,25.3z"/>
	<path class="st2" d="M42.9,29.7c0.3-0.6-0.4-0.6-0.4-0.8c1.4-0.4,2.3-2.1,3.7-2.9c-0.7,0.4-2.6,0.9-2.7,1.6
		C43.4,27.2,43.2,27,43,27c0.3,0.4-0.6,0.3-0.6,0.6c0.1,0.1,0.1,0.3,0.2,0.4c0.3,0,0.4-0.6,0.7-0.4c0,0.4-0.5,0.6-0.8,0.8
		c-0.1-0.3-0.2-0.5-0.5-0.4c0.1,0.4,0,0.8-0.2,1.1C42.5,28.9,42.4,29.6,42.9,29.7z"/>
	<path class="st2" d="M59.7,20.2c-0.5-0.2-0.4,0.4-0.4,0.7C59.6,20.7,59.4,20.4,59.7,20.2z"/>
	<path class="st2" d="M55.3,23.1c-0.1,0-0.2-0.1-0.3-0.3c-0.5,0.2-0.7,0.1-0.7,0.6C54.5,23.5,55.2,23.5,55.3,23.1z"/>
	<path class="st2" d="M72.8,15.3c-0.3-0.1-0.7,0.2-0.7,0.4C72.4,15.8,72.7,15.5,72.8,15.3z"/>
	<path class="st2" d="M51.5,24.5C51,24.6,51,24.9,51,25.2c0.4,0.1,0.4-0.2,0.8-0.4C51.7,24.7,51.6,24.7,51.5,24.5z"/>
	<path class="st2" d="M65.5,19.9c0.5,0.5,0.8-0.2,1.1-0.5c-0.4-0.4-0.3-0.7-0.2-1.2c-0.4,0.2-0.5,0-0.6,0.3
		C66.2,19,66.3,19.6,65.5,19.9z"/>
	<path class="st2" d="M38.5,31.3c0.3-0.2,0.6,0,0.9-0.1c0.6-0.2,1.4-1.3,1.4-2c-0.5,0.3-0.3,0.8-1,1c-0.3-0.1-0.1-0.3-0.2-0.5
		c-0.1,0.1-0.2,0.1-0.4,0.2C39.8,30.6,38.1,30.6,38.5,31.3z"/>
	<path class="st2" d="M45.2,27.6c-0.5,0.4-1.8,1.3-2.1,2.1c0.9-0.3,1.3-0.9,2-1.5C44.6,27.9,45.1,28,45.2,27.6z"/>
	<path class="st2" d="M37.1,31.8c0,0.2-0.1,0.3-0.3,0.4c0.1,0.3,0.4,0.2,0.5,0.5c0.5-0.4,0.9-0.8,1.1-1.1c-0.2,0-0.6-0.1-0.8,0.2
		c-0.1-0.1-0.3-0.2-0.4-0.3c0.1-0.2,0.7-0.3,0.6-0.6c-0.5,0-0.7,0.6-1.4,0.6C36.5,32,36.9,31.6,37.1,31.8z"/>
	<path class="st2" d="M70.7,17.3c0.2-0.1,0.3-0.1,0.3,0.1c-0.5,0.1-0.4,0.4-0.9,0.5c-0.1-0.1-0.1-0.3-0.3-0.3c0,0.2-0.2,0.2-0.4,0.2
		c-0.1,0.2,0,0.4,0.2,0.7c0.5-0.1,1.4-0.6,1.8-1.4c0.1,0.3,0.2,0.6,0.5,0.5c0.3-0.5-0.2-0.6-0.5-0.9C71.1,16.9,70.8,17.1,70.7,17.3z
		"/>
	<path class="st2" d="M58,23.2c0.3-0.1,0.5-0.3,0.3-0.5C58,22.8,57.9,23,58,23.2z"/>
	<path class="st2" d="M42.2,29.7c-0.2,0.3,0.2,0.5,0.5,0.4C42.8,29.9,42.4,29.7,42.2,29.7z"/>
	<path class="st2" d="M41.7,30.2c-0.5,0.5-1.2,0.4-1.4,1c0.8-0.8,0.3,0.6,1.1,0.3c0.1-0.3-0.1-0.4-0.3-0.6
		C41.3,30.6,41.7,30.5,41.7,30.2z"/>
	<path class="st2" d="M66.2,20.1c-0.3,0.1-0.7,0.2-0.6,0.5C65.8,20.6,66.4,20.4,66.2,20.1z"/>
	<path class="st2" d="M51.6,26.5c-0.3,0.1-0.6,0.2-0.8,0.4C51,27.4,51.4,26.7,51.6,26.5z"/>
	<path class="st2" d="M42.7,31c0.3-0.2,0.5-0.5,0.5-0.8c-0.5,0.3-0.3,0.2-0.8,0.4C42.4,30.8,42.6,30.9,42.7,31z"/>
	<path class="st2" d="M64.2,21.3c-0.4-0.1-0.8,0.3-0.7,0.6C63.8,21.7,64.4,21.6,64.2,21.3z"/>
	<path class="st2" d="M47.8,29c-0.2-0.1-0.7,0.2-0.5,0.5C47.6,29.3,47.7,29.2,47.8,29z"/>
	<path class="st2" d="M68.5,20.4c-0.4-0.2-0.2,0.5-0.7,0.6c0.2,0.3,0.2,1,0.6,1C68,21.3,68.6,20.9,68.5,20.4z"/>
	<path class="st2" d="M66,22.2c-0.1-0.3-0.3-0.5-0.5-0.5c0.1,0.3,0.1,0.5,0,0.6c-0.4-0.3-1,0.5-1.3,0.6C64.6,23.2,65.5,22.5,66,22.2
		z"/>
	<path class="st2" d="M67.4,21.8c0.1,0.3,0.2,0.4,0.5,0.4C68,22,67.8,21.6,67.4,21.8z"/>
	<path class="st2" d="M55.5,28.2c0.3-0.3,0.3,0.3,0.6,0.1c-0.3-0.6,0.6-0.2,0.4-0.8C56,27.7,55.6,27.9,55.5,28.2z"/>
	<path class="st2" d="M44.5,33.8c-0.3,0.1-0.5,0.3-0.3,0.5C44.4,34.2,44.6,34,44.5,33.8z"/>
	<path class="st2" d="M1.5,57.6c1.8-1.2,4.3-1.6,5.8-2.9C5.4,55.6,2.5,56.2,1.5,57.6z"/>
	<path class="st2" d="M7.6,54.8c1.5-0.6,3.8-1.1,4.8-2.2C10.9,53.6,9,53.8,7.6,54.8z"/>
	<path class="st2" d="M14.8,52.1c0.3,0,1.5-0.4,1.5-0.8C15.9,51.4,15.1,51.7,14.8,52.1z"/>
	<path class="st2" d="M18.3,50.5c-0.5,0-0.6,0.3-1.1,0.4C17.3,51.3,18.3,50.7,18.3,50.5z"/>
	<path class="st2" d="M10.8,57.6c0,0.5,0.9,0.1,0.9-0.1c-0.2,0-0.6-0.4-0.7,0C11.6,57.3,11,57.8,10.8,57.6z"/>
	<path class="st2" d="M24.6,61.9c-0.3-0.1-1.1,0.2-1,0.6C23.9,62.3,24.6,62.2,24.6,61.9z"/>
	<path class="st2" d="M9.3,71c0.3-0.2,0.7-0.4,0.7-0.7C9.6,70.2,9.1,70.6,9.3,71z"/>
	<path class="st2" d="M8.8,71.5c-0.3,0.6,0.7,0.9,1,0.3C9.2,72,9.4,71.3,8.8,71.5z"/>
	<path class="st2" d="M10.1,72.1c0.4-0.1,0.7,0,1.2-0.2C11.1,71.5,10.2,71.8,10.1,72.1z"/>
	<path class="st2" d="M18.5,75.1c-0.1-0.2,0.3-0.3,0.1-0.5c-0.4,0-0.9,0.5-1.6,0.6C17.4,75.5,17.9,75,18.5,75.1z"/>
	<path class="st2" d="M99.9,81.5c0.3-0.1,0.5,0,0.9-0.3C100.8,80.8,99.9,81.3,99.9,81.5z"/>
	<path class="st2" d="M35.7,109.7c0.3,0.4-0.5,0.4-0.3,0.7c0.4-0.5,0.8-0.1,1.3-0.6C36.5,109.4,36,109.7,35.7,109.7z"/>
	<path class="st2" d="M97,88.1c0.4,0.4-0.5,0.4-0.3,0.7c1.1-0.4,2.1-0.3,2.6-0.9C98.6,87.9,97.7,88.1,97,88.1z"/>
	<path class="st2" d="M99.6,88c0.3-0.1,1,0,1.1-0.4C100.5,87.5,99.5,87.6,99.6,88z"/>
	<path class="st2" d="M105.4,86.6c0.1,0.3,0.5,0.1,0.7,0.1C106,86.4,105.7,86.5,105.4,86.6z"/>
	<path class="st2" d="M41.4,24.9c0.1-0.5,0.3-0.9-0.1-1.5c-0.4,0.2-0.5-0.2-0.6-0.5c-0.4,0.1-0.3,0-0.6,0.3
		C40.8,23.3,40.6,24.8,41.4,24.9z"/>
	<path class="st2" d="M54.2,19.6c0.5-0.2,1.2-0.4,0.7-0.9C54.5,18.9,54,19.2,54.2,19.6z"/>
	<path class="st2" d="M55,21c0.5,0.2,0.8,0.7,0.5,1.3c-0.2-0.3-0.4,0.2-0.6,0.3c0.2,0.3,0.5,0.3,0.9,0.1c-0.3-0.5,1.1-0.9,1.5-1.1
		c0.1,0.1,0.1,0.3,0.2,0.4c0.6-0.2,0.4-0.6,0.8-0.8c-0.3-0.1-0.2,0.1-0.4,0.3c0-0.1,0-0.3,0.1-0.4c0.4-0.3,0.9,0,0.8-0.5
		c-0.5,0.2-0.1-0.2-0.1-0.3c-0.7,0.4-1.3,0.4-1.8,0.4c0-0.2-0.4-0.5-0.1-0.6c0.2-0.1,0.2,0.1,0.4,0c-0.2-0.5-0.4,0.1-0.9,0
		c-0.1,0.5,0.6,0.7,0.3,1c-0.2-0.2-0.7,0.3-0.8,0.1c0-0.1,0.1-0.2,0.3-0.3C55.9,20.3,55.2,20.8,55,21z"/>
	<path class="st2" d="M58.9,23.3c0.5-0.6,0.2,0.3,0.6,0.4c0-0.5,0.4-0.1,0.6-0.1c0-0.3-0.2-0.7,0.3-0.9c0-0.4-0.6,0.1-0.7-0.2
		c0.5-0.1,0.4-0.4,0.8-0.5c0.3,0.2-0.1,0.5,0.2,0.4c0-0.3,0.4-0.5,0.8-0.7c0.2,0.8-0.5,1.5-1.3,1.7c0.1,0.1,0,0.3,0,0.4
		c0.6,0.2,0.6-0.7,1.1-0.4c0-0.3,0.1-0.6,0.5-0.8c0.1,0.2,0.2,0.3,0.5,0.2c0-0.1,0-0.2,0.2-0.2c-0.7-0.5,0-1.9,1.1-1.6
		c-0.4,0.1-0.6,0.3-0.6,0.5c1.1-0.1,2-1.3,2-1.9c0,0.2-0.8,0.6-1,0.4c0-0.6,1.4-0.8,1.2-1.4c-0.9,0.4-1.6,1-2,1.6
		c-0.2-0.2,0.2-0.6-0.2-0.5c0,0.5-0.3,0.2-0.6,0.3c0,0.4-0.7,0.6-0.7,0.9c-0.5-0.3-1.1-1-0.7-1.6c-0.6-0.2-1.4,0.2-1.5,0.8
		c1.3-0.6,1,0.6,1.5,1.1c-0.6,0.2-1.3,1.3-1.9,0.9c-0.3,0.2-0.4,0.5-0.7,0.7C58.7,22.9,58.8,23.1,58.9,23.3z"/>
	<path class="st2" d="M23.4,43.5c-0.4-0.7,0.7-1.2,1.1-1.1c-0.4-0.7,0.4-0.8,0.8-0.7c0-0.4-0.7,0-0.4-0.3c0.4-0.3,0.5,0,0.9-0.3
		c0.1-0.6,0.9-1,1-1.6c0.5,0.2-0.1,0.5,0.3,0.7c0.5-0.2,0.4-0.3,0.8-0.4c-0.1-0.7,0.1-1.3,0.8-1.8c0-0.3-0.6-0.1-0.3-0.4
		c0.1-0.1,0.9-0.2,1,0.3c-0.5,0-0.7,0.4-0.4,0.9c1-0.5,1.4-1.2,2.2-1.8c0.2,0.3-0.1,0.3-0.1,0.5c0.4-0.4,0.7-1.2,1.3-0.8
		c-0.5-0.4,0.1-1,0.7-1.6c0-0.4-0.3-0.2-0.4-0.3c0.2-0.3,0.9-0.3,0.9-0.9c-1.4-0.2-1.8,1.4-3.3,1.8c0,0.1,0,0.3-0.1,0.4
		c-1.4-0.1-2.4,1.7-3.8,2.6c-2,1.3-3.8,3.1-4.4,4.5C22.2,43.9,22.8,43.8,23.4,43.5z M30.1,36.8c-0.2,0.3-0.3,0.6-0.7,0.8
		c-0.1-0.1-0.1-0.3-0.2-0.4C29.5,37,29.8,36.9,30.1,36.8z"/>
	<path class="st2" d="M53.8,29.3c0-0.3,0.7,0,0.5-0.5C54.1,28.6,53.5,29.3,53.8,29.3z"/>
	<path class="st2" d="M14.2,52.2c-0.6,0.2-1.1,0.4-1.3,0.6C13.2,52.8,14.1,52.4,14.2,52.2z"/>
	<path class="st2" d="M71.6,16.4c-0.1-0.3-0.2-0.5-0.4-0.6c-0.6,0.4-0.9,1-1.4,1.5C70.4,16.8,71.2,16.8,71.6,16.4z"/>
	<path class="st2" d="M44,107.1c-1,0.3-1.6,1-2.4,0.9c-1.3,1.2-3.2,1.6-3.9,2.8c4.5-2.2,9.9-4.7,16.1-7.2c0.3-0.1-0.1-0.4,0.3-0.5
		c0,0.2-0.3,0.4,0.1,0.5c1.8-1.1,4.8-2,5.9-2.8c-7.9,1.8-15.7,4.8-21.6,8.2C40,108.9,42.7,107.1,44,107.1z M53.4,103.2
		c0.2,0.4-0.8,0.6-1,0.6C52.4,103.5,53.1,103.4,53.4,103.2z M45.5,106.3c0.1,0.3-0.6,0.4-0.7,0.3C44.8,106.4,45.4,106.3,45.5,106.3z
		"/>
	<path class="st2" d="M49.4,21.7c0.1-0.2-0.1-0.8-0.4-0.7C48.7,21.2,48.9,22,49.4,21.7z"/>
	<path class="st2" d="M68,14.9c-0.3-0.5-0.5-0.4-0.6-1c-1,0.3-0.3,1.1-0.1,1.5C67.7,15.3,67.5,14.9,68,14.9z"/>
	<path class="st2" d="M54.1,22.3c0.3,0,0.3,0.8,0.7,0.6c-0.1-0.4,0.1-0.8,0.6-1c-0.2-0.6-1.2,0.3-1.5-0.1c-0.1,1-2.2,1-2.1,1.9
		c0.2,0,0.4,0,0.5,0.3C52,24,51.9,24.1,51.7,24c0.2,0.1,0.2,0.6,0.6,0.4C52.1,23.3,53.3,22.9,54.1,22.3z"/>
	<path class="st2" d="M37.5,29.4c-0.1,0.4,0.5,0.7,0.5,1.3c0.2-0.1,0.3-0.1,0.5-0.2C38.2,30.1,38.1,29.3,37.5,29.4z"/>
	<path class="st2" d="M67.3,19.9c0.1-0.6,0.2-1.6,0.9-1.8c0-0.2-0.2-0.4-0.1-0.5c0.6,0,0.8-0.6,0.9-0.5c-0.1,0.5-0.8,0.8-0.7,1.4
		c-0.1-0.2-0.2-0.2-0.4-0.2c-0.1,1.3,0.9,1.3,1.8,0.9c-0.4-0.6-0.4-0.7-0.7-1.3c0.9-0.3,0.1-1.2,1.1-1.5c-1,0.2-1.9,0.7-2.8,0.6
		c0.2,0.3,0.5,0.5,0.2,0.8c-0.2,0.1-0.3-0.2-0.6,0c0,0.5-0.2,0.7,0.2,1.2c-0.2,0.1-0.3,0.1-0.5,0.2C66.9,19.4,66.9,20.2,67.3,19.9z"
		/>
	<path class="st2" d="M33.8,34.9c0.7-0.3,1.4-1.3,1.9-1.1c-0.2,0.5-1.1,0.7-1,1.3c0.8-0.3,0.9-0.8,1.4-1.2c-0.3-0.3-0.2-0.4,0-0.6
		c0.1,0.1,0.2,0.1,0.3,0c0.1,0.2,0,0.3,0.1,0.5c0.5-0.3,1-0.6,1.3-1c-0.4,0.2-0.7,0.3-1.1,0.5c-0.1-0.3-0.2-0.6-0.4-0.8
		c0.1-0.1,0.3-0.1,0.3-0.3c-0.5,0.1-0.6,0-0.3-0.4c-1.2,0.3-2.2,1.5-2.5,2.4c0.3-0.2,0.5-0.4,0.8-0.2C34.5,34.3,33.7,34.5,33.8,34.9
		z M36.1,32.7c0.4,0.8-1,0.4-1.1,1.1c-0.1-0.2-0.2-0.2-0.3-0.4C35,33,35.5,32.9,36.1,32.7z"/>
	<path class="st2" d="M39,32.5c0.7-0.3,1-0.7,1.2-1.2C39.3,31.2,38.6,31.9,39,32.5z"/>
</g>
</svg>
