<?xml version="1.0" encoding="utf-8"?>
<!-- Generator: Adobe Illustrator 19.2.1, SVG Export Plug-In . SVG Version: 6.00 Build 0)  -->
<svg version="1.1" id="图层_1" xmlns="http://www.w3.org/2000/svg" xmlns:xlink="http://www.w3.org/1999/xlink" x="0px" y="0px"
	 viewBox="0 0 140.8 140.8" style="enable-background:new 0 0 140.8 140.8;" xml:space="preserve">
<style type="text/css">
	.st0{fill:#FFFFFF;}
	.st1{fill-rule:evenodd;clip-rule:evenodd;fill:#231815;}
	.st2{fill:#231815;}
	.st3{fill-rule:evenodd;clip-rule:evenodd;}
</style>
<g id="污点矢量包_10">
</g>
<g id="污点矢量包_09">
</g>
<path class="st2" d="M140.8,135.1V133c0-0.8-0.5-1.6-1.3-1.8c-1.6-0.6-2.7-2.1-2.7-3.8s1.1-3.3,2.7-3.8c0.8-0.3,1.3-1,1.3-1.8v-1.3
	c0-0.8-0.5-1.6-1.3-1.8c-1.6-0.6-2.7-2.1-2.7-3.8s1.1-3.3,2.7-3.8c0.8-0.3,1.3-1,1.3-1.8v-1.3c0-0.8-0.5-1.6-1.3-1.8
	c-1.6-0.6-2.7-2.1-2.7-3.8c0-1.8,1.1-3.3,2.7-3.8c0.8-0.3,1.3-1,1.3-1.8V95c0-0.8-0.5-1.6-1.3-1.8c-1.6-0.6-2.7-2.1-2.7-3.8
	c0-1.8,1.1-3.3,2.7-3.8c0.8-0.3,1.3-1,1.3-1.8v-1.3c0-0.8-0.5-1.6-1.3-1.8c-1.6-0.6-2.7-2.1-2.7-3.8c0-1.8,1.1-3.3,2.7-3.8
	c0.8-0.3,1.3-1,1.3-1.8v-1.3c0-0.8-0.5-1.6-1.3-1.8c-1.6-0.6-2.7-2.1-2.7-3.8c0-1.8,1.1-3.3,2.7-3.8c0.8-0.3,1.3-1,1.3-1.8v-1.3
	c0-0.8-0.5-1.6-1.3-1.8c-1.6-0.6-2.7-2.1-2.7-3.8c0-1.8,1.1-3.3,2.7-3.8c0.8-0.3,1.3-1,1.3-1.8v-1.3c0-0.8-0.5-1.6-1.3-1.8
	c-1.6-0.6-2.7-2.1-2.7-3.8s1.1-3.3,2.7-3.8c0.8-0.3,1.3-1,1.3-1.8v-1.3c0-0.8-0.5-1.6-1.3-1.8c-1.6-0.6-2.7-2.1-2.7-3.8
	c0-1.8,1.1-3.3,2.7-3.8c0.8-0.3,1.3-1,1.3-1.8v-1.3c0-0.8-0.5-1.6-1.3-1.8c-1.6-0.6-2.7-2.1-2.7-3.8s1.1-3.3,2.7-3.8
	c0.8-0.3,1.3-1,1.3-1.8V5.5c0-0.8-0.5-1.5-1.3-1.8c-1.1-0.4-2-1.3-2.4-2.4c-0.3-0.8-1-1.3-1.8-1.3H133c-0.8,0-1.6,0.5-1.8,1.3
	c-0.6,1.6-2.1,2.7-3.8,2.7s-3.3-1.1-3.8-2.7c-0.3-0.8-1-1.3-1.8-1.3h-1.3c-0.8,0-1.6,0.5-1.8,1.3c-0.6,1.6-2.1,2.7-3.8,2.7
	c-1.8,0-3.3-1.1-3.8-2.7c-0.3-0.8-1-1.3-1.8-1.3h-1.3c-0.8,0-1.6,0.5-1.8,1.3C105.3,2.9,103.8,4,102,4c-1.8,0-3.3-1.1-3.8-2.7
	c-0.3-0.8-1-1.3-1.8-1.3H95c-0.8,0-1.6,0.5-1.8,1.3C92.6,2.9,91.1,4,89.4,4c-1.8,0-3.3-1.1-3.8-2.7c-0.3-0.8-1-1.3-1.8-1.3h-1.3
	c-0.8,0-1.6,0.5-1.8,1.3C80,2.9,78.5,4,76.7,4c-1.8,0-3.3-1.1-3.8-2.7c-0.3-0.8-1-1.3-1.8-1.3h-1.3c-0.8,0-1.6,0.5-1.8,1.3
	C67.4,2.9,65.9,4,64.1,4c-1.8,0-3.3-1.1-3.8-2.7C60,0.5,59.3,0,58.4,0h-1.3c-0.8,0-1.6,0.5-1.8,1.3C54.7,2.9,53.2,4,51.5,4
	c-1.8,0-3.3-1.1-3.8-2.7c-0.3-0.8-1-1.3-1.8-1.3h-1.3c-0.8,0-1.6,0.5-1.8,1.3C42.1,2.9,40.6,4,38.8,4S35.5,2.9,35,1.3
	C34.7,0.5,34,0,33.1,0h-1.3C31,0,30.3,0.5,30,1.3C29.4,2.9,27.9,4,26.2,4c-1.8,0-3.3-1.1-3.8-2.7c-0.3-0.8-1-1.3-1.8-1.3h-1.3
	c-0.8,0-1.6,0.5-1.8,1.3C16.8,2.9,15.3,4,13.5,4s-3.3-1.1-3.8-2.7C9.4,0.5,8.7,0,7.9,0H5.7C4.8,0,4.1,0.5,3.8,1.4
	c-0.3,1-1,2.2-2.5,2.6C0.5,4.2,0,5,0,5.8v2c0,0.8,0.5,1.6,1.3,1.8C2.9,10.3,4,11.8,4,13.5c0,1.8-1.1,3.3-2.7,3.8
	c-0.8,0.3-1.3,1-1.3,1.8v1.3c0,0.8,0.5,1.6,1.3,1.8C2.9,22.9,4,24.4,4,26.2c0,1.8-1.1,3.3-2.7,3.8C0.5,30.3,0,31,0,31.8v1.3
	C0,34,0.5,34.7,1.3,35C2.9,35.5,4,37,4,38.8c0,1.8-1.1,3.3-2.7,3.8c-0.8,0.3-1.3,1-1.3,1.8v1.3c0,0.8,0.5,1.6,1.3,1.8
	C2.9,48.2,4,49.7,4,51.5s-1.1,3.3-2.7,3.8c-0.8,0.3-1.3,1-1.3,1.8v1.3c0,0.8,0.5,1.6,1.3,1.8C2.9,60.8,4,62.3,4,64.1
	c0,1.8-1.1,3.3-2.7,3.8c-0.8,0.3-1.3,1-1.3,1.8v1.3c0,0.8,0.5,1.6,1.3,1.8C2.9,73.5,4,75,4,76.7c0,1.8-1.1,3.3-2.7,3.8
	c-0.8,0.3-1.3,1-1.3,1.8v1.3c0,0.8,0.5,1.6,1.3,1.8C2.9,86.1,4,87.6,4,89.4c0,1.8-1.1,3.3-2.7,3.8C0.5,93.5,0,94.2,0,95v1.3
	c0,0.8,0.5,1.6,1.3,1.8C2.9,98.7,4,100.2,4,102c0,1.8-1.1,3.3-2.7,3.8c-0.8,0.3-1.3,1-1.3,1.8v1.3c0,0.8,0.5,1.6,1.3,1.8
	c1.6,0.6,2.7,2.1,2.7,3.8s-1.1,3.3-2.7,3.8c-0.8,0.3-1.3,1-1.3,1.8v1.3c0,0.8,0.5,1.6,1.3,1.8c1.6,0.6,2.7,2.1,2.7,3.8
	s-1.1,3.3-2.7,3.8c-0.8,0.3-1.3,1-1.3,1.8v2.3c0,0.8,0.6,1.6,1.4,1.9c1.1,0.4,2.1,1.3,2.5,2.4c0.3,0.8,1,1.3,1.8,1.3h2.2
	c0.8,0,1.6-0.5,1.8-1.3c0.6-1.6,2.1-2.7,3.8-2.7s3.3,1.1,3.8,2.7c0.3,0.8,1,1.3,1.8,1.3h1.3c0.8,0,1.6-0.5,1.8-1.3
	c0.6-1.6,2.1-2.7,3.8-2.7c1.8,0,3.3,1.1,3.8,2.7c0.3,0.8,1,1.3,1.8,1.3h1.3c0.8,0,1.6-0.5,1.8-1.3c0.6-1.6,2.1-2.7,3.8-2.7
	s3.3,1.1,3.8,2.7c0.3,0.8,1,1.3,1.8,1.3h1.3c0.8,0,1.6-0.5,1.8-1.3c0.6-1.6,2.1-2.7,3.8-2.7c1.8,0,3.3,1.1,3.8,2.7
	c0.3,0.8,1,1.3,1.8,1.3h1.3c0.8,0,1.6-0.5,1.8-1.3c0.6-1.6,2.1-2.7,3.8-2.7c1.8,0,3.3,1.1,3.8,2.7c0.3,0.8,1,1.3,1.8,1.3h1.3
	c0.8,0,1.6-0.5,1.8-1.3c0.6-1.6,2.1-2.7,3.8-2.7c1.8,0,3.3,1.1,3.8,2.7c0.3,0.8,1,1.3,1.8,1.3h1.3c0.8,0,1.6-0.5,1.8-1.3
	c0.6-1.6,2.1-2.7,3.8-2.7c1.8,0,3.3,1.1,3.8,2.7c0.3,0.8,1,1.3,1.8,1.3h1.3c0.8,0,1.6-0.5,1.8-1.3c0.6-1.6,2.1-2.7,3.8-2.7
	c1.8,0,3.3,1.1,3.8,2.7c0.3,0.8,1,1.3,1.8,1.3h1.3c0.8,0,1.6-0.5,1.8-1.3c0.6-1.6,2.1-2.7,3.8-2.7c1.8,0,3.3,1.1,3.8,2.7
	c0.3,0.8,1,1.3,1.8,1.3h1.3c0.8,0,1.6-0.5,1.8-1.3c0.6-1.6,2.1-2.7,3.8-2.7s3.3,1.1,3.8,2.7c0.3,0.8,1,1.3,1.8,1.3h2.2
	c0.8,0,1.6-0.6,1.8-1.3c0.4-1.2,1.3-2.2,2.5-2.6C140.3,136.6,140.8,135.9,140.8,135.1z"/>
</svg>
