<?xml version="1.0" encoding="utf-8"?>
<!-- Generator: Adobe Illustrator 19.2.1, SVG Export Plug-In . SVG Version: 6.00 Build 0)  -->
<svg version="1.1" id="图层_1" xmlns="http://www.w3.org/2000/svg" xmlns:xlink="http://www.w3.org/1999/xlink" x="0px" y="0px"
	 viewBox="0 0 150.2 115" style="enable-background:new 0 0 150.2 115;" xml:space="preserve">
<style type="text/css">
	.st0{fill:#FFFFFF;}
	.st1{fill-rule:evenodd;clip-rule:evenodd;fill:#231815;}
	.st2{fill:#231815;}
	.st3{fill-rule:evenodd;clip-rule:evenodd;}
</style>
<g id="污点矢量包_10">
	<path class="st1" d="M12,40.3C9.5,43.5,15.8,41.8,12,40.3L12,40.3z M3.7,91.4c0.6,0.4,2.5,1.7,2.8,0.3C6.1,91.2,3.9,90.1,3.7,91.4z
		 M15.7,92.9c2.6,0.8,5.2-1.4,4.8-4.9C16.7,81.4,9.6,91,15.7,92.9z M40,27.2c0.5-1.6-1-3.3-1.8-3.5C39,24.8,38.9,26.3,40,27.2z
		 M50,39.4c-0.7-1.3-0.7-3-1.2-4.4c0-1,0.4-0.9,0.3-1.9c-1.5-0.6-1-4.2-2.4-3.4C47.8,32.8,47.7,37.7,50,39.4z M87.5,37.8
		c-0.8,0.1-2.5,0.9-2.1,1.9C86.1,39,87.1,39,87.5,37.8z M83.9,56.1c0.2-1-0.2-1.7-0.7-2.3C83.2,54.7,83,55.7,83.9,56.1z M78.8,97.5
		c0.5-0.8-0.1-1.1-0.7-1.4C77.9,96.7,78.1,97.2,78.8,97.5z M147.3,29.6c-1.9-1-3.3,0.9-4.6,1.7c-7.2,4.1-15.6,5.7-22.5,10.2
		c-4.2,1.9-8.7,2.8-13.1,4.5c-2.5,1-4.7,2.6-7.2,3.5c-3.8,1.4-7.8,2.3-11.2,4c-3.2,1.6-9.7,6.3-12.4,2.4c2.7-4.3,1.7-10.7,6.3-13.4
		c-1.4-0.2-1.1,0.8-2.5-0.2c-1.7,1.2-2.6,4-4.7,4.6c-0.9-1.2-3.5-1.4-4.1-2.8c3.6-3.2,7.3-8.8,7.8-14.4c-2.5,2.3-3.3,8.9-6.4,11
		c-0.5-0.4-0.7-1-1.7-1.1c-2.7,1.7-4.9,4.5-8.3,4.9c-0.4-0.7,0.2-1,0.5-1.6c-0.8-0.5-0.6,0.8-1.3,0.5c0.3-2.6-1.1-5.5-1.1-8.5
		c0-3,1.8-6.6-0.7-8.7c-2.7,2-0.2,6.2-0.8,9.6c-0.1,0.7-0.7,1.3-0.9,2c-0.5,2,0.1,4.9-1.9,5.8c-1.6-2.4-4.2-4.7-5.2-7.5
		c-0.4-1,0-2.8-1.3-3c0.9,3.9,1.2,8,2.7,11.6c-2.9,5.2-6.9,1.8-9.5-1.3c-1-1.2-2.1-2-2.7-2.6c-0.9-1.1-1.1-2.9-1.9-4.1
		c-1.4-2.1-3.1-3.7-3.6-5.2c-0.3-0.9,0.1-2-0.2-3c-0.3-1.2-1.7-2.5-2.5-4c-0.9-1.7-1.3-3.8-2.2-5.1c-0.7-1-2-1.4-2.7-2.3
		c-2.6-3.1-3.8-7.3-6.7-9.1c-1,0-1.6,0.8-1.9,2.3c1.1,2.9,3.9,5,5,8c0.3,0.9,0,2.1,0.5,3.1c0.8,1.4,2.3,1.7,3.4,2.8
		c1.4,1.3,1.9,3.6,3.2,5.4c0.7,0.9,1.8,1.4,2.5,2.2c3.8,4.8,5.4,11.4,8.9,15.6c-0.4,1.6,0.8,3.5-0.7,5c-1-0.7-2.6-1-2.8-2.1
		c-1.4,3.1-3.7,4.5-6.7,4.5c-2.4-1.9-5.9-5.2-9.1-5.2c-1.1,2.5,1.9,3,3.4,4c3.7,2.3,8.1,5.9,6.2,9.8c0.4,0.7,1.4,0.1,2.4,0.8
		c0.7,1.6-1.1,4-2.1,4.8c-3.6,3-11.4-0.6-12.2,4.5c5,5.4,10.5-3.7,16.8,0.2c1.2,2.1,2.1,5.7-1.4,6.2c-0.5,1.4,1.9,1.4,1.4,2.8
		c0.1,1.1-0.9,0.3-0.9,1.1c0.4,0.2,0.9,0.3,0.6,0.8c-0.5,3.8-4.6,8.5-1.1,9.8c1.6-1.6,1.7-6.1,5.1-4.2c0.6,3.2-2.3,5-3.1,8
		c-1,1.2-4.4,4-2.4,5.6c4.3-2.6,5.4-11.5,10.6-12.3c1.2,2.2,1.1,7.1,0.6,10.1c-0.4,2.5-4.4,9.2-1.5,12c2.8,2.8,6.5-2.1,7-4.7
		c0.8-4.2-4.4-8.2-3.5-12.7c0.2-1.2,1.1-3.4,2-4.6c0.9-1.1,4.6-3.9,6.7-4.5c2.5-0.8,4.4-1.4,7.1-0.3c4,4,8.5,7,10.4,12
		c0.7,1.8,0.3,4.8,3,5c1.5-1.6,0-3.5-1.2-4.5c-0.8-2.9-2-5.6-3.5-8.1c0.1-1.1,0.3-2.2,0.8-3.5c1.3-0.7,2.7-1.4,3.4-3.3
		c0.6-0.3,1,0.6,2.1,0.7c0.7-0.3,1-1.5,1.9-1.4c4.4,0.7,7.2,2.6,11.2,3.9c3.6,1.2,4.8,4.3,7.8,5.7c3.2,1.5,4.4,2.7,7.1,3.2
		c1.4-0.7,1.5-2.1,1.1-3.4c-3.9-2.2-4.7-5.7-9-6.4c-1-0.2-2.1,0.4-3.2,0.1c-3.5-0.9-6.4-4.2-10.1-5.6c0-2.1-2-3.2-3.5-4.6
		c0.4-0.8,1.1-0.7,0.9-1.8c-0.3-0.6-1.5-0.8-1.5-1.6c0.6-0.4,0.5-2.2,1.6-1.5c0.6-0.9-1.1-1-0.1-1.5c2.9-1.6,6.5,3.1,8.9,1.1
		c-0.3-3.7-7.5-1.2-7.8-4.5c1.1-0.4,3,0.7,3.5-0.9c-2-0.9-3.8,0.7-5.9,0.2c-1.2-0.3-2.2-1.5-3.4-2c-0.5-0.2-3.3,0.1-3-1.5
		c0.5,0.1,1.1,1.2,1.6,0.5c-0.7-0.4-1.8-0.7-1.9-1.5c1.5-1.8,3.8-2,6-2.4c7.8-5,16.5-8.5,25.2-11.7c0.3,0.1,0.2,0.3,0.4,0.4
		c-0.1,0.4-0.1,0.6,0,0.9c1.2,0.4-0.1-0.7,0.1-1.1c3.3-3,7.8-3.1,12.1-4.3c4.5-1.2,9.4-4.6,14-6.6c3.4-1.5,6.7-3.3,9.9-4.7
		C145.5,32,148.1,32.3,147.3,29.6z M26.7,5.2C25.4,3.7,25.3,1.5,24,0C24.3,1.9,25.5,4.5,26.7,5.2z M33.6,17.3
		c-0.6-0.6-0.3-1.8-1.3-2.2C32.2,16,33.2,17.4,33.6,17.3z M37.5,74.9c-1.4,0.1-4.3-0.3-4.5,0.6C34.4,75.2,36.4,75.9,37.5,74.9z
		 M0,64.5c1.2,0.1,1.9-0.2,1.9-1.4C0.7,63,0,63.4,0,64.5z M146.9,76.9c0.7,0.6,1.1,0.2,2.2,0.2c0.4-0.9,1.1-1.5,1.1-2.8
		C148.4,73.7,146.8,75,146.9,76.9z"/>
</g>
<g id="污点矢量包_09">
</g>
</svg>
